M48
; DRILL file {KiCad (6.0.8)} date Tue Nov 29 14:53:18 2022
; FORMAT={-:-/ absolute / inch / decimal}
; #@! TF.CreationDate,2022-11-29T14:53:18+01:00
; #@! TF.GenerationSoftware,Kicad,Pcbnew,(6.0.8)
; #@! TF.FileFunction,Plated,1,2,PTH
FMAT,2
INCH
; #@! TA.AperFunction,Plated,PTH,ComponentDrill
T1C0.0295
; #@! TA.AperFunction,Plated,PTH,ComponentDrill
T2C0.0315
; #@! TA.AperFunction,Plated,PTH,ComponentDrill
T3C0.0354
; #@! TA.AperFunction,Plated,PTH,ComponentDrill
T4C0.0374
; #@! TA.AperFunction,Plated,PTH,ComponentDrill
T5C0.0984
%
G90
G05
T1
X4.6925Y-2.6783
X4.6925Y-2.9909
X4.7925Y-2.6783
X4.7925Y-2.9909
X4.8925Y-2.6783
X4.8925Y-2.9909
X4.9925Y-2.6783
X4.9925Y-2.9909
T2
X4.0945Y-2.4878
X4.0945Y-2.7878
X4.2913Y-2.4878
X4.2913Y-2.7878
X4.4882Y-2.5272
X4.4882Y-2.8272
X4.4882Y-2.9209
X4.4882Y-3.2209
X4.6925Y-2.5197
X4.7835Y-3.1496
X4.9803Y-3.1496
X4.9925Y-2.5197
X5.2362Y-2.6846
X5.2362Y-2.9846
X5.5118Y-2.6846
X5.5118Y-2.9846
X5.7874Y-2.6846
X5.7874Y-2.9846
X6.0646Y-2.6846
X6.0646Y-2.9846
T3
X4.2126Y-2.9315
X4.2126Y-3.0315
X5.2362Y-3.1102
X5.2362Y-3.2102
X5.5118Y-3.1102
X5.5118Y-3.2102
X5.7874Y-3.1283
X5.7874Y-3.2283
X6.063Y-3.1283
X6.063Y-3.2283
T4
X3.9862Y-3.2884
X4.0846Y-3.2884
X4.1831Y-3.2884
X4.2815Y-3.2884
T5
X3.937Y-2.5197
X4.9606Y-3.3071
X6.0236Y-2.5197
T0
M30
