%TF.GenerationSoftware,KiCad,Pcbnew,(6.0.8)*%
%TF.CreationDate,2022-11-29T14:53:20+01:00*%
%TF.ProjectId,l_g_d_d,6c5f675f-645f-4642-9e6b-696361645f70,rev?*%
%TF.SameCoordinates,Original*%
%TF.FileFunction,Copper,L1,Top*%
%TF.FilePolarity,Positive*%
%FSLAX46Y46*%
G04 Gerber Fmt 4.6, Leading zero omitted, Abs format (unit mm)*
G04 Created by KiCad (PCBNEW (6.0.8)) date 2022-11-29 14:53:20*
%MOMM*%
%LPD*%
G01*
G04 APERTURE LIST*
G04 Aperture macros list*
%AMRoundRect*
0 Rectangle with rounded corners*
0 $1 Rounding radius*
0 $2 $3 $4 $5 $6 $7 $8 $9 X,Y pos of 4 corners*
0 Add a 4 corners polygon primitive as box body*
4,1,4,$2,$3,$4,$5,$6,$7,$8,$9,$2,$3,0*
0 Add four circle primitives for the rounded corners*
1,1,$1+$1,$2,$3*
1,1,$1+$1,$4,$5*
1,1,$1+$1,$6,$7*
1,1,$1+$1,$8,$9*
0 Add four rect primitives between the rounded corners*
20,1,$1+$1,$2,$3,$4,$5,0*
20,1,$1+$1,$4,$5,$6,$7,0*
20,1,$1+$1,$6,$7,$8,$9,0*
20,1,$1+$1,$8,$9,$2,$3,0*%
G04 Aperture macros list end*
%TA.AperFunction,ComponentPad*%
%ADD10C,4.000000*%
%TD*%
%TA.AperFunction,ComponentPad*%
%ADD11C,1.600000*%
%TD*%
%TA.AperFunction,ComponentPad*%
%ADD12O,1.600000X1.600000*%
%TD*%
%TA.AperFunction,ComponentPad*%
%ADD13R,1.800000X1.800000*%
%TD*%
%TA.AperFunction,ComponentPad*%
%ADD14C,1.800000*%
%TD*%
%TA.AperFunction,ComponentPad*%
%ADD15RoundRect,0.250000X0.600000X0.725000X-0.600000X0.725000X-0.600000X-0.725000X0.600000X-0.725000X0*%
%TD*%
%TA.AperFunction,ComponentPad*%
%ADD16O,1.700000X1.950000*%
%TD*%
%TA.AperFunction,ComponentPad*%
%ADD17R,1.250000X1.250000*%
%TD*%
%TA.AperFunction,ComponentPad*%
%ADD18C,1.250000*%
%TD*%
%TA.AperFunction,Conductor*%
%ADD19C,0.250000*%
%TD*%
G04 APERTURE END LIST*
D10*
%TO.P,,1*%
%TO.N,GND*%
X100000000Y-64000000D03*
%TD*%
%TO.P,,1*%
%TO.N,GND*%
X153000000Y-64000000D03*
%TD*%
%TO.P,,1*%
%TO.N,GND*%
X126000000Y-84000000D03*
%TD*%
D11*
%TO.P,10k,1*%
%TO.N,Net-(R_IRR2-Pad1)*%
X140000000Y-75810000D03*
D12*
%TO.P,10k,2*%
%TO.N,VCC*%
X140000000Y-68190000D03*
%TD*%
D13*
%TO.P,D1,1,K*%
%TO.N,Net-(D1-Pad1)*%
X107000000Y-77000000D03*
D14*
%TO.P,D1,2,A*%
%TO.N,VCC*%
X107000000Y-74460000D03*
%TD*%
D13*
%TO.P,IRLED2,1,K*%
%TO.N,GND*%
X154000000Y-82000000D03*
D14*
%TO.P,IRLED2,2,A*%
%TO.N,Net-(R_IRE2-Pad2)*%
X154000000Y-79460000D03*
%TD*%
D11*
%TO.P,1k,1*%
%TO.N,VCC*%
X147000000Y-68190000D03*
D12*
%TO.P,1k,2*%
%TO.N,Net-(IRLED1-Pad2)*%
X147000000Y-75810000D03*
%TD*%
D15*
%TO.P,J1,1,Pin_1*%
%TO.N,Signal2*%
X108750000Y-83525000D03*
D16*
%TO.P,J1,2,Pin_2*%
%TO.N,Signal1*%
X106250000Y-83525000D03*
%TO.P,J1,3,Pin_3*%
%TO.N,GND*%
X103750000Y-83525000D03*
%TO.P,J1,4,Pin_4*%
%TO.N,VCC*%
X101250000Y-83525000D03*
%TD*%
D11*
%TO.P,10k,1*%
%TO.N,VCC*%
X114000000Y-64190000D03*
D12*
%TO.P,10k,2*%
%TO.N,Net-(C1-Pad2)*%
X114000000Y-71810000D03*
%TD*%
D13*
%TO.P,Q2,1,C*%
%TO.N,Net-(R_IRR2-Pad1)*%
X140000000Y-79000000D03*
D14*
%TO.P,Q2,2,E*%
%TO.N,GND*%
X140000000Y-81540000D03*
%TD*%
D17*
%TO.P,U1,1,1OUT*%
%TO.N,Signal1*%
X119190000Y-75970000D03*
D18*
%TO.P,U1,2,1IN\u2212*%
%TO.N,Net-(C1-Pad2)*%
X121730000Y-75970000D03*
%TO.P,U1,3,1IN+*%
%TO.N,Net-(Q1-Pad1)*%
X124270000Y-75970000D03*
%TO.P,U1,4,GND*%
%TO.N,GND*%
X126810000Y-75970000D03*
%TO.P,U1,5,2IN+*%
%TO.N,Net-(R_IRR2-Pad1)*%
X126810000Y-68030000D03*
%TO.P,U1,6,2IN-*%
%TO.N,Net-(C1-Pad2)*%
X124270000Y-68030000D03*
%TO.P,U1,7,2OUT*%
%TO.N,Signal2*%
X121730000Y-68030000D03*
%TO.P,U1,8,VCC*%
%TO.N,VCC*%
X119190000Y-68030000D03*
%TD*%
D11*
%TO.P,10k,1*%
%TO.N,Net-(C1-Pad2)*%
X114000000Y-74190000D03*
D12*
%TO.P,10k,2*%
%TO.N,GND*%
X114000000Y-81810000D03*
%TD*%
D13*
%TO.P,IRLED1,1,K*%
%TO.N,GND*%
X147000000Y-82000000D03*
D14*
%TO.P,IRLED1,2,A*%
%TO.N,Net-(IRLED1-Pad2)*%
X147000000Y-79460000D03*
%TD*%
D11*
%TO.P,1k,1*%
%TO.N,Net-(D1-Pad1)*%
X109000000Y-70810000D03*
D12*
%TO.P,1k,2*%
%TO.N,Signal1*%
X109000000Y-63190000D03*
%TD*%
D11*
%TO.P,C1,1*%
%TO.N,GND*%
X126500000Y-80000000D03*
%TO.P,C1,2*%
%TO.N,Net-(C1-Pad2)*%
X121500000Y-80000000D03*
%TD*%
D13*
%TO.P,Q1,1,C*%
%TO.N,Net-(Q1-Pad1)*%
X133000000Y-79000000D03*
D14*
%TO.P,Q1,2,E*%
%TO.N,GND*%
X133000000Y-81540000D03*
%TD*%
D11*
%TO.P,10k,1*%
%TO.N,VCC*%
X104000000Y-70810000D03*
D12*
%TO.P,10k,2*%
%TO.N,Signal1*%
X104000000Y-63190000D03*
%TD*%
D11*
%TO.P,1k,1*%
%TO.N,VCC*%
X154040000Y-68190000D03*
D12*
%TO.P,1k,2*%
%TO.N,Net-(R_IRE2-Pad2)*%
X154040000Y-75810000D03*
%TD*%
D11*
%TO.P,10k,1*%
%TO.N,Net-(Q1-Pad1)*%
X133000000Y-75810000D03*
D12*
%TO.P,10k,2*%
%TO.N,VCC*%
X133000000Y-68190000D03*
%TD*%
D11*
%TO.P,10k,1*%
%TO.N,VCC*%
X119190000Y-64000000D03*
D12*
%TO.P,10k,2*%
%TO.N,Signal2*%
X126810000Y-64000000D03*
%TD*%
D19*
%TO.N,Net-(D1-Pad1)*%
X109000000Y-75000000D02*
X109000000Y-70810000D01*
X107000000Y-77000000D02*
X109000000Y-75000000D01*
%TO.N,VCC*%
X114000000Y-64190000D02*
X119000000Y-64190000D01*
X107000000Y-74460000D02*
X104000000Y-71460000D01*
X133000000Y-68190000D02*
X140000000Y-68190000D01*
X119000000Y-64190000D02*
X119190000Y-64000000D01*
X101250000Y-83525000D02*
X101250000Y-80210000D01*
X110620000Y-64190000D02*
X104000000Y-70810000D01*
X101250000Y-80210000D02*
X107000000Y-74460000D01*
X114000000Y-64190000D02*
X110620000Y-64190000D01*
X119190000Y-64000000D02*
X119190000Y-68030000D01*
X140000000Y-68190000D02*
X147000000Y-68190000D01*
X147000000Y-68190000D02*
X154040000Y-68190000D01*
X104000000Y-71460000D02*
X104000000Y-70810000D01*
%TO.N,Net-(IRLED1-Pad2)*%
X147000000Y-75810000D02*
X147000000Y-79460000D01*
%TO.N,Net-(C1-Pad2)*%
X114000000Y-71810000D02*
X114000000Y-74190000D01*
X114000000Y-74190000D02*
X119810000Y-74190000D01*
X124270000Y-68030000D02*
X124270000Y-69870000D01*
X121730000Y-75970000D02*
X121730000Y-79770000D01*
X121730000Y-79770000D02*
X121500000Y-80000000D01*
X119950000Y-74190000D02*
X121730000Y-75970000D01*
X124270000Y-69870000D02*
X119950000Y-74190000D01*
X119810000Y-74190000D02*
X119950000Y-74190000D01*
%TO.N,Net-(Q1-Pad1)*%
X127240000Y-73000000D02*
X124270000Y-75970000D01*
X133000000Y-75810000D02*
X130190000Y-73000000D01*
X133000000Y-75810000D02*
X133000000Y-79000000D01*
X130190000Y-73000000D02*
X127240000Y-73000000D01*
%TO.N,Net-(R_IRE2-Pad2)*%
X154040000Y-75810000D02*
X154040000Y-79420000D01*
X154040000Y-79420000D02*
X154000000Y-79460000D01*
%TO.N,Signal1*%
X104000000Y-63190000D02*
X109000000Y-63190000D01*
%TO.N,Net-(R_IRR2-Pad1)*%
X140000000Y-75810000D02*
X140000000Y-79000000D01*
X140000000Y-75810000D02*
X138810000Y-75810000D01*
X129780000Y-71000000D02*
X126810000Y-68030000D01*
X134000000Y-71000000D02*
X129780000Y-71000000D01*
X138810000Y-75810000D02*
X134000000Y-71000000D01*
%TO.N,Signal2*%
X125760000Y-64000000D02*
X126810000Y-64000000D01*
X121730000Y-68030000D02*
X125760000Y-64000000D01*
%TO.N,GND*%
X147000000Y-82000000D02*
X154000000Y-82000000D01*
X140000000Y-81540000D02*
X146540000Y-81540000D01*
X133000000Y-81540000D02*
X128040000Y-81540000D01*
X128040000Y-81540000D02*
X126500000Y-80000000D01*
X133000000Y-81540000D02*
X140000000Y-81540000D01*
X114000000Y-81810000D02*
X106178299Y-81810000D01*
X126500000Y-80000000D02*
X124500000Y-82000000D01*
X106178299Y-81810000D02*
X104463299Y-83525000D01*
X126500000Y-80000000D02*
X126500000Y-76280000D01*
X124500000Y-82000000D02*
X114190000Y-82000000D01*
X146540000Y-81540000D02*
X147000000Y-82000000D01*
X126500000Y-76280000D02*
X126810000Y-75970000D01*
X104463299Y-83525000D02*
X103750000Y-83525000D01*
X114190000Y-82000000D02*
X114000000Y-81810000D01*
%TD*%
%TA.AperFunction,Conductor*%
%TO.N,GND*%
G36*
X157433621Y-60528502D02*
G01*
X157480114Y-60582158D01*
X157491500Y-60634500D01*
X157491500Y-86365500D01*
X157471498Y-86433621D01*
X157417842Y-86480114D01*
X157365500Y-86491500D01*
X127164697Y-86491500D01*
X127096576Y-86471498D01*
X127050083Y-86417842D01*
X127039979Y-86347568D01*
X127069473Y-86282988D01*
X127103996Y-86255085D01*
X127343039Y-86123670D01*
X127349719Y-86119430D01*
X127572823Y-85957336D01*
X127581246Y-85946413D01*
X127574342Y-85933552D01*
X126012812Y-84372022D01*
X125998868Y-84364408D01*
X125997035Y-84364539D01*
X125990420Y-84368790D01*
X124425334Y-85933876D01*
X124418721Y-85945987D01*
X124427548Y-85957605D01*
X124650281Y-86119430D01*
X124656961Y-86123670D01*
X124896004Y-86255085D01*
X124946063Y-86305431D01*
X124960956Y-86374848D01*
X124935955Y-86441297D01*
X124878998Y-86483681D01*
X124835303Y-86491500D01*
X97634500Y-86491500D01*
X97566379Y-86471498D01*
X97519886Y-86417842D01*
X97508500Y-86365500D01*
X97508500Y-83707890D01*
X99891500Y-83707890D01*
X99906080Y-83879720D01*
X99907418Y-83884875D01*
X99907419Y-83884881D01*
X99939785Y-84009580D01*
X99963999Y-84102872D01*
X100058688Y-84313075D01*
X100187441Y-84504319D01*
X100191120Y-84508176D01*
X100191122Y-84508178D01*
X100252710Y-84572738D01*
X100346576Y-84671135D01*
X100531542Y-84808754D01*
X100536293Y-84811170D01*
X100536297Y-84811172D01*
X100599481Y-84843296D01*
X100737051Y-84913240D01*
X100742145Y-84914822D01*
X100742148Y-84914823D01*
X100907583Y-84966192D01*
X100957227Y-84981607D01*
X100962516Y-84982308D01*
X101180489Y-85011198D01*
X101180494Y-85011198D01*
X101185774Y-85011898D01*
X101191103Y-85011698D01*
X101191105Y-85011698D01*
X101300966Y-85007574D01*
X101416158Y-85003249D01*
X101438802Y-84998498D01*
X101636572Y-84957002D01*
X101641791Y-84955907D01*
X101646750Y-84953949D01*
X101646752Y-84953948D01*
X101851256Y-84873185D01*
X101851258Y-84873184D01*
X101856221Y-84871224D01*
X101861525Y-84868006D01*
X102048757Y-84754390D01*
X102048756Y-84754390D01*
X102053317Y-84751623D01*
X102093134Y-84717072D01*
X102223412Y-84604023D01*
X102223414Y-84604021D01*
X102227445Y-84600523D01*
X102291048Y-84522954D01*
X102370240Y-84426373D01*
X102370244Y-84426367D01*
X102373624Y-84422245D01*
X102387413Y-84398022D01*
X102391829Y-84390265D01*
X102442912Y-84340959D01*
X102512542Y-84327098D01*
X102578613Y-84353082D01*
X102605851Y-84382232D01*
X102684852Y-84499578D01*
X102691519Y-84507870D01*
X102843228Y-84666900D01*
X102851186Y-84673941D01*
X103027525Y-84805141D01*
X103036562Y-84810745D01*
X103232484Y-84910357D01*
X103242335Y-84914357D01*
X103452240Y-84979534D01*
X103462624Y-84981817D01*
X103478043Y-84983861D01*
X103492207Y-84981665D01*
X103496000Y-84968478D01*
X103496000Y-84966192D01*
X104004000Y-84966192D01*
X104007973Y-84979723D01*
X104018580Y-84981248D01*
X104136421Y-84956523D01*
X104146617Y-84953463D01*
X104351029Y-84872737D01*
X104360561Y-84868006D01*
X104548462Y-84753984D01*
X104557052Y-84747720D01*
X104723052Y-84603673D01*
X104730472Y-84596042D01*
X104869826Y-84426089D01*
X104875848Y-84417326D01*
X104891238Y-84390289D01*
X104942320Y-84340982D01*
X105011951Y-84327120D01*
X105078022Y-84353103D01*
X105105261Y-84382253D01*
X105134773Y-84426089D01*
X105187441Y-84504319D01*
X105191120Y-84508176D01*
X105191122Y-84508178D01*
X105252710Y-84572738D01*
X105346576Y-84671135D01*
X105531542Y-84808754D01*
X105536293Y-84811170D01*
X105536297Y-84811172D01*
X105599481Y-84843296D01*
X105737051Y-84913240D01*
X105742145Y-84914822D01*
X105742148Y-84914823D01*
X105907583Y-84966192D01*
X105957227Y-84981607D01*
X105962516Y-84982308D01*
X106180489Y-85011198D01*
X106180494Y-85011198D01*
X106185774Y-85011898D01*
X106191103Y-85011698D01*
X106191105Y-85011698D01*
X106300966Y-85007574D01*
X106416158Y-85003249D01*
X106438802Y-84998498D01*
X106636572Y-84957002D01*
X106641791Y-84955907D01*
X106646750Y-84953949D01*
X106646752Y-84953948D01*
X106851256Y-84873185D01*
X106851258Y-84873184D01*
X106856221Y-84871224D01*
X106861525Y-84868006D01*
X107048757Y-84754390D01*
X107048756Y-84754390D01*
X107053317Y-84751623D01*
X107093134Y-84717072D01*
X107223412Y-84604023D01*
X107223414Y-84604021D01*
X107227445Y-84600523D01*
X107256670Y-84564880D01*
X107315329Y-84524886D01*
X107386299Y-84522954D01*
X107447048Y-84559698D01*
X107461248Y-84578468D01*
X107477062Y-84604023D01*
X107551522Y-84724348D01*
X107676697Y-84849305D01*
X107682927Y-84853145D01*
X107682928Y-84853146D01*
X107820090Y-84937694D01*
X107827262Y-84942115D01*
X107862938Y-84953948D01*
X107988611Y-84995632D01*
X107988613Y-84995632D01*
X107995139Y-84997797D01*
X108001975Y-84998497D01*
X108001978Y-84998498D01*
X108037663Y-85002154D01*
X108099600Y-85008500D01*
X109400400Y-85008500D01*
X109403646Y-85008163D01*
X109403650Y-85008163D01*
X109499308Y-84998238D01*
X109499312Y-84998237D01*
X109506166Y-84997526D01*
X109512702Y-84995345D01*
X109512704Y-84995345D01*
X109644806Y-84951272D01*
X109673946Y-84941550D01*
X109824348Y-84848478D01*
X109949305Y-84723303D01*
X109981462Y-84671135D01*
X110038275Y-84578968D01*
X110038276Y-84578966D01*
X110042115Y-84572738D01*
X110097797Y-84404861D01*
X110099293Y-84390265D01*
X110105762Y-84327120D01*
X110108500Y-84300400D01*
X110108500Y-84003958D01*
X123487290Y-84003958D01*
X123506607Y-84310994D01*
X123507600Y-84318855D01*
X123565246Y-84621046D01*
X123567217Y-84628723D01*
X123662284Y-84921309D01*
X123665199Y-84928672D01*
X123796189Y-85207041D01*
X123800001Y-85213974D01*
X123964851Y-85473736D01*
X123969495Y-85480129D01*
X124044497Y-85570790D01*
X124057014Y-85579245D01*
X124067752Y-85573038D01*
X125627978Y-84012812D01*
X125634356Y-84001132D01*
X126364408Y-84001132D01*
X126364539Y-84002965D01*
X126368790Y-84009580D01*
X127931145Y-85571935D01*
X127944407Y-85579177D01*
X127954512Y-85571988D01*
X128030505Y-85480129D01*
X128035149Y-85473736D01*
X128199999Y-85213974D01*
X128203811Y-85207041D01*
X128334801Y-84928672D01*
X128337716Y-84921309D01*
X128432783Y-84628723D01*
X128434754Y-84621046D01*
X128492400Y-84318855D01*
X128493393Y-84310994D01*
X128512710Y-84003958D01*
X128512710Y-83996042D01*
X128493393Y-83689006D01*
X128492400Y-83681145D01*
X128434754Y-83378954D01*
X128432783Y-83371277D01*
X128337716Y-83078691D01*
X128334801Y-83071328D01*
X128203811Y-82792959D01*
X128199999Y-82786026D01*
X128146298Y-82701406D01*
X132203423Y-82701406D01*
X132208704Y-82708461D01*
X132385080Y-82811527D01*
X132394363Y-82815974D01*
X132601003Y-82894883D01*
X132610901Y-82897759D01*
X132827653Y-82941857D01*
X132837883Y-82943076D01*
X133058914Y-82951182D01*
X133069223Y-82950714D01*
X133288623Y-82922608D01*
X133298688Y-82920468D01*
X133510557Y-82856905D01*
X133520152Y-82853144D01*
X133718778Y-82755838D01*
X133727636Y-82750559D01*
X133785097Y-82709572D01*
X133791509Y-82701406D01*
X139203423Y-82701406D01*
X139208704Y-82708461D01*
X139385080Y-82811527D01*
X139394363Y-82815974D01*
X139601003Y-82894883D01*
X139610901Y-82897759D01*
X139827653Y-82941857D01*
X139837883Y-82943076D01*
X140058914Y-82951182D01*
X140069223Y-82950714D01*
X140116411Y-82944669D01*
X145592001Y-82944669D01*
X145592371Y-82951490D01*
X145597895Y-83002352D01*
X145601521Y-83017604D01*
X145646676Y-83138054D01*
X145655214Y-83153649D01*
X145731715Y-83255724D01*
X145744276Y-83268285D01*
X145846351Y-83344786D01*
X145861946Y-83353324D01*
X145982394Y-83398478D01*
X145997649Y-83402105D01*
X146048514Y-83407631D01*
X146055328Y-83408000D01*
X146727885Y-83408000D01*
X146743124Y-83403525D01*
X146744329Y-83402135D01*
X146746000Y-83394452D01*
X146746000Y-83389884D01*
X147254000Y-83389884D01*
X147258475Y-83405123D01*
X147259865Y-83406328D01*
X147267548Y-83407999D01*
X147944669Y-83407999D01*
X147951490Y-83407629D01*
X148002352Y-83402105D01*
X148017604Y-83398479D01*
X148138054Y-83353324D01*
X148153649Y-83344786D01*
X148255724Y-83268285D01*
X148268285Y-83255724D01*
X148344786Y-83153649D01*
X148353324Y-83138054D01*
X148398478Y-83017606D01*
X148402105Y-83002351D01*
X148407631Y-82951486D01*
X148408000Y-82944672D01*
X148408000Y-82944669D01*
X152592001Y-82944669D01*
X152592371Y-82951490D01*
X152597895Y-83002352D01*
X152601521Y-83017604D01*
X152646676Y-83138054D01*
X152655214Y-83153649D01*
X152731715Y-83255724D01*
X152744276Y-83268285D01*
X152846351Y-83344786D01*
X152861946Y-83353324D01*
X152982394Y-83398478D01*
X152997649Y-83402105D01*
X153048514Y-83407631D01*
X153055328Y-83408000D01*
X153727885Y-83408000D01*
X153743124Y-83403525D01*
X153744329Y-83402135D01*
X153746000Y-83394452D01*
X153746000Y-83389884D01*
X154254000Y-83389884D01*
X154258475Y-83405123D01*
X154259865Y-83406328D01*
X154267548Y-83407999D01*
X154944669Y-83407999D01*
X154951490Y-83407629D01*
X155002352Y-83402105D01*
X155017604Y-83398479D01*
X155138054Y-83353324D01*
X155153649Y-83344786D01*
X155255724Y-83268285D01*
X155268285Y-83255724D01*
X155344786Y-83153649D01*
X155353324Y-83138054D01*
X155398478Y-83017606D01*
X155402105Y-83002351D01*
X155407631Y-82951486D01*
X155408000Y-82944672D01*
X155408000Y-82272115D01*
X155403525Y-82256876D01*
X155402135Y-82255671D01*
X155394452Y-82254000D01*
X154272115Y-82254000D01*
X154256876Y-82258475D01*
X154255671Y-82259865D01*
X154254000Y-82267548D01*
X154254000Y-83389884D01*
X153746000Y-83389884D01*
X153746000Y-82272115D01*
X153741525Y-82256876D01*
X153740135Y-82255671D01*
X153732452Y-82254000D01*
X152610116Y-82254000D01*
X152594877Y-82258475D01*
X152593672Y-82259865D01*
X152592001Y-82267548D01*
X152592001Y-82944669D01*
X148408000Y-82944669D01*
X148408000Y-82272115D01*
X148403525Y-82256876D01*
X148402135Y-82255671D01*
X148394452Y-82254000D01*
X147272115Y-82254000D01*
X147256876Y-82258475D01*
X147255671Y-82259865D01*
X147254000Y-82267548D01*
X147254000Y-83389884D01*
X146746000Y-83389884D01*
X146746000Y-82272115D01*
X146741525Y-82256876D01*
X146740135Y-82255671D01*
X146732452Y-82254000D01*
X145610116Y-82254000D01*
X145594877Y-82258475D01*
X145593672Y-82259865D01*
X145592001Y-82267548D01*
X145592001Y-82944669D01*
X140116411Y-82944669D01*
X140288623Y-82922608D01*
X140298688Y-82920468D01*
X140510557Y-82856905D01*
X140520152Y-82853144D01*
X140718778Y-82755838D01*
X140727636Y-82750559D01*
X140785097Y-82709572D01*
X140793497Y-82698874D01*
X140786510Y-82685721D01*
X140012811Y-81912021D01*
X139998868Y-81904408D01*
X139997034Y-81904539D01*
X139990420Y-81908790D01*
X139210180Y-82689031D01*
X139203423Y-82701406D01*
X133791509Y-82701406D01*
X133793497Y-82698874D01*
X133786510Y-82685721D01*
X133012811Y-81912021D01*
X132998868Y-81904408D01*
X132997034Y-81904539D01*
X132990420Y-81908790D01*
X132210180Y-82689031D01*
X132203423Y-82701406D01*
X128146298Y-82701406D01*
X128035149Y-82526264D01*
X128030505Y-82519871D01*
X127955503Y-82429210D01*
X127942986Y-82420755D01*
X127932248Y-82426962D01*
X126372022Y-83987188D01*
X126364408Y-84001132D01*
X125634356Y-84001132D01*
X125635592Y-83998868D01*
X125635461Y-83997035D01*
X125631210Y-83990420D01*
X124068855Y-82428065D01*
X124055593Y-82420823D01*
X124045488Y-82428012D01*
X123969495Y-82519871D01*
X123964851Y-82526264D01*
X123800001Y-82786026D01*
X123796189Y-82792959D01*
X123665199Y-83071328D01*
X123662284Y-83078691D01*
X123567217Y-83371277D01*
X123565246Y-83378954D01*
X123507600Y-83681145D01*
X123506607Y-83689006D01*
X123487290Y-83996042D01*
X123487290Y-84003958D01*
X110108500Y-84003958D01*
X110108500Y-82749600D01*
X110104292Y-82709041D01*
X110098238Y-82650692D01*
X110098237Y-82650688D01*
X110097526Y-82643834D01*
X110093710Y-82632394D01*
X110043868Y-82483002D01*
X110041550Y-82476054D01*
X109948478Y-82325652D01*
X109823303Y-82200695D01*
X109792965Y-82181994D01*
X109678968Y-82111725D01*
X109678966Y-82111724D01*
X109672738Y-82107885D01*
X109578181Y-82076522D01*
X112717273Y-82076522D01*
X112764764Y-82253761D01*
X112768510Y-82264053D01*
X112860586Y-82461511D01*
X112866069Y-82471007D01*
X112991028Y-82649467D01*
X112998084Y-82657875D01*
X113152125Y-82811916D01*
X113160533Y-82818972D01*
X113338993Y-82943931D01*
X113348489Y-82949414D01*
X113545947Y-83041490D01*
X113556239Y-83045236D01*
X113728503Y-83091394D01*
X113742599Y-83091058D01*
X113746000Y-83083116D01*
X113746000Y-83077967D01*
X114254000Y-83077967D01*
X114257973Y-83091498D01*
X114266522Y-83092727D01*
X114443761Y-83045236D01*
X114454053Y-83041490D01*
X114651511Y-82949414D01*
X114661007Y-82943931D01*
X114839467Y-82818972D01*
X114847875Y-82811916D01*
X115001916Y-82657875D01*
X115008972Y-82649467D01*
X115133931Y-82471007D01*
X115139414Y-82461511D01*
X115231490Y-82264053D01*
X115235236Y-82253761D01*
X115281394Y-82081497D01*
X115281058Y-82067401D01*
X115273116Y-82064000D01*
X114272115Y-82064000D01*
X114256876Y-82068475D01*
X114255671Y-82069865D01*
X114254000Y-82077548D01*
X114254000Y-83077967D01*
X113746000Y-83077967D01*
X113746000Y-82082115D01*
X113741525Y-82066876D01*
X113740135Y-82065671D01*
X113732452Y-82064000D01*
X112732033Y-82064000D01*
X112718502Y-82067973D01*
X112717273Y-82076522D01*
X109578181Y-82076522D01*
X109559353Y-82070277D01*
X109511389Y-82054368D01*
X109511387Y-82054368D01*
X109509033Y-82053587D01*
X124418754Y-82053587D01*
X124425658Y-82066448D01*
X125987188Y-83627978D01*
X126001132Y-83635592D01*
X126002965Y-83635461D01*
X126009580Y-83631210D01*
X127574666Y-82066124D01*
X127581279Y-82054013D01*
X127572452Y-82042395D01*
X127349719Y-81880570D01*
X127343039Y-81876330D01*
X127073428Y-81728110D01*
X127066293Y-81724753D01*
X126780230Y-81611492D01*
X126772704Y-81609047D01*
X126557369Y-81553758D01*
X126496363Y-81517444D01*
X126492968Y-81510638D01*
X131587893Y-81510638D01*
X131600627Y-81731468D01*
X131602061Y-81741670D01*
X131650685Y-81957439D01*
X131653773Y-81967292D01*
X131736986Y-82172220D01*
X131741634Y-82181421D01*
X131830097Y-82325781D01*
X131840553Y-82335242D01*
X131849331Y-82331458D01*
X132627979Y-81552811D01*
X132634356Y-81541132D01*
X133364408Y-81541132D01*
X133364539Y-81542966D01*
X133368790Y-81549580D01*
X134146307Y-82327096D01*
X134158313Y-82333652D01*
X134170052Y-82324684D01*
X134208010Y-82271859D01*
X134213321Y-82263020D01*
X134311318Y-82064737D01*
X134315117Y-82055142D01*
X134379415Y-81843517D01*
X134381594Y-81833436D01*
X134410702Y-81612338D01*
X134411221Y-81605663D01*
X134412744Y-81543364D01*
X134412550Y-81536646D01*
X134410412Y-81510638D01*
X138587893Y-81510638D01*
X138600627Y-81731468D01*
X138602061Y-81741670D01*
X138650685Y-81957439D01*
X138653773Y-81967292D01*
X138736986Y-82172220D01*
X138741634Y-82181421D01*
X138830097Y-82325781D01*
X138840553Y-82335242D01*
X138849331Y-82331458D01*
X139627979Y-81552811D01*
X139634356Y-81541132D01*
X140364408Y-81541132D01*
X140364539Y-81542966D01*
X140368790Y-81549580D01*
X141146307Y-82327096D01*
X141158313Y-82333652D01*
X141170052Y-82324684D01*
X141208010Y-82271859D01*
X141213321Y-82263020D01*
X141311318Y-82064737D01*
X141315117Y-82055142D01*
X141379415Y-81843517D01*
X141381594Y-81833436D01*
X141410702Y-81612338D01*
X141411221Y-81605663D01*
X141412744Y-81543364D01*
X141412550Y-81536646D01*
X141394279Y-81314400D01*
X141392596Y-81304238D01*
X141338710Y-81089708D01*
X141335389Y-81079953D01*
X141247193Y-80877118D01*
X141242315Y-80868020D01*
X141169224Y-80755038D01*
X141158538Y-80745835D01*
X141148973Y-80750238D01*
X140372021Y-81527189D01*
X140364408Y-81541132D01*
X139634356Y-81541132D01*
X139635592Y-81538868D01*
X139635461Y-81537034D01*
X139631210Y-81530420D01*
X138853862Y-80753073D01*
X138842330Y-80746776D01*
X138830048Y-80756399D01*
X138774467Y-80837877D01*
X138769379Y-80846833D01*
X138676252Y-81047459D01*
X138672689Y-81057146D01*
X138613581Y-81270280D01*
X138611650Y-81280400D01*
X138588145Y-81500349D01*
X138587893Y-81510638D01*
X134410412Y-81510638D01*
X134394279Y-81314400D01*
X134392596Y-81304238D01*
X134338710Y-81089708D01*
X134335389Y-81079953D01*
X134247193Y-80877118D01*
X134242315Y-80868020D01*
X134169224Y-80755038D01*
X134158538Y-80745835D01*
X134148973Y-80750238D01*
X133372021Y-81527189D01*
X133364408Y-81541132D01*
X132634356Y-81541132D01*
X132635592Y-81538868D01*
X132635461Y-81537034D01*
X132631210Y-81530420D01*
X131853862Y-80753073D01*
X131842330Y-80746776D01*
X131830048Y-80756399D01*
X131774467Y-80837877D01*
X131769379Y-80846833D01*
X131676252Y-81047459D01*
X131672689Y-81057146D01*
X131613581Y-81270280D01*
X131611650Y-81280400D01*
X131588145Y-81500349D01*
X131587893Y-81510638D01*
X126492968Y-81510638D01*
X126464674Y-81453911D01*
X126472364Y-81383332D01*
X126516992Y-81328115D01*
X126577723Y-81306196D01*
X126722520Y-81293528D01*
X126733312Y-81291625D01*
X126943761Y-81235236D01*
X126954053Y-81231490D01*
X127151511Y-81139414D01*
X127161006Y-81133931D01*
X127213048Y-81097491D01*
X127221424Y-81087012D01*
X127214356Y-81073566D01*
X126512812Y-80372022D01*
X126498868Y-80364408D01*
X126497035Y-80364539D01*
X126490420Y-80368790D01*
X125784923Y-81074287D01*
X125778493Y-81086062D01*
X125787789Y-81098077D01*
X125838994Y-81133931D01*
X125848489Y-81139414D01*
X126045947Y-81231490D01*
X126056239Y-81235236D01*
X126090041Y-81244293D01*
X126150664Y-81281245D01*
X126181685Y-81345105D01*
X126173257Y-81415600D01*
X126128054Y-81470347D01*
X126057430Y-81492000D01*
X125846169Y-81492000D01*
X125838278Y-81492497D01*
X125533050Y-81531055D01*
X125525279Y-81532538D01*
X125227296Y-81609047D01*
X125219770Y-81611492D01*
X124933707Y-81724753D01*
X124926572Y-81728110D01*
X124656961Y-81876330D01*
X124650281Y-81880570D01*
X124427177Y-82042664D01*
X124418754Y-82053587D01*
X109509033Y-82053587D01*
X109504861Y-82052203D01*
X109498025Y-82051503D01*
X109498022Y-82051502D01*
X109454969Y-82047091D01*
X109400400Y-82041500D01*
X108099600Y-82041500D01*
X108096354Y-82041837D01*
X108096350Y-82041837D01*
X108000692Y-82051762D01*
X108000688Y-82051763D01*
X107993834Y-82052474D01*
X107987298Y-82054655D01*
X107987296Y-82054655D01*
X107855194Y-82098728D01*
X107826054Y-82108450D01*
X107675652Y-82201522D01*
X107550695Y-82326697D01*
X107477170Y-82445977D01*
X107460920Y-82472339D01*
X107408148Y-82519832D01*
X107338076Y-82531256D01*
X107272952Y-82502982D01*
X107262490Y-82493195D01*
X107201451Y-82429210D01*
X107153424Y-82378865D01*
X106968458Y-82241246D01*
X106963707Y-82238830D01*
X106963703Y-82238828D01*
X106845588Y-82178776D01*
X106762949Y-82136760D01*
X106757855Y-82135178D01*
X106757852Y-82135177D01*
X106547871Y-82069976D01*
X106542773Y-82068393D01*
X106528098Y-82066448D01*
X106319511Y-82038802D01*
X106319506Y-82038802D01*
X106314226Y-82038102D01*
X106308897Y-82038302D01*
X106308895Y-82038302D01*
X106199873Y-82042395D01*
X106083842Y-82046751D01*
X106078623Y-82047846D01*
X106056566Y-82052474D01*
X105858209Y-82094093D01*
X105853250Y-82096051D01*
X105853248Y-82096052D01*
X105648744Y-82176815D01*
X105648742Y-82176816D01*
X105643779Y-82178776D01*
X105639220Y-82181543D01*
X105639217Y-82181544D01*
X105544113Y-82239255D01*
X105446683Y-82298377D01*
X105442653Y-82301874D01*
X105295911Y-82429210D01*
X105272555Y-82449477D01*
X105253809Y-82472339D01*
X105129760Y-82623627D01*
X105129756Y-82623633D01*
X105126376Y-82627755D01*
X105123733Y-82632398D01*
X105108171Y-82659735D01*
X105057088Y-82709041D01*
X104987458Y-82722902D01*
X104921387Y-82696918D01*
X104894149Y-82667768D01*
X104815148Y-82550422D01*
X104808481Y-82542130D01*
X104656772Y-82383100D01*
X104648814Y-82376059D01*
X104472475Y-82244859D01*
X104463438Y-82239255D01*
X104267516Y-82139643D01*
X104257665Y-82135643D01*
X104047760Y-82070466D01*
X104037376Y-82068183D01*
X104021957Y-82066139D01*
X104007793Y-82068335D01*
X104004000Y-82081522D01*
X104004000Y-84966192D01*
X103496000Y-84966192D01*
X103496000Y-82083808D01*
X103492027Y-82070277D01*
X103481420Y-82068752D01*
X103363579Y-82093477D01*
X103353383Y-82096537D01*
X103148971Y-82177263D01*
X103139439Y-82181994D01*
X102951538Y-82296016D01*
X102942948Y-82302280D01*
X102776948Y-82446327D01*
X102769528Y-82453958D01*
X102630174Y-82623911D01*
X102624152Y-82632674D01*
X102608762Y-82659711D01*
X102557680Y-82709018D01*
X102488049Y-82722880D01*
X102421978Y-82696897D01*
X102394739Y-82667747D01*
X102358869Y-82614468D01*
X102312559Y-82545681D01*
X102287938Y-82519871D01*
X102201451Y-82429210D01*
X102153424Y-82378865D01*
X101968458Y-82241246D01*
X101963706Y-82238830D01*
X101963698Y-82238825D01*
X101952394Y-82233078D01*
X101900737Y-82184375D01*
X101883500Y-82120762D01*
X101883500Y-81538503D01*
X112718606Y-81538503D01*
X112718942Y-81552599D01*
X112726884Y-81556000D01*
X113727885Y-81556000D01*
X113743124Y-81551525D01*
X113744329Y-81550135D01*
X113746000Y-81542452D01*
X113746000Y-81537885D01*
X114254000Y-81537885D01*
X114258475Y-81553124D01*
X114259865Y-81554329D01*
X114267548Y-81556000D01*
X115267967Y-81556000D01*
X115281498Y-81552027D01*
X115282727Y-81543478D01*
X115235236Y-81366239D01*
X115231490Y-81355947D01*
X115139414Y-81158489D01*
X115133931Y-81148993D01*
X115008972Y-80970533D01*
X115001916Y-80962125D01*
X114847875Y-80808084D01*
X114839467Y-80801028D01*
X114661007Y-80676069D01*
X114651511Y-80670586D01*
X114454053Y-80578510D01*
X114443761Y-80574764D01*
X114271497Y-80528606D01*
X114257401Y-80528942D01*
X114254000Y-80536884D01*
X114254000Y-81537885D01*
X113746000Y-81537885D01*
X113746000Y-80542033D01*
X113742027Y-80528502D01*
X113733478Y-80527273D01*
X113556239Y-80574764D01*
X113545947Y-80578510D01*
X113348489Y-80670586D01*
X113338993Y-80676069D01*
X113160533Y-80801028D01*
X113152125Y-80808084D01*
X112998084Y-80962125D01*
X112991028Y-80970533D01*
X112866069Y-81148993D01*
X112860586Y-81158489D01*
X112768510Y-81355947D01*
X112764764Y-81366239D01*
X112718606Y-81538503D01*
X101883500Y-81538503D01*
X101883500Y-80524594D01*
X101903502Y-80456473D01*
X101920405Y-80435499D01*
X105376405Y-76979500D01*
X105438717Y-76945474D01*
X105509533Y-76950539D01*
X105566368Y-76993086D01*
X105591179Y-77059606D01*
X105591500Y-77068595D01*
X105591500Y-77948134D01*
X105598255Y-78010316D01*
X105649385Y-78146705D01*
X105736739Y-78263261D01*
X105853295Y-78350615D01*
X105989684Y-78401745D01*
X106051866Y-78408500D01*
X107948134Y-78408500D01*
X108010316Y-78401745D01*
X108146705Y-78350615D01*
X108263261Y-78263261D01*
X108350615Y-78146705D01*
X108401745Y-78010316D01*
X108408500Y-77948134D01*
X108408500Y-76539594D01*
X108428502Y-76471473D01*
X108445401Y-76450503D01*
X109392264Y-75503641D01*
X109400538Y-75496112D01*
X109407018Y-75492000D01*
X109453644Y-75442348D01*
X109456398Y-75439507D01*
X109476135Y-75419770D01*
X109478615Y-75416573D01*
X109486320Y-75407551D01*
X109511159Y-75381100D01*
X109516586Y-75375321D01*
X109520405Y-75368375D01*
X109520407Y-75368372D01*
X109526348Y-75357566D01*
X109537199Y-75341047D01*
X109544758Y-75331301D01*
X109549614Y-75325041D01*
X109552759Y-75317772D01*
X109552762Y-75317768D01*
X109567174Y-75284463D01*
X109572391Y-75273813D01*
X109593695Y-75235060D01*
X109598733Y-75215437D01*
X109605137Y-75196734D01*
X109610033Y-75185420D01*
X109610033Y-75185419D01*
X109613181Y-75178145D01*
X109614420Y-75170322D01*
X109614423Y-75170312D01*
X109620099Y-75134476D01*
X109622505Y-75122856D01*
X109631528Y-75087711D01*
X109631528Y-75087710D01*
X109633500Y-75080030D01*
X109633500Y-75059776D01*
X109635051Y-75040065D01*
X109636980Y-75027886D01*
X109638220Y-75020057D01*
X109634059Y-74976038D01*
X109633500Y-74964181D01*
X109633500Y-74190000D01*
X112686502Y-74190000D01*
X112706457Y-74418087D01*
X112707881Y-74423400D01*
X112707881Y-74423402D01*
X112748313Y-74574293D01*
X112765716Y-74639243D01*
X112768039Y-74644224D01*
X112768039Y-74644225D01*
X112860151Y-74841762D01*
X112860154Y-74841767D01*
X112862477Y-74846749D01*
X112884725Y-74878522D01*
X112987336Y-75025065D01*
X112993802Y-75034300D01*
X113155700Y-75196198D01*
X113160208Y-75199355D01*
X113160211Y-75199357D01*
X113221113Y-75242001D01*
X113343251Y-75327523D01*
X113348233Y-75329846D01*
X113348238Y-75329849D01*
X113545775Y-75421961D01*
X113550757Y-75424284D01*
X113556065Y-75425706D01*
X113556067Y-75425707D01*
X113766598Y-75482119D01*
X113766600Y-75482119D01*
X113771913Y-75483543D01*
X114000000Y-75503498D01*
X114228087Y-75483543D01*
X114233400Y-75482119D01*
X114233402Y-75482119D01*
X114443933Y-75425707D01*
X114443935Y-75425706D01*
X114449243Y-75424284D01*
X114454225Y-75421961D01*
X114651762Y-75329849D01*
X114651767Y-75329846D01*
X114656749Y-75327523D01*
X114778887Y-75242001D01*
X114839789Y-75199357D01*
X114839792Y-75199355D01*
X114844300Y-75196198D01*
X115006198Y-75034300D01*
X115010689Y-75027886D01*
X115116181Y-74877229D01*
X115171638Y-74832901D01*
X115219394Y-74823500D01*
X118068442Y-74823500D01*
X118136563Y-74843502D01*
X118183056Y-74897158D01*
X118193160Y-74967432D01*
X118169268Y-75025065D01*
X118114385Y-75098295D01*
X118063255Y-75234684D01*
X118056500Y-75296866D01*
X118056500Y-76643134D01*
X118063255Y-76705316D01*
X118114385Y-76841705D01*
X118201739Y-76958261D01*
X118318295Y-77045615D01*
X118454684Y-77096745D01*
X118516866Y-77103500D01*
X119863134Y-77103500D01*
X119925316Y-77096745D01*
X120061705Y-77045615D01*
X120178261Y-76958261D01*
X120265615Y-76841705D01*
X120316745Y-76705316D01*
X120323500Y-76643134D01*
X120323500Y-75763594D01*
X120343502Y-75695473D01*
X120397158Y-75648980D01*
X120467432Y-75638876D01*
X120532012Y-75668370D01*
X120538595Y-75674499D01*
X120571283Y-75707187D01*
X120605309Y-75769499D01*
X120607315Y-75811092D01*
X120592034Y-75940201D01*
X120605659Y-76148078D01*
X120656938Y-76349991D01*
X120744155Y-76539178D01*
X120864387Y-76709303D01*
X120868521Y-76713330D01*
X120974118Y-76816198D01*
X121013609Y-76854669D01*
X121040502Y-76872638D01*
X121086029Y-76927114D01*
X121096500Y-76977403D01*
X121096500Y-78664114D01*
X121076498Y-78732235D01*
X121023750Y-78778309D01*
X120848238Y-78860151D01*
X120848233Y-78860154D01*
X120843251Y-78862477D01*
X120786080Y-78902509D01*
X120660211Y-78990643D01*
X120660208Y-78990645D01*
X120655700Y-78993802D01*
X120493802Y-79155700D01*
X120362477Y-79343251D01*
X120360154Y-79348233D01*
X120360151Y-79348238D01*
X120360034Y-79348489D01*
X120265716Y-79550757D01*
X120264294Y-79556065D01*
X120264293Y-79556067D01*
X120220903Y-79718000D01*
X120206457Y-79771913D01*
X120186502Y-80000000D01*
X120206457Y-80228087D01*
X120207881Y-80233400D01*
X120207881Y-80233402D01*
X120255571Y-80411380D01*
X120265716Y-80449243D01*
X120268039Y-80454224D01*
X120268039Y-80454225D01*
X120360151Y-80651762D01*
X120360154Y-80651767D01*
X120362477Y-80656749D01*
X120365634Y-80661257D01*
X120489305Y-80837877D01*
X120493802Y-80844300D01*
X120655700Y-81006198D01*
X120660208Y-81009355D01*
X120660211Y-81009357D01*
X120716133Y-81048514D01*
X120843251Y-81137523D01*
X120848233Y-81139846D01*
X120848238Y-81139849D01*
X121044765Y-81231490D01*
X121050757Y-81234284D01*
X121056065Y-81235706D01*
X121056067Y-81235707D01*
X121266598Y-81292119D01*
X121266600Y-81292119D01*
X121271913Y-81293543D01*
X121500000Y-81313498D01*
X121728087Y-81293543D01*
X121733400Y-81292119D01*
X121733402Y-81292119D01*
X121943933Y-81235707D01*
X121943935Y-81235706D01*
X121949243Y-81234284D01*
X121955235Y-81231490D01*
X122151762Y-81139849D01*
X122151767Y-81139846D01*
X122156749Y-81137523D01*
X122283867Y-81048514D01*
X122339789Y-81009357D01*
X122339792Y-81009355D01*
X122344300Y-81006198D01*
X122506198Y-80844300D01*
X122510696Y-80837877D01*
X122634366Y-80661257D01*
X122637523Y-80656749D01*
X122639846Y-80651767D01*
X122639849Y-80651762D01*
X122731961Y-80454225D01*
X122731961Y-80454224D01*
X122734284Y-80449243D01*
X122744430Y-80411380D01*
X122792119Y-80233402D01*
X122792119Y-80233400D01*
X122793543Y-80228087D01*
X122813019Y-80005475D01*
X125187483Y-80005475D01*
X125206472Y-80222519D01*
X125208375Y-80233312D01*
X125264764Y-80443761D01*
X125268510Y-80454053D01*
X125360586Y-80651511D01*
X125366069Y-80661006D01*
X125402509Y-80713048D01*
X125412988Y-80721424D01*
X125426434Y-80714356D01*
X126127978Y-80012812D01*
X126134356Y-80001132D01*
X126864408Y-80001132D01*
X126864539Y-80002965D01*
X126868790Y-80009580D01*
X127574287Y-80715077D01*
X127586062Y-80721507D01*
X127598077Y-80712211D01*
X127633931Y-80661006D01*
X127639414Y-80651511D01*
X127731490Y-80454053D01*
X127735236Y-80443761D01*
X127791625Y-80233312D01*
X127793528Y-80222519D01*
X127812517Y-80005475D01*
X127812517Y-79994525D01*
X127793528Y-79777481D01*
X127791625Y-79766688D01*
X127735236Y-79556239D01*
X127731490Y-79545947D01*
X127639414Y-79348489D01*
X127633931Y-79338994D01*
X127597491Y-79286952D01*
X127587012Y-79278576D01*
X127573566Y-79285644D01*
X126872022Y-79987188D01*
X126864408Y-80001132D01*
X126134356Y-80001132D01*
X126135592Y-79998868D01*
X126135461Y-79997035D01*
X126131210Y-79990420D01*
X125425713Y-79284923D01*
X125413938Y-79278493D01*
X125401923Y-79287789D01*
X125366069Y-79338994D01*
X125360586Y-79348489D01*
X125268510Y-79545947D01*
X125264764Y-79556239D01*
X125208375Y-79766688D01*
X125206472Y-79777481D01*
X125187483Y-79994525D01*
X125187483Y-80005475D01*
X122813019Y-80005475D01*
X122813498Y-80000000D01*
X122793543Y-79771913D01*
X122779097Y-79718000D01*
X122735707Y-79556067D01*
X122735706Y-79556065D01*
X122734284Y-79550757D01*
X122639966Y-79348489D01*
X122639849Y-79348238D01*
X122639846Y-79348233D01*
X122637523Y-79343251D01*
X122506198Y-79155700D01*
X122400405Y-79049907D01*
X122366379Y-78987595D01*
X122363500Y-78960812D01*
X122363500Y-78912988D01*
X125778576Y-78912988D01*
X125785644Y-78926434D01*
X126487188Y-79627978D01*
X126501132Y-79635592D01*
X126502965Y-79635461D01*
X126509580Y-79631210D01*
X127215077Y-78925713D01*
X127221507Y-78913938D01*
X127212211Y-78901923D01*
X127161006Y-78866069D01*
X127151511Y-78860586D01*
X126954053Y-78768510D01*
X126943761Y-78764764D01*
X126733312Y-78708375D01*
X126722519Y-78706472D01*
X126505475Y-78687483D01*
X126494525Y-78687483D01*
X126277481Y-78706472D01*
X126266688Y-78708375D01*
X126056239Y-78764764D01*
X126045947Y-78768510D01*
X125848489Y-78860586D01*
X125838994Y-78866069D01*
X125786952Y-78902509D01*
X125778576Y-78912988D01*
X122363500Y-78912988D01*
X122363500Y-76976613D01*
X122383502Y-76908492D01*
X122408931Y-76879739D01*
X122530501Y-76778630D01*
X122534939Y-76774939D01*
X122641735Y-76646531D01*
X122664458Y-76619210D01*
X122668149Y-76614772D01*
X122769940Y-76433011D01*
X122796505Y-76354753D01*
X122835047Y-76241213D01*
X122835048Y-76241208D01*
X122836903Y-76235744D01*
X122837731Y-76230035D01*
X122837732Y-76230030D01*
X122866263Y-76033251D01*
X122866796Y-76029577D01*
X122868356Y-75970000D01*
X122865618Y-75940201D01*
X123132034Y-75940201D01*
X123145659Y-76148078D01*
X123196938Y-76349991D01*
X123284155Y-76539178D01*
X123404387Y-76709303D01*
X123408521Y-76713330D01*
X123514118Y-76816198D01*
X123553609Y-76854669D01*
X123558405Y-76857874D01*
X123558408Y-76857876D01*
X123689508Y-76945474D01*
X123726823Y-76970407D01*
X123732131Y-76972688D01*
X123732132Y-76972688D01*
X123912926Y-77050363D01*
X123912929Y-77050364D01*
X123918229Y-77052641D01*
X123923858Y-77053915D01*
X123923859Y-77053915D01*
X124115778Y-77097342D01*
X124115783Y-77097343D01*
X124121415Y-77098617D01*
X124127186Y-77098844D01*
X124127188Y-77098844D01*
X124189508Y-77101292D01*
X124329577Y-77106796D01*
X124432661Y-77091849D01*
X124530030Y-77077732D01*
X124530035Y-77077731D01*
X124535744Y-77076903D01*
X124541208Y-77075048D01*
X124541213Y-77075047D01*
X124727543Y-77011796D01*
X124733011Y-77009940D01*
X124914772Y-76908149D01*
X124926096Y-76898731D01*
X126169262Y-76898731D01*
X126179144Y-76911220D01*
X126262259Y-76966756D01*
X126272371Y-76972247D01*
X126453081Y-77049885D01*
X126464014Y-77053437D01*
X126655844Y-77096845D01*
X126667253Y-77098347D01*
X126863783Y-77106068D01*
X126875265Y-77105466D01*
X127069905Y-77077245D01*
X127081101Y-77074557D01*
X127267343Y-77011336D01*
X127277840Y-77006662D01*
X127448652Y-76911003D01*
X127454691Y-76902011D01*
X127448516Y-76891359D01*
X126822812Y-76265655D01*
X126808868Y-76258041D01*
X126807035Y-76258172D01*
X126800420Y-76262423D01*
X126175458Y-76887385D01*
X126169262Y-76898731D01*
X124926096Y-76898731D01*
X125074939Y-76774939D01*
X125181735Y-76646531D01*
X125204458Y-76619210D01*
X125208149Y-76614772D01*
X125309940Y-76433011D01*
X125336505Y-76354753D01*
X125375047Y-76241213D01*
X125375048Y-76241208D01*
X125376903Y-76235744D01*
X125377731Y-76230035D01*
X125377732Y-76230030D01*
X125406263Y-76033251D01*
X125406796Y-76029577D01*
X125408356Y-75970000D01*
X125393359Y-75806792D01*
X125407043Y-75737128D01*
X125429735Y-75706169D01*
X125479622Y-75656282D01*
X125541934Y-75622256D01*
X125612749Y-75627321D01*
X125669585Y-75669868D01*
X125694396Y-75736388D01*
X125693844Y-75760187D01*
X125673215Y-75934479D01*
X125672914Y-75945980D01*
X125685777Y-76142233D01*
X125687577Y-76153601D01*
X125735991Y-76344228D01*
X125739829Y-76355066D01*
X125822172Y-76533682D01*
X125827923Y-76543643D01*
X125869472Y-76602435D01*
X125880061Y-76610823D01*
X125893363Y-76603794D01*
X126526025Y-75971132D01*
X127098041Y-75971132D01*
X127098172Y-75972965D01*
X127102423Y-75979580D01*
X127730199Y-76607356D01*
X127743507Y-76614623D01*
X127750327Y-76609785D01*
X127750554Y-76609454D01*
X127846662Y-76437840D01*
X127851336Y-76427343D01*
X127914557Y-76241101D01*
X127917245Y-76229905D01*
X127945762Y-76033224D01*
X127946392Y-76025843D01*
X127947757Y-75973704D01*
X127947514Y-75966305D01*
X127929330Y-75768397D01*
X127927233Y-75757083D01*
X127873846Y-75567789D01*
X127869724Y-75557050D01*
X127782734Y-75380651D01*
X127776725Y-75370847D01*
X127751342Y-75336855D01*
X127740084Y-75328406D01*
X127727664Y-75335179D01*
X127105655Y-75957188D01*
X127098041Y-75971132D01*
X126526025Y-75971132D01*
X127445230Y-75051927D01*
X127451990Y-75039547D01*
X127445960Y-75031492D01*
X127331455Y-74959244D01*
X127321212Y-74954025D01*
X127138531Y-74881143D01*
X127127504Y-74877876D01*
X126934605Y-74839506D01*
X126923159Y-74838303D01*
X126726507Y-74835730D01*
X126715027Y-74836633D01*
X126603881Y-74855731D01*
X126533356Y-74847554D01*
X126478449Y-74802547D01*
X126456590Y-74734999D01*
X126474721Y-74666356D01*
X126493448Y-74642456D01*
X127465499Y-73670405D01*
X127527811Y-73636379D01*
X127554594Y-73633500D01*
X129875406Y-73633500D01*
X129943527Y-73653502D01*
X129964501Y-73670405D01*
X131690848Y-75396752D01*
X131724874Y-75459064D01*
X131723459Y-75518459D01*
X131707882Y-75576591D01*
X131707881Y-75576598D01*
X131706457Y-75581913D01*
X131686502Y-75810000D01*
X131706457Y-76038087D01*
X131765716Y-76259243D01*
X131768039Y-76264224D01*
X131768039Y-76264225D01*
X131860151Y-76461762D01*
X131860154Y-76461767D01*
X131862477Y-76466749D01*
X131913484Y-76539594D01*
X131969232Y-76619210D01*
X131993802Y-76654300D01*
X132155700Y-76816198D01*
X132160208Y-76819355D01*
X132160211Y-76819357D01*
X132312771Y-76926181D01*
X132357099Y-76981638D01*
X132366500Y-77029394D01*
X132366500Y-77465500D01*
X132346498Y-77533621D01*
X132292842Y-77580114D01*
X132240500Y-77591500D01*
X132051866Y-77591500D01*
X131989684Y-77598255D01*
X131853295Y-77649385D01*
X131736739Y-77736739D01*
X131649385Y-77853295D01*
X131598255Y-77989684D01*
X131591500Y-78051866D01*
X131591500Y-79948134D01*
X131598255Y-80010316D01*
X131649385Y-80146705D01*
X131736739Y-80263261D01*
X131853295Y-80350615D01*
X131989684Y-80401745D01*
X132051866Y-80408500D01*
X132175520Y-80408500D01*
X132243641Y-80428502D01*
X132264616Y-80445405D01*
X132987189Y-81167979D01*
X133001132Y-81175592D01*
X133002966Y-81175461D01*
X133009580Y-81171210D01*
X133735384Y-80445405D01*
X133797697Y-80411380D01*
X133824480Y-80408500D01*
X133948134Y-80408500D01*
X134010316Y-80401745D01*
X134146705Y-80350615D01*
X134263261Y-80263261D01*
X134350615Y-80146705D01*
X134401745Y-80010316D01*
X134408500Y-79948134D01*
X134408500Y-78051866D01*
X134401745Y-77989684D01*
X134350615Y-77853295D01*
X134263261Y-77736739D01*
X134146705Y-77649385D01*
X134010316Y-77598255D01*
X133948134Y-77591500D01*
X133759500Y-77591500D01*
X133691379Y-77571498D01*
X133644886Y-77517842D01*
X133633500Y-77465500D01*
X133633500Y-77029394D01*
X133653502Y-76961273D01*
X133687229Y-76926181D01*
X133839789Y-76819357D01*
X133839792Y-76819355D01*
X133844300Y-76816198D01*
X134006198Y-76654300D01*
X134030769Y-76619210D01*
X134086516Y-76539594D01*
X134137523Y-76466749D01*
X134139846Y-76461767D01*
X134139849Y-76461762D01*
X134231961Y-76264225D01*
X134231961Y-76264224D01*
X134234284Y-76259243D01*
X134293543Y-76038087D01*
X134313498Y-75810000D01*
X134293543Y-75581913D01*
X134292117Y-75576591D01*
X134235707Y-75366067D01*
X134235706Y-75366065D01*
X134234284Y-75360757D01*
X134225093Y-75341047D01*
X134139849Y-75158238D01*
X134139846Y-75158233D01*
X134137523Y-75153251D01*
X134013921Y-74976729D01*
X134009357Y-74970211D01*
X134009355Y-74970208D01*
X134006198Y-74965700D01*
X133844300Y-74803802D01*
X133839792Y-74800645D01*
X133839789Y-74800643D01*
X133746039Y-74734999D01*
X133656749Y-74672477D01*
X133651767Y-74670154D01*
X133651762Y-74670151D01*
X133454225Y-74578039D01*
X133454224Y-74578039D01*
X133449243Y-74575716D01*
X133443935Y-74574294D01*
X133443933Y-74574293D01*
X133233402Y-74517881D01*
X133233400Y-74517881D01*
X133228087Y-74516457D01*
X133000000Y-74496502D01*
X132771913Y-74516457D01*
X132766602Y-74517880D01*
X132766591Y-74517882D01*
X132708459Y-74533459D01*
X132637483Y-74531770D01*
X132586752Y-74500848D01*
X131642405Y-73556500D01*
X130693652Y-72607747D01*
X130686112Y-72599461D01*
X130682000Y-72592982D01*
X130632348Y-72546356D01*
X130629507Y-72543602D01*
X130609770Y-72523865D01*
X130606573Y-72521385D01*
X130597551Y-72513680D01*
X130584116Y-72501064D01*
X130565321Y-72483414D01*
X130558375Y-72479595D01*
X130558372Y-72479593D01*
X130547566Y-72473652D01*
X130531047Y-72462801D01*
X130529707Y-72461762D01*
X130515041Y-72450386D01*
X130507772Y-72447241D01*
X130507768Y-72447238D01*
X130474463Y-72432826D01*
X130463813Y-72427609D01*
X130425060Y-72406305D01*
X130405437Y-72401267D01*
X130386734Y-72394863D01*
X130375420Y-72389967D01*
X130375419Y-72389967D01*
X130368145Y-72386819D01*
X130360322Y-72385580D01*
X130360312Y-72385577D01*
X130324476Y-72379901D01*
X130312856Y-72377495D01*
X130277711Y-72368472D01*
X130277710Y-72368472D01*
X130270030Y-72366500D01*
X130249776Y-72366500D01*
X130230065Y-72364949D01*
X130217886Y-72363020D01*
X130210057Y-72361780D01*
X130180786Y-72364547D01*
X130166039Y-72365941D01*
X130154181Y-72366500D01*
X127318767Y-72366500D01*
X127307584Y-72365973D01*
X127300091Y-72364298D01*
X127292165Y-72364547D01*
X127292164Y-72364547D01*
X127232014Y-72366438D01*
X127228055Y-72366500D01*
X127200144Y-72366500D01*
X127196210Y-72366997D01*
X127196209Y-72366997D01*
X127196144Y-72367005D01*
X127184307Y-72367938D01*
X127152490Y-72368938D01*
X127148029Y-72369078D01*
X127140110Y-72369327D01*
X127122454Y-72374456D01*
X127120658Y-72374978D01*
X127101306Y-72378986D01*
X127094235Y-72379880D01*
X127081203Y-72381526D01*
X127073834Y-72384443D01*
X127073832Y-72384444D01*
X127040097Y-72397800D01*
X127028869Y-72401645D01*
X126986407Y-72413982D01*
X126979585Y-72418016D01*
X126979579Y-72418019D01*
X126968968Y-72424294D01*
X126951218Y-72432990D01*
X126939756Y-72437528D01*
X126939751Y-72437531D01*
X126932383Y-72440448D01*
X126914970Y-72453099D01*
X126896625Y-72466427D01*
X126886707Y-72472943D01*
X126875463Y-72479593D01*
X126848637Y-72495458D01*
X126834313Y-72509782D01*
X126819281Y-72522621D01*
X126802893Y-72534528D01*
X126774712Y-72568593D01*
X126766722Y-72577373D01*
X124534389Y-74809706D01*
X124472077Y-74843732D01*
X124420713Y-74844190D01*
X124388991Y-74837880D01*
X124383216Y-74837804D01*
X124383212Y-74837804D01*
X124278901Y-74836439D01*
X124180686Y-74835153D01*
X124174989Y-74836132D01*
X124174988Y-74836132D01*
X124060931Y-74855731D01*
X123975372Y-74870433D01*
X123779925Y-74942537D01*
X123774964Y-74945489D01*
X123774963Y-74945489D01*
X123633268Y-75029789D01*
X123600891Y-75049051D01*
X123444266Y-75186407D01*
X123440699Y-75190932D01*
X123440694Y-75190937D01*
X123318872Y-75345468D01*
X123315294Y-75350007D01*
X123312603Y-75355123D01*
X123312601Y-75355125D01*
X123234458Y-75503651D01*
X123218296Y-75534370D01*
X123156520Y-75733322D01*
X123132034Y-75940201D01*
X122865618Y-75940201D01*
X122849294Y-75762551D01*
X122792747Y-75562050D01*
X122700608Y-75375211D01*
X122686095Y-75355775D01*
X122579416Y-75212915D01*
X122579415Y-75212914D01*
X122575963Y-75208291D01*
X122422987Y-75066881D01*
X122246803Y-74955717D01*
X122053311Y-74878522D01*
X121868507Y-74841762D01*
X121854657Y-74839007D01*
X121848991Y-74837880D01*
X121843216Y-74837804D01*
X121843212Y-74837804D01*
X121738901Y-74836439D01*
X121640686Y-74835153D01*
X121634989Y-74836132D01*
X121634988Y-74836132D01*
X121577297Y-74846045D01*
X121506772Y-74837868D01*
X121466864Y-74810960D01*
X120934999Y-74279095D01*
X120900973Y-74216783D01*
X120906038Y-74145968D01*
X120934999Y-74100905D01*
X124662247Y-70373657D01*
X124670537Y-70366113D01*
X124677018Y-70362000D01*
X124723659Y-70312332D01*
X124726413Y-70309491D01*
X124746135Y-70289769D01*
X124748612Y-70286576D01*
X124756317Y-70277555D01*
X124781159Y-70251100D01*
X124786586Y-70245321D01*
X124790407Y-70238371D01*
X124796346Y-70227568D01*
X124807202Y-70211041D01*
X124814757Y-70201302D01*
X124814758Y-70201300D01*
X124819614Y-70195040D01*
X124837174Y-70154460D01*
X124842391Y-70143812D01*
X124859875Y-70112009D01*
X124859876Y-70112007D01*
X124863695Y-70105060D01*
X124868733Y-70085437D01*
X124875137Y-70066734D01*
X124880033Y-70055420D01*
X124880033Y-70055419D01*
X124883181Y-70048145D01*
X124884420Y-70040322D01*
X124884423Y-70040312D01*
X124890099Y-70004476D01*
X124892505Y-69992856D01*
X124901528Y-69957711D01*
X124901528Y-69957710D01*
X124903500Y-69950030D01*
X124903500Y-69929776D01*
X124905051Y-69910065D01*
X124906980Y-69897886D01*
X124908220Y-69890057D01*
X124904059Y-69846038D01*
X124903500Y-69834181D01*
X124903500Y-69036613D01*
X124923502Y-68968492D01*
X124948931Y-68939739D01*
X125070501Y-68838630D01*
X125074939Y-68834939D01*
X125208149Y-68674772D01*
X125309940Y-68493011D01*
X125336341Y-68415237D01*
X125375047Y-68301213D01*
X125375048Y-68301208D01*
X125376903Y-68295744D01*
X125377731Y-68290035D01*
X125377732Y-68290030D01*
X125406263Y-68093251D01*
X125406796Y-68089577D01*
X125408356Y-68030000D01*
X125405618Y-68000201D01*
X125672034Y-68000201D01*
X125685659Y-68208078D01*
X125736938Y-68409991D01*
X125824155Y-68599178D01*
X125944387Y-68769303D01*
X126093609Y-68914669D01*
X126098405Y-68917874D01*
X126098408Y-68917876D01*
X126238961Y-69011790D01*
X126266823Y-69030407D01*
X126272131Y-69032688D01*
X126272132Y-69032688D01*
X126452926Y-69110363D01*
X126452929Y-69110364D01*
X126458229Y-69112641D01*
X126463858Y-69113915D01*
X126463859Y-69113915D01*
X126655778Y-69157342D01*
X126655783Y-69157343D01*
X126661415Y-69158617D01*
X126667186Y-69158844D01*
X126667188Y-69158844D01*
X126729508Y-69161292D01*
X126869577Y-69166796D01*
X126965423Y-69152899D01*
X127035707Y-69162919D01*
X127072596Y-69188500D01*
X129276343Y-71392247D01*
X129283887Y-71400537D01*
X129288000Y-71407018D01*
X129293777Y-71412443D01*
X129337667Y-71453658D01*
X129340509Y-71456413D01*
X129360230Y-71476134D01*
X129363425Y-71478612D01*
X129372447Y-71486318D01*
X129404679Y-71516586D01*
X129411628Y-71520406D01*
X129422432Y-71526346D01*
X129438956Y-71537199D01*
X129454959Y-71549613D01*
X129495543Y-71567176D01*
X129506173Y-71572383D01*
X129544940Y-71593695D01*
X129552617Y-71595666D01*
X129552622Y-71595668D01*
X129564558Y-71598732D01*
X129583266Y-71605137D01*
X129601855Y-71613181D01*
X129609683Y-71614421D01*
X129609690Y-71614423D01*
X129645524Y-71620099D01*
X129657144Y-71622505D01*
X129692289Y-71631528D01*
X129699970Y-71633500D01*
X129720224Y-71633500D01*
X129739934Y-71635051D01*
X129759943Y-71638220D01*
X129767835Y-71637474D01*
X129803961Y-71634059D01*
X129815819Y-71633500D01*
X133685406Y-71633500D01*
X133753527Y-71653502D01*
X133774501Y-71670405D01*
X138306343Y-76202247D01*
X138313887Y-76210537D01*
X138318000Y-76217018D01*
X138323777Y-76222443D01*
X138367667Y-76263658D01*
X138370509Y-76266413D01*
X138390230Y-76286134D01*
X138393425Y-76288612D01*
X138402447Y-76296318D01*
X138434679Y-76326586D01*
X138441628Y-76330406D01*
X138452432Y-76336346D01*
X138468956Y-76347199D01*
X138484959Y-76359613D01*
X138525543Y-76377176D01*
X138536173Y-76382383D01*
X138574940Y-76403695D01*
X138582617Y-76405666D01*
X138582622Y-76405668D01*
X138594558Y-76408732D01*
X138613266Y-76415137D01*
X138631855Y-76423181D01*
X138639683Y-76424421D01*
X138639690Y-76424423D01*
X138675524Y-76430099D01*
X138687144Y-76432505D01*
X138722289Y-76441528D01*
X138729970Y-76443500D01*
X138750224Y-76443500D01*
X138769934Y-76445051D01*
X138789943Y-76448220D01*
X138790277Y-76448188D01*
X138854528Y-76469270D01*
X138886322Y-76500803D01*
X138969232Y-76619210D01*
X138993802Y-76654300D01*
X139155700Y-76816198D01*
X139160208Y-76819355D01*
X139160211Y-76819357D01*
X139312771Y-76926181D01*
X139357099Y-76981638D01*
X139366500Y-77029394D01*
X139366500Y-77465500D01*
X139346498Y-77533621D01*
X139292842Y-77580114D01*
X139240500Y-77591500D01*
X139051866Y-77591500D01*
X138989684Y-77598255D01*
X138853295Y-77649385D01*
X138736739Y-77736739D01*
X138649385Y-77853295D01*
X138598255Y-77989684D01*
X138591500Y-78051866D01*
X138591500Y-79948134D01*
X138598255Y-80010316D01*
X138649385Y-80146705D01*
X138736739Y-80263261D01*
X138853295Y-80350615D01*
X138989684Y-80401745D01*
X139051866Y-80408500D01*
X139175520Y-80408500D01*
X139243641Y-80428502D01*
X139264616Y-80445405D01*
X139987189Y-81167979D01*
X140001132Y-81175592D01*
X140002966Y-81175461D01*
X140009580Y-81171210D01*
X140735384Y-80445405D01*
X140797697Y-80411380D01*
X140824480Y-80408500D01*
X140948134Y-80408500D01*
X141010316Y-80401745D01*
X141146705Y-80350615D01*
X141263261Y-80263261D01*
X141350615Y-80146705D01*
X141401745Y-80010316D01*
X141408500Y-79948134D01*
X141408500Y-79425469D01*
X145587095Y-79425469D01*
X145587392Y-79430622D01*
X145587392Y-79430625D01*
X145594041Y-79545947D01*
X145600427Y-79656697D01*
X145601564Y-79661743D01*
X145601565Y-79661749D01*
X145625753Y-79769079D01*
X145651346Y-79882642D01*
X145653288Y-79887424D01*
X145653289Y-79887428D01*
X145736540Y-80092450D01*
X145738484Y-80097237D01*
X145859501Y-80294719D01*
X145862882Y-80298622D01*
X145971653Y-80424191D01*
X146001135Y-80488776D01*
X145991020Y-80559049D01*
X145944519Y-80612697D01*
X145920646Y-80624670D01*
X145861944Y-80646677D01*
X145846351Y-80655214D01*
X145744276Y-80731715D01*
X145731715Y-80744276D01*
X145655214Y-80846351D01*
X145646676Y-80861946D01*
X145601522Y-80982394D01*
X145597895Y-80997649D01*
X145592369Y-81048514D01*
X145592000Y-81055328D01*
X145592000Y-81727885D01*
X145596475Y-81743124D01*
X145597865Y-81744329D01*
X145605548Y-81746000D01*
X148389884Y-81746000D01*
X148405123Y-81741525D01*
X148406328Y-81740135D01*
X148407999Y-81732452D01*
X148407999Y-81055331D01*
X148407629Y-81048510D01*
X148402105Y-80997648D01*
X148398479Y-80982396D01*
X148353324Y-80861946D01*
X148344786Y-80846351D01*
X148268285Y-80744276D01*
X148255724Y-80731715D01*
X148153649Y-80655214D01*
X148138052Y-80646675D01*
X148079415Y-80624693D01*
X148022650Y-80582052D01*
X147997950Y-80515490D01*
X148013157Y-80446141D01*
X148034703Y-80417461D01*
X148072641Y-80379654D01*
X148076303Y-80376005D01*
X148211458Y-80187917D01*
X148236179Y-80137899D01*
X148311784Y-79984922D01*
X148311785Y-79984920D01*
X148314078Y-79980280D01*
X148381408Y-79758671D01*
X148411640Y-79529041D01*
X148413327Y-79460000D01*
X148410488Y-79425469D01*
X152587095Y-79425469D01*
X152587392Y-79430622D01*
X152587392Y-79430625D01*
X152594041Y-79545947D01*
X152600427Y-79656697D01*
X152601564Y-79661743D01*
X152601565Y-79661749D01*
X152625753Y-79769079D01*
X152651346Y-79882642D01*
X152653288Y-79887424D01*
X152653289Y-79887428D01*
X152736540Y-80092450D01*
X152738484Y-80097237D01*
X152859501Y-80294719D01*
X152862882Y-80298622D01*
X152971653Y-80424191D01*
X153001135Y-80488776D01*
X152991020Y-80559049D01*
X152944519Y-80612697D01*
X152920646Y-80624670D01*
X152861944Y-80646677D01*
X152846351Y-80655214D01*
X152744276Y-80731715D01*
X152731715Y-80744276D01*
X152655214Y-80846351D01*
X152646676Y-80861946D01*
X152601522Y-80982394D01*
X152597895Y-80997649D01*
X152592369Y-81048514D01*
X152592000Y-81055328D01*
X152592000Y-81727885D01*
X152596475Y-81743124D01*
X152597865Y-81744329D01*
X152605548Y-81746000D01*
X155389884Y-81746000D01*
X155405123Y-81741525D01*
X155406328Y-81740135D01*
X155407999Y-81732452D01*
X155407999Y-81055331D01*
X155407629Y-81048510D01*
X155402105Y-80997648D01*
X155398479Y-80982396D01*
X155353324Y-80861946D01*
X155344786Y-80846351D01*
X155268285Y-80744276D01*
X155255724Y-80731715D01*
X155153649Y-80655214D01*
X155138052Y-80646675D01*
X155079415Y-80624693D01*
X155022650Y-80582052D01*
X154997950Y-80515490D01*
X155013157Y-80446141D01*
X155034703Y-80417461D01*
X155072641Y-80379654D01*
X155076303Y-80376005D01*
X155211458Y-80187917D01*
X155236179Y-80137899D01*
X155311784Y-79984922D01*
X155311785Y-79984920D01*
X155314078Y-79980280D01*
X155381408Y-79758671D01*
X155411640Y-79529041D01*
X155413327Y-79460000D01*
X155404159Y-79348489D01*
X155394773Y-79234318D01*
X155394772Y-79234312D01*
X155394349Y-79229167D01*
X155349322Y-79049907D01*
X155339184Y-79009544D01*
X155339183Y-79009540D01*
X155337925Y-79004533D01*
X155335866Y-78999797D01*
X155247630Y-78796868D01*
X155247628Y-78796865D01*
X155245570Y-78792131D01*
X155119764Y-78597665D01*
X154963887Y-78426358D01*
X154959836Y-78423159D01*
X154959832Y-78423155D01*
X154786178Y-78286012D01*
X154786175Y-78286010D01*
X154782123Y-78282810D01*
X154738607Y-78258788D01*
X154688636Y-78208355D01*
X154673500Y-78148479D01*
X154673500Y-77029394D01*
X154693502Y-76961273D01*
X154727229Y-76926181D01*
X154879789Y-76819357D01*
X154879792Y-76819355D01*
X154884300Y-76816198D01*
X155046198Y-76654300D01*
X155070769Y-76619210D01*
X155126516Y-76539594D01*
X155177523Y-76466749D01*
X155179846Y-76461767D01*
X155179849Y-76461762D01*
X155271961Y-76264225D01*
X155271961Y-76264224D01*
X155274284Y-76259243D01*
X155333543Y-76038087D01*
X155353498Y-75810000D01*
X155333543Y-75581913D01*
X155332117Y-75576591D01*
X155275707Y-75366067D01*
X155275706Y-75366065D01*
X155274284Y-75360757D01*
X155265093Y-75341047D01*
X155179849Y-75158238D01*
X155179846Y-75158233D01*
X155177523Y-75153251D01*
X155053921Y-74976729D01*
X155049357Y-74970211D01*
X155049355Y-74970208D01*
X155046198Y-74965700D01*
X154884300Y-74803802D01*
X154879792Y-74800645D01*
X154879789Y-74800643D01*
X154786039Y-74734999D01*
X154696749Y-74672477D01*
X154691767Y-74670154D01*
X154691762Y-74670151D01*
X154494225Y-74578039D01*
X154494224Y-74578039D01*
X154489243Y-74575716D01*
X154483935Y-74574294D01*
X154483933Y-74574293D01*
X154273402Y-74517881D01*
X154273400Y-74517881D01*
X154268087Y-74516457D01*
X154040000Y-74496502D01*
X153811913Y-74516457D01*
X153806600Y-74517881D01*
X153806598Y-74517881D01*
X153596067Y-74574293D01*
X153596065Y-74574294D01*
X153590757Y-74575716D01*
X153585776Y-74578039D01*
X153585775Y-74578039D01*
X153388238Y-74670151D01*
X153388233Y-74670154D01*
X153383251Y-74672477D01*
X153293961Y-74734999D01*
X153200211Y-74800643D01*
X153200208Y-74800645D01*
X153195700Y-74803802D01*
X153033802Y-74965700D01*
X153030645Y-74970208D01*
X153030643Y-74970211D01*
X153026079Y-74976729D01*
X152902477Y-75153251D01*
X152900154Y-75158233D01*
X152900151Y-75158238D01*
X152814907Y-75341047D01*
X152805716Y-75360757D01*
X152804294Y-75366065D01*
X152804293Y-75366067D01*
X152747883Y-75576591D01*
X152746457Y-75581913D01*
X152726502Y-75810000D01*
X152746457Y-76038087D01*
X152805716Y-76259243D01*
X152808039Y-76264224D01*
X152808039Y-76264225D01*
X152900151Y-76461762D01*
X152900154Y-76461767D01*
X152902477Y-76466749D01*
X152953484Y-76539594D01*
X153009232Y-76619210D01*
X153033802Y-76654300D01*
X153195700Y-76816198D01*
X153200208Y-76819355D01*
X153200211Y-76819357D01*
X153352771Y-76926181D01*
X153397099Y-76981638D01*
X153406500Y-77029394D01*
X153406500Y-78104497D01*
X153386498Y-78172618D01*
X153338680Y-78216260D01*
X153246872Y-78264052D01*
X153242739Y-78267155D01*
X153242736Y-78267157D01*
X153065790Y-78400012D01*
X153061655Y-78403117D01*
X152901639Y-78570564D01*
X152898725Y-78574836D01*
X152898724Y-78574837D01*
X152883152Y-78597665D01*
X152771119Y-78761899D01*
X152673602Y-78971981D01*
X152611707Y-79195169D01*
X152587095Y-79425469D01*
X148410488Y-79425469D01*
X148404159Y-79348489D01*
X148394773Y-79234318D01*
X148394772Y-79234312D01*
X148394349Y-79229167D01*
X148349322Y-79049907D01*
X148339184Y-79009544D01*
X148339183Y-79009540D01*
X148337925Y-79004533D01*
X148335866Y-78999797D01*
X148247630Y-78796868D01*
X148247628Y-78796865D01*
X148245570Y-78792131D01*
X148119764Y-78597665D01*
X147963887Y-78426358D01*
X147959836Y-78423159D01*
X147959832Y-78423155D01*
X147786178Y-78286012D01*
X147786175Y-78286010D01*
X147782123Y-78282810D01*
X147698607Y-78236707D01*
X147648636Y-78186274D01*
X147633500Y-78126398D01*
X147633500Y-77029394D01*
X147653502Y-76961273D01*
X147687229Y-76926181D01*
X147839789Y-76819357D01*
X147839792Y-76819355D01*
X147844300Y-76816198D01*
X148006198Y-76654300D01*
X148030769Y-76619210D01*
X148086516Y-76539594D01*
X148137523Y-76466749D01*
X148139846Y-76461767D01*
X148139849Y-76461762D01*
X148231961Y-76264225D01*
X148231961Y-76264224D01*
X148234284Y-76259243D01*
X148293543Y-76038087D01*
X148313498Y-75810000D01*
X148293543Y-75581913D01*
X148292117Y-75576591D01*
X148235707Y-75366067D01*
X148235706Y-75366065D01*
X148234284Y-75360757D01*
X148225093Y-75341047D01*
X148139849Y-75158238D01*
X148139846Y-75158233D01*
X148137523Y-75153251D01*
X148013921Y-74976729D01*
X148009357Y-74970211D01*
X148009355Y-74970208D01*
X148006198Y-74965700D01*
X147844300Y-74803802D01*
X147839792Y-74800645D01*
X147839789Y-74800643D01*
X147746039Y-74734999D01*
X147656749Y-74672477D01*
X147651767Y-74670154D01*
X147651762Y-74670151D01*
X147454225Y-74578039D01*
X147454224Y-74578039D01*
X147449243Y-74575716D01*
X147443935Y-74574294D01*
X147443933Y-74574293D01*
X147233402Y-74517881D01*
X147233400Y-74517881D01*
X147228087Y-74516457D01*
X147000000Y-74496502D01*
X146771913Y-74516457D01*
X146766600Y-74517881D01*
X146766598Y-74517881D01*
X146556067Y-74574293D01*
X146556065Y-74574294D01*
X146550757Y-74575716D01*
X146545776Y-74578039D01*
X146545775Y-74578039D01*
X146348238Y-74670151D01*
X146348233Y-74670154D01*
X146343251Y-74672477D01*
X146253961Y-74734999D01*
X146160211Y-74800643D01*
X146160208Y-74800645D01*
X146155700Y-74803802D01*
X145993802Y-74965700D01*
X145990645Y-74970208D01*
X145990643Y-74970211D01*
X145986079Y-74976729D01*
X145862477Y-75153251D01*
X145860154Y-75158233D01*
X145860151Y-75158238D01*
X145774907Y-75341047D01*
X145765716Y-75360757D01*
X145764294Y-75366065D01*
X145764293Y-75366067D01*
X145707883Y-75576591D01*
X145706457Y-75581913D01*
X145686502Y-75810000D01*
X145706457Y-76038087D01*
X145765716Y-76259243D01*
X145768039Y-76264224D01*
X145768039Y-76264225D01*
X145860151Y-76461762D01*
X145860154Y-76461767D01*
X145862477Y-76466749D01*
X145913484Y-76539594D01*
X145969232Y-76619210D01*
X145993802Y-76654300D01*
X146155700Y-76816198D01*
X146160208Y-76819355D01*
X146160211Y-76819357D01*
X146312771Y-76926181D01*
X146357099Y-76981638D01*
X146366500Y-77029394D01*
X146366500Y-78125319D01*
X146346498Y-78193440D01*
X146298679Y-78237083D01*
X146246872Y-78264052D01*
X146242737Y-78267157D01*
X146242734Y-78267159D01*
X146067177Y-78398971D01*
X146061655Y-78403117D01*
X145901639Y-78570564D01*
X145898725Y-78574836D01*
X145898724Y-78574837D01*
X145883152Y-78597665D01*
X145771119Y-78761899D01*
X145673602Y-78971981D01*
X145611707Y-79195169D01*
X145587095Y-79425469D01*
X141408500Y-79425469D01*
X141408500Y-78051866D01*
X141401745Y-77989684D01*
X141350615Y-77853295D01*
X141263261Y-77736739D01*
X141146705Y-77649385D01*
X141010316Y-77598255D01*
X140948134Y-77591500D01*
X140759500Y-77591500D01*
X140691379Y-77571498D01*
X140644886Y-77517842D01*
X140633500Y-77465500D01*
X140633500Y-77029394D01*
X140653502Y-76961273D01*
X140687229Y-76926181D01*
X140839789Y-76819357D01*
X140839792Y-76819355D01*
X140844300Y-76816198D01*
X141006198Y-76654300D01*
X141030769Y-76619210D01*
X141086516Y-76539594D01*
X141137523Y-76466749D01*
X141139846Y-76461767D01*
X141139849Y-76461762D01*
X141231961Y-76264225D01*
X141231961Y-76264224D01*
X141234284Y-76259243D01*
X141293543Y-76038087D01*
X141313498Y-75810000D01*
X141293543Y-75581913D01*
X141292117Y-75576591D01*
X141235707Y-75366067D01*
X141235706Y-75366065D01*
X141234284Y-75360757D01*
X141225093Y-75341047D01*
X141139849Y-75158238D01*
X141139846Y-75158233D01*
X141137523Y-75153251D01*
X141013921Y-74976729D01*
X141009357Y-74970211D01*
X141009355Y-74970208D01*
X141006198Y-74965700D01*
X140844300Y-74803802D01*
X140839792Y-74800645D01*
X140839789Y-74800643D01*
X140746039Y-74734999D01*
X140656749Y-74672477D01*
X140651767Y-74670154D01*
X140651762Y-74670151D01*
X140454225Y-74578039D01*
X140454224Y-74578039D01*
X140449243Y-74575716D01*
X140443935Y-74574294D01*
X140443933Y-74574293D01*
X140233402Y-74517881D01*
X140233400Y-74517881D01*
X140228087Y-74516457D01*
X140000000Y-74496502D01*
X139771913Y-74516457D01*
X139766600Y-74517881D01*
X139766598Y-74517881D01*
X139556067Y-74574293D01*
X139556065Y-74574294D01*
X139550757Y-74575716D01*
X139545776Y-74578039D01*
X139545775Y-74578039D01*
X139348238Y-74670151D01*
X139348233Y-74670154D01*
X139343251Y-74672477D01*
X139253961Y-74734999D01*
X139160211Y-74800643D01*
X139160208Y-74800645D01*
X139155700Y-74803802D01*
X139016796Y-74942706D01*
X138954488Y-74976729D01*
X138883672Y-74971665D01*
X138838609Y-74942704D01*
X134503652Y-70607747D01*
X134496112Y-70599461D01*
X134492000Y-70592982D01*
X134442348Y-70546356D01*
X134439507Y-70543602D01*
X134419770Y-70523865D01*
X134416573Y-70521385D01*
X134407551Y-70513680D01*
X134381100Y-70488841D01*
X134375321Y-70483414D01*
X134368375Y-70479595D01*
X134368372Y-70479593D01*
X134357566Y-70473652D01*
X134341047Y-70462801D01*
X134340583Y-70462441D01*
X134325041Y-70450386D01*
X134317772Y-70447241D01*
X134317768Y-70447238D01*
X134284463Y-70432826D01*
X134273813Y-70427609D01*
X134235060Y-70406305D01*
X134215437Y-70401267D01*
X134196734Y-70394863D01*
X134185420Y-70389967D01*
X134185419Y-70389967D01*
X134178145Y-70386819D01*
X134170322Y-70385580D01*
X134170312Y-70385577D01*
X134134476Y-70379901D01*
X134122856Y-70377495D01*
X134087711Y-70368472D01*
X134087710Y-70368472D01*
X134080030Y-70366500D01*
X134059776Y-70366500D01*
X134040065Y-70364949D01*
X134027886Y-70363020D01*
X134020057Y-70361780D01*
X134012165Y-70362526D01*
X133976039Y-70365941D01*
X133964181Y-70366500D01*
X130094595Y-70366500D01*
X130026474Y-70346498D01*
X130005500Y-70329595D01*
X127968500Y-68292595D01*
X127934474Y-68230283D01*
X127933060Y-68190000D01*
X131686502Y-68190000D01*
X131706457Y-68418087D01*
X131707881Y-68423400D01*
X131707881Y-68423402D01*
X131754981Y-68599178D01*
X131765716Y-68639243D01*
X131768039Y-68644224D01*
X131768039Y-68644225D01*
X131860151Y-68841762D01*
X131860154Y-68841767D01*
X131862477Y-68846749D01*
X131993802Y-69034300D01*
X132155700Y-69196198D01*
X132160208Y-69199355D01*
X132160211Y-69199357D01*
X132238389Y-69254098D01*
X132343251Y-69327523D01*
X132348233Y-69329846D01*
X132348238Y-69329849D01*
X132545775Y-69421961D01*
X132550757Y-69424284D01*
X132556065Y-69425706D01*
X132556067Y-69425707D01*
X132766598Y-69482119D01*
X132766600Y-69482119D01*
X132771913Y-69483543D01*
X133000000Y-69503498D01*
X133228087Y-69483543D01*
X133233400Y-69482119D01*
X133233402Y-69482119D01*
X133443933Y-69425707D01*
X133443935Y-69425706D01*
X133449243Y-69424284D01*
X133454225Y-69421961D01*
X133651762Y-69329849D01*
X133651767Y-69329846D01*
X133656749Y-69327523D01*
X133761611Y-69254098D01*
X133839789Y-69199357D01*
X133839792Y-69199355D01*
X133844300Y-69196198D01*
X134006198Y-69034300D01*
X134039238Y-68987114D01*
X134116181Y-68877229D01*
X134171638Y-68832901D01*
X134219394Y-68823500D01*
X138780606Y-68823500D01*
X138848727Y-68843502D01*
X138883819Y-68877229D01*
X138960762Y-68987114D01*
X138993802Y-69034300D01*
X139155700Y-69196198D01*
X139160208Y-69199355D01*
X139160211Y-69199357D01*
X139238389Y-69254098D01*
X139343251Y-69327523D01*
X139348233Y-69329846D01*
X139348238Y-69329849D01*
X139545775Y-69421961D01*
X139550757Y-69424284D01*
X139556065Y-69425706D01*
X139556067Y-69425707D01*
X139766598Y-69482119D01*
X139766600Y-69482119D01*
X139771913Y-69483543D01*
X140000000Y-69503498D01*
X140228087Y-69483543D01*
X140233400Y-69482119D01*
X140233402Y-69482119D01*
X140443933Y-69425707D01*
X140443935Y-69425706D01*
X140449243Y-69424284D01*
X140454225Y-69421961D01*
X140651762Y-69329849D01*
X140651767Y-69329846D01*
X140656749Y-69327523D01*
X140761611Y-69254098D01*
X140839789Y-69199357D01*
X140839792Y-69199355D01*
X140844300Y-69196198D01*
X141006198Y-69034300D01*
X141039238Y-68987114D01*
X141116181Y-68877229D01*
X141171638Y-68832901D01*
X141219394Y-68823500D01*
X145780606Y-68823500D01*
X145848727Y-68843502D01*
X145883819Y-68877229D01*
X145960762Y-68987114D01*
X145993802Y-69034300D01*
X146155700Y-69196198D01*
X146160208Y-69199355D01*
X146160211Y-69199357D01*
X146238389Y-69254098D01*
X146343251Y-69327523D01*
X146348233Y-69329846D01*
X146348238Y-69329849D01*
X146545775Y-69421961D01*
X146550757Y-69424284D01*
X146556065Y-69425706D01*
X146556067Y-69425707D01*
X146766598Y-69482119D01*
X146766600Y-69482119D01*
X146771913Y-69483543D01*
X147000000Y-69503498D01*
X147228087Y-69483543D01*
X147233400Y-69482119D01*
X147233402Y-69482119D01*
X147443933Y-69425707D01*
X147443935Y-69425706D01*
X147449243Y-69424284D01*
X147454225Y-69421961D01*
X147651762Y-69329849D01*
X147651767Y-69329846D01*
X147656749Y-69327523D01*
X147761611Y-69254098D01*
X147839789Y-69199357D01*
X147839792Y-69199355D01*
X147844300Y-69196198D01*
X148006198Y-69034300D01*
X148039238Y-68987114D01*
X148116181Y-68877229D01*
X148171638Y-68832901D01*
X148219394Y-68823500D01*
X152820606Y-68823500D01*
X152888727Y-68843502D01*
X152923819Y-68877229D01*
X153000762Y-68987114D01*
X153033802Y-69034300D01*
X153195700Y-69196198D01*
X153200208Y-69199355D01*
X153200211Y-69199357D01*
X153278389Y-69254098D01*
X153383251Y-69327523D01*
X153388233Y-69329846D01*
X153388238Y-69329849D01*
X153585775Y-69421961D01*
X153590757Y-69424284D01*
X153596065Y-69425706D01*
X153596067Y-69425707D01*
X153806598Y-69482119D01*
X153806600Y-69482119D01*
X153811913Y-69483543D01*
X154040000Y-69503498D01*
X154268087Y-69483543D01*
X154273400Y-69482119D01*
X154273402Y-69482119D01*
X154483933Y-69425707D01*
X154483935Y-69425706D01*
X154489243Y-69424284D01*
X154494225Y-69421961D01*
X154691762Y-69329849D01*
X154691767Y-69329846D01*
X154696749Y-69327523D01*
X154801611Y-69254098D01*
X154879789Y-69199357D01*
X154879792Y-69199355D01*
X154884300Y-69196198D01*
X155046198Y-69034300D01*
X155177523Y-68846749D01*
X155179846Y-68841767D01*
X155179849Y-68841762D01*
X155271961Y-68644225D01*
X155271961Y-68644224D01*
X155274284Y-68639243D01*
X155285020Y-68599178D01*
X155332119Y-68423402D01*
X155332119Y-68423400D01*
X155333543Y-68418087D01*
X155353498Y-68190000D01*
X155333543Y-67961913D01*
X155332119Y-67956598D01*
X155275707Y-67746067D01*
X155275706Y-67746065D01*
X155274284Y-67740757D01*
X155269473Y-67730439D01*
X155179849Y-67538238D01*
X155179846Y-67538233D01*
X155177523Y-67533251D01*
X155046198Y-67345700D01*
X154884300Y-67183802D01*
X154879792Y-67180645D01*
X154879789Y-67180643D01*
X154801611Y-67125902D01*
X154696749Y-67052477D01*
X154691767Y-67050154D01*
X154691762Y-67050151D01*
X154494225Y-66958039D01*
X154494224Y-66958039D01*
X154489243Y-66955716D01*
X154483935Y-66954294D01*
X154483933Y-66954293D01*
X154273402Y-66897881D01*
X154273400Y-66897881D01*
X154268087Y-66896457D01*
X154040000Y-66876502D01*
X153811913Y-66896457D01*
X153806600Y-66897881D01*
X153806598Y-66897881D01*
X153596067Y-66954293D01*
X153596065Y-66954294D01*
X153590757Y-66955716D01*
X153585776Y-66958039D01*
X153585775Y-66958039D01*
X153388238Y-67050151D01*
X153388233Y-67050154D01*
X153383251Y-67052477D01*
X153278389Y-67125902D01*
X153200211Y-67180643D01*
X153200208Y-67180645D01*
X153195700Y-67183802D01*
X153033802Y-67345700D01*
X153030645Y-67350208D01*
X153030643Y-67350211D01*
X152923819Y-67502771D01*
X152868362Y-67547099D01*
X152820606Y-67556500D01*
X148219394Y-67556500D01*
X148151273Y-67536498D01*
X148116181Y-67502771D01*
X148009357Y-67350211D01*
X148009355Y-67350208D01*
X148006198Y-67345700D01*
X147844300Y-67183802D01*
X147839792Y-67180645D01*
X147839789Y-67180643D01*
X147761611Y-67125902D01*
X147656749Y-67052477D01*
X147651767Y-67050154D01*
X147651762Y-67050151D01*
X147454225Y-66958039D01*
X147454224Y-66958039D01*
X147449243Y-66955716D01*
X147443935Y-66954294D01*
X147443933Y-66954293D01*
X147233402Y-66897881D01*
X147233400Y-66897881D01*
X147228087Y-66896457D01*
X147000000Y-66876502D01*
X146771913Y-66896457D01*
X146766600Y-66897881D01*
X146766598Y-66897881D01*
X146556067Y-66954293D01*
X146556065Y-66954294D01*
X146550757Y-66955716D01*
X146545776Y-66958039D01*
X146545775Y-66958039D01*
X146348238Y-67050151D01*
X146348233Y-67050154D01*
X146343251Y-67052477D01*
X146238389Y-67125902D01*
X146160211Y-67180643D01*
X146160208Y-67180645D01*
X146155700Y-67183802D01*
X145993802Y-67345700D01*
X145990645Y-67350208D01*
X145990643Y-67350211D01*
X145883819Y-67502771D01*
X145828362Y-67547099D01*
X145780606Y-67556500D01*
X141219394Y-67556500D01*
X141151273Y-67536498D01*
X141116181Y-67502771D01*
X141009357Y-67350211D01*
X141009355Y-67350208D01*
X141006198Y-67345700D01*
X140844300Y-67183802D01*
X140839792Y-67180645D01*
X140839789Y-67180643D01*
X140761611Y-67125902D01*
X140656749Y-67052477D01*
X140651767Y-67050154D01*
X140651762Y-67050151D01*
X140454225Y-66958039D01*
X140454224Y-66958039D01*
X140449243Y-66955716D01*
X140443935Y-66954294D01*
X140443933Y-66954293D01*
X140233402Y-66897881D01*
X140233400Y-66897881D01*
X140228087Y-66896457D01*
X140000000Y-66876502D01*
X139771913Y-66896457D01*
X139766600Y-66897881D01*
X139766598Y-66897881D01*
X139556067Y-66954293D01*
X139556065Y-66954294D01*
X139550757Y-66955716D01*
X139545776Y-66958039D01*
X139545775Y-66958039D01*
X139348238Y-67050151D01*
X139348233Y-67050154D01*
X139343251Y-67052477D01*
X139238389Y-67125902D01*
X139160211Y-67180643D01*
X139160208Y-67180645D01*
X139155700Y-67183802D01*
X138993802Y-67345700D01*
X138990645Y-67350208D01*
X138990643Y-67350211D01*
X138883819Y-67502771D01*
X138828362Y-67547099D01*
X138780606Y-67556500D01*
X134219394Y-67556500D01*
X134151273Y-67536498D01*
X134116181Y-67502771D01*
X134009357Y-67350211D01*
X134009355Y-67350208D01*
X134006198Y-67345700D01*
X133844300Y-67183802D01*
X133839792Y-67180645D01*
X133839789Y-67180643D01*
X133761611Y-67125902D01*
X133656749Y-67052477D01*
X133651767Y-67050154D01*
X133651762Y-67050151D01*
X133454225Y-66958039D01*
X133454224Y-66958039D01*
X133449243Y-66955716D01*
X133443935Y-66954294D01*
X133443933Y-66954293D01*
X133233402Y-66897881D01*
X133233400Y-66897881D01*
X133228087Y-66896457D01*
X133000000Y-66876502D01*
X132771913Y-66896457D01*
X132766600Y-66897881D01*
X132766598Y-66897881D01*
X132556067Y-66954293D01*
X132556065Y-66954294D01*
X132550757Y-66955716D01*
X132545776Y-66958039D01*
X132545775Y-66958039D01*
X132348238Y-67050151D01*
X132348233Y-67050154D01*
X132343251Y-67052477D01*
X132238389Y-67125902D01*
X132160211Y-67180643D01*
X132160208Y-67180645D01*
X132155700Y-67183802D01*
X131993802Y-67345700D01*
X131862477Y-67533251D01*
X131860154Y-67538233D01*
X131860151Y-67538238D01*
X131770527Y-67730439D01*
X131765716Y-67740757D01*
X131764294Y-67746065D01*
X131764293Y-67746067D01*
X131707881Y-67956598D01*
X131706457Y-67961913D01*
X131686502Y-68190000D01*
X127933060Y-68190000D01*
X127932899Y-68185423D01*
X127942658Y-68118115D01*
X127946264Y-68093248D01*
X127946264Y-68093244D01*
X127946796Y-68089577D01*
X127948356Y-68030000D01*
X127929294Y-67822551D01*
X127872747Y-67622050D01*
X127780608Y-67435211D01*
X127655963Y-67268291D01*
X127502987Y-67126881D01*
X127326803Y-67015717D01*
X127133311Y-66938522D01*
X126928991Y-66897880D01*
X126923216Y-66897804D01*
X126923212Y-66897804D01*
X126818901Y-66896439D01*
X126720686Y-66895153D01*
X126714989Y-66896132D01*
X126714988Y-66896132D01*
X126591631Y-66917329D01*
X126515372Y-66930433D01*
X126319925Y-67002537D01*
X126140891Y-67109051D01*
X125984266Y-67246407D01*
X125980699Y-67250932D01*
X125980694Y-67250937D01*
X125902433Y-67350211D01*
X125855294Y-67410007D01*
X125852603Y-67415123D01*
X125852601Y-67415125D01*
X125792824Y-67528743D01*
X125758296Y-67594370D01*
X125696520Y-67793322D01*
X125672034Y-68000201D01*
X125405618Y-68000201D01*
X125389294Y-67822551D01*
X125332747Y-67622050D01*
X125240608Y-67435211D01*
X125115963Y-67268291D01*
X124962987Y-67126881D01*
X124786803Y-67015717D01*
X124593311Y-66938522D01*
X124388991Y-66897880D01*
X124383216Y-66897804D01*
X124383212Y-66897804D01*
X124278901Y-66896439D01*
X124180686Y-66895153D01*
X124174989Y-66896132D01*
X124174988Y-66896132D01*
X124064493Y-66915119D01*
X123993969Y-66906942D01*
X123939061Y-66861935D01*
X123917202Y-66794388D01*
X123935332Y-66725745D01*
X123954060Y-66701844D01*
X124709917Y-65945987D01*
X151418721Y-65945987D01*
X151427548Y-65957605D01*
X151650281Y-66119430D01*
X151656961Y-66123670D01*
X151926572Y-66271890D01*
X151933707Y-66275247D01*
X152219770Y-66388508D01*
X152227296Y-66390953D01*
X152525279Y-66467462D01*
X152533050Y-66468945D01*
X152838278Y-66507503D01*
X152846169Y-66508000D01*
X153153831Y-66508000D01*
X153161722Y-66507503D01*
X153466950Y-66468945D01*
X153474721Y-66467462D01*
X153772704Y-66390953D01*
X153780230Y-66388508D01*
X154066293Y-66275247D01*
X154073428Y-66271890D01*
X154343039Y-66123670D01*
X154349719Y-66119430D01*
X154572823Y-65957336D01*
X154581246Y-65946413D01*
X154574342Y-65933552D01*
X153012812Y-64372022D01*
X152998868Y-64364408D01*
X152997035Y-64364539D01*
X152990420Y-64368790D01*
X151425334Y-65933876D01*
X151418721Y-65945987D01*
X124709917Y-65945987D01*
X125718608Y-64937296D01*
X125780920Y-64903270D01*
X125851735Y-64908335D01*
X125896798Y-64937296D01*
X125965700Y-65006198D01*
X125970208Y-65009355D01*
X125970211Y-65009357D01*
X126006322Y-65034642D01*
X126153251Y-65137523D01*
X126158233Y-65139846D01*
X126158238Y-65139849D01*
X126328825Y-65219394D01*
X126360757Y-65234284D01*
X126366065Y-65235706D01*
X126366067Y-65235707D01*
X126576598Y-65292119D01*
X126576600Y-65292119D01*
X126581913Y-65293543D01*
X126810000Y-65313498D01*
X127038087Y-65293543D01*
X127043400Y-65292119D01*
X127043402Y-65292119D01*
X127253933Y-65235707D01*
X127253935Y-65235706D01*
X127259243Y-65234284D01*
X127291175Y-65219394D01*
X127461762Y-65139849D01*
X127461767Y-65139846D01*
X127466749Y-65137523D01*
X127613678Y-65034642D01*
X127649789Y-65009357D01*
X127649792Y-65009355D01*
X127654300Y-65006198D01*
X127816198Y-64844300D01*
X127828747Y-64826379D01*
X127944366Y-64661257D01*
X127947523Y-64656749D01*
X127949846Y-64651767D01*
X127949849Y-64651762D01*
X128041961Y-64454225D01*
X128041961Y-64454224D01*
X128044284Y-64449243D01*
X128050591Y-64425707D01*
X128102119Y-64233402D01*
X128102119Y-64233400D01*
X128103543Y-64228087D01*
X128123152Y-64003958D01*
X150487290Y-64003958D01*
X150506607Y-64310994D01*
X150507600Y-64318855D01*
X150565246Y-64621046D01*
X150567217Y-64628723D01*
X150662284Y-64921309D01*
X150665199Y-64928672D01*
X150796189Y-65207041D01*
X150800001Y-65213974D01*
X150964851Y-65473736D01*
X150969495Y-65480129D01*
X151044497Y-65570790D01*
X151057014Y-65579245D01*
X151067752Y-65573038D01*
X152627978Y-64012812D01*
X152634356Y-64001132D01*
X153364408Y-64001132D01*
X153364539Y-64002965D01*
X153368790Y-64009580D01*
X154931145Y-65571935D01*
X154944407Y-65579177D01*
X154954512Y-65571988D01*
X155030505Y-65480129D01*
X155035149Y-65473736D01*
X155199999Y-65213974D01*
X155203811Y-65207041D01*
X155334801Y-64928672D01*
X155337716Y-64921309D01*
X155432783Y-64628723D01*
X155434754Y-64621046D01*
X155492400Y-64318855D01*
X155493393Y-64310994D01*
X155512710Y-64003958D01*
X155512710Y-63996042D01*
X155493393Y-63689006D01*
X155492400Y-63681145D01*
X155434754Y-63378954D01*
X155432783Y-63371277D01*
X155337716Y-63078691D01*
X155334801Y-63071328D01*
X155203811Y-62792959D01*
X155199999Y-62786026D01*
X155035149Y-62526264D01*
X155030505Y-62519871D01*
X154955503Y-62429210D01*
X154942986Y-62420755D01*
X154932248Y-62426962D01*
X153372022Y-63987188D01*
X153364408Y-64001132D01*
X152634356Y-64001132D01*
X152635592Y-63998868D01*
X152635461Y-63997035D01*
X152631210Y-63990420D01*
X151068855Y-62428065D01*
X151055593Y-62420823D01*
X151045488Y-62428012D01*
X150969495Y-62519871D01*
X150964851Y-62526264D01*
X150800001Y-62786026D01*
X150796189Y-62792959D01*
X150665199Y-63071328D01*
X150662284Y-63078691D01*
X150567217Y-63371277D01*
X150565246Y-63378954D01*
X150507600Y-63681145D01*
X150506607Y-63689006D01*
X150487290Y-63996042D01*
X150487290Y-64003958D01*
X128123152Y-64003958D01*
X128123498Y-64000000D01*
X128103543Y-63771913D01*
X128066571Y-63633933D01*
X128045707Y-63556067D01*
X128045706Y-63556065D01*
X128044284Y-63550757D01*
X128039564Y-63540634D01*
X127949849Y-63348238D01*
X127949846Y-63348233D01*
X127947523Y-63343251D01*
X127836382Y-63184525D01*
X127819357Y-63160211D01*
X127819355Y-63160208D01*
X127816198Y-63155700D01*
X127654300Y-62993802D01*
X127649792Y-62990645D01*
X127649789Y-62990643D01*
X127514593Y-62895978D01*
X127466749Y-62862477D01*
X127461767Y-62860154D01*
X127461762Y-62860151D01*
X127264225Y-62768039D01*
X127264224Y-62768039D01*
X127259243Y-62765716D01*
X127253935Y-62764294D01*
X127253933Y-62764293D01*
X127043402Y-62707881D01*
X127043400Y-62707881D01*
X127038087Y-62706457D01*
X126810000Y-62686502D01*
X126581913Y-62706457D01*
X126576600Y-62707881D01*
X126576598Y-62707881D01*
X126366067Y-62764293D01*
X126366065Y-62764294D01*
X126360757Y-62765716D01*
X126355776Y-62768039D01*
X126355775Y-62768039D01*
X126158238Y-62860151D01*
X126158233Y-62860154D01*
X126153251Y-62862477D01*
X126105407Y-62895978D01*
X125970211Y-62990643D01*
X125970208Y-62990645D01*
X125965700Y-62993802D01*
X125803802Y-63155700D01*
X125800645Y-63160208D01*
X125800643Y-63160211D01*
X125681282Y-63330676D01*
X125625825Y-63375004D01*
X125609401Y-63380447D01*
X125609068Y-63380532D01*
X125601203Y-63381526D01*
X125593837Y-63384442D01*
X125593831Y-63384444D01*
X125560098Y-63397800D01*
X125548868Y-63401645D01*
X125514017Y-63411770D01*
X125506407Y-63413981D01*
X125499584Y-63418016D01*
X125488966Y-63424295D01*
X125471213Y-63432992D01*
X125463568Y-63436019D01*
X125452383Y-63440448D01*
X125445968Y-63445109D01*
X125416612Y-63466437D01*
X125406695Y-63472951D01*
X125368638Y-63495458D01*
X125354317Y-63509779D01*
X125339284Y-63522619D01*
X125322893Y-63534528D01*
X125304716Y-63556500D01*
X125294702Y-63568605D01*
X125286712Y-63577384D01*
X121994389Y-66869706D01*
X121932077Y-66903732D01*
X121880713Y-66904190D01*
X121848991Y-66897880D01*
X121843216Y-66897804D01*
X121843212Y-66897804D01*
X121738901Y-66896439D01*
X121640686Y-66895153D01*
X121634989Y-66896132D01*
X121634988Y-66896132D01*
X121511631Y-66917329D01*
X121435372Y-66930433D01*
X121239925Y-67002537D01*
X121060891Y-67109051D01*
X120904266Y-67246407D01*
X120900699Y-67250932D01*
X120900694Y-67250937D01*
X120822433Y-67350211D01*
X120775294Y-67410007D01*
X120772603Y-67415123D01*
X120772601Y-67415125D01*
X120712824Y-67528743D01*
X120678296Y-67594370D01*
X120616520Y-67793322D01*
X120592034Y-68000201D01*
X120605659Y-68208078D01*
X120656938Y-68409991D01*
X120744155Y-68599178D01*
X120864387Y-68769303D01*
X121013609Y-68914669D01*
X121018405Y-68917874D01*
X121018408Y-68917876D01*
X121158961Y-69011790D01*
X121186823Y-69030407D01*
X121192131Y-69032688D01*
X121192132Y-69032688D01*
X121372926Y-69110363D01*
X121372929Y-69110364D01*
X121378229Y-69112641D01*
X121383858Y-69113915D01*
X121383859Y-69113915D01*
X121575778Y-69157342D01*
X121575783Y-69157343D01*
X121581415Y-69158617D01*
X121587186Y-69158844D01*
X121587188Y-69158844D01*
X121649508Y-69161292D01*
X121789577Y-69166796D01*
X121892661Y-69151849D01*
X121990030Y-69137732D01*
X121990035Y-69137731D01*
X121995744Y-69136903D01*
X122001208Y-69135048D01*
X122001213Y-69135047D01*
X122187543Y-69071796D01*
X122193011Y-69069940D01*
X122374772Y-68968149D01*
X122534939Y-68834939D01*
X122668149Y-68674772D01*
X122769940Y-68493011D01*
X122796341Y-68415237D01*
X122835047Y-68301213D01*
X122835048Y-68301208D01*
X122836903Y-68295744D01*
X122837731Y-68290035D01*
X122837732Y-68290030D01*
X122866263Y-68093251D01*
X122866796Y-68089577D01*
X122868356Y-68030000D01*
X122853359Y-67866792D01*
X122867043Y-67797128D01*
X122889735Y-67766169D01*
X122939051Y-67716853D01*
X123001363Y-67682827D01*
X123072178Y-67687892D01*
X123129014Y-67730439D01*
X123153825Y-67796959D01*
X123153273Y-67820755D01*
X123132034Y-68000201D01*
X123145659Y-68208078D01*
X123196938Y-68409991D01*
X123284155Y-68599178D01*
X123404387Y-68769303D01*
X123553609Y-68914669D01*
X123580502Y-68932638D01*
X123626029Y-68987114D01*
X123636500Y-69037403D01*
X123636500Y-69555406D01*
X123616498Y-69623527D01*
X123599595Y-69644501D01*
X119724500Y-73519595D01*
X119662188Y-73553621D01*
X119635405Y-73556500D01*
X115219394Y-73556500D01*
X115151273Y-73536498D01*
X115116181Y-73502771D01*
X115009357Y-73350211D01*
X115009355Y-73350208D01*
X115006198Y-73345700D01*
X114844300Y-73183802D01*
X114839792Y-73180645D01*
X114839789Y-73180643D01*
X114729207Y-73103213D01*
X114684879Y-73047756D01*
X114677570Y-72977137D01*
X114709601Y-72913776D01*
X114729207Y-72896787D01*
X114839789Y-72819357D01*
X114839792Y-72819355D01*
X114844300Y-72816198D01*
X115006198Y-72654300D01*
X115049134Y-72592982D01*
X115101815Y-72517745D01*
X115137523Y-72466749D01*
X115139846Y-72461767D01*
X115139849Y-72461762D01*
X115231961Y-72264225D01*
X115231961Y-72264224D01*
X115234284Y-72259243D01*
X115293543Y-72038087D01*
X115313498Y-71810000D01*
X115293543Y-71581913D01*
X115265862Y-71478607D01*
X115235707Y-71366067D01*
X115235706Y-71366065D01*
X115234284Y-71360757D01*
X115186948Y-71259243D01*
X115139849Y-71158238D01*
X115139846Y-71158233D01*
X115137523Y-71153251D01*
X115006198Y-70965700D01*
X114844300Y-70803802D01*
X114839792Y-70800645D01*
X114839789Y-70800643D01*
X114761611Y-70745902D01*
X114656749Y-70672477D01*
X114651767Y-70670154D01*
X114651762Y-70670151D01*
X114454225Y-70578039D01*
X114454224Y-70578039D01*
X114449243Y-70575716D01*
X114443935Y-70574294D01*
X114443933Y-70574293D01*
X114233402Y-70517881D01*
X114233400Y-70517881D01*
X114228087Y-70516457D01*
X114000000Y-70496502D01*
X113771913Y-70516457D01*
X113766600Y-70517881D01*
X113766598Y-70517881D01*
X113556067Y-70574293D01*
X113556065Y-70574294D01*
X113550757Y-70575716D01*
X113545776Y-70578039D01*
X113545775Y-70578039D01*
X113348238Y-70670151D01*
X113348233Y-70670154D01*
X113343251Y-70672477D01*
X113238389Y-70745902D01*
X113160211Y-70800643D01*
X113160208Y-70800645D01*
X113155700Y-70803802D01*
X112993802Y-70965700D01*
X112862477Y-71153251D01*
X112860154Y-71158233D01*
X112860151Y-71158238D01*
X112813052Y-71259243D01*
X112765716Y-71360757D01*
X112764294Y-71366065D01*
X112764293Y-71366067D01*
X112734138Y-71478607D01*
X112706457Y-71581913D01*
X112686502Y-71810000D01*
X112706457Y-72038087D01*
X112765716Y-72259243D01*
X112768039Y-72264224D01*
X112768039Y-72264225D01*
X112860151Y-72461762D01*
X112860154Y-72461767D01*
X112862477Y-72466749D01*
X112898185Y-72517745D01*
X112950867Y-72592982D01*
X112993802Y-72654300D01*
X113155700Y-72816198D01*
X113160208Y-72819355D01*
X113160211Y-72819357D01*
X113270793Y-72896787D01*
X113315121Y-72952244D01*
X113322430Y-73022863D01*
X113290399Y-73086224D01*
X113270793Y-73103213D01*
X113160211Y-73180643D01*
X113160208Y-73180645D01*
X113155700Y-73183802D01*
X112993802Y-73345700D01*
X112862477Y-73533251D01*
X112860154Y-73538233D01*
X112860151Y-73538238D01*
X112798521Y-73670405D01*
X112765716Y-73740757D01*
X112706457Y-73961913D01*
X112686502Y-74190000D01*
X109633500Y-74190000D01*
X109633500Y-72029394D01*
X109653502Y-71961273D01*
X109687229Y-71926181D01*
X109839789Y-71819357D01*
X109839792Y-71819355D01*
X109844300Y-71816198D01*
X110006198Y-71654300D01*
X110017458Y-71638220D01*
X110067209Y-71567168D01*
X110137523Y-71466749D01*
X110139846Y-71461767D01*
X110139849Y-71461762D01*
X110231961Y-71264225D01*
X110231961Y-71264224D01*
X110234284Y-71259243D01*
X110261349Y-71158238D01*
X110292119Y-71043402D01*
X110292119Y-71043400D01*
X110293543Y-71038087D01*
X110313498Y-70810000D01*
X110293543Y-70581913D01*
X110284016Y-70546357D01*
X110235707Y-70366067D01*
X110235706Y-70366065D01*
X110234284Y-70360757D01*
X110211038Y-70310905D01*
X110139849Y-70158238D01*
X110139846Y-70158233D01*
X110137523Y-70153251D01*
X110058442Y-70040312D01*
X110009357Y-69970211D01*
X110009355Y-69970208D01*
X110006198Y-69965700D01*
X109844300Y-69803802D01*
X109839792Y-69800645D01*
X109839789Y-69800643D01*
X109761611Y-69745902D01*
X109656749Y-69672477D01*
X109651767Y-69670154D01*
X109651762Y-69670151D01*
X109454225Y-69578039D01*
X109454224Y-69578039D01*
X109449243Y-69575716D01*
X109443935Y-69574294D01*
X109443933Y-69574293D01*
X109233402Y-69517881D01*
X109233400Y-69517881D01*
X109228087Y-69516457D01*
X109000000Y-69496502D01*
X108771913Y-69516457D01*
X108766600Y-69517881D01*
X108766598Y-69517881D01*
X108556067Y-69574293D01*
X108556065Y-69574294D01*
X108550757Y-69575716D01*
X108545776Y-69578039D01*
X108545775Y-69578039D01*
X108348238Y-69670151D01*
X108348233Y-69670154D01*
X108343251Y-69672477D01*
X108238389Y-69745902D01*
X108160211Y-69800643D01*
X108160208Y-69800645D01*
X108155700Y-69803802D01*
X107993802Y-69965700D01*
X107990645Y-69970208D01*
X107990643Y-69970211D01*
X107941558Y-70040312D01*
X107862477Y-70153251D01*
X107860154Y-70158233D01*
X107860151Y-70158238D01*
X107788962Y-70310905D01*
X107765716Y-70360757D01*
X107764294Y-70366065D01*
X107764293Y-70366067D01*
X107715984Y-70546357D01*
X107706457Y-70581913D01*
X107686502Y-70810000D01*
X107706457Y-71038087D01*
X107707881Y-71043400D01*
X107707881Y-71043402D01*
X107738652Y-71158238D01*
X107765716Y-71259243D01*
X107768039Y-71264224D01*
X107768039Y-71264225D01*
X107860151Y-71461762D01*
X107860154Y-71461767D01*
X107862477Y-71466749D01*
X107932791Y-71567168D01*
X107982543Y-71638220D01*
X107993802Y-71654300D01*
X108155700Y-71816198D01*
X108160208Y-71819355D01*
X108160211Y-71819357D01*
X108312771Y-71926181D01*
X108357099Y-71981638D01*
X108366500Y-72029394D01*
X108366500Y-73552325D01*
X108346498Y-73620446D01*
X108292842Y-73666939D01*
X108222568Y-73677043D01*
X108157988Y-73647549D01*
X108134708Y-73620765D01*
X108122574Y-73602009D01*
X108119764Y-73597665D01*
X107963887Y-73426358D01*
X107959836Y-73423159D01*
X107959832Y-73423155D01*
X107786177Y-73286011D01*
X107786172Y-73286008D01*
X107782123Y-73282810D01*
X107777607Y-73280317D01*
X107777604Y-73280315D01*
X107583879Y-73173373D01*
X107583875Y-73173371D01*
X107579355Y-73170876D01*
X107574486Y-73169152D01*
X107574482Y-73169150D01*
X107365903Y-73095288D01*
X107365899Y-73095287D01*
X107361028Y-73093562D01*
X107355935Y-73092655D01*
X107355932Y-73092654D01*
X107138095Y-73053851D01*
X107138089Y-73053850D01*
X107133006Y-73052945D01*
X107060096Y-73052054D01*
X106906581Y-73050179D01*
X106906579Y-73050179D01*
X106901411Y-73050116D01*
X106786219Y-73067743D01*
X106677573Y-73084368D01*
X106677571Y-73084369D01*
X106672464Y-73085150D01*
X106667549Y-73086757D01*
X106667547Y-73086757D01*
X106631889Y-73098412D01*
X106560925Y-73100565D01*
X106503647Y-73067743D01*
X105115555Y-71679650D01*
X105081529Y-71617338D01*
X105086594Y-71546522D01*
X105101438Y-71518283D01*
X105102627Y-71516586D01*
X105137523Y-71466749D01*
X105139846Y-71461767D01*
X105139849Y-71461762D01*
X105231961Y-71264225D01*
X105231961Y-71264224D01*
X105234284Y-71259243D01*
X105261349Y-71158238D01*
X105292119Y-71043402D01*
X105292119Y-71043400D01*
X105293543Y-71038087D01*
X105313498Y-70810000D01*
X105293543Y-70581913D01*
X105292119Y-70576598D01*
X105292118Y-70576591D01*
X105276541Y-70518459D01*
X105278230Y-70447483D01*
X105309152Y-70396752D01*
X110845500Y-64860405D01*
X110907812Y-64826379D01*
X110934595Y-64823500D01*
X112780606Y-64823500D01*
X112848727Y-64843502D01*
X112883819Y-64877229D01*
X112990643Y-65029789D01*
X112993802Y-65034300D01*
X113155700Y-65196198D01*
X113160208Y-65199355D01*
X113160211Y-65199357D01*
X113238389Y-65254098D01*
X113343251Y-65327523D01*
X113348233Y-65329846D01*
X113348238Y-65329849D01*
X113545775Y-65421961D01*
X113550757Y-65424284D01*
X113556065Y-65425706D01*
X113556067Y-65425707D01*
X113766598Y-65482119D01*
X113766600Y-65482119D01*
X113771913Y-65483543D01*
X114000000Y-65503498D01*
X114228087Y-65483543D01*
X114233400Y-65482119D01*
X114233402Y-65482119D01*
X114443933Y-65425707D01*
X114443935Y-65425706D01*
X114449243Y-65424284D01*
X114454225Y-65421961D01*
X114651762Y-65329849D01*
X114651767Y-65329846D01*
X114656749Y-65327523D01*
X114761611Y-65254098D01*
X114839789Y-65199357D01*
X114839792Y-65199355D01*
X114844300Y-65196198D01*
X115006198Y-65034300D01*
X115009357Y-65029789D01*
X115116181Y-64877229D01*
X115171638Y-64832901D01*
X115219394Y-64823500D01*
X118110812Y-64823500D01*
X118178933Y-64843502D01*
X118199907Y-64860405D01*
X118345700Y-65006198D01*
X118350208Y-65009355D01*
X118350211Y-65009357D01*
X118502771Y-65116181D01*
X118547099Y-65171638D01*
X118556500Y-65219394D01*
X118556500Y-67020733D01*
X118536498Y-67088854D01*
X118513577Y-67115465D01*
X118496090Y-67130801D01*
X118364266Y-67246407D01*
X118360699Y-67250932D01*
X118360694Y-67250937D01*
X118282433Y-67350211D01*
X118235294Y-67410007D01*
X118232603Y-67415123D01*
X118232601Y-67415125D01*
X118172824Y-67528743D01*
X118138296Y-67594370D01*
X118076520Y-67793322D01*
X118052034Y-68000201D01*
X118065659Y-68208078D01*
X118116938Y-68409991D01*
X118204155Y-68599178D01*
X118324387Y-68769303D01*
X118473609Y-68914669D01*
X118478405Y-68917874D01*
X118478408Y-68917876D01*
X118618961Y-69011790D01*
X118646823Y-69030407D01*
X118652131Y-69032688D01*
X118652132Y-69032688D01*
X118832926Y-69110363D01*
X118832929Y-69110364D01*
X118838229Y-69112641D01*
X118843858Y-69113915D01*
X118843859Y-69113915D01*
X119035778Y-69157342D01*
X119035783Y-69157343D01*
X119041415Y-69158617D01*
X119047186Y-69158844D01*
X119047188Y-69158844D01*
X119109508Y-69161292D01*
X119249577Y-69166796D01*
X119352661Y-69151849D01*
X119450030Y-69137732D01*
X119450035Y-69137731D01*
X119455744Y-69136903D01*
X119461208Y-69135048D01*
X119461213Y-69135047D01*
X119647543Y-69071796D01*
X119653011Y-69069940D01*
X119834772Y-68968149D01*
X119994939Y-68834939D01*
X120128149Y-68674772D01*
X120229940Y-68493011D01*
X120256341Y-68415237D01*
X120295047Y-68301213D01*
X120295048Y-68301208D01*
X120296903Y-68295744D01*
X120297731Y-68290035D01*
X120297732Y-68290030D01*
X120326263Y-68093251D01*
X120326796Y-68089577D01*
X120328356Y-68030000D01*
X120309294Y-67822551D01*
X120252747Y-67622050D01*
X120160608Y-67435211D01*
X120035963Y-67268291D01*
X119882987Y-67126881D01*
X119878104Y-67123800D01*
X119873522Y-67120284D01*
X119875075Y-67118260D01*
X119835336Y-67073179D01*
X119823500Y-67019864D01*
X119823500Y-65219394D01*
X119843502Y-65151273D01*
X119877229Y-65116181D01*
X120029789Y-65009357D01*
X120029792Y-65009355D01*
X120034300Y-65006198D01*
X120196198Y-64844300D01*
X120208747Y-64826379D01*
X120324366Y-64661257D01*
X120327523Y-64656749D01*
X120329846Y-64651767D01*
X120329849Y-64651762D01*
X120421961Y-64454225D01*
X120421961Y-64454224D01*
X120424284Y-64449243D01*
X120430591Y-64425707D01*
X120482119Y-64233402D01*
X120482119Y-64233400D01*
X120483543Y-64228087D01*
X120503498Y-64000000D01*
X120483543Y-63771913D01*
X120446571Y-63633933D01*
X120425707Y-63556067D01*
X120425706Y-63556065D01*
X120424284Y-63550757D01*
X120419564Y-63540634D01*
X120329849Y-63348238D01*
X120329846Y-63348233D01*
X120327523Y-63343251D01*
X120216382Y-63184525D01*
X120199357Y-63160211D01*
X120199355Y-63160208D01*
X120196198Y-63155700D01*
X120034300Y-62993802D01*
X120029792Y-62990645D01*
X120029789Y-62990643D01*
X119894593Y-62895978D01*
X119846749Y-62862477D01*
X119841767Y-62860154D01*
X119841762Y-62860151D01*
X119644225Y-62768039D01*
X119644224Y-62768039D01*
X119639243Y-62765716D01*
X119633935Y-62764294D01*
X119633933Y-62764293D01*
X119423402Y-62707881D01*
X119423400Y-62707881D01*
X119418087Y-62706457D01*
X119190000Y-62686502D01*
X118961913Y-62706457D01*
X118956600Y-62707881D01*
X118956598Y-62707881D01*
X118746067Y-62764293D01*
X118746065Y-62764294D01*
X118740757Y-62765716D01*
X118735776Y-62768039D01*
X118735775Y-62768039D01*
X118538238Y-62860151D01*
X118538233Y-62860154D01*
X118533251Y-62862477D01*
X118485407Y-62895978D01*
X118350211Y-62990643D01*
X118350208Y-62990645D01*
X118345700Y-62993802D01*
X118183802Y-63155700D01*
X118180645Y-63160208D01*
X118180643Y-63160211D01*
X118163618Y-63184525D01*
X118052477Y-63343251D01*
X118050153Y-63348236D01*
X118050149Y-63348242D01*
X117986962Y-63483749D01*
X117940045Y-63537035D01*
X117872767Y-63556500D01*
X115219394Y-63556500D01*
X115151273Y-63536498D01*
X115116181Y-63502771D01*
X115009357Y-63350211D01*
X115009355Y-63350208D01*
X115006198Y-63345700D01*
X114844300Y-63183802D01*
X114839792Y-63180645D01*
X114839789Y-63180643D01*
X114694186Y-63078691D01*
X114656749Y-63052477D01*
X114651767Y-63050154D01*
X114651762Y-63050151D01*
X114454225Y-62958039D01*
X114454224Y-62958039D01*
X114449243Y-62955716D01*
X114443935Y-62954294D01*
X114443933Y-62954293D01*
X114233402Y-62897881D01*
X114233400Y-62897881D01*
X114228087Y-62896457D01*
X114000000Y-62876502D01*
X113771913Y-62896457D01*
X113766600Y-62897881D01*
X113766598Y-62897881D01*
X113556067Y-62954293D01*
X113556065Y-62954294D01*
X113550757Y-62955716D01*
X113545776Y-62958039D01*
X113545775Y-62958039D01*
X113348238Y-63050151D01*
X113348233Y-63050154D01*
X113343251Y-63052477D01*
X113305814Y-63078691D01*
X113160211Y-63180643D01*
X113160208Y-63180645D01*
X113155700Y-63183802D01*
X112993802Y-63345700D01*
X112990645Y-63350208D01*
X112990643Y-63350211D01*
X112883819Y-63502771D01*
X112828362Y-63547099D01*
X112780606Y-63556500D01*
X110698768Y-63556500D01*
X110687585Y-63555973D01*
X110680092Y-63554298D01*
X110672166Y-63554547D01*
X110672165Y-63554547D01*
X110612002Y-63556438D01*
X110608044Y-63556500D01*
X110580144Y-63556500D01*
X110576154Y-63557004D01*
X110564320Y-63557936D01*
X110520111Y-63559326D01*
X110512497Y-63561538D01*
X110512492Y-63561539D01*
X110500659Y-63564977D01*
X110481296Y-63568988D01*
X110461203Y-63571526D01*
X110453834Y-63574444D01*
X110446156Y-63576415D01*
X110445322Y-63573167D01*
X110389905Y-63578256D01*
X110326919Y-63545494D01*
X110291644Y-63483881D01*
X110292397Y-63429034D01*
X110291164Y-63428817D01*
X110292119Y-63423402D01*
X110293543Y-63418087D01*
X110313498Y-63190000D01*
X110293543Y-62961913D01*
X110274721Y-62891670D01*
X110235707Y-62746067D01*
X110235706Y-62746065D01*
X110234284Y-62740757D01*
X110218290Y-62706457D01*
X110139849Y-62538238D01*
X110139846Y-62538233D01*
X110137523Y-62533251D01*
X110006198Y-62345700D01*
X109844300Y-62183802D01*
X109839792Y-62180645D01*
X109839789Y-62180643D01*
X109761611Y-62125902D01*
X109658334Y-62053587D01*
X151418754Y-62053587D01*
X151425658Y-62066448D01*
X152987188Y-63627978D01*
X153001132Y-63635592D01*
X153002965Y-63635461D01*
X153009580Y-63631210D01*
X154574666Y-62066124D01*
X154581279Y-62054013D01*
X154572452Y-62042395D01*
X154349719Y-61880570D01*
X154343039Y-61876330D01*
X154073428Y-61728110D01*
X154066293Y-61724753D01*
X153780230Y-61611492D01*
X153772704Y-61609047D01*
X153474721Y-61532538D01*
X153466950Y-61531055D01*
X153161722Y-61492497D01*
X153153831Y-61492000D01*
X152846169Y-61492000D01*
X152838278Y-61492497D01*
X152533050Y-61531055D01*
X152525279Y-61532538D01*
X152227296Y-61609047D01*
X152219770Y-61611492D01*
X151933707Y-61724753D01*
X151926572Y-61728110D01*
X151656961Y-61876330D01*
X151650281Y-61880570D01*
X151427177Y-62042664D01*
X151418754Y-62053587D01*
X109658334Y-62053587D01*
X109656749Y-62052477D01*
X109651767Y-62050154D01*
X109651762Y-62050151D01*
X109454225Y-61958039D01*
X109454224Y-61958039D01*
X109449243Y-61955716D01*
X109443935Y-61954294D01*
X109443933Y-61954293D01*
X109233402Y-61897881D01*
X109233400Y-61897881D01*
X109228087Y-61896457D01*
X109000000Y-61876502D01*
X108771913Y-61896457D01*
X108766600Y-61897881D01*
X108766598Y-61897881D01*
X108556067Y-61954293D01*
X108556065Y-61954294D01*
X108550757Y-61955716D01*
X108545776Y-61958039D01*
X108545775Y-61958039D01*
X108348238Y-62050151D01*
X108348233Y-62050154D01*
X108343251Y-62052477D01*
X108238389Y-62125902D01*
X108160211Y-62180643D01*
X108160208Y-62180645D01*
X108155700Y-62183802D01*
X107993802Y-62345700D01*
X107990645Y-62350208D01*
X107990643Y-62350211D01*
X107883819Y-62502771D01*
X107828362Y-62547099D01*
X107780606Y-62556500D01*
X105219394Y-62556500D01*
X105151273Y-62536498D01*
X105116181Y-62502771D01*
X105009357Y-62350211D01*
X105009355Y-62350208D01*
X105006198Y-62345700D01*
X104844300Y-62183802D01*
X104839792Y-62180645D01*
X104839789Y-62180643D01*
X104761611Y-62125902D01*
X104656749Y-62052477D01*
X104651767Y-62050154D01*
X104651762Y-62050151D01*
X104454225Y-61958039D01*
X104454224Y-61958039D01*
X104449243Y-61955716D01*
X104443935Y-61954294D01*
X104443933Y-61954293D01*
X104233402Y-61897881D01*
X104233400Y-61897881D01*
X104228087Y-61896457D01*
X104000000Y-61876502D01*
X103771913Y-61896457D01*
X103766600Y-61897881D01*
X103766598Y-61897881D01*
X103556067Y-61954293D01*
X103556065Y-61954294D01*
X103550757Y-61955716D01*
X103545776Y-61958039D01*
X103545775Y-61958039D01*
X103348238Y-62050151D01*
X103348233Y-62050154D01*
X103343251Y-62052477D01*
X103238389Y-62125902D01*
X103160211Y-62180643D01*
X103160208Y-62180645D01*
X103155700Y-62183802D01*
X102993802Y-62345700D01*
X102862477Y-62533251D01*
X102860154Y-62538233D01*
X102860151Y-62538238D01*
X102781710Y-62706457D01*
X102765716Y-62740757D01*
X102764294Y-62746065D01*
X102764293Y-62746067D01*
X102725279Y-62891670D01*
X102706457Y-62961913D01*
X102686502Y-63190000D01*
X102706457Y-63418087D01*
X102707881Y-63423400D01*
X102707881Y-63423402D01*
X102763564Y-63631210D01*
X102765716Y-63639243D01*
X102768039Y-63644224D01*
X102768039Y-63644225D01*
X102860151Y-63841762D01*
X102860154Y-63841767D01*
X102862477Y-63846749D01*
X102935902Y-63951611D01*
X102967709Y-63997035D01*
X102993802Y-64034300D01*
X103155700Y-64196198D01*
X103160208Y-64199355D01*
X103160211Y-64199357D01*
X103238389Y-64254098D01*
X103343251Y-64327523D01*
X103348233Y-64329846D01*
X103348238Y-64329849D01*
X103474742Y-64388838D01*
X103550757Y-64424284D01*
X103556065Y-64425706D01*
X103556067Y-64425707D01*
X103766598Y-64482119D01*
X103766600Y-64482119D01*
X103771913Y-64483543D01*
X104000000Y-64503498D01*
X104228087Y-64483543D01*
X104233400Y-64482119D01*
X104233402Y-64482119D01*
X104443933Y-64425707D01*
X104443935Y-64425706D01*
X104449243Y-64424284D01*
X104525258Y-64388838D01*
X104651762Y-64329849D01*
X104651767Y-64329846D01*
X104656749Y-64327523D01*
X104761611Y-64254098D01*
X104839789Y-64199357D01*
X104839792Y-64199355D01*
X104844300Y-64196198D01*
X105006198Y-64034300D01*
X105021244Y-64012812D01*
X105116181Y-63877229D01*
X105171638Y-63832901D01*
X105219394Y-63823500D01*
X107780606Y-63823500D01*
X107848727Y-63843502D01*
X107883819Y-63877229D01*
X107978756Y-64012812D01*
X107993802Y-64034300D01*
X108155700Y-64196198D01*
X108160208Y-64199355D01*
X108160211Y-64199357D01*
X108238389Y-64254098D01*
X108343251Y-64327523D01*
X108348233Y-64329846D01*
X108348238Y-64329849D01*
X108474742Y-64388838D01*
X108550757Y-64424284D01*
X108556065Y-64425706D01*
X108556067Y-64425707D01*
X108766598Y-64482119D01*
X108766600Y-64482119D01*
X108771913Y-64483543D01*
X109000000Y-64503498D01*
X109005475Y-64503019D01*
X109105100Y-64494303D01*
X109174705Y-64508292D01*
X109225698Y-64557692D01*
X109241888Y-64626818D01*
X109218135Y-64693723D01*
X109205177Y-64708919D01*
X104413248Y-69500848D01*
X104350936Y-69534874D01*
X104291541Y-69533459D01*
X104233409Y-69517882D01*
X104233398Y-69517880D01*
X104228087Y-69516457D01*
X104000000Y-69496502D01*
X103771913Y-69516457D01*
X103766600Y-69517881D01*
X103766598Y-69517881D01*
X103556067Y-69574293D01*
X103556065Y-69574294D01*
X103550757Y-69575716D01*
X103545776Y-69578039D01*
X103545775Y-69578039D01*
X103348238Y-69670151D01*
X103348233Y-69670154D01*
X103343251Y-69672477D01*
X103238389Y-69745902D01*
X103160211Y-69800643D01*
X103160208Y-69800645D01*
X103155700Y-69803802D01*
X102993802Y-69965700D01*
X102990645Y-69970208D01*
X102990643Y-69970211D01*
X102941558Y-70040312D01*
X102862477Y-70153251D01*
X102860154Y-70158233D01*
X102860151Y-70158238D01*
X102788962Y-70310905D01*
X102765716Y-70360757D01*
X102764294Y-70366065D01*
X102764293Y-70366067D01*
X102715984Y-70546357D01*
X102706457Y-70581913D01*
X102686502Y-70810000D01*
X102706457Y-71038087D01*
X102707881Y-71043400D01*
X102707881Y-71043402D01*
X102738652Y-71158238D01*
X102765716Y-71259243D01*
X102768039Y-71264224D01*
X102768039Y-71264225D01*
X102860151Y-71461762D01*
X102860154Y-71461767D01*
X102862477Y-71466749D01*
X102932791Y-71567168D01*
X102982543Y-71638220D01*
X102993802Y-71654300D01*
X103155700Y-71816198D01*
X103160208Y-71819355D01*
X103160211Y-71819357D01*
X103238389Y-71874098D01*
X103343251Y-71947523D01*
X103348233Y-71949846D01*
X103348238Y-71949849D01*
X103518825Y-72029394D01*
X103550757Y-72044284D01*
X103556065Y-72045706D01*
X103556067Y-72045707D01*
X103706144Y-72085920D01*
X103762628Y-72118532D01*
X105609154Y-73965058D01*
X105643180Y-74027370D01*
X105641476Y-74087825D01*
X105611707Y-74195169D01*
X105587095Y-74425469D01*
X105587392Y-74430622D01*
X105587392Y-74430625D01*
X105592341Y-74516457D01*
X105600427Y-74656697D01*
X105601566Y-74661750D01*
X105601566Y-74661752D01*
X105641623Y-74839500D01*
X105637087Y-74910351D01*
X105607801Y-74956295D01*
X100857747Y-79706348D01*
X100849461Y-79713888D01*
X100842982Y-79718000D01*
X100837557Y-79723777D01*
X100796357Y-79767651D01*
X100793602Y-79770493D01*
X100773865Y-79790230D01*
X100771385Y-79793427D01*
X100763682Y-79802447D01*
X100733414Y-79834679D01*
X100729595Y-79841625D01*
X100729593Y-79841628D01*
X100723652Y-79852434D01*
X100712801Y-79868953D01*
X100700386Y-79884959D01*
X100697241Y-79892228D01*
X100697238Y-79892232D01*
X100682826Y-79925537D01*
X100677609Y-79936187D01*
X100656305Y-79974940D01*
X100654334Y-79982615D01*
X100654334Y-79982616D01*
X100651267Y-79994562D01*
X100644863Y-80013266D01*
X100636819Y-80031855D01*
X100635580Y-80039678D01*
X100635577Y-80039688D01*
X100629901Y-80075524D01*
X100627495Y-80087144D01*
X100616500Y-80129970D01*
X100616500Y-80150224D01*
X100614949Y-80169934D01*
X100611780Y-80189943D01*
X100612526Y-80197835D01*
X100615941Y-80233961D01*
X100616500Y-80245819D01*
X100616500Y-82124404D01*
X100596498Y-82192525D01*
X100555867Y-82232122D01*
X100446683Y-82298377D01*
X100442653Y-82301874D01*
X100295911Y-82429210D01*
X100272555Y-82449477D01*
X100253809Y-82472339D01*
X100129760Y-82623627D01*
X100129756Y-82623633D01*
X100126376Y-82627755D01*
X100123737Y-82632391D01*
X100123735Y-82632394D01*
X100087018Y-82696897D01*
X100012325Y-82828114D01*
X99933663Y-83044825D01*
X99932714Y-83050074D01*
X99932713Y-83050077D01*
X99893377Y-83267608D01*
X99893376Y-83267615D01*
X99892639Y-83271692D01*
X99891500Y-83295844D01*
X99891500Y-83707890D01*
X97508500Y-83707890D01*
X97508500Y-65945987D01*
X98418721Y-65945987D01*
X98427548Y-65957605D01*
X98650281Y-66119430D01*
X98656961Y-66123670D01*
X98926572Y-66271890D01*
X98933707Y-66275247D01*
X99219770Y-66388508D01*
X99227296Y-66390953D01*
X99525279Y-66467462D01*
X99533050Y-66468945D01*
X99838278Y-66507503D01*
X99846169Y-66508000D01*
X100153831Y-66508000D01*
X100161722Y-66507503D01*
X100466950Y-66468945D01*
X100474721Y-66467462D01*
X100772704Y-66390953D01*
X100780230Y-66388508D01*
X101066293Y-66275247D01*
X101073428Y-66271890D01*
X101343039Y-66123670D01*
X101349719Y-66119430D01*
X101572823Y-65957336D01*
X101581246Y-65946413D01*
X101574342Y-65933552D01*
X100012812Y-64372022D01*
X99998868Y-64364408D01*
X99997035Y-64364539D01*
X99990420Y-64368790D01*
X98425334Y-65933876D01*
X98418721Y-65945987D01*
X97508500Y-65945987D01*
X97508500Y-65159360D01*
X97528502Y-65091239D01*
X97582158Y-65044746D01*
X97652432Y-65034642D01*
X97717012Y-65064136D01*
X97748508Y-65105712D01*
X97796190Y-65207041D01*
X97800001Y-65213974D01*
X97964851Y-65473736D01*
X97969495Y-65480129D01*
X98044497Y-65570790D01*
X98057014Y-65579245D01*
X98067752Y-65573038D01*
X99627978Y-64012812D01*
X99634356Y-64001132D01*
X100364408Y-64001132D01*
X100364539Y-64002965D01*
X100368790Y-64009580D01*
X101931145Y-65571935D01*
X101944407Y-65579177D01*
X101954512Y-65571988D01*
X102030505Y-65480129D01*
X102035149Y-65473736D01*
X102199999Y-65213974D01*
X102203811Y-65207041D01*
X102334801Y-64928672D01*
X102337716Y-64921309D01*
X102432783Y-64628723D01*
X102434754Y-64621046D01*
X102492400Y-64318855D01*
X102493393Y-64310994D01*
X102512710Y-64003958D01*
X102512710Y-63996042D01*
X102493393Y-63689006D01*
X102492400Y-63681145D01*
X102434754Y-63378954D01*
X102432783Y-63371277D01*
X102337716Y-63078691D01*
X102334801Y-63071328D01*
X102203811Y-62792959D01*
X102199999Y-62786026D01*
X102035149Y-62526264D01*
X102030505Y-62519871D01*
X101955503Y-62429210D01*
X101942986Y-62420755D01*
X101932248Y-62426962D01*
X100372022Y-63987188D01*
X100364408Y-64001132D01*
X99634356Y-64001132D01*
X99635592Y-63998868D01*
X99635461Y-63997035D01*
X99631210Y-63990420D01*
X98068855Y-62428065D01*
X98055593Y-62420823D01*
X98045488Y-62428012D01*
X97969495Y-62519871D01*
X97964851Y-62526264D01*
X97800001Y-62786026D01*
X97796190Y-62792959D01*
X97748508Y-62894288D01*
X97701406Y-62947409D01*
X97633061Y-62966632D01*
X97565173Y-62945853D01*
X97519296Y-62891670D01*
X97508500Y-62840640D01*
X97508500Y-62053587D01*
X98418754Y-62053587D01*
X98425658Y-62066448D01*
X99987188Y-63627978D01*
X100001132Y-63635592D01*
X100002965Y-63635461D01*
X100009580Y-63631210D01*
X101574666Y-62066124D01*
X101581279Y-62054013D01*
X101572452Y-62042395D01*
X101349719Y-61880570D01*
X101343039Y-61876330D01*
X101073428Y-61728110D01*
X101066293Y-61724753D01*
X100780230Y-61611492D01*
X100772704Y-61609047D01*
X100474721Y-61532538D01*
X100466950Y-61531055D01*
X100161722Y-61492497D01*
X100153831Y-61492000D01*
X99846169Y-61492000D01*
X99838278Y-61492497D01*
X99533050Y-61531055D01*
X99525279Y-61532538D01*
X99227296Y-61609047D01*
X99219770Y-61611492D01*
X98933707Y-61724753D01*
X98926572Y-61728110D01*
X98656961Y-61876330D01*
X98650281Y-61880570D01*
X98427177Y-62042664D01*
X98418754Y-62053587D01*
X97508500Y-62053587D01*
X97508500Y-60634500D01*
X97528502Y-60566379D01*
X97582158Y-60519886D01*
X97634500Y-60508500D01*
X157365500Y-60508500D01*
X157433621Y-60528502D01*
G37*
%TD.AperFunction*%
%TD*%
M02*
