M48
; DRILL file {KiCad (6.0.8)} date Wed Nov 16 15:32:31 2022
; FORMAT={-:-/ absolute / inch / decimal}
; #@! TF.CreationDate,2022-11-16T15:32:31+01:00
; #@! TF.GenerationSoftware,Kicad,Pcbnew,(6.0.8)
; #@! TF.FileFunction,Plated,1,2,PTH
FMAT,2
INCH
; #@! TA.AperFunction,Plated,PTH,ComponentDrill
T1C0.0295
; #@! TA.AperFunction,Plated,PTH,ComponentDrill
T2C0.0315
; #@! TA.AperFunction,Plated,PTH,ComponentDrill
T3C0.0354
; #@! TA.AperFunction,Plated,PTH,ComponentDrill
T4C0.0374
%
G90
G05
T1
X5.5193Y-2.8358
X5.5193Y-3.1484
X5.6193Y-2.8358
X5.6193Y-3.1484
X5.7193Y-2.8358
X5.7193Y-3.1484
X5.8193Y-2.8358
X5.8193Y-3.1484
T2
X5.1969Y-2.7953
X5.1969Y-2.9953
X5.3543Y-2.7953
X5.3543Y-2.9953
X5.9843Y-2.7344
X5.9843Y-2.9344
X6.1417Y-2.6378
X6.1417Y-2.8378
X6.3386Y-2.7348
X6.3386Y-2.9348
X6.3386Y-3.1102
X6.3386Y-3.3102
T3
X5.3543Y-2.5378
X5.3543Y-2.6378
X5.5512Y-3.3465
X5.5512Y-3.4465
X5.9055Y-3.3646
X5.9055Y-3.4646
T4
X5.2569Y-3.252
X5.2569Y-3.3504
X5.2569Y-3.4488
T0
M30
