%TF.GenerationSoftware,KiCad,Pcbnew,(6.0.8)*%
%TF.CreationDate,2022-11-29T14:55:50+01:00*%
%TF.ProjectId,l_g_d,6c5f675f-642e-46b6-9963-61645f706362,rev?*%
%TF.SameCoordinates,Original*%
%TF.FileFunction,Copper,L2,Bot*%
%TF.FilePolarity,Positive*%
%FSLAX46Y46*%
G04 Gerber Fmt 4.6, Leading zero omitted, Abs format (unit mm)*
G04 Created by KiCad (PCBNEW (6.0.8)) date 2022-11-29 14:55:50*
%MOMM*%
%LPD*%
G01*
G04 APERTURE LIST*
G04 Aperture macros list*
%AMRoundRect*
0 Rectangle with rounded corners*
0 $1 Rounding radius*
0 $2 $3 $4 $5 $6 $7 $8 $9 X,Y pos of 4 corners*
0 Add a 4 corners polygon primitive as box body*
4,1,4,$2,$3,$4,$5,$6,$7,$8,$9,$2,$3,0*
0 Add four circle primitives for the rounded corners*
1,1,$1+$1,$2,$3*
1,1,$1+$1,$4,$5*
1,1,$1+$1,$6,$7*
1,1,$1+$1,$8,$9*
0 Add four rect primitives between the rounded corners*
20,1,$1+$1,$2,$3,$4,$5,0*
20,1,$1+$1,$4,$5,$6,$7,0*
20,1,$1+$1,$6,$7,$8,$9,0*
20,1,$1+$1,$8,$9,$2,$3,0*%
G04 Aperture macros list end*
%TA.AperFunction,ComponentPad*%
%ADD10RoundRect,0.250000X-0.600000X-0.725000X0.600000X-0.725000X0.600000X0.725000X-0.600000X0.725000X0*%
%TD*%
%TA.AperFunction,ComponentPad*%
%ADD11O,1.700000X1.950000*%
%TD*%
%TA.AperFunction,ComponentPad*%
%ADD12R,1.800000X1.800000*%
%TD*%
%TA.AperFunction,ComponentPad*%
%ADD13C,1.800000*%
%TD*%
%TA.AperFunction,ComponentPad*%
%ADD14C,1.600000*%
%TD*%
%TA.AperFunction,ComponentPad*%
%ADD15O,1.600000X1.600000*%
%TD*%
%TA.AperFunction,ComponentPad*%
%ADD16R,1.250000X1.250000*%
%TD*%
%TA.AperFunction,ComponentPad*%
%ADD17C,1.250000*%
%TD*%
%TA.AperFunction,ComponentPad*%
%ADD18C,4.000000*%
%TD*%
%TA.AperFunction,Conductor*%
%ADD19C,0.250000*%
%TD*%
G04 APERTURE END LIST*
D10*
%TO.P,J1,1,Pin_1*%
%TO.N,VCC*%
X155500000Y-79000000D03*
D11*
%TO.P,J1,2,Pin_2*%
%TO.N,Net-(J1-Pad2)*%
X158000000Y-79000000D03*
%TO.P,J1,3,Pin_3*%
%TO.N,GND*%
X160500000Y-79000000D03*
%TD*%
D12*
%TO.P,D1,1,K*%
%TO.N,Net-(D1-Pad1)*%
X160000000Y-63000000D03*
D13*
%TO.P,D1,2,A*%
%TO.N,VCC*%
X160000000Y-60460000D03*
%TD*%
D14*
%TO.P,10k,1*%
%TO.N,VCC*%
X165000000Y-61190000D03*
D15*
%TO.P,10k,2*%
%TO.N,Net-(C1-Pad2)*%
X165000000Y-68810000D03*
%TD*%
D12*
%TO.P,IRE,1,K*%
%TO.N,GND*%
X183000000Y-64000000D03*
D13*
%TO.P,IRE,2,A*%
%TO.N,Net-(IRLED1-Pad2)*%
X183000000Y-61460000D03*
%TD*%
D14*
%TO.P,10k,1*%
%TO.N,VCC*%
X183000000Y-67190000D03*
D15*
%TO.P,10k,2*%
%TO.N,Net-(J1-Pad2)*%
X183000000Y-74810000D03*
%TD*%
D16*
%TO.P,U1,1,1OUT*%
%TO.N,Net-(J1-Pad2)*%
X170190000Y-72970000D03*
D17*
%TO.P,U1,2,1IN\u2212*%
%TO.N,Net-(C1-Pad2)*%
X172730000Y-72970000D03*
%TO.P,U1,3,1IN+*%
%TO.N,Net-(Q1-Pad1)*%
X175270000Y-72970000D03*
%TO.P,U1,4,GND*%
%TO.N,GND*%
X177810000Y-72970000D03*
%TO.P,U1,5*%
%TO.N,N/C*%
X177810000Y-65030000D03*
%TO.P,U1,6*%
X175270000Y-65030000D03*
%TO.P,U1,7*%
X172730000Y-65030000D03*
%TO.P,U1,8,VCC*%
%TO.N,VCC*%
X170190000Y-65030000D03*
%TD*%
D14*
%TO.P,C1,1*%
%TO.N,GND*%
X168500000Y-79000000D03*
%TO.P,C1,2*%
%TO.N,Net-(C1-Pad2)*%
X173500000Y-79000000D03*
%TD*%
D18*
%TO.P,REF\u002A\u002A,1*%
%TO.N,GND*%
X185000000Y-79000000D03*
%TD*%
D12*
%TO.P,IRR,1,C*%
%TO.N,Net-(Q1-Pad1)*%
X177000000Y-78000000D03*
D13*
%TO.P,IRR,2,E*%
%TO.N,GND*%
X179540000Y-78000000D03*
%TD*%
D14*
%TO.P,10k,1*%
%TO.N,Net-(Q1-Pad1)*%
X155000000Y-73810000D03*
D15*
%TO.P,10k,2*%
%TO.N,VCC*%
X155000000Y-66190000D03*
%TD*%
D14*
%TO.P,1k,1*%
%TO.N,VCC*%
X170190000Y-61000000D03*
D15*
%TO.P,1k,2*%
%TO.N,Net-(IRLED1-Pad2)*%
X177810000Y-61000000D03*
%TD*%
D18*
%TO.P,,1*%
%TO.N,GND*%
X154000000Y-61000000D03*
%TD*%
D14*
%TO.P,1k,1*%
%TO.N,Net-(D1-Pad1)*%
X160000000Y-73810000D03*
D15*
%TO.P,1k,2*%
%TO.N,Net-(J1-Pad2)*%
X160000000Y-66190000D03*
%TD*%
D14*
%TO.P,RD2,1*%
%TO.N,Net-(C1-Pad2)*%
X165000000Y-71190000D03*
D15*
%TO.P,RD2,2*%
%TO.N,GND*%
X165000000Y-78810000D03*
%TD*%
D19*
%TO.N,GND*%
X170500000Y-81000000D02*
X168500000Y-79000000D01*
X176540000Y-81000000D02*
X170500000Y-81000000D01*
X179540000Y-78000000D02*
X176540000Y-81000000D01*
%TO.N,Net-(J1-Pad2)*%
X164030000Y-72970000D02*
X158000000Y-79000000D01*
X170190000Y-72970000D02*
X164030000Y-72970000D01*
X183000000Y-74810000D02*
X172030000Y-74810000D01*
X172030000Y-74810000D02*
X170190000Y-72970000D01*
%TD*%
%TA.AperFunction,Conductor*%
%TO.N,GND*%
G36*
X152903424Y-58528502D02*
G01*
X152949917Y-58582158D01*
X152960021Y-58652432D01*
X152930527Y-58717012D01*
X152896004Y-58744915D01*
X152656961Y-58876330D01*
X152650281Y-58880570D01*
X152427177Y-59042664D01*
X152418754Y-59053587D01*
X152425658Y-59066448D01*
X153987188Y-60627978D01*
X154001132Y-60635592D01*
X154002965Y-60635461D01*
X154009580Y-60631210D01*
X155574666Y-59066124D01*
X155581279Y-59054013D01*
X155572452Y-59042395D01*
X155349719Y-58880570D01*
X155343039Y-58876330D01*
X155103996Y-58744915D01*
X155053937Y-58694569D01*
X155039044Y-58625152D01*
X155064045Y-58558703D01*
X155121002Y-58516319D01*
X155164697Y-58508500D01*
X187365500Y-58508500D01*
X187433621Y-58528502D01*
X187480114Y-58582158D01*
X187491500Y-58634500D01*
X187491500Y-77840640D01*
X187471498Y-77908761D01*
X187417842Y-77955254D01*
X187347568Y-77965358D01*
X187282988Y-77935864D01*
X187251492Y-77894288D01*
X187203810Y-77792959D01*
X187199999Y-77786026D01*
X187035149Y-77526264D01*
X187030505Y-77519871D01*
X186955503Y-77429210D01*
X186942986Y-77420755D01*
X186932248Y-77426962D01*
X185372022Y-78987188D01*
X185364408Y-79001132D01*
X185364539Y-79002965D01*
X185368790Y-79009580D01*
X186931145Y-80571935D01*
X186944407Y-80579177D01*
X186954512Y-80571988D01*
X187030505Y-80480129D01*
X187035149Y-80473736D01*
X187199999Y-80213974D01*
X187203810Y-80207041D01*
X187251492Y-80105712D01*
X187298594Y-80052591D01*
X187366939Y-80033368D01*
X187434827Y-80054147D01*
X187480704Y-80108330D01*
X187491500Y-80159360D01*
X187491500Y-82365500D01*
X187471498Y-82433621D01*
X187417842Y-82480114D01*
X187365500Y-82491500D01*
X151634500Y-82491500D01*
X151566379Y-82471498D01*
X151519886Y-82417842D01*
X151508500Y-82365500D01*
X151508500Y-80945987D01*
X183418721Y-80945987D01*
X183427548Y-80957605D01*
X183650281Y-81119430D01*
X183656961Y-81123670D01*
X183926572Y-81271890D01*
X183933707Y-81275247D01*
X184219770Y-81388508D01*
X184227296Y-81390953D01*
X184525279Y-81467462D01*
X184533050Y-81468945D01*
X184838278Y-81507503D01*
X184846169Y-81508000D01*
X185153831Y-81508000D01*
X185161722Y-81507503D01*
X185466950Y-81468945D01*
X185474721Y-81467462D01*
X185772704Y-81390953D01*
X185780230Y-81388508D01*
X186066293Y-81275247D01*
X186073428Y-81271890D01*
X186343039Y-81123670D01*
X186349719Y-81119430D01*
X186572823Y-80957336D01*
X186581246Y-80946413D01*
X186574342Y-80933552D01*
X185012812Y-79372022D01*
X184998868Y-79364408D01*
X184997035Y-79364539D01*
X184990420Y-79368790D01*
X183425334Y-80933876D01*
X183418721Y-80945987D01*
X151508500Y-80945987D01*
X151508500Y-79775400D01*
X154141500Y-79775400D01*
X154141837Y-79778646D01*
X154141837Y-79778650D01*
X154149991Y-79857232D01*
X154152474Y-79881166D01*
X154154655Y-79887702D01*
X154154655Y-79887704D01*
X154186405Y-79982870D01*
X154208450Y-80048946D01*
X154301522Y-80199348D01*
X154306704Y-80204521D01*
X154324935Y-80222720D01*
X154426697Y-80324305D01*
X154432927Y-80328145D01*
X154432928Y-80328146D01*
X154570090Y-80412694D01*
X154577262Y-80417115D01*
X154612938Y-80428948D01*
X154738611Y-80470632D01*
X154738613Y-80470632D01*
X154745139Y-80472797D01*
X154751975Y-80473497D01*
X154751978Y-80473498D01*
X154787663Y-80477154D01*
X154849600Y-80483500D01*
X156150400Y-80483500D01*
X156153646Y-80483163D01*
X156153650Y-80483163D01*
X156249308Y-80473238D01*
X156249312Y-80473237D01*
X156256166Y-80472526D01*
X156262702Y-80470345D01*
X156262704Y-80470345D01*
X156394806Y-80426272D01*
X156423946Y-80416550D01*
X156574348Y-80323478D01*
X156699305Y-80198303D01*
X156789081Y-80052660D01*
X156841852Y-80005168D01*
X156911924Y-79993744D01*
X156977048Y-80022018D01*
X156987510Y-80031805D01*
X157027348Y-80073566D01*
X157096576Y-80146135D01*
X157281542Y-80283754D01*
X157286293Y-80286170D01*
X157286297Y-80286172D01*
X157339102Y-80313019D01*
X157487051Y-80388240D01*
X157492145Y-80389822D01*
X157492148Y-80389823D01*
X157657583Y-80441192D01*
X157707227Y-80456607D01*
X157712516Y-80457308D01*
X157930489Y-80486198D01*
X157930494Y-80486198D01*
X157935774Y-80486898D01*
X157941103Y-80486698D01*
X157941105Y-80486698D01*
X158050966Y-80482574D01*
X158166158Y-80478249D01*
X158188802Y-80473498D01*
X158386572Y-80432002D01*
X158391791Y-80430907D01*
X158396750Y-80428949D01*
X158396752Y-80428948D01*
X158601256Y-80348185D01*
X158601258Y-80348184D01*
X158606221Y-80346224D01*
X158611525Y-80343006D01*
X158798757Y-80229390D01*
X158798756Y-80229390D01*
X158803317Y-80226623D01*
X158880831Y-80159360D01*
X158973412Y-80079023D01*
X158973414Y-80079021D01*
X158977445Y-80075523D01*
X159035133Y-80005168D01*
X159120240Y-79901373D01*
X159120244Y-79901367D01*
X159123624Y-79897245D01*
X159136681Y-79874308D01*
X159141829Y-79865265D01*
X159192912Y-79815959D01*
X159262542Y-79802098D01*
X159328613Y-79828082D01*
X159355851Y-79857232D01*
X159434852Y-79974578D01*
X159441519Y-79982870D01*
X159593228Y-80141900D01*
X159601186Y-80148941D01*
X159777525Y-80280141D01*
X159786562Y-80285745D01*
X159982484Y-80385357D01*
X159992335Y-80389357D01*
X160202240Y-80454534D01*
X160212624Y-80456817D01*
X160228043Y-80458861D01*
X160242207Y-80456665D01*
X160246000Y-80443478D01*
X160246000Y-80441192D01*
X160754000Y-80441192D01*
X160757973Y-80454723D01*
X160768580Y-80456248D01*
X160886421Y-80431523D01*
X160896617Y-80428463D01*
X161101029Y-80347737D01*
X161110561Y-80343006D01*
X161298462Y-80228984D01*
X161307052Y-80222720D01*
X161473052Y-80078673D01*
X161480472Y-80071042D01*
X161619826Y-79901089D01*
X161625850Y-79892322D01*
X161734576Y-79701318D01*
X161739041Y-79691654D01*
X161814031Y-79485059D01*
X161816802Y-79474792D01*
X161853504Y-79271826D01*
X161852085Y-79258586D01*
X161837450Y-79254000D01*
X160772115Y-79254000D01*
X160756876Y-79258475D01*
X160755671Y-79259865D01*
X160754000Y-79267548D01*
X160754000Y-80441192D01*
X160246000Y-80441192D01*
X160246000Y-79076522D01*
X163717273Y-79076522D01*
X163764764Y-79253761D01*
X163768510Y-79264053D01*
X163860586Y-79461511D01*
X163866069Y-79471007D01*
X163991028Y-79649467D01*
X163998084Y-79657875D01*
X164152125Y-79811916D01*
X164160533Y-79818972D01*
X164338993Y-79943931D01*
X164348489Y-79949414D01*
X164545947Y-80041490D01*
X164556239Y-80045236D01*
X164728503Y-80091394D01*
X164742599Y-80091058D01*
X164746000Y-80083116D01*
X164746000Y-80077967D01*
X165254000Y-80077967D01*
X165257973Y-80091498D01*
X165266522Y-80092727D01*
X165291396Y-80086062D01*
X167778493Y-80086062D01*
X167787789Y-80098077D01*
X167838994Y-80133931D01*
X167848489Y-80139414D01*
X168045947Y-80231490D01*
X168056239Y-80235236D01*
X168266688Y-80291625D01*
X168277481Y-80293528D01*
X168494525Y-80312517D01*
X168505475Y-80312517D01*
X168722519Y-80293528D01*
X168733312Y-80291625D01*
X168943761Y-80235236D01*
X168954053Y-80231490D01*
X169151511Y-80139414D01*
X169161006Y-80133931D01*
X169213048Y-80097491D01*
X169221424Y-80087012D01*
X169214356Y-80073566D01*
X168512812Y-79372022D01*
X168498868Y-79364408D01*
X168497035Y-79364539D01*
X168490420Y-79368790D01*
X167784923Y-80074287D01*
X167778493Y-80086062D01*
X165291396Y-80086062D01*
X165443761Y-80045236D01*
X165454053Y-80041490D01*
X165651511Y-79949414D01*
X165661007Y-79943931D01*
X165839467Y-79818972D01*
X165847875Y-79811916D01*
X166001916Y-79657875D01*
X166008972Y-79649467D01*
X166133931Y-79471007D01*
X166139414Y-79461511D01*
X166231490Y-79264053D01*
X166235236Y-79253761D01*
X166281394Y-79081497D01*
X166281058Y-79067401D01*
X166273116Y-79064000D01*
X165272115Y-79064000D01*
X165256876Y-79068475D01*
X165255671Y-79069865D01*
X165254000Y-79077548D01*
X165254000Y-80077967D01*
X164746000Y-80077967D01*
X164746000Y-79082115D01*
X164741525Y-79066876D01*
X164740135Y-79065671D01*
X164732452Y-79064000D01*
X163732033Y-79064000D01*
X163718502Y-79067973D01*
X163717273Y-79076522D01*
X160246000Y-79076522D01*
X160246000Y-79005475D01*
X167187483Y-79005475D01*
X167206472Y-79222519D01*
X167208375Y-79233312D01*
X167264764Y-79443761D01*
X167268510Y-79454053D01*
X167360586Y-79651511D01*
X167366069Y-79661006D01*
X167402509Y-79713048D01*
X167412988Y-79721424D01*
X167426434Y-79714356D01*
X168127978Y-79012812D01*
X168134356Y-79001132D01*
X168864408Y-79001132D01*
X168864539Y-79002965D01*
X168868790Y-79009580D01*
X169574287Y-79715077D01*
X169586062Y-79721507D01*
X169598077Y-79712211D01*
X169633931Y-79661006D01*
X169639414Y-79651511D01*
X169731490Y-79454053D01*
X169735236Y-79443761D01*
X169791625Y-79233312D01*
X169793528Y-79222519D01*
X169812517Y-79005475D01*
X169812517Y-79000000D01*
X172186502Y-79000000D01*
X172206457Y-79228087D01*
X172207881Y-79233400D01*
X172207881Y-79233402D01*
X172255518Y-79411182D01*
X172265716Y-79449243D01*
X172268039Y-79454224D01*
X172268039Y-79454225D01*
X172360151Y-79651762D01*
X172360154Y-79651767D01*
X172362477Y-79656749D01*
X172393685Y-79701318D01*
X172445558Y-79775400D01*
X172493802Y-79844300D01*
X172655700Y-80006198D01*
X172660208Y-80009355D01*
X172660211Y-80009357D01*
X172711452Y-80045236D01*
X172843251Y-80137523D01*
X172848233Y-80139846D01*
X172848238Y-80139849D01*
X173044765Y-80231490D01*
X173050757Y-80234284D01*
X173056065Y-80235706D01*
X173056067Y-80235707D01*
X173266598Y-80292119D01*
X173266600Y-80292119D01*
X173271913Y-80293543D01*
X173500000Y-80313498D01*
X173728087Y-80293543D01*
X173733400Y-80292119D01*
X173733402Y-80292119D01*
X173943933Y-80235707D01*
X173943935Y-80235706D01*
X173949243Y-80234284D01*
X173955235Y-80231490D01*
X174151762Y-80139849D01*
X174151767Y-80139846D01*
X174156749Y-80137523D01*
X174288548Y-80045236D01*
X174339789Y-80009357D01*
X174339792Y-80009355D01*
X174344300Y-80006198D01*
X174506198Y-79844300D01*
X174554443Y-79775400D01*
X174606315Y-79701318D01*
X174637523Y-79656749D01*
X174639846Y-79651767D01*
X174639849Y-79651762D01*
X174731961Y-79454225D01*
X174731961Y-79454224D01*
X174734284Y-79449243D01*
X174744483Y-79411182D01*
X174792119Y-79233402D01*
X174792119Y-79233400D01*
X174793543Y-79228087D01*
X174813498Y-79000000D01*
X174808960Y-78948134D01*
X175591500Y-78948134D01*
X175598255Y-79010316D01*
X175649385Y-79146705D01*
X175736739Y-79263261D01*
X175853295Y-79350615D01*
X175989684Y-79401745D01*
X176051866Y-79408500D01*
X177948134Y-79408500D01*
X178010316Y-79401745D01*
X178146705Y-79350615D01*
X178263261Y-79263261D01*
X178339597Y-79161406D01*
X178743423Y-79161406D01*
X178748704Y-79168461D01*
X178925080Y-79271527D01*
X178934363Y-79275974D01*
X179141003Y-79354883D01*
X179150901Y-79357759D01*
X179367653Y-79401857D01*
X179377883Y-79403076D01*
X179598914Y-79411182D01*
X179609223Y-79410714D01*
X179828623Y-79382608D01*
X179838688Y-79380468D01*
X180050557Y-79316905D01*
X180060152Y-79313144D01*
X180258778Y-79215838D01*
X180267636Y-79210559D01*
X180325097Y-79169572D01*
X180333497Y-79158874D01*
X180326510Y-79145721D01*
X180184747Y-79003958D01*
X182487290Y-79003958D01*
X182506607Y-79310994D01*
X182507600Y-79318855D01*
X182565246Y-79621046D01*
X182567217Y-79628723D01*
X182662284Y-79921309D01*
X182665199Y-79928672D01*
X182796189Y-80207041D01*
X182800001Y-80213974D01*
X182964851Y-80473736D01*
X182969495Y-80480129D01*
X183044497Y-80570790D01*
X183057014Y-80579245D01*
X183067752Y-80573038D01*
X184627978Y-79012812D01*
X184635592Y-78998868D01*
X184635461Y-78997035D01*
X184631210Y-78990420D01*
X183068855Y-77428065D01*
X183055593Y-77420823D01*
X183045488Y-77428012D01*
X182969495Y-77519871D01*
X182964851Y-77526264D01*
X182800001Y-77786026D01*
X182796189Y-77792959D01*
X182665199Y-78071328D01*
X182662284Y-78078691D01*
X182567217Y-78371277D01*
X182565246Y-78378954D01*
X182507600Y-78681145D01*
X182506607Y-78689006D01*
X182487290Y-78996042D01*
X182487290Y-79003958D01*
X180184747Y-79003958D01*
X179552811Y-78372021D01*
X179538868Y-78364408D01*
X179537034Y-78364539D01*
X179530420Y-78368790D01*
X178750180Y-79149031D01*
X178743423Y-79161406D01*
X178339597Y-79161406D01*
X178350615Y-79146705D01*
X178401745Y-79010316D01*
X178408500Y-78948134D01*
X178408500Y-78824480D01*
X178428502Y-78756359D01*
X178445405Y-78735384D01*
X179167979Y-78012811D01*
X179174356Y-78001132D01*
X179904408Y-78001132D01*
X179904539Y-78002966D01*
X179908790Y-78009580D01*
X180686307Y-78787096D01*
X180698313Y-78793652D01*
X180710052Y-78784684D01*
X180748010Y-78731859D01*
X180753321Y-78723020D01*
X180851318Y-78524737D01*
X180855117Y-78515142D01*
X180919415Y-78303517D01*
X180921594Y-78293436D01*
X180950702Y-78072338D01*
X180951221Y-78065663D01*
X180952744Y-78003364D01*
X180952550Y-77996646D01*
X180934279Y-77774400D01*
X180932596Y-77764238D01*
X180878710Y-77549708D01*
X180875389Y-77539953D01*
X180787193Y-77337118D01*
X180782315Y-77328020D01*
X180709224Y-77215038D01*
X180698538Y-77205835D01*
X180688973Y-77210238D01*
X179912021Y-77987189D01*
X179904408Y-78001132D01*
X179174356Y-78001132D01*
X179175592Y-77998868D01*
X179175461Y-77997034D01*
X179171210Y-77990420D01*
X178445405Y-77264616D01*
X178411380Y-77202303D01*
X178408500Y-77175520D01*
X178408500Y-77051866D01*
X178401745Y-76989684D01*
X178350615Y-76853295D01*
X178341184Y-76840711D01*
X178745508Y-76840711D01*
X178752251Y-76853040D01*
X179527189Y-77627979D01*
X179541132Y-77635592D01*
X179542966Y-77635461D01*
X179549580Y-77631210D01*
X180127202Y-77053587D01*
X183418754Y-77053587D01*
X183425658Y-77066448D01*
X184987188Y-78627978D01*
X185001132Y-78635592D01*
X185002965Y-78635461D01*
X185009580Y-78631210D01*
X186574666Y-77066124D01*
X186581279Y-77054013D01*
X186572452Y-77042395D01*
X186349719Y-76880570D01*
X186343039Y-76876330D01*
X186073428Y-76728110D01*
X186066293Y-76724753D01*
X185780230Y-76611492D01*
X185772704Y-76609047D01*
X185474721Y-76532538D01*
X185466950Y-76531055D01*
X185161722Y-76492497D01*
X185153831Y-76492000D01*
X184846169Y-76492000D01*
X184838278Y-76492497D01*
X184533050Y-76531055D01*
X184525279Y-76532538D01*
X184227296Y-76609047D01*
X184219770Y-76611492D01*
X183933707Y-76724753D01*
X183926572Y-76728110D01*
X183656961Y-76876330D01*
X183650281Y-76880570D01*
X183427177Y-77042664D01*
X183418754Y-77053587D01*
X180127202Y-77053587D01*
X180328994Y-76851795D01*
X180336011Y-76838944D01*
X180328237Y-76828274D01*
X180325902Y-76826430D01*
X180317320Y-76820729D01*
X180123678Y-76713833D01*
X180114272Y-76709606D01*
X179905772Y-76635772D01*
X179895809Y-76633140D01*
X179678047Y-76594350D01*
X179667796Y-76593381D01*
X179446616Y-76590679D01*
X179436332Y-76591399D01*
X179217693Y-76624855D01*
X179207666Y-76627244D01*
X178997426Y-76695961D01*
X178987916Y-76699958D01*
X178791725Y-76802089D01*
X178783007Y-76807578D01*
X178753961Y-76829386D01*
X178745508Y-76840711D01*
X178341184Y-76840711D01*
X178263261Y-76736739D01*
X178146705Y-76649385D01*
X178010316Y-76598255D01*
X177948134Y-76591500D01*
X176051866Y-76591500D01*
X175989684Y-76598255D01*
X175853295Y-76649385D01*
X175736739Y-76736739D01*
X175649385Y-76853295D01*
X175598255Y-76989684D01*
X175591500Y-77051866D01*
X175591500Y-78948134D01*
X174808960Y-78948134D01*
X174793543Y-78771913D01*
X174792119Y-78766598D01*
X174735707Y-78556067D01*
X174735706Y-78556065D01*
X174734284Y-78550757D01*
X174717677Y-78515142D01*
X174639849Y-78348238D01*
X174639846Y-78348233D01*
X174637523Y-78343251D01*
X174556695Y-78227817D01*
X174509357Y-78160211D01*
X174509355Y-78160208D01*
X174506198Y-78155700D01*
X174344300Y-77993802D01*
X174339792Y-77990645D01*
X174339789Y-77990643D01*
X174213920Y-77902509D01*
X174156749Y-77862477D01*
X174151767Y-77860154D01*
X174151762Y-77860151D01*
X173954225Y-77768039D01*
X173954224Y-77768039D01*
X173949243Y-77765716D01*
X173943935Y-77764294D01*
X173943933Y-77764293D01*
X173733402Y-77707881D01*
X173733400Y-77707881D01*
X173728087Y-77706457D01*
X173500000Y-77686502D01*
X173271913Y-77706457D01*
X173266600Y-77707881D01*
X173266598Y-77707881D01*
X173056067Y-77764293D01*
X173056065Y-77764294D01*
X173050757Y-77765716D01*
X173045776Y-77768039D01*
X173045775Y-77768039D01*
X172848238Y-77860151D01*
X172848233Y-77860154D01*
X172843251Y-77862477D01*
X172786080Y-77902509D01*
X172660211Y-77990643D01*
X172660208Y-77990645D01*
X172655700Y-77993802D01*
X172493802Y-78155700D01*
X172490645Y-78160208D01*
X172490643Y-78160211D01*
X172443305Y-78227817D01*
X172362477Y-78343251D01*
X172360154Y-78348233D01*
X172360151Y-78348238D01*
X172282323Y-78515142D01*
X172265716Y-78550757D01*
X172264294Y-78556065D01*
X172264293Y-78556067D01*
X172207881Y-78766598D01*
X172206457Y-78771913D01*
X172186502Y-79000000D01*
X169812517Y-79000000D01*
X169812517Y-78994525D01*
X169793528Y-78777481D01*
X169791625Y-78766688D01*
X169735236Y-78556239D01*
X169731490Y-78545947D01*
X169639414Y-78348489D01*
X169633931Y-78338994D01*
X169597491Y-78286952D01*
X169587012Y-78278576D01*
X169573566Y-78285644D01*
X168872022Y-78987188D01*
X168864408Y-79001132D01*
X168134356Y-79001132D01*
X168135592Y-78998868D01*
X168135461Y-78997035D01*
X168131210Y-78990420D01*
X167425713Y-78284923D01*
X167413938Y-78278493D01*
X167401923Y-78287789D01*
X167366069Y-78338994D01*
X167360586Y-78348489D01*
X167268510Y-78545947D01*
X167264764Y-78556239D01*
X167208375Y-78766688D01*
X167206472Y-78777481D01*
X167187483Y-78994525D01*
X167187483Y-79005475D01*
X160246000Y-79005475D01*
X160246000Y-78872000D01*
X160266002Y-78803879D01*
X160319658Y-78757386D01*
X160372000Y-78746000D01*
X161833849Y-78746000D01*
X161848527Y-78741690D01*
X161850590Y-78729807D01*
X161843876Y-78650675D01*
X161842086Y-78640203D01*
X161815690Y-78538503D01*
X163718606Y-78538503D01*
X163718942Y-78552599D01*
X163726884Y-78556000D01*
X164727885Y-78556000D01*
X164743124Y-78551525D01*
X164744329Y-78550135D01*
X164746000Y-78542452D01*
X164746000Y-78537885D01*
X165254000Y-78537885D01*
X165258475Y-78553124D01*
X165259865Y-78554329D01*
X165267548Y-78556000D01*
X166267967Y-78556000D01*
X166281498Y-78552027D01*
X166282727Y-78543478D01*
X166235236Y-78366239D01*
X166231490Y-78355947D01*
X166139414Y-78158489D01*
X166133929Y-78148990D01*
X166008972Y-77970533D01*
X166001916Y-77962125D01*
X165952779Y-77912988D01*
X167778576Y-77912988D01*
X167785644Y-77926434D01*
X168487188Y-78627978D01*
X168501132Y-78635592D01*
X168502965Y-78635461D01*
X168509580Y-78631210D01*
X169215077Y-77925713D01*
X169221507Y-77913938D01*
X169212211Y-77901923D01*
X169161006Y-77866069D01*
X169151511Y-77860586D01*
X168954053Y-77768510D01*
X168943761Y-77764764D01*
X168733312Y-77708375D01*
X168722519Y-77706472D01*
X168505475Y-77687483D01*
X168494525Y-77687483D01*
X168277481Y-77706472D01*
X168266688Y-77708375D01*
X168056239Y-77764764D01*
X168045947Y-77768510D01*
X167848489Y-77860586D01*
X167838994Y-77866069D01*
X167786952Y-77902509D01*
X167778576Y-77912988D01*
X165952779Y-77912988D01*
X165847875Y-77808084D01*
X165839467Y-77801028D01*
X165661007Y-77676069D01*
X165651511Y-77670586D01*
X165454053Y-77578510D01*
X165443761Y-77574764D01*
X165271497Y-77528606D01*
X165257401Y-77528942D01*
X165254000Y-77536884D01*
X165254000Y-78537885D01*
X164746000Y-78537885D01*
X164746000Y-77542033D01*
X164742027Y-77528502D01*
X164733478Y-77527273D01*
X164556239Y-77574764D01*
X164545947Y-77578510D01*
X164348489Y-77670586D01*
X164338993Y-77676069D01*
X164160533Y-77801028D01*
X164152125Y-77808084D01*
X163998084Y-77962125D01*
X163991028Y-77970533D01*
X163866071Y-78148990D01*
X163860586Y-78158489D01*
X163768510Y-78355947D01*
X163764764Y-78366239D01*
X163718606Y-78538503D01*
X161815690Y-78538503D01*
X161786870Y-78427465D01*
X161783335Y-78417425D01*
X161693063Y-78217030D01*
X161687894Y-78207744D01*
X161565150Y-78025425D01*
X161558481Y-78017130D01*
X161406772Y-77858100D01*
X161398814Y-77851059D01*
X161222475Y-77719859D01*
X161213438Y-77714255D01*
X161017516Y-77614643D01*
X161007665Y-77610643D01*
X160797760Y-77545466D01*
X160787376Y-77543183D01*
X160656597Y-77525849D01*
X160591695Y-77497069D01*
X160552656Y-77437770D01*
X160551873Y-77366778D01*
X160584058Y-77311846D01*
X161850198Y-76045707D01*
X164255500Y-73640405D01*
X164317812Y-73606379D01*
X164344595Y-73603500D01*
X168940507Y-73603500D01*
X169008628Y-73623502D01*
X169055121Y-73677158D01*
X169062543Y-73698763D01*
X169063255Y-73705316D01*
X169066027Y-73712711D01*
X169066028Y-73712714D01*
X169100176Y-73803802D01*
X169114385Y-73841705D01*
X169201739Y-73958261D01*
X169318295Y-74045615D01*
X169454684Y-74096745D01*
X169516866Y-74103500D01*
X170375406Y-74103500D01*
X170443527Y-74123502D01*
X170464501Y-74140405D01*
X171128620Y-74804525D01*
X171526348Y-75202253D01*
X171533888Y-75210539D01*
X171538000Y-75217018D01*
X171543777Y-75222443D01*
X171587651Y-75263643D01*
X171590493Y-75266398D01*
X171610230Y-75286135D01*
X171613427Y-75288615D01*
X171622447Y-75296318D01*
X171654679Y-75326586D01*
X171661625Y-75330405D01*
X171661628Y-75330407D01*
X171672434Y-75336348D01*
X171688953Y-75347199D01*
X171704959Y-75359614D01*
X171712228Y-75362759D01*
X171712232Y-75362762D01*
X171745537Y-75377174D01*
X171756187Y-75382391D01*
X171794940Y-75403695D01*
X171802615Y-75405666D01*
X171802616Y-75405666D01*
X171814562Y-75408733D01*
X171833267Y-75415137D01*
X171851855Y-75423181D01*
X171859678Y-75424420D01*
X171859688Y-75424423D01*
X171895524Y-75430099D01*
X171907144Y-75432505D01*
X171942289Y-75441528D01*
X171949970Y-75443500D01*
X171970224Y-75443500D01*
X171989934Y-75445051D01*
X172009943Y-75448220D01*
X172017835Y-75447474D01*
X172053961Y-75444059D01*
X172065819Y-75443500D01*
X181780606Y-75443500D01*
X181848727Y-75463502D01*
X181883819Y-75497229D01*
X181993802Y-75654300D01*
X182155700Y-75816198D01*
X182160208Y-75819355D01*
X182160211Y-75819357D01*
X182238389Y-75874098D01*
X182343251Y-75947523D01*
X182348233Y-75949846D01*
X182348238Y-75949849D01*
X182545775Y-76041961D01*
X182550757Y-76044284D01*
X182556065Y-76045706D01*
X182556067Y-76045707D01*
X182766598Y-76102119D01*
X182766600Y-76102119D01*
X182771913Y-76103543D01*
X183000000Y-76123498D01*
X183228087Y-76103543D01*
X183233400Y-76102119D01*
X183233402Y-76102119D01*
X183443933Y-76045707D01*
X183443935Y-76045706D01*
X183449243Y-76044284D01*
X183454225Y-76041961D01*
X183651762Y-75949849D01*
X183651767Y-75949846D01*
X183656749Y-75947523D01*
X183761611Y-75874098D01*
X183839789Y-75819357D01*
X183839792Y-75819355D01*
X183844300Y-75816198D01*
X184006198Y-75654300D01*
X184137523Y-75466749D01*
X184139846Y-75461767D01*
X184139849Y-75461762D01*
X184231961Y-75264225D01*
X184231961Y-75264224D01*
X184234284Y-75259243D01*
X184270786Y-75123019D01*
X184292119Y-75043402D01*
X184292119Y-75043400D01*
X184293543Y-75038087D01*
X184313498Y-74810000D01*
X184293543Y-74581913D01*
X184262685Y-74466749D01*
X184235707Y-74366067D01*
X184235706Y-74366065D01*
X184234284Y-74360757D01*
X184186948Y-74259243D01*
X184139849Y-74158238D01*
X184139846Y-74158233D01*
X184137523Y-74153251D01*
X184006198Y-73965700D01*
X183844300Y-73803802D01*
X183839792Y-73800645D01*
X183839789Y-73800643D01*
X183714213Y-73712714D01*
X183656749Y-73672477D01*
X183651767Y-73670154D01*
X183651762Y-73670151D01*
X183454225Y-73578039D01*
X183454224Y-73578039D01*
X183449243Y-73575716D01*
X183443935Y-73574294D01*
X183443933Y-73574293D01*
X183233402Y-73517881D01*
X183233400Y-73517881D01*
X183228087Y-73516457D01*
X183000000Y-73496502D01*
X182771913Y-73516457D01*
X182766600Y-73517881D01*
X182766598Y-73517881D01*
X182556067Y-73574293D01*
X182556065Y-73574294D01*
X182550757Y-73575716D01*
X182545776Y-73578039D01*
X182545775Y-73578039D01*
X182348238Y-73670151D01*
X182348233Y-73670154D01*
X182343251Y-73672477D01*
X182285787Y-73712714D01*
X182160211Y-73800643D01*
X182160208Y-73800645D01*
X182155700Y-73803802D01*
X181993802Y-73965700D01*
X181990645Y-73970208D01*
X181990643Y-73970211D01*
X181883819Y-74122771D01*
X181828362Y-74167099D01*
X181780606Y-74176500D01*
X178457432Y-74176500D01*
X178389311Y-74156498D01*
X178342818Y-74102842D01*
X178332714Y-74032568D01*
X178362208Y-73967988D01*
X178395866Y-73940566D01*
X178448651Y-73911005D01*
X178454691Y-73902011D01*
X178448516Y-73891359D01*
X177822812Y-73265655D01*
X177808868Y-73258041D01*
X177807035Y-73258172D01*
X177800420Y-73262423D01*
X177175458Y-73887385D01*
X177169262Y-73898731D01*
X177179145Y-73911222D01*
X177230798Y-73945735D01*
X177276326Y-74000211D01*
X177285175Y-74070654D01*
X177254534Y-74134699D01*
X177194132Y-74172010D01*
X177160797Y-74176500D01*
X175918455Y-74176500D01*
X175850334Y-74156498D01*
X175803841Y-74102842D01*
X175793737Y-74032568D01*
X175823231Y-73967988D01*
X175856889Y-73940565D01*
X175914772Y-73908149D01*
X176074939Y-73774939D01*
X176162091Y-73670151D01*
X176204458Y-73619210D01*
X176208149Y-73614772D01*
X176309940Y-73433011D01*
X176336399Y-73355066D01*
X176375047Y-73241213D01*
X176375048Y-73241208D01*
X176376903Y-73235744D01*
X176377731Y-73230035D01*
X176377732Y-73230030D01*
X176406263Y-73033251D01*
X176406796Y-73029577D01*
X176408356Y-72970000D01*
X176406149Y-72945980D01*
X176672914Y-72945980D01*
X176685777Y-73142233D01*
X176687577Y-73153601D01*
X176735991Y-73344228D01*
X176739829Y-73355066D01*
X176822172Y-73533682D01*
X176827923Y-73543643D01*
X176869472Y-73602435D01*
X176880061Y-73610823D01*
X176893363Y-73603794D01*
X177514345Y-72982812D01*
X177520723Y-72971132D01*
X178098041Y-72971132D01*
X178098172Y-72972965D01*
X178102423Y-72979580D01*
X178730199Y-73607356D01*
X178743507Y-73614623D01*
X178750327Y-73609785D01*
X178750554Y-73609454D01*
X178846662Y-73437840D01*
X178851336Y-73427343D01*
X178914557Y-73241101D01*
X178917245Y-73229905D01*
X178945762Y-73033224D01*
X178946392Y-73025843D01*
X178947757Y-72973704D01*
X178947514Y-72966305D01*
X178929330Y-72768397D01*
X178927233Y-72757083D01*
X178873846Y-72567789D01*
X178869724Y-72557050D01*
X178782734Y-72380651D01*
X178776725Y-72370847D01*
X178751342Y-72336855D01*
X178740084Y-72328406D01*
X178727664Y-72335179D01*
X178105655Y-72957188D01*
X178098041Y-72971132D01*
X177520723Y-72971132D01*
X177521959Y-72968868D01*
X177521828Y-72967035D01*
X177517577Y-72960420D01*
X176891327Y-72334170D01*
X176878487Y-72327159D01*
X176867795Y-72334956D01*
X176859294Y-72345740D01*
X176853025Y-72355392D01*
X176761449Y-72529452D01*
X176757048Y-72540076D01*
X176698724Y-72727910D01*
X176696332Y-72739164D01*
X176673215Y-72934479D01*
X176672914Y-72945980D01*
X176406149Y-72945980D01*
X176389294Y-72762551D01*
X176332747Y-72562050D01*
X176240608Y-72375211D01*
X176235076Y-72367802D01*
X176119416Y-72212915D01*
X176119415Y-72212914D01*
X176115963Y-72208291D01*
X175962987Y-72066881D01*
X175918673Y-72038921D01*
X177166666Y-72038921D01*
X177170152Y-72047309D01*
X177797188Y-72674345D01*
X177811132Y-72681959D01*
X177812965Y-72681828D01*
X177819580Y-72677577D01*
X178445230Y-72051927D01*
X178451990Y-72039547D01*
X178445960Y-72031492D01*
X178331455Y-71959244D01*
X178321212Y-71954025D01*
X178138531Y-71881143D01*
X178127504Y-71877876D01*
X177934605Y-71839506D01*
X177923159Y-71838303D01*
X177726507Y-71835730D01*
X177715027Y-71836633D01*
X177521199Y-71869938D01*
X177510079Y-71872918D01*
X177325557Y-71940992D01*
X177315179Y-71945942D01*
X177176264Y-72028588D01*
X177166666Y-72038921D01*
X175918673Y-72038921D01*
X175786803Y-71955717D01*
X175593311Y-71878522D01*
X175408507Y-71841762D01*
X175394657Y-71839007D01*
X175388991Y-71837880D01*
X175383216Y-71837804D01*
X175383212Y-71837804D01*
X175278901Y-71836439D01*
X175180686Y-71835153D01*
X175174989Y-71836132D01*
X175174988Y-71836132D01*
X174981069Y-71869454D01*
X174975372Y-71870433D01*
X174779925Y-71942537D01*
X174774964Y-71945489D01*
X174774963Y-71945489D01*
X174633268Y-72029789D01*
X174600891Y-72049051D01*
X174444266Y-72186407D01*
X174440699Y-72190932D01*
X174440694Y-72190937D01*
X174319259Y-72344977D01*
X174315294Y-72350007D01*
X174312603Y-72355123D01*
X174312601Y-72355125D01*
X174230784Y-72510634D01*
X174218296Y-72534370D01*
X174156520Y-72733322D01*
X174132034Y-72940201D01*
X174145659Y-73148078D01*
X174196938Y-73349991D01*
X174284155Y-73539178D01*
X174404387Y-73709303D01*
X174553609Y-73854669D01*
X174558405Y-73857874D01*
X174558408Y-73857876D01*
X174602572Y-73887385D01*
X174682162Y-73940565D01*
X174689899Y-73945735D01*
X174735427Y-74000212D01*
X174744275Y-74070655D01*
X174713634Y-74134699D01*
X174653232Y-74172010D01*
X174619897Y-74176500D01*
X173378455Y-74176500D01*
X173310334Y-74156498D01*
X173263841Y-74102842D01*
X173253737Y-74032568D01*
X173283231Y-73967988D01*
X173316889Y-73940565D01*
X173374772Y-73908149D01*
X173534939Y-73774939D01*
X173622091Y-73670151D01*
X173664458Y-73619210D01*
X173668149Y-73614772D01*
X173769940Y-73433011D01*
X173796399Y-73355066D01*
X173835047Y-73241213D01*
X173835048Y-73241208D01*
X173836903Y-73235744D01*
X173837731Y-73230035D01*
X173837732Y-73230030D01*
X173866263Y-73033251D01*
X173866796Y-73029577D01*
X173868356Y-72970000D01*
X173849294Y-72762551D01*
X173792747Y-72562050D01*
X173700608Y-72375211D01*
X173695076Y-72367802D01*
X173579416Y-72212915D01*
X173579415Y-72212914D01*
X173575963Y-72208291D01*
X173422987Y-72066881D01*
X173246803Y-71955717D01*
X173053311Y-71878522D01*
X172868507Y-71841762D01*
X172854657Y-71839007D01*
X172848991Y-71837880D01*
X172843216Y-71837804D01*
X172843212Y-71837804D01*
X172738901Y-71836439D01*
X172640686Y-71835153D01*
X172634989Y-71836132D01*
X172634988Y-71836132D01*
X172441069Y-71869454D01*
X172435372Y-71870433D01*
X172239925Y-71942537D01*
X172234964Y-71945489D01*
X172234963Y-71945489D01*
X172093268Y-72029789D01*
X172060891Y-72049051D01*
X171904266Y-72186407D01*
X171900699Y-72190932D01*
X171900694Y-72190937D01*
X171779259Y-72344977D01*
X171775294Y-72350007D01*
X171772603Y-72355123D01*
X171772601Y-72355125D01*
X171690784Y-72510634D01*
X171678296Y-72534370D01*
X171616520Y-72733322D01*
X171592034Y-72940201D01*
X171605659Y-73148078D01*
X171609182Y-73161949D01*
X171606562Y-73232897D01*
X171566000Y-73291166D01*
X171500375Y-73318256D01*
X171430522Y-73305566D01*
X171397963Y-73282057D01*
X171360405Y-73244499D01*
X171326379Y-73182187D01*
X171323500Y-73155404D01*
X171323500Y-72296866D01*
X171316745Y-72234684D01*
X171265615Y-72098295D01*
X171178261Y-71981739D01*
X171061705Y-71894385D01*
X170925316Y-71843255D01*
X170863134Y-71836500D01*
X169516866Y-71836500D01*
X169454684Y-71843255D01*
X169318295Y-71894385D01*
X169201739Y-71981739D01*
X169114385Y-72098295D01*
X169111233Y-72106703D01*
X169066029Y-72227285D01*
X169063255Y-72234684D01*
X169062628Y-72240453D01*
X169027874Y-72301291D01*
X168964919Y-72334113D01*
X168940507Y-72336500D01*
X166008188Y-72336500D01*
X165940067Y-72316498D01*
X165893574Y-72262842D01*
X165883470Y-72192568D01*
X165912964Y-72127988D01*
X165919093Y-72121405D01*
X166006198Y-72034300D01*
X166137523Y-71846749D01*
X166139846Y-71841767D01*
X166139849Y-71841762D01*
X166231961Y-71644225D01*
X166231961Y-71644224D01*
X166234284Y-71639243D01*
X166293543Y-71418087D01*
X166313498Y-71190000D01*
X166293543Y-70961913D01*
X166234284Y-70740757D01*
X166231961Y-70735775D01*
X166139849Y-70538238D01*
X166139846Y-70538233D01*
X166137523Y-70533251D01*
X166006198Y-70345700D01*
X165844300Y-70183802D01*
X165839792Y-70180645D01*
X165839789Y-70180643D01*
X165729207Y-70103213D01*
X165684879Y-70047756D01*
X165677570Y-69977137D01*
X165709601Y-69913776D01*
X165729207Y-69896787D01*
X165839789Y-69819357D01*
X165839792Y-69819355D01*
X165844300Y-69816198D01*
X166006198Y-69654300D01*
X166137523Y-69466749D01*
X166139846Y-69461767D01*
X166139849Y-69461762D01*
X166231961Y-69264225D01*
X166231961Y-69264224D01*
X166234284Y-69259243D01*
X166293543Y-69038087D01*
X166313498Y-68810000D01*
X166293543Y-68581913D01*
X166266803Y-68482119D01*
X166235707Y-68366067D01*
X166235706Y-68366065D01*
X166234284Y-68360757D01*
X166231961Y-68355775D01*
X166139849Y-68158238D01*
X166139846Y-68158233D01*
X166137523Y-68153251D01*
X166006198Y-67965700D01*
X165844300Y-67803802D01*
X165839792Y-67800645D01*
X165839789Y-67800643D01*
X165761611Y-67745902D01*
X165656749Y-67672477D01*
X165651767Y-67670154D01*
X165651762Y-67670151D01*
X165454225Y-67578039D01*
X165454224Y-67578039D01*
X165449243Y-67575716D01*
X165443935Y-67574294D01*
X165443933Y-67574293D01*
X165233402Y-67517881D01*
X165233400Y-67517881D01*
X165228087Y-67516457D01*
X165000000Y-67496502D01*
X164771913Y-67516457D01*
X164766600Y-67517881D01*
X164766598Y-67517881D01*
X164556067Y-67574293D01*
X164556065Y-67574294D01*
X164550757Y-67575716D01*
X164545776Y-67578039D01*
X164545775Y-67578039D01*
X164348238Y-67670151D01*
X164348233Y-67670154D01*
X164343251Y-67672477D01*
X164238389Y-67745902D01*
X164160211Y-67800643D01*
X164160208Y-67800645D01*
X164155700Y-67803802D01*
X163993802Y-67965700D01*
X163862477Y-68153251D01*
X163860154Y-68158233D01*
X163860151Y-68158238D01*
X163768039Y-68355775D01*
X163765716Y-68360757D01*
X163764294Y-68366065D01*
X163764293Y-68366067D01*
X163733197Y-68482119D01*
X163706457Y-68581913D01*
X163686502Y-68810000D01*
X163706457Y-69038087D01*
X163765716Y-69259243D01*
X163768039Y-69264224D01*
X163768039Y-69264225D01*
X163860151Y-69461762D01*
X163860154Y-69461767D01*
X163862477Y-69466749D01*
X163993802Y-69654300D01*
X164155700Y-69816198D01*
X164160208Y-69819355D01*
X164160211Y-69819357D01*
X164270793Y-69896787D01*
X164315121Y-69952244D01*
X164322430Y-70022863D01*
X164290399Y-70086224D01*
X164270793Y-70103213D01*
X164160211Y-70180643D01*
X164160208Y-70180645D01*
X164155700Y-70183802D01*
X163993802Y-70345700D01*
X163862477Y-70533251D01*
X163860154Y-70538233D01*
X163860151Y-70538238D01*
X163768039Y-70735775D01*
X163765716Y-70740757D01*
X163706457Y-70961913D01*
X163686502Y-71190000D01*
X163706457Y-71418087D01*
X163765716Y-71639243D01*
X163768039Y-71644224D01*
X163768039Y-71644225D01*
X163860151Y-71841762D01*
X163860154Y-71841767D01*
X163862477Y-71846749D01*
X163993802Y-72034300D01*
X164080907Y-72121405D01*
X164114933Y-72183717D01*
X164109868Y-72254532D01*
X164067321Y-72311368D01*
X164000801Y-72336179D01*
X163997129Y-72336310D01*
X163994109Y-72336500D01*
X163990144Y-72336500D01*
X163986154Y-72337004D01*
X163974320Y-72337936D01*
X163930111Y-72339326D01*
X163922497Y-72341538D01*
X163922492Y-72341539D01*
X163910659Y-72344977D01*
X163891296Y-72348988D01*
X163871203Y-72351526D01*
X163863836Y-72354443D01*
X163863831Y-72354444D01*
X163830092Y-72367802D01*
X163818865Y-72371646D01*
X163776407Y-72383982D01*
X163769581Y-72388019D01*
X163758972Y-72394293D01*
X163741224Y-72402988D01*
X163722383Y-72410448D01*
X163715967Y-72415110D01*
X163715966Y-72415110D01*
X163686613Y-72436436D01*
X163676693Y-72442952D01*
X163645465Y-72461420D01*
X163645462Y-72461422D01*
X163638638Y-72465458D01*
X163624317Y-72479779D01*
X163609284Y-72492619D01*
X163592893Y-72504528D01*
X163564702Y-72538605D01*
X163556712Y-72547384D01*
X158551018Y-77553077D01*
X158488706Y-77587103D01*
X158424558Y-77584314D01*
X158414311Y-77581132D01*
X158292773Y-77543393D01*
X158266818Y-77539953D01*
X158069511Y-77513802D01*
X158069506Y-77513802D01*
X158064226Y-77513102D01*
X158058897Y-77513302D01*
X158058895Y-77513302D01*
X157949034Y-77517427D01*
X157833842Y-77521751D01*
X157828623Y-77522846D01*
X157797539Y-77529368D01*
X157608209Y-77569093D01*
X157603250Y-77571051D01*
X157603248Y-77571052D01*
X157398744Y-77651815D01*
X157398742Y-77651816D01*
X157393779Y-77653776D01*
X157389220Y-77656543D01*
X157389217Y-77656544D01*
X157306939Y-77706472D01*
X157196683Y-77773377D01*
X157192653Y-77776874D01*
X157089865Y-77866069D01*
X157022555Y-77924477D01*
X156993330Y-77960120D01*
X156934671Y-78000114D01*
X156863701Y-78002046D01*
X156802952Y-77965302D01*
X156788752Y-77946532D01*
X156702332Y-77806880D01*
X156698478Y-77800652D01*
X156683827Y-77786026D01*
X156578483Y-77680866D01*
X156573303Y-77675695D01*
X156565015Y-77670586D01*
X156428968Y-77586725D01*
X156428966Y-77586724D01*
X156422738Y-77582885D01*
X156309923Y-77545466D01*
X156261389Y-77529368D01*
X156261387Y-77529368D01*
X156254861Y-77527203D01*
X156248025Y-77526503D01*
X156248022Y-77526502D01*
X156204969Y-77522091D01*
X156150400Y-77516500D01*
X154849600Y-77516500D01*
X154846354Y-77516837D01*
X154846350Y-77516837D01*
X154750692Y-77526762D01*
X154750688Y-77526763D01*
X154743834Y-77527474D01*
X154737298Y-77529655D01*
X154737296Y-77529655D01*
X154622369Y-77567998D01*
X154576054Y-77583450D01*
X154425652Y-77676522D01*
X154300695Y-77801697D01*
X154296855Y-77807927D01*
X154296854Y-77807928D01*
X154223806Y-77926434D01*
X154207885Y-77952262D01*
X154191067Y-78002966D01*
X154165951Y-78078691D01*
X154152203Y-78120139D01*
X154141500Y-78224600D01*
X154141500Y-79775400D01*
X151508500Y-79775400D01*
X151508500Y-73810000D01*
X153686502Y-73810000D01*
X153706457Y-74038087D01*
X153707881Y-74043400D01*
X153707881Y-74043402D01*
X153738652Y-74158238D01*
X153765716Y-74259243D01*
X153768039Y-74264224D01*
X153768039Y-74264225D01*
X153860151Y-74461762D01*
X153860154Y-74461767D01*
X153862477Y-74466749D01*
X153993802Y-74654300D01*
X154155700Y-74816198D01*
X154160208Y-74819355D01*
X154160211Y-74819357D01*
X154238389Y-74874098D01*
X154343251Y-74947523D01*
X154348233Y-74949846D01*
X154348238Y-74949849D01*
X154525715Y-75032607D01*
X154550757Y-75044284D01*
X154556065Y-75045706D01*
X154556067Y-75045707D01*
X154766598Y-75102119D01*
X154766600Y-75102119D01*
X154771913Y-75103543D01*
X155000000Y-75123498D01*
X155228087Y-75103543D01*
X155233400Y-75102119D01*
X155233402Y-75102119D01*
X155443933Y-75045707D01*
X155443935Y-75045706D01*
X155449243Y-75044284D01*
X155474285Y-75032607D01*
X155651762Y-74949849D01*
X155651767Y-74949846D01*
X155656749Y-74947523D01*
X155761611Y-74874098D01*
X155839789Y-74819357D01*
X155839792Y-74819355D01*
X155844300Y-74816198D01*
X156006198Y-74654300D01*
X156137523Y-74466749D01*
X156139846Y-74461767D01*
X156139849Y-74461762D01*
X156231961Y-74264225D01*
X156231961Y-74264224D01*
X156234284Y-74259243D01*
X156261349Y-74158238D01*
X156292119Y-74043402D01*
X156292119Y-74043400D01*
X156293543Y-74038087D01*
X156313498Y-73810000D01*
X158686502Y-73810000D01*
X158706457Y-74038087D01*
X158707881Y-74043400D01*
X158707881Y-74043402D01*
X158738652Y-74158238D01*
X158765716Y-74259243D01*
X158768039Y-74264224D01*
X158768039Y-74264225D01*
X158860151Y-74461762D01*
X158860154Y-74461767D01*
X158862477Y-74466749D01*
X158993802Y-74654300D01*
X159155700Y-74816198D01*
X159160208Y-74819355D01*
X159160211Y-74819357D01*
X159238389Y-74874098D01*
X159343251Y-74947523D01*
X159348233Y-74949846D01*
X159348238Y-74949849D01*
X159525715Y-75032607D01*
X159550757Y-75044284D01*
X159556065Y-75045706D01*
X159556067Y-75045707D01*
X159766598Y-75102119D01*
X159766600Y-75102119D01*
X159771913Y-75103543D01*
X160000000Y-75123498D01*
X160228087Y-75103543D01*
X160233400Y-75102119D01*
X160233402Y-75102119D01*
X160443933Y-75045707D01*
X160443935Y-75045706D01*
X160449243Y-75044284D01*
X160474285Y-75032607D01*
X160651762Y-74949849D01*
X160651767Y-74949846D01*
X160656749Y-74947523D01*
X160761611Y-74874098D01*
X160839789Y-74819357D01*
X160839792Y-74819355D01*
X160844300Y-74816198D01*
X161006198Y-74654300D01*
X161137523Y-74466749D01*
X161139846Y-74461767D01*
X161139849Y-74461762D01*
X161231961Y-74264225D01*
X161231961Y-74264224D01*
X161234284Y-74259243D01*
X161261349Y-74158238D01*
X161292119Y-74043402D01*
X161292119Y-74043400D01*
X161293543Y-74038087D01*
X161313498Y-73810000D01*
X161293543Y-73581913D01*
X161280687Y-73533933D01*
X161235707Y-73366067D01*
X161235706Y-73366065D01*
X161234284Y-73360757D01*
X161229264Y-73349991D01*
X161139849Y-73158238D01*
X161139846Y-73158233D01*
X161137523Y-73153251D01*
X161015917Y-72979580D01*
X161009357Y-72970211D01*
X161009355Y-72970208D01*
X161006198Y-72965700D01*
X160844300Y-72803802D01*
X160839792Y-72800645D01*
X160839789Y-72800643D01*
X160735765Y-72727805D01*
X160656749Y-72672477D01*
X160651767Y-72670154D01*
X160651762Y-72670151D01*
X160454225Y-72578039D01*
X160454224Y-72578039D01*
X160449243Y-72575716D01*
X160443935Y-72574294D01*
X160443933Y-72574293D01*
X160233402Y-72517881D01*
X160233400Y-72517881D01*
X160228087Y-72516457D01*
X160000000Y-72496502D01*
X159771913Y-72516457D01*
X159766600Y-72517881D01*
X159766598Y-72517881D01*
X159556067Y-72574293D01*
X159556065Y-72574294D01*
X159550757Y-72575716D01*
X159545776Y-72578039D01*
X159545775Y-72578039D01*
X159348238Y-72670151D01*
X159348233Y-72670154D01*
X159343251Y-72672477D01*
X159264235Y-72727805D01*
X159160211Y-72800643D01*
X159160208Y-72800645D01*
X159155700Y-72803802D01*
X158993802Y-72965700D01*
X158990645Y-72970208D01*
X158990643Y-72970211D01*
X158984083Y-72979580D01*
X158862477Y-73153251D01*
X158860154Y-73158233D01*
X158860151Y-73158238D01*
X158770736Y-73349991D01*
X158765716Y-73360757D01*
X158764294Y-73366065D01*
X158764293Y-73366067D01*
X158719313Y-73533933D01*
X158706457Y-73581913D01*
X158686502Y-73810000D01*
X156313498Y-73810000D01*
X156293543Y-73581913D01*
X156280687Y-73533933D01*
X156235707Y-73366067D01*
X156235706Y-73366065D01*
X156234284Y-73360757D01*
X156229264Y-73349991D01*
X156139849Y-73158238D01*
X156139846Y-73158233D01*
X156137523Y-73153251D01*
X156015917Y-72979580D01*
X156009357Y-72970211D01*
X156009355Y-72970208D01*
X156006198Y-72965700D01*
X155844300Y-72803802D01*
X155839792Y-72800645D01*
X155839789Y-72800643D01*
X155735765Y-72727805D01*
X155656749Y-72672477D01*
X155651767Y-72670154D01*
X155651762Y-72670151D01*
X155454225Y-72578039D01*
X155454224Y-72578039D01*
X155449243Y-72575716D01*
X155443935Y-72574294D01*
X155443933Y-72574293D01*
X155233402Y-72517881D01*
X155233400Y-72517881D01*
X155228087Y-72516457D01*
X155000000Y-72496502D01*
X154771913Y-72516457D01*
X154766600Y-72517881D01*
X154766598Y-72517881D01*
X154556067Y-72574293D01*
X154556065Y-72574294D01*
X154550757Y-72575716D01*
X154545776Y-72578039D01*
X154545775Y-72578039D01*
X154348238Y-72670151D01*
X154348233Y-72670154D01*
X154343251Y-72672477D01*
X154264235Y-72727805D01*
X154160211Y-72800643D01*
X154160208Y-72800645D01*
X154155700Y-72803802D01*
X153993802Y-72965700D01*
X153990645Y-72970208D01*
X153990643Y-72970211D01*
X153984083Y-72979580D01*
X153862477Y-73153251D01*
X153860154Y-73158233D01*
X153860151Y-73158238D01*
X153770736Y-73349991D01*
X153765716Y-73360757D01*
X153764294Y-73366065D01*
X153764293Y-73366067D01*
X153719313Y-73533933D01*
X153706457Y-73581913D01*
X153686502Y-73810000D01*
X151508500Y-73810000D01*
X151508500Y-66190000D01*
X153686502Y-66190000D01*
X153706457Y-66418087D01*
X153707881Y-66423400D01*
X153707881Y-66423402D01*
X153738652Y-66538238D01*
X153765716Y-66639243D01*
X153768039Y-66644224D01*
X153768039Y-66644225D01*
X153860151Y-66841762D01*
X153860154Y-66841767D01*
X153862477Y-66846749D01*
X153993802Y-67034300D01*
X154155700Y-67196198D01*
X154160208Y-67199355D01*
X154160211Y-67199357D01*
X154238389Y-67254098D01*
X154343251Y-67327523D01*
X154348233Y-67329846D01*
X154348238Y-67329849D01*
X154525715Y-67412607D01*
X154550757Y-67424284D01*
X154556065Y-67425706D01*
X154556067Y-67425707D01*
X154766598Y-67482119D01*
X154766600Y-67482119D01*
X154771913Y-67483543D01*
X155000000Y-67503498D01*
X155228087Y-67483543D01*
X155233400Y-67482119D01*
X155233402Y-67482119D01*
X155443933Y-67425707D01*
X155443935Y-67425706D01*
X155449243Y-67424284D01*
X155474285Y-67412607D01*
X155651762Y-67329849D01*
X155651767Y-67329846D01*
X155656749Y-67327523D01*
X155761611Y-67254098D01*
X155839789Y-67199357D01*
X155839792Y-67199355D01*
X155844300Y-67196198D01*
X156006198Y-67034300D01*
X156137523Y-66846749D01*
X156139846Y-66841767D01*
X156139849Y-66841762D01*
X156231961Y-66644225D01*
X156231961Y-66644224D01*
X156234284Y-66639243D01*
X156261349Y-66538238D01*
X156292119Y-66423402D01*
X156292119Y-66423400D01*
X156293543Y-66418087D01*
X156313498Y-66190000D01*
X158686502Y-66190000D01*
X158706457Y-66418087D01*
X158707881Y-66423400D01*
X158707881Y-66423402D01*
X158738652Y-66538238D01*
X158765716Y-66639243D01*
X158768039Y-66644224D01*
X158768039Y-66644225D01*
X158860151Y-66841762D01*
X158860154Y-66841767D01*
X158862477Y-66846749D01*
X158993802Y-67034300D01*
X159155700Y-67196198D01*
X159160208Y-67199355D01*
X159160211Y-67199357D01*
X159238389Y-67254098D01*
X159343251Y-67327523D01*
X159348233Y-67329846D01*
X159348238Y-67329849D01*
X159525715Y-67412607D01*
X159550757Y-67424284D01*
X159556065Y-67425706D01*
X159556067Y-67425707D01*
X159766598Y-67482119D01*
X159766600Y-67482119D01*
X159771913Y-67483543D01*
X160000000Y-67503498D01*
X160228087Y-67483543D01*
X160233400Y-67482119D01*
X160233402Y-67482119D01*
X160443933Y-67425707D01*
X160443935Y-67425706D01*
X160449243Y-67424284D01*
X160474285Y-67412607D01*
X160651762Y-67329849D01*
X160651767Y-67329846D01*
X160656749Y-67327523D01*
X160761611Y-67254098D01*
X160839789Y-67199357D01*
X160839792Y-67199355D01*
X160844300Y-67196198D01*
X160850498Y-67190000D01*
X181686502Y-67190000D01*
X181706457Y-67418087D01*
X181707881Y-67423400D01*
X181707881Y-67423402D01*
X181748313Y-67574293D01*
X181765716Y-67639243D01*
X181768039Y-67644224D01*
X181768039Y-67644225D01*
X181860151Y-67841762D01*
X181860154Y-67841767D01*
X181862477Y-67846749D01*
X181993802Y-68034300D01*
X182155700Y-68196198D01*
X182160208Y-68199355D01*
X182160211Y-68199357D01*
X182238389Y-68254098D01*
X182343251Y-68327523D01*
X182348233Y-68329846D01*
X182348238Y-68329849D01*
X182425909Y-68366067D01*
X182550757Y-68424284D01*
X182556065Y-68425706D01*
X182556067Y-68425707D01*
X182766598Y-68482119D01*
X182766600Y-68482119D01*
X182771913Y-68483543D01*
X183000000Y-68503498D01*
X183228087Y-68483543D01*
X183233400Y-68482119D01*
X183233402Y-68482119D01*
X183443933Y-68425707D01*
X183443935Y-68425706D01*
X183449243Y-68424284D01*
X183574091Y-68366067D01*
X183651762Y-68329849D01*
X183651767Y-68329846D01*
X183656749Y-68327523D01*
X183761611Y-68254098D01*
X183839789Y-68199357D01*
X183839792Y-68199355D01*
X183844300Y-68196198D01*
X184006198Y-68034300D01*
X184137523Y-67846749D01*
X184139846Y-67841767D01*
X184139849Y-67841762D01*
X184231961Y-67644225D01*
X184231961Y-67644224D01*
X184234284Y-67639243D01*
X184251688Y-67574293D01*
X184292119Y-67423402D01*
X184292119Y-67423400D01*
X184293543Y-67418087D01*
X184313498Y-67190000D01*
X184293543Y-66961913D01*
X184262685Y-66846749D01*
X184235707Y-66746067D01*
X184235706Y-66746065D01*
X184234284Y-66740757D01*
X184186948Y-66639243D01*
X184139849Y-66538238D01*
X184139846Y-66538233D01*
X184137523Y-66533251D01*
X184006198Y-66345700D01*
X183844300Y-66183802D01*
X183839792Y-66180645D01*
X183839789Y-66180643D01*
X183742672Y-66112641D01*
X183656749Y-66052477D01*
X183651767Y-66050154D01*
X183651762Y-66050151D01*
X183454225Y-65958039D01*
X183454224Y-65958039D01*
X183449243Y-65955716D01*
X183443935Y-65954294D01*
X183443933Y-65954293D01*
X183233402Y-65897881D01*
X183233400Y-65897881D01*
X183228087Y-65896457D01*
X183000000Y-65876502D01*
X182771913Y-65896457D01*
X182766600Y-65897881D01*
X182766598Y-65897881D01*
X182556067Y-65954293D01*
X182556065Y-65954294D01*
X182550757Y-65955716D01*
X182545776Y-65958039D01*
X182545775Y-65958039D01*
X182348238Y-66050151D01*
X182348233Y-66050154D01*
X182343251Y-66052477D01*
X182257328Y-66112641D01*
X182160211Y-66180643D01*
X182160208Y-66180645D01*
X182155700Y-66183802D01*
X181993802Y-66345700D01*
X181862477Y-66533251D01*
X181860154Y-66538233D01*
X181860151Y-66538238D01*
X181813052Y-66639243D01*
X181765716Y-66740757D01*
X181764294Y-66746065D01*
X181764293Y-66746067D01*
X181737315Y-66846749D01*
X181706457Y-66961913D01*
X181686502Y-67190000D01*
X160850498Y-67190000D01*
X161006198Y-67034300D01*
X161137523Y-66846749D01*
X161139846Y-66841767D01*
X161139849Y-66841762D01*
X161231961Y-66644225D01*
X161231961Y-66644224D01*
X161234284Y-66639243D01*
X161261349Y-66538238D01*
X161292119Y-66423402D01*
X161292119Y-66423400D01*
X161293543Y-66418087D01*
X161313498Y-66190000D01*
X161293543Y-65961913D01*
X161275876Y-65895978D01*
X161235707Y-65746067D01*
X161235706Y-65746065D01*
X161234284Y-65740757D01*
X161231961Y-65735775D01*
X161139849Y-65538238D01*
X161139846Y-65538233D01*
X161137523Y-65533251D01*
X161064098Y-65428389D01*
X161009357Y-65350211D01*
X161009355Y-65350208D01*
X161006198Y-65345700D01*
X160844300Y-65183802D01*
X160839792Y-65180645D01*
X160839789Y-65180643D01*
X160704436Y-65085868D01*
X160656749Y-65052477D01*
X160651767Y-65050154D01*
X160651762Y-65050151D01*
X160544643Y-65000201D01*
X169052034Y-65000201D01*
X169065659Y-65208078D01*
X169116938Y-65409991D01*
X169204155Y-65599178D01*
X169324387Y-65769303D01*
X169328521Y-65773330D01*
X169434430Y-65876502D01*
X169473609Y-65914669D01*
X169478405Y-65917874D01*
X169478408Y-65917876D01*
X169548123Y-65964458D01*
X169646823Y-66030407D01*
X169652131Y-66032688D01*
X169652132Y-66032688D01*
X169832926Y-66110363D01*
X169832929Y-66110364D01*
X169838229Y-66112641D01*
X169843858Y-66113915D01*
X169843859Y-66113915D01*
X170035778Y-66157342D01*
X170035783Y-66157343D01*
X170041415Y-66158617D01*
X170047186Y-66158844D01*
X170047188Y-66158844D01*
X170109508Y-66161292D01*
X170249577Y-66166796D01*
X170352660Y-66151850D01*
X170450030Y-66137732D01*
X170450035Y-66137731D01*
X170455744Y-66136903D01*
X170461208Y-66135048D01*
X170461213Y-66135047D01*
X170647543Y-66071796D01*
X170653011Y-66069940D01*
X170834772Y-65968149D01*
X170994939Y-65834939D01*
X171128149Y-65674772D01*
X171229940Y-65493011D01*
X171256341Y-65415237D01*
X171295047Y-65301213D01*
X171295048Y-65301208D01*
X171296903Y-65295744D01*
X171297731Y-65290035D01*
X171297732Y-65290030D01*
X171326263Y-65093251D01*
X171326796Y-65089577D01*
X171328356Y-65030000D01*
X171325618Y-65000201D01*
X171592034Y-65000201D01*
X171605659Y-65208078D01*
X171656938Y-65409991D01*
X171744155Y-65599178D01*
X171864387Y-65769303D01*
X171868521Y-65773330D01*
X171974430Y-65876502D01*
X172013609Y-65914669D01*
X172018405Y-65917874D01*
X172018408Y-65917876D01*
X172088123Y-65964458D01*
X172186823Y-66030407D01*
X172192131Y-66032688D01*
X172192132Y-66032688D01*
X172372926Y-66110363D01*
X172372929Y-66110364D01*
X172378229Y-66112641D01*
X172383858Y-66113915D01*
X172383859Y-66113915D01*
X172575778Y-66157342D01*
X172575783Y-66157343D01*
X172581415Y-66158617D01*
X172587186Y-66158844D01*
X172587188Y-66158844D01*
X172649508Y-66161292D01*
X172789577Y-66166796D01*
X172892660Y-66151850D01*
X172990030Y-66137732D01*
X172990035Y-66137731D01*
X172995744Y-66136903D01*
X173001208Y-66135048D01*
X173001213Y-66135047D01*
X173187543Y-66071796D01*
X173193011Y-66069940D01*
X173374772Y-65968149D01*
X173534939Y-65834939D01*
X173668149Y-65674772D01*
X173769940Y-65493011D01*
X173796341Y-65415237D01*
X173835047Y-65301213D01*
X173835048Y-65301208D01*
X173836903Y-65295744D01*
X173837731Y-65290035D01*
X173837732Y-65290030D01*
X173866263Y-65093251D01*
X173866796Y-65089577D01*
X173868356Y-65030000D01*
X173865618Y-65000201D01*
X174132034Y-65000201D01*
X174145659Y-65208078D01*
X174196938Y-65409991D01*
X174284155Y-65599178D01*
X174404387Y-65769303D01*
X174408521Y-65773330D01*
X174514430Y-65876502D01*
X174553609Y-65914669D01*
X174558405Y-65917874D01*
X174558408Y-65917876D01*
X174628123Y-65964458D01*
X174726823Y-66030407D01*
X174732131Y-66032688D01*
X174732132Y-66032688D01*
X174912926Y-66110363D01*
X174912929Y-66110364D01*
X174918229Y-66112641D01*
X174923858Y-66113915D01*
X174923859Y-66113915D01*
X175115778Y-66157342D01*
X175115783Y-66157343D01*
X175121415Y-66158617D01*
X175127186Y-66158844D01*
X175127188Y-66158844D01*
X175189508Y-66161292D01*
X175329577Y-66166796D01*
X175432660Y-66151850D01*
X175530030Y-66137732D01*
X175530035Y-66137731D01*
X175535744Y-66136903D01*
X175541208Y-66135048D01*
X175541213Y-66135047D01*
X175727543Y-66071796D01*
X175733011Y-66069940D01*
X175914772Y-65968149D01*
X176074939Y-65834939D01*
X176208149Y-65674772D01*
X176309940Y-65493011D01*
X176336341Y-65415237D01*
X176375047Y-65301213D01*
X176375048Y-65301208D01*
X176376903Y-65295744D01*
X176377731Y-65290035D01*
X176377732Y-65290030D01*
X176406263Y-65093251D01*
X176406796Y-65089577D01*
X176408356Y-65030000D01*
X176405618Y-65000201D01*
X176672034Y-65000201D01*
X176685659Y-65208078D01*
X176736938Y-65409991D01*
X176824155Y-65599178D01*
X176944387Y-65769303D01*
X176948521Y-65773330D01*
X177054430Y-65876502D01*
X177093609Y-65914669D01*
X177098405Y-65917874D01*
X177098408Y-65917876D01*
X177168123Y-65964458D01*
X177266823Y-66030407D01*
X177272131Y-66032688D01*
X177272132Y-66032688D01*
X177452926Y-66110363D01*
X177452929Y-66110364D01*
X177458229Y-66112641D01*
X177463858Y-66113915D01*
X177463859Y-66113915D01*
X177655778Y-66157342D01*
X177655783Y-66157343D01*
X177661415Y-66158617D01*
X177667186Y-66158844D01*
X177667188Y-66158844D01*
X177729508Y-66161292D01*
X177869577Y-66166796D01*
X177972660Y-66151850D01*
X178070030Y-66137732D01*
X178070035Y-66137731D01*
X178075744Y-66136903D01*
X178081208Y-66135048D01*
X178081213Y-66135047D01*
X178267543Y-66071796D01*
X178273011Y-66069940D01*
X178454772Y-65968149D01*
X178614939Y-65834939D01*
X178748149Y-65674772D01*
X178849940Y-65493011D01*
X178876341Y-65415237D01*
X178915047Y-65301213D01*
X178915048Y-65301208D01*
X178916903Y-65295744D01*
X178917731Y-65290035D01*
X178917732Y-65290030D01*
X178946263Y-65093251D01*
X178946796Y-65089577D01*
X178948356Y-65030000D01*
X178940515Y-64944669D01*
X181592001Y-64944669D01*
X181592371Y-64951490D01*
X181597895Y-65002352D01*
X181601521Y-65017604D01*
X181646676Y-65138054D01*
X181655214Y-65153649D01*
X181731715Y-65255724D01*
X181744276Y-65268285D01*
X181846351Y-65344786D01*
X181861946Y-65353324D01*
X181982394Y-65398478D01*
X181997649Y-65402105D01*
X182048514Y-65407631D01*
X182055328Y-65408000D01*
X182727885Y-65408000D01*
X182743124Y-65403525D01*
X182744329Y-65402135D01*
X182746000Y-65394452D01*
X182746000Y-65389884D01*
X183254000Y-65389884D01*
X183258475Y-65405123D01*
X183259865Y-65406328D01*
X183267548Y-65407999D01*
X183944669Y-65407999D01*
X183951490Y-65407629D01*
X184002352Y-65402105D01*
X184017604Y-65398479D01*
X184138054Y-65353324D01*
X184153649Y-65344786D01*
X184255724Y-65268285D01*
X184268285Y-65255724D01*
X184344786Y-65153649D01*
X184353324Y-65138054D01*
X184398478Y-65017606D01*
X184402105Y-65002351D01*
X184407631Y-64951486D01*
X184408000Y-64944672D01*
X184408000Y-64272115D01*
X184403525Y-64256876D01*
X184402135Y-64255671D01*
X184394452Y-64254000D01*
X183272115Y-64254000D01*
X183256876Y-64258475D01*
X183255671Y-64259865D01*
X183254000Y-64267548D01*
X183254000Y-65389884D01*
X182746000Y-65389884D01*
X182746000Y-64272115D01*
X182741525Y-64256876D01*
X182740135Y-64255671D01*
X182732452Y-64254000D01*
X181610116Y-64254000D01*
X181594877Y-64258475D01*
X181593672Y-64259865D01*
X181592001Y-64267548D01*
X181592001Y-64944669D01*
X178940515Y-64944669D01*
X178929294Y-64822551D01*
X178872747Y-64622050D01*
X178780608Y-64435211D01*
X178760387Y-64408131D01*
X178659416Y-64272915D01*
X178659415Y-64272914D01*
X178655963Y-64268291D01*
X178502987Y-64126881D01*
X178326803Y-64015717D01*
X178133311Y-63938522D01*
X177928991Y-63897880D01*
X177923216Y-63897804D01*
X177923212Y-63897804D01*
X177818901Y-63896439D01*
X177720686Y-63895153D01*
X177714989Y-63896132D01*
X177714988Y-63896132D01*
X177698257Y-63899007D01*
X177515372Y-63930433D01*
X177319925Y-64002537D01*
X177140891Y-64109051D01*
X176984266Y-64246407D01*
X176980699Y-64250932D01*
X176980694Y-64250937D01*
X176899630Y-64353767D01*
X176855294Y-64410007D01*
X176852603Y-64415123D01*
X176852601Y-64415125D01*
X176760988Y-64589253D01*
X176758296Y-64594370D01*
X176696520Y-64793322D01*
X176672034Y-65000201D01*
X176405618Y-65000201D01*
X176389294Y-64822551D01*
X176332747Y-64622050D01*
X176240608Y-64435211D01*
X176220387Y-64408131D01*
X176119416Y-64272915D01*
X176119415Y-64272914D01*
X176115963Y-64268291D01*
X175962987Y-64126881D01*
X175786803Y-64015717D01*
X175593311Y-63938522D01*
X175388991Y-63897880D01*
X175383216Y-63897804D01*
X175383212Y-63897804D01*
X175278901Y-63896439D01*
X175180686Y-63895153D01*
X175174989Y-63896132D01*
X175174988Y-63896132D01*
X175158257Y-63899007D01*
X174975372Y-63930433D01*
X174779925Y-64002537D01*
X174600891Y-64109051D01*
X174444266Y-64246407D01*
X174440699Y-64250932D01*
X174440694Y-64250937D01*
X174359630Y-64353767D01*
X174315294Y-64410007D01*
X174312603Y-64415123D01*
X174312601Y-64415125D01*
X174220988Y-64589253D01*
X174218296Y-64594370D01*
X174156520Y-64793322D01*
X174132034Y-65000201D01*
X173865618Y-65000201D01*
X173849294Y-64822551D01*
X173792747Y-64622050D01*
X173700608Y-64435211D01*
X173680387Y-64408131D01*
X173579416Y-64272915D01*
X173579415Y-64272914D01*
X173575963Y-64268291D01*
X173422987Y-64126881D01*
X173246803Y-64015717D01*
X173053311Y-63938522D01*
X172848991Y-63897880D01*
X172843216Y-63897804D01*
X172843212Y-63897804D01*
X172738901Y-63896439D01*
X172640686Y-63895153D01*
X172634989Y-63896132D01*
X172634988Y-63896132D01*
X172618257Y-63899007D01*
X172435372Y-63930433D01*
X172239925Y-64002537D01*
X172060891Y-64109051D01*
X171904266Y-64246407D01*
X171900699Y-64250932D01*
X171900694Y-64250937D01*
X171819630Y-64353767D01*
X171775294Y-64410007D01*
X171772603Y-64415123D01*
X171772601Y-64415125D01*
X171680988Y-64589253D01*
X171678296Y-64594370D01*
X171616520Y-64793322D01*
X171592034Y-65000201D01*
X171325618Y-65000201D01*
X171309294Y-64822551D01*
X171252747Y-64622050D01*
X171160608Y-64435211D01*
X171140387Y-64408131D01*
X171039416Y-64272915D01*
X171039415Y-64272914D01*
X171035963Y-64268291D01*
X170882987Y-64126881D01*
X170706803Y-64015717D01*
X170513311Y-63938522D01*
X170308991Y-63897880D01*
X170303216Y-63897804D01*
X170303212Y-63897804D01*
X170198901Y-63896439D01*
X170100686Y-63895153D01*
X170094989Y-63896132D01*
X170094988Y-63896132D01*
X170078257Y-63899007D01*
X169895372Y-63930433D01*
X169699925Y-64002537D01*
X169520891Y-64109051D01*
X169364266Y-64246407D01*
X169360699Y-64250932D01*
X169360694Y-64250937D01*
X169279630Y-64353767D01*
X169235294Y-64410007D01*
X169232603Y-64415123D01*
X169232601Y-64415125D01*
X169140988Y-64589253D01*
X169138296Y-64594370D01*
X169076520Y-64793322D01*
X169052034Y-65000201D01*
X160544643Y-65000201D01*
X160454225Y-64958039D01*
X160454224Y-64958039D01*
X160449243Y-64955716D01*
X160443935Y-64954294D01*
X160443933Y-64954293D01*
X160233402Y-64897881D01*
X160233400Y-64897881D01*
X160228087Y-64896457D01*
X160000000Y-64876502D01*
X159771913Y-64896457D01*
X159766600Y-64897881D01*
X159766598Y-64897881D01*
X159556067Y-64954293D01*
X159556065Y-64954294D01*
X159550757Y-64955716D01*
X159545776Y-64958039D01*
X159545775Y-64958039D01*
X159348238Y-65050151D01*
X159348233Y-65050154D01*
X159343251Y-65052477D01*
X159295564Y-65085868D01*
X159160211Y-65180643D01*
X159160208Y-65180645D01*
X159155700Y-65183802D01*
X158993802Y-65345700D01*
X158990645Y-65350208D01*
X158990643Y-65350211D01*
X158935902Y-65428389D01*
X158862477Y-65533251D01*
X158860154Y-65538233D01*
X158860151Y-65538238D01*
X158768039Y-65735775D01*
X158765716Y-65740757D01*
X158764294Y-65746065D01*
X158764293Y-65746067D01*
X158724124Y-65895978D01*
X158706457Y-65961913D01*
X158686502Y-66190000D01*
X156313498Y-66190000D01*
X156293543Y-65961913D01*
X156275876Y-65895978D01*
X156235707Y-65746067D01*
X156235706Y-65746065D01*
X156234284Y-65740757D01*
X156231961Y-65735775D01*
X156139849Y-65538238D01*
X156139846Y-65538233D01*
X156137523Y-65533251D01*
X156064098Y-65428389D01*
X156009357Y-65350211D01*
X156009355Y-65350208D01*
X156006198Y-65345700D01*
X155844300Y-65183802D01*
X155839792Y-65180645D01*
X155839789Y-65180643D01*
X155704436Y-65085868D01*
X155656749Y-65052477D01*
X155651767Y-65050154D01*
X155651762Y-65050151D01*
X155454225Y-64958039D01*
X155454224Y-64958039D01*
X155449243Y-64955716D01*
X155443935Y-64954294D01*
X155443933Y-64954293D01*
X155233402Y-64897881D01*
X155233400Y-64897881D01*
X155228087Y-64896457D01*
X155000000Y-64876502D01*
X154771913Y-64896457D01*
X154766600Y-64897881D01*
X154766598Y-64897881D01*
X154556067Y-64954293D01*
X154556065Y-64954294D01*
X154550757Y-64955716D01*
X154545776Y-64958039D01*
X154545775Y-64958039D01*
X154348238Y-65050151D01*
X154348233Y-65050154D01*
X154343251Y-65052477D01*
X154295564Y-65085868D01*
X154160211Y-65180643D01*
X154160208Y-65180645D01*
X154155700Y-65183802D01*
X153993802Y-65345700D01*
X153990645Y-65350208D01*
X153990643Y-65350211D01*
X153935902Y-65428389D01*
X153862477Y-65533251D01*
X153860154Y-65538233D01*
X153860151Y-65538238D01*
X153768039Y-65735775D01*
X153765716Y-65740757D01*
X153764294Y-65746065D01*
X153764293Y-65746067D01*
X153724124Y-65895978D01*
X153706457Y-65961913D01*
X153686502Y-66190000D01*
X151508500Y-66190000D01*
X151508500Y-62945987D01*
X152418721Y-62945987D01*
X152427548Y-62957605D01*
X152650281Y-63119430D01*
X152656961Y-63123670D01*
X152926572Y-63271890D01*
X152933707Y-63275247D01*
X153219770Y-63388508D01*
X153227296Y-63390953D01*
X153525279Y-63467462D01*
X153533050Y-63468945D01*
X153838278Y-63507503D01*
X153846169Y-63508000D01*
X154153831Y-63508000D01*
X154161722Y-63507503D01*
X154466950Y-63468945D01*
X154474721Y-63467462D01*
X154772704Y-63390953D01*
X154780230Y-63388508D01*
X155066293Y-63275247D01*
X155073428Y-63271890D01*
X155343039Y-63123670D01*
X155349719Y-63119430D01*
X155572823Y-62957336D01*
X155581246Y-62946413D01*
X155574342Y-62933552D01*
X154012812Y-61372022D01*
X153998868Y-61364408D01*
X153997035Y-61364539D01*
X153990420Y-61368790D01*
X152425334Y-62933876D01*
X152418721Y-62945987D01*
X151508500Y-62945987D01*
X151508500Y-62159360D01*
X151528502Y-62091239D01*
X151582158Y-62044746D01*
X151652432Y-62034642D01*
X151717012Y-62064136D01*
X151748508Y-62105712D01*
X151796190Y-62207041D01*
X151800001Y-62213974D01*
X151964851Y-62473736D01*
X151969495Y-62480129D01*
X152044497Y-62570790D01*
X152057014Y-62579245D01*
X152067752Y-62573038D01*
X153627978Y-61012812D01*
X153634356Y-61001132D01*
X154364408Y-61001132D01*
X154364539Y-61002965D01*
X154368790Y-61009580D01*
X155931145Y-62571935D01*
X155944407Y-62579177D01*
X155954512Y-62571988D01*
X156030505Y-62480129D01*
X156035149Y-62473736D01*
X156199999Y-62213974D01*
X156203811Y-62207041D01*
X156334801Y-61928672D01*
X156337716Y-61921309D01*
X156432783Y-61628723D01*
X156434754Y-61621046D01*
X156492400Y-61318855D01*
X156493393Y-61310994D01*
X156512710Y-61003958D01*
X156512710Y-60996042D01*
X156493393Y-60689006D01*
X156492400Y-60681145D01*
X156443627Y-60425469D01*
X158587095Y-60425469D01*
X158587392Y-60430622D01*
X158587392Y-60430625D01*
X158594319Y-60550757D01*
X158600427Y-60656697D01*
X158601564Y-60661743D01*
X158601565Y-60661749D01*
X158625192Y-60766587D01*
X158651346Y-60882642D01*
X158653288Y-60887424D01*
X158653289Y-60887428D01*
X158736540Y-61092450D01*
X158738484Y-61097237D01*
X158859501Y-61294719D01*
X158919981Y-61364539D01*
X158971304Y-61423788D01*
X159000786Y-61488373D01*
X158990671Y-61558646D01*
X158944170Y-61612294D01*
X158920296Y-61624267D01*
X158867059Y-61644225D01*
X158853295Y-61649385D01*
X158736739Y-61736739D01*
X158649385Y-61853295D01*
X158598255Y-61989684D01*
X158591500Y-62051866D01*
X158591500Y-63948134D01*
X158598255Y-64010316D01*
X158649385Y-64146705D01*
X158736739Y-64263261D01*
X158853295Y-64350615D01*
X158989684Y-64401745D01*
X159051866Y-64408500D01*
X160948134Y-64408500D01*
X161010316Y-64401745D01*
X161146705Y-64350615D01*
X161263261Y-64263261D01*
X161350615Y-64146705D01*
X161401745Y-64010316D01*
X161408500Y-63948134D01*
X161408500Y-62051866D01*
X161401745Y-61989684D01*
X161350615Y-61853295D01*
X161263261Y-61736739D01*
X161146705Y-61649385D01*
X161138296Y-61646233D01*
X161138295Y-61646232D01*
X161079804Y-61624305D01*
X161023039Y-61581664D01*
X160998339Y-61515103D01*
X161013546Y-61445754D01*
X161035093Y-61417073D01*
X161072636Y-61379660D01*
X161072640Y-61379655D01*
X161076303Y-61376005D01*
X161209961Y-61190000D01*
X163686502Y-61190000D01*
X163706457Y-61418087D01*
X163707881Y-61423400D01*
X163707881Y-61423402D01*
X163750288Y-61581664D01*
X163765716Y-61639243D01*
X163768039Y-61644224D01*
X163768039Y-61644225D01*
X163860151Y-61841762D01*
X163860154Y-61841767D01*
X163862477Y-61846749D01*
X163887610Y-61882642D01*
X163976337Y-62009357D01*
X163993802Y-62034300D01*
X164155700Y-62196198D01*
X164160208Y-62199355D01*
X164160211Y-62199357D01*
X164238389Y-62254098D01*
X164343251Y-62327523D01*
X164348233Y-62329846D01*
X164348238Y-62329849D01*
X164536125Y-62417461D01*
X164550757Y-62424284D01*
X164556065Y-62425706D01*
X164556067Y-62425707D01*
X164766598Y-62482119D01*
X164766600Y-62482119D01*
X164771913Y-62483543D01*
X165000000Y-62503498D01*
X165228087Y-62483543D01*
X165233400Y-62482119D01*
X165233402Y-62482119D01*
X165443933Y-62425707D01*
X165443935Y-62425706D01*
X165449243Y-62424284D01*
X165463875Y-62417461D01*
X165651762Y-62329849D01*
X165651767Y-62329846D01*
X165656749Y-62327523D01*
X165761611Y-62254098D01*
X165839789Y-62199357D01*
X165839792Y-62199355D01*
X165844300Y-62196198D01*
X166006198Y-62034300D01*
X166023664Y-62009357D01*
X166112390Y-61882642D01*
X166137523Y-61846749D01*
X166139846Y-61841767D01*
X166139849Y-61841762D01*
X166231961Y-61644225D01*
X166231961Y-61644224D01*
X166234284Y-61639243D01*
X166249713Y-61581664D01*
X166292119Y-61423402D01*
X166292119Y-61423400D01*
X166293543Y-61418087D01*
X166313498Y-61190000D01*
X166296875Y-61000000D01*
X168876502Y-61000000D01*
X168896457Y-61228087D01*
X168897881Y-61233400D01*
X168897881Y-61233402D01*
X168935025Y-61372022D01*
X168955716Y-61449243D01*
X168958039Y-61454224D01*
X168958039Y-61454225D01*
X169050151Y-61651762D01*
X169050154Y-61651767D01*
X169052477Y-61656749D01*
X169183802Y-61844300D01*
X169345700Y-62006198D01*
X169350208Y-62009355D01*
X169350211Y-62009357D01*
X169386322Y-62034642D01*
X169533251Y-62137523D01*
X169538233Y-62139846D01*
X169538238Y-62139849D01*
X169735775Y-62231961D01*
X169740757Y-62234284D01*
X169746065Y-62235706D01*
X169746067Y-62235707D01*
X169956598Y-62292119D01*
X169956600Y-62292119D01*
X169961913Y-62293543D01*
X170190000Y-62313498D01*
X170418087Y-62293543D01*
X170423400Y-62292119D01*
X170423402Y-62292119D01*
X170633933Y-62235707D01*
X170633935Y-62235706D01*
X170639243Y-62234284D01*
X170644225Y-62231961D01*
X170841762Y-62139849D01*
X170841767Y-62139846D01*
X170846749Y-62137523D01*
X170993678Y-62034642D01*
X171029789Y-62009357D01*
X171029792Y-62009355D01*
X171034300Y-62006198D01*
X171196198Y-61844300D01*
X171327523Y-61656749D01*
X171329846Y-61651767D01*
X171329849Y-61651762D01*
X171421961Y-61454225D01*
X171421961Y-61454224D01*
X171424284Y-61449243D01*
X171444976Y-61372022D01*
X171482119Y-61233402D01*
X171482119Y-61233400D01*
X171483543Y-61228087D01*
X171503498Y-61000000D01*
X176496502Y-61000000D01*
X176516457Y-61228087D01*
X176517881Y-61233400D01*
X176517881Y-61233402D01*
X176555025Y-61372022D01*
X176575716Y-61449243D01*
X176578039Y-61454224D01*
X176578039Y-61454225D01*
X176670151Y-61651762D01*
X176670154Y-61651767D01*
X176672477Y-61656749D01*
X176803802Y-61844300D01*
X176965700Y-62006198D01*
X176970208Y-62009355D01*
X176970211Y-62009357D01*
X177006322Y-62034642D01*
X177153251Y-62137523D01*
X177158233Y-62139846D01*
X177158238Y-62139849D01*
X177355775Y-62231961D01*
X177360757Y-62234284D01*
X177366065Y-62235706D01*
X177366067Y-62235707D01*
X177576598Y-62292119D01*
X177576600Y-62292119D01*
X177581913Y-62293543D01*
X177810000Y-62313498D01*
X178038087Y-62293543D01*
X178043400Y-62292119D01*
X178043402Y-62292119D01*
X178253933Y-62235707D01*
X178253935Y-62235706D01*
X178259243Y-62234284D01*
X178264225Y-62231961D01*
X178461762Y-62139849D01*
X178461767Y-62139846D01*
X178466749Y-62137523D01*
X178613678Y-62034642D01*
X178649789Y-62009357D01*
X178649792Y-62009355D01*
X178654300Y-62006198D01*
X178816198Y-61844300D01*
X178947523Y-61656749D01*
X178949846Y-61651767D01*
X178949849Y-61651762D01*
X179041961Y-61454225D01*
X179041961Y-61454224D01*
X179044284Y-61449243D01*
X179050654Y-61425469D01*
X181587095Y-61425469D01*
X181587392Y-61430622D01*
X181587392Y-61430625D01*
X181593067Y-61529041D01*
X181600427Y-61656697D01*
X181601564Y-61661743D01*
X181601565Y-61661749D01*
X181633741Y-61804523D01*
X181651346Y-61882642D01*
X181653288Y-61887424D01*
X181653289Y-61887428D01*
X181718681Y-62048469D01*
X181738484Y-62097237D01*
X181859501Y-62294719D01*
X181862882Y-62298622D01*
X181971653Y-62424191D01*
X182001135Y-62488776D01*
X181991020Y-62559049D01*
X181944519Y-62612697D01*
X181920646Y-62624670D01*
X181861944Y-62646677D01*
X181846351Y-62655214D01*
X181744276Y-62731715D01*
X181731715Y-62744276D01*
X181655214Y-62846351D01*
X181646676Y-62861946D01*
X181601522Y-62982394D01*
X181597895Y-62997649D01*
X181592369Y-63048514D01*
X181592000Y-63055328D01*
X181592000Y-63727885D01*
X181596475Y-63743124D01*
X181597865Y-63744329D01*
X181605548Y-63746000D01*
X184389884Y-63746000D01*
X184405123Y-63741525D01*
X184406328Y-63740135D01*
X184407999Y-63732452D01*
X184407999Y-63055331D01*
X184407629Y-63048510D01*
X184402105Y-62997648D01*
X184398479Y-62982396D01*
X184353324Y-62861946D01*
X184344786Y-62846351D01*
X184268285Y-62744276D01*
X184255724Y-62731715D01*
X184153649Y-62655214D01*
X184138052Y-62646675D01*
X184079415Y-62624693D01*
X184022650Y-62582052D01*
X183997950Y-62515490D01*
X184013157Y-62446141D01*
X184034703Y-62417461D01*
X184072641Y-62379654D01*
X184076303Y-62376005D01*
X184211458Y-62187917D01*
X184237925Y-62134366D01*
X184311784Y-61984922D01*
X184311785Y-61984920D01*
X184314078Y-61980280D01*
X184381408Y-61758671D01*
X184411640Y-61529041D01*
X184413327Y-61460000D01*
X184401723Y-61318855D01*
X184394773Y-61234318D01*
X184394772Y-61234312D01*
X184394349Y-61229167D01*
X184337925Y-61004533D01*
X184334233Y-60996042D01*
X184247630Y-60796868D01*
X184247628Y-60796865D01*
X184245570Y-60792131D01*
X184119764Y-60597665D01*
X183963887Y-60426358D01*
X183959836Y-60423159D01*
X183959832Y-60423155D01*
X183786177Y-60286011D01*
X183786172Y-60286008D01*
X183782123Y-60282810D01*
X183777607Y-60280317D01*
X183777604Y-60280315D01*
X183583879Y-60173373D01*
X183583875Y-60173371D01*
X183579355Y-60170876D01*
X183574486Y-60169152D01*
X183574482Y-60169150D01*
X183365903Y-60095288D01*
X183365899Y-60095287D01*
X183361028Y-60093562D01*
X183355935Y-60092655D01*
X183355932Y-60092654D01*
X183138095Y-60053851D01*
X183138089Y-60053850D01*
X183133006Y-60052945D01*
X183060096Y-60052054D01*
X182906581Y-60050179D01*
X182906579Y-60050179D01*
X182901411Y-60050116D01*
X182672464Y-60085150D01*
X182452314Y-60157106D01*
X182447726Y-60159494D01*
X182447722Y-60159496D01*
X182251461Y-60261663D01*
X182246872Y-60264052D01*
X182242739Y-60267155D01*
X182242736Y-60267157D01*
X182093837Y-60378954D01*
X182061655Y-60403117D01*
X182058083Y-60406855D01*
X181938149Y-60532359D01*
X181901639Y-60570564D01*
X181898725Y-60574836D01*
X181898724Y-60574837D01*
X181883152Y-60597665D01*
X181771119Y-60761899D01*
X181673602Y-60971981D01*
X181611707Y-61195169D01*
X181587095Y-61425469D01*
X179050654Y-61425469D01*
X179064976Y-61372022D01*
X179102119Y-61233402D01*
X179102119Y-61233400D01*
X179103543Y-61228087D01*
X179123498Y-61000000D01*
X179103543Y-60771913D01*
X179079222Y-60681145D01*
X179045707Y-60556067D01*
X179045706Y-60556065D01*
X179044284Y-60550757D01*
X178988059Y-60430181D01*
X178949849Y-60348238D01*
X178949846Y-60348233D01*
X178947523Y-60343251D01*
X178838604Y-60187699D01*
X178819357Y-60160211D01*
X178819355Y-60160208D01*
X178816198Y-60155700D01*
X178654300Y-59993802D01*
X178649792Y-59990645D01*
X178649789Y-59990643D01*
X178514593Y-59895978D01*
X178466749Y-59862477D01*
X178461767Y-59860154D01*
X178461762Y-59860151D01*
X178264225Y-59768039D01*
X178264224Y-59768039D01*
X178259243Y-59765716D01*
X178253935Y-59764294D01*
X178253933Y-59764293D01*
X178043402Y-59707881D01*
X178043400Y-59707881D01*
X178038087Y-59706457D01*
X177810000Y-59686502D01*
X177581913Y-59706457D01*
X177576600Y-59707881D01*
X177576598Y-59707881D01*
X177366067Y-59764293D01*
X177366065Y-59764294D01*
X177360757Y-59765716D01*
X177355776Y-59768039D01*
X177355775Y-59768039D01*
X177158238Y-59860151D01*
X177158233Y-59860154D01*
X177153251Y-59862477D01*
X177105407Y-59895978D01*
X176970211Y-59990643D01*
X176970208Y-59990645D01*
X176965700Y-59993802D01*
X176803802Y-60155700D01*
X176800645Y-60160208D01*
X176800643Y-60160211D01*
X176781396Y-60187699D01*
X176672477Y-60343251D01*
X176670154Y-60348233D01*
X176670151Y-60348238D01*
X176631941Y-60430181D01*
X176575716Y-60550757D01*
X176574294Y-60556065D01*
X176574293Y-60556067D01*
X176540778Y-60681145D01*
X176516457Y-60771913D01*
X176496502Y-61000000D01*
X171503498Y-61000000D01*
X171483543Y-60771913D01*
X171459222Y-60681145D01*
X171425707Y-60556067D01*
X171425706Y-60556065D01*
X171424284Y-60550757D01*
X171368059Y-60430181D01*
X171329849Y-60348238D01*
X171329846Y-60348233D01*
X171327523Y-60343251D01*
X171218604Y-60187699D01*
X171199357Y-60160211D01*
X171199355Y-60160208D01*
X171196198Y-60155700D01*
X171034300Y-59993802D01*
X171029792Y-59990645D01*
X171029789Y-59990643D01*
X170894593Y-59895978D01*
X170846749Y-59862477D01*
X170841767Y-59860154D01*
X170841762Y-59860151D01*
X170644225Y-59768039D01*
X170644224Y-59768039D01*
X170639243Y-59765716D01*
X170633935Y-59764294D01*
X170633933Y-59764293D01*
X170423402Y-59707881D01*
X170423400Y-59707881D01*
X170418087Y-59706457D01*
X170190000Y-59686502D01*
X169961913Y-59706457D01*
X169956600Y-59707881D01*
X169956598Y-59707881D01*
X169746067Y-59764293D01*
X169746065Y-59764294D01*
X169740757Y-59765716D01*
X169735776Y-59768039D01*
X169735775Y-59768039D01*
X169538238Y-59860151D01*
X169538233Y-59860154D01*
X169533251Y-59862477D01*
X169485407Y-59895978D01*
X169350211Y-59990643D01*
X169350208Y-59990645D01*
X169345700Y-59993802D01*
X169183802Y-60155700D01*
X169180645Y-60160208D01*
X169180643Y-60160211D01*
X169161396Y-60187699D01*
X169052477Y-60343251D01*
X169050154Y-60348233D01*
X169050151Y-60348238D01*
X169011941Y-60430181D01*
X168955716Y-60550757D01*
X168954294Y-60556065D01*
X168954293Y-60556067D01*
X168920778Y-60681145D01*
X168896457Y-60771913D01*
X168876502Y-61000000D01*
X166296875Y-61000000D01*
X166293543Y-60961913D01*
X166248050Y-60792131D01*
X166235707Y-60746067D01*
X166235706Y-60746065D01*
X166234284Y-60740757D01*
X166197442Y-60661749D01*
X166139849Y-60538238D01*
X166139846Y-60538233D01*
X166137523Y-60533251D01*
X166029483Y-60378954D01*
X166009357Y-60350211D01*
X166009355Y-60350208D01*
X166006198Y-60345700D01*
X165844300Y-60183802D01*
X165839792Y-60180645D01*
X165839789Y-60180643D01*
X165715424Y-60093562D01*
X165656749Y-60052477D01*
X165651767Y-60050154D01*
X165651762Y-60050151D01*
X165454225Y-59958039D01*
X165454224Y-59958039D01*
X165449243Y-59955716D01*
X165443935Y-59954294D01*
X165443933Y-59954293D01*
X165233402Y-59897881D01*
X165233400Y-59897881D01*
X165228087Y-59896457D01*
X165000000Y-59876502D01*
X164771913Y-59896457D01*
X164766600Y-59897881D01*
X164766598Y-59897881D01*
X164556067Y-59954293D01*
X164556065Y-59954294D01*
X164550757Y-59955716D01*
X164545776Y-59958039D01*
X164545775Y-59958039D01*
X164348238Y-60050151D01*
X164348233Y-60050154D01*
X164343251Y-60052477D01*
X164284576Y-60093562D01*
X164160211Y-60180643D01*
X164160208Y-60180645D01*
X164155700Y-60183802D01*
X163993802Y-60345700D01*
X163990645Y-60350208D01*
X163990643Y-60350211D01*
X163970517Y-60378954D01*
X163862477Y-60533251D01*
X163860154Y-60538233D01*
X163860151Y-60538238D01*
X163802558Y-60661749D01*
X163765716Y-60740757D01*
X163764294Y-60746065D01*
X163764293Y-60746067D01*
X163751950Y-60792131D01*
X163706457Y-60961913D01*
X163686502Y-61190000D01*
X161209961Y-61190000D01*
X161211458Y-61187917D01*
X161258641Y-61092450D01*
X161311784Y-60984922D01*
X161311785Y-60984920D01*
X161314078Y-60980280D01*
X161381408Y-60758671D01*
X161411640Y-60529041D01*
X161413327Y-60460000D01*
X161404301Y-60350211D01*
X161394773Y-60234318D01*
X161394772Y-60234312D01*
X161394349Y-60229167D01*
X161360721Y-60095288D01*
X161339184Y-60009544D01*
X161339183Y-60009540D01*
X161337925Y-60004533D01*
X161335866Y-59999797D01*
X161247630Y-59796868D01*
X161247628Y-59796865D01*
X161245570Y-59792131D01*
X161119764Y-59597665D01*
X160963887Y-59426358D01*
X160959836Y-59423159D01*
X160959832Y-59423155D01*
X160786177Y-59286011D01*
X160786172Y-59286008D01*
X160782123Y-59282810D01*
X160777607Y-59280317D01*
X160777604Y-59280315D01*
X160583879Y-59173373D01*
X160583875Y-59173371D01*
X160579355Y-59170876D01*
X160574486Y-59169152D01*
X160574482Y-59169150D01*
X160365903Y-59095288D01*
X160365899Y-59095287D01*
X160361028Y-59093562D01*
X160355935Y-59092655D01*
X160355932Y-59092654D01*
X160138095Y-59053851D01*
X160138089Y-59053850D01*
X160133006Y-59052945D01*
X160060096Y-59052054D01*
X159906581Y-59050179D01*
X159906579Y-59050179D01*
X159901411Y-59050116D01*
X159672464Y-59085150D01*
X159452314Y-59157106D01*
X159447726Y-59159494D01*
X159447722Y-59159496D01*
X159421065Y-59173373D01*
X159246872Y-59264052D01*
X159242739Y-59267155D01*
X159242736Y-59267157D01*
X159217625Y-59286011D01*
X159061655Y-59403117D01*
X158901639Y-59570564D01*
X158898725Y-59574836D01*
X158898724Y-59574837D01*
X158883152Y-59597665D01*
X158771119Y-59761899D01*
X158673602Y-59971981D01*
X158611707Y-60195169D01*
X158587095Y-60425469D01*
X156443627Y-60425469D01*
X156434754Y-60378954D01*
X156432783Y-60371277D01*
X156337716Y-60078691D01*
X156334801Y-60071328D01*
X156203811Y-59792959D01*
X156199999Y-59786026D01*
X156035149Y-59526264D01*
X156030505Y-59519871D01*
X155955503Y-59429210D01*
X155942986Y-59420755D01*
X155932248Y-59426962D01*
X154372022Y-60987188D01*
X154364408Y-61001132D01*
X153634356Y-61001132D01*
X153635592Y-60998868D01*
X153635461Y-60997035D01*
X153631210Y-60990420D01*
X152068855Y-59428065D01*
X152055593Y-59420823D01*
X152045488Y-59428012D01*
X151969495Y-59519871D01*
X151964851Y-59526264D01*
X151800001Y-59786026D01*
X151796190Y-59792959D01*
X151748508Y-59894288D01*
X151701406Y-59947409D01*
X151633061Y-59966632D01*
X151565173Y-59945853D01*
X151519296Y-59891670D01*
X151508500Y-59840640D01*
X151508500Y-58634500D01*
X151528502Y-58566379D01*
X151582158Y-58519886D01*
X151634500Y-58508500D01*
X152835303Y-58508500D01*
X152903424Y-58528502D01*
G37*
%TD.AperFunction*%
%TD*%
M02*
