%TF.GenerationSoftware,KiCad,Pcbnew,(6.0.4)*%
%TF.CreationDate,2022-04-19T13:08:17+02:00*%
%TF.ProjectId,Electric_holding_magnet,456c6563-7472-4696-935f-686f6c64696e,rev?*%
%TF.SameCoordinates,Original*%
%TF.FileFunction,Copper,L1,Top*%
%TF.FilePolarity,Positive*%
%FSLAX46Y46*%
G04 Gerber Fmt 4.6, Leading zero omitted, Abs format (unit mm)*
G04 Created by KiCad (PCBNEW (6.0.4)) date 2022-04-19 13:08:17*
%MOMM*%
%LPD*%
G01*
G04 APERTURE LIST*
%TA.AperFunction,ComponentPad*%
%ADD10C,3.800000*%
%TD*%
%TA.AperFunction,ComponentPad*%
%ADD11R,1.700000X1.700000*%
%TD*%
%TA.AperFunction,ComponentPad*%
%ADD12O,1.700000X1.700000*%
%TD*%
%TA.AperFunction,ComponentPad*%
%ADD13R,1.500000X1.050000*%
%TD*%
%TA.AperFunction,ComponentPad*%
%ADD14O,1.500000X1.050000*%
%TD*%
%TA.AperFunction,ComponentPad*%
%ADD15C,1.600000*%
%TD*%
%TA.AperFunction,ComponentPad*%
%ADD16O,1.600000X1.600000*%
%TD*%
%TA.AperFunction,Conductor*%
%ADD17C,0.250000*%
%TD*%
G04 APERTURE END LIST*
D10*
%TO.P,H2,1,1*%
%TO.N,unconnected-(H2-Pad1)*%
X144780000Y-88900000D03*
%TD*%
%TO.P,H1,1,1*%
%TO.N,unconnected-(H1-Pad1)*%
X129540000Y-101600000D03*
%TD*%
D11*
%TO.P,J1,1,Pin_1*%
%TO.N,Net-(J1-Pad1)*%
X119273403Y-100450892D03*
D12*
%TO.P,J1,2,Pin_2*%
%TO.N,Net-(J1-Pad2)*%
X116733403Y-100450892D03*
%TO.P,J1,3,Pin_3*%
%TO.N,Net-(J1-Pad3)*%
X114193403Y-100450892D03*
%TD*%
D13*
%TO.P,Q1,1,C*%
%TO.N,Net-(Q1-Pad1)*%
X134620000Y-96520000D03*
D14*
%TO.P,Q1,2,B*%
%TO.N,Net-(Q1-Pad2)*%
X134620000Y-97790000D03*
%TO.P,Q1,3,E*%
%TO.N,Net-(J1-Pad1)*%
X134620000Y-99060000D03*
%TD*%
D11*
%TO.P,L1,1,-*%
%TO.N,Net-(J1-Pad3)*%
X134620000Y-91440000D03*
D12*
%TO.P,L1,2,+*%
%TO.N,Net-(L1-Pad2)*%
X137160000Y-91440000D03*
%TD*%
D11*
%TO.P,SW1,1*%
%TO.N,Net-(J1-Pad2)*%
X114300000Y-93980000D03*
D12*
%TO.P,SW1,2*%
%TO.N,Net-(J1-Pad3)*%
X114300000Y-91440000D03*
%TD*%
D15*
%TO.P,R1,1*%
%TO.N,Net-(J1-Pad2)*%
X119380000Y-96520000D03*
D16*
%TO.P,R1,2*%
%TO.N,Net-(Q1-Pad2)*%
X127000000Y-96520000D03*
%TD*%
D15*
%TO.P,R2,1*%
%TO.N,Net-(J1-Pad3)*%
X119380000Y-91440000D03*
D16*
%TO.P,R2,2*%
%TO.N,Net-(Q1-Pad1)*%
X127000000Y-91440000D03*
%TD*%
D13*
%TO.P,Q2,1,C*%
%TO.N,Net-(L1-Pad2)*%
X142240000Y-96520000D03*
D14*
%TO.P,Q2,2,B*%
%TO.N,Net-(Q1-Pad1)*%
X142240000Y-97790000D03*
%TO.P,Q2,3,E*%
%TO.N,Net-(J1-Pad1)*%
X142240000Y-99060000D03*
%TD*%
D17*
%TO.N,Net-(J1-Pad1)*%
X124460000Y-100450892D02*
X119273403Y-100450892D01*
X125850892Y-99060000D02*
X124460000Y-100450892D01*
X134620000Y-99060000D02*
X125850892Y-99060000D01*
X142240000Y-99060000D02*
X134620000Y-99060000D01*
%TO.N,Net-(J1-Pad2)*%
X119380000Y-96520000D02*
X116840000Y-96520000D01*
X116840000Y-96520000D02*
X114300000Y-93980000D01*
X116733403Y-96626597D02*
X116733403Y-100450892D01*
X116840000Y-96520000D02*
X116733403Y-96626597D01*
%TO.N,Net-(J1-Pad3)*%
X114300000Y-91440000D02*
X116840000Y-88900000D01*
X116840000Y-88900000D02*
X134620000Y-88900000D01*
X114300000Y-91440000D02*
X119380000Y-91440000D01*
X112802511Y-99060000D02*
X111760000Y-99060000D01*
X111760000Y-99060000D02*
X111760000Y-93980000D01*
X111760000Y-93980000D02*
X114300000Y-91440000D01*
X114193403Y-100450892D02*
X112802511Y-99060000D01*
X134620000Y-88900000D02*
X134620000Y-91440000D01*
%TO.N,Net-(L1-Pad2)*%
X137160000Y-91440000D02*
X142240000Y-91440000D01*
X142240000Y-91440000D02*
X142240000Y-96520000D01*
%TO.N,Net-(Q1-Pad1)*%
X127000000Y-91440000D02*
X129540000Y-91440000D01*
X139700000Y-96520000D02*
X140970000Y-97790000D01*
X132080000Y-96520000D02*
X134620000Y-96520000D01*
X134620000Y-96520000D02*
X139700000Y-96520000D01*
X129540000Y-91440000D02*
X129540000Y-93980000D01*
X129540000Y-93980000D02*
X132080000Y-96520000D01*
X140970000Y-97790000D02*
X142240000Y-97790000D01*
%TO.N,Net-(Q1-Pad2)*%
X128270000Y-97790000D02*
X134620000Y-97790000D01*
X127000000Y-96520000D02*
X128270000Y-97790000D01*
%TD*%
M02*
