M48
; DRILL file {KiCad (6.0.8)} date Tue Nov 29 14:55:49 2022
; FORMAT={-:-/ absolute / inch / decimal}
; #@! TF.CreationDate,2022-11-29T14:55:49+01:00
; #@! TF.GenerationSoftware,Kicad,Pcbnew,(6.0.8)
; #@! TF.FileFunction,Plated,1,2,PTH
FMAT,2
INCH
; #@! TA.AperFunction,Plated,PTH,ComponentDrill
T1C0.0295
; #@! TA.AperFunction,Plated,PTH,ComponentDrill
T2C0.0315
; #@! TA.AperFunction,Plated,PTH,ComponentDrill
T3C0.0354
; #@! TA.AperFunction,Plated,PTH,ComponentDrill
T4C0.0374
; #@! TA.AperFunction,Plated,PTH,ComponentDrill
T5C0.0984
%
G90
G05
T1
X6.7004Y-2.5602
X6.7004Y-2.8728
X6.8004Y-2.5602
X6.8004Y-2.8728
X6.9004Y-2.5602
X6.9004Y-2.8728
X7.0004Y-2.5602
X7.0004Y-2.8728
T2
X6.1024Y-2.6059
X6.1024Y-2.9059
X6.2992Y-2.6059
X6.2992Y-2.9059
X6.4961Y-2.4091
X6.4961Y-2.7091
X6.4961Y-2.8028
X6.4961Y-3.1028
X6.6339Y-3.1102
X6.7004Y-2.4016
X6.8307Y-3.1102
X7.0004Y-2.4016
X7.2047Y-2.6453
X7.2047Y-2.9453
T3
X6.2992Y-2.3803
X6.2992Y-2.4803
X6.9685Y-3.0709
X7.0685Y-3.0709
X7.2047Y-2.4197
X7.2047Y-2.5197
T4
X6.122Y-3.1102
X6.2205Y-3.1102
X6.3189Y-3.1102
T5
X6.063Y-2.4016
X7.2835Y-3.1102
T0
M30
