%TF.GenerationSoftware,KiCad,Pcbnew,(6.0.8)*%
%TF.CreationDate,2022-11-29T14:55:50+01:00*%
%TF.ProjectId,l_g_d,6c5f675f-642e-46b6-9963-61645f706362,rev?*%
%TF.SameCoordinates,Original*%
%TF.FileFunction,Legend,Bot*%
%TF.FilePolarity,Positive*%
%FSLAX46Y46*%
G04 Gerber Fmt 4.6, Leading zero omitted, Abs format (unit mm)*
G04 Created by KiCad (PCBNEW (6.0.8)) date 2022-11-29 14:55:50*
%MOMM*%
%LPD*%
G01*
G04 APERTURE LIST*
%ADD10C,0.250000*%
G04 APERTURE END LIST*
D10*
X157714285Y-81195238D02*
X157857142Y-81147619D01*
X158095238Y-81147619D01*
X158190476Y-81195238D01*
X158238095Y-81242857D01*
X158285714Y-81338095D01*
X158285714Y-81433333D01*
X158238095Y-81528571D01*
X158190476Y-81576190D01*
X158095238Y-81623809D01*
X157904761Y-81671428D01*
X157809523Y-81719047D01*
X157761904Y-81766666D01*
X157714285Y-81861904D01*
X157714285Y-81957142D01*
X157761904Y-82052380D01*
X157809523Y-82100000D01*
X157904761Y-82147619D01*
X158142857Y-82147619D01*
X158285714Y-82100000D01*
X156543659Y-81100788D02*
X156210326Y-82100788D01*
X155876992Y-81100788D01*
X154972230Y-82005550D02*
X155019849Y-82053169D01*
X155162706Y-82100788D01*
X155257945Y-82100788D01*
X155400802Y-82053169D01*
X155496040Y-81957931D01*
X155543659Y-81862693D01*
X155591278Y-81672217D01*
X155591278Y-81529360D01*
X155543659Y-81338884D01*
X155496040Y-81243646D01*
X155400802Y-81148408D01*
X155257945Y-81100788D01*
X155162706Y-81100788D01*
X155019849Y-81148408D01*
X154972230Y-81196027D01*
X153972230Y-82005550D02*
X154019849Y-82053169D01*
X154162706Y-82100788D01*
X154257945Y-82100788D01*
X154400802Y-82053169D01*
X154496040Y-81957931D01*
X154543659Y-81862693D01*
X154591278Y-81672217D01*
X154591278Y-81529360D01*
X154543659Y-81338884D01*
X154496040Y-81243646D01*
X154400802Y-81148408D01*
X154257945Y-81100788D01*
X154162706Y-81100788D01*
X154019849Y-81148408D01*
X153972230Y-81196027D01*
X161577231Y-81240799D02*
X161672469Y-81193179D01*
X161815327Y-81193179D01*
X161958184Y-81240799D01*
X162053422Y-81336037D01*
X162101041Y-81431275D01*
X162148660Y-81621751D01*
X162148660Y-81764608D01*
X162101041Y-81955084D01*
X162053422Y-82050322D01*
X161958184Y-82145560D01*
X161815327Y-82193179D01*
X161720088Y-82193179D01*
X161577231Y-82145560D01*
X161529612Y-82097941D01*
X161529612Y-81764608D01*
X161720088Y-81764608D01*
X161101041Y-82193179D02*
X161101041Y-81193179D01*
X160529612Y-82193179D01*
X160529612Y-81193179D01*
X160053422Y-82193179D02*
X160053422Y-81193179D01*
X159815327Y-81193179D01*
X159672469Y-81240799D01*
X159577231Y-81336037D01*
X159529612Y-81431275D01*
X159481993Y-81621751D01*
X159481993Y-81764608D01*
X159529612Y-81955084D01*
X159577231Y-82050322D01*
X159672469Y-82145560D01*
X159815327Y-82193179D01*
X160053422Y-82193179D01*
M02*
