%TF.GenerationSoftware,KiCad,Pcbnew,(6.0.4)*%
%TF.CreationDate,2022-04-19T13:15:10+02:00*%
%TF.ProjectId,light_gate,6c696768-745f-4676-9174-652e6b696361,rev?*%
%TF.SameCoordinates,Original*%
%TF.FileFunction,Legend,Top*%
%TF.FilePolarity,Positive*%
%FSLAX46Y46*%
G04 Gerber Fmt 4.6, Leading zero omitted, Abs format (unit mm)*
G04 Created by KiCad (PCBNEW (6.0.4)) date 2022-04-19 13:15:10*
%MOMM*%
%LPD*%
G01*
G04 APERTURE LIST*
%ADD10C,0.150000*%
%ADD11C,0.120000*%
G04 APERTURE END LIST*
D10*
X144453198Y-95980338D02*
X144357960Y-95932718D01*
X144215103Y-95932718D01*
X144072245Y-95980338D01*
X143977007Y-96075576D01*
X143929388Y-96170814D01*
X143881769Y-96361290D01*
X143881769Y-96504147D01*
X143929388Y-96694623D01*
X143977007Y-96789861D01*
X144072245Y-96885099D01*
X144215103Y-96932718D01*
X144310341Y-96932718D01*
X144453198Y-96885099D01*
X144500817Y-96837480D01*
X144500817Y-96504147D01*
X144310341Y-96504147D01*
X144929388Y-96932718D02*
X144929388Y-95932718D01*
X145500817Y-96932718D01*
X145500817Y-95932718D01*
X145977007Y-96932718D02*
X145977007Y-95932718D01*
X146215103Y-95932718D01*
X146357960Y-95980338D01*
X146453198Y-96075576D01*
X146500817Y-96170814D01*
X146548436Y-96361290D01*
X146548436Y-96504147D01*
X146500817Y-96694623D01*
X146453198Y-96789861D01*
X146357960Y-96885099D01*
X146215103Y-96932718D01*
X145977007Y-96932718D01*
X140553752Y-95932718D02*
X140887086Y-96932718D01*
X141220419Y-95932718D01*
X142125181Y-96837480D02*
X142077562Y-96885099D01*
X141934705Y-96932718D01*
X141839466Y-96932718D01*
X141696609Y-96885099D01*
X141601371Y-96789861D01*
X141553752Y-96694623D01*
X141506133Y-96504147D01*
X141506133Y-96361290D01*
X141553752Y-96170814D01*
X141601371Y-96075576D01*
X141696609Y-95980338D01*
X141839466Y-95932718D01*
X141934705Y-95932718D01*
X142077562Y-95980338D01*
X142125181Y-96027957D01*
X143125181Y-96837480D02*
X143077562Y-96885099D01*
X142934705Y-96932718D01*
X142839466Y-96932718D01*
X142696609Y-96885099D01*
X142601371Y-96789861D01*
X142553752Y-96694623D01*
X142506133Y-96504147D01*
X142506133Y-96361290D01*
X142553752Y-96170814D01*
X142601371Y-96075576D01*
X142696609Y-95980338D01*
X142839466Y-95932718D01*
X142934705Y-95932718D01*
X143077562Y-95980338D01*
X143125181Y-96027957D01*
X116535891Y-101923899D02*
X116583510Y-101781042D01*
X116583510Y-101542946D01*
X116535891Y-101447708D01*
X116488272Y-101400089D01*
X116393034Y-101352470D01*
X116297796Y-101352470D01*
X116202558Y-101400089D01*
X116154939Y-101447708D01*
X116107320Y-101542946D01*
X116059701Y-101733423D01*
X116012082Y-101828661D01*
X115964463Y-101876280D01*
X115869225Y-101923899D01*
X115773987Y-101923899D01*
X115678749Y-101876280D01*
X115631130Y-101828661D01*
X115583510Y-101733423D01*
X115583510Y-101495327D01*
X115631130Y-101352470D01*
X115583510Y-100431518D02*
X116583510Y-100098185D01*
X115583510Y-99764851D01*
X116488272Y-98860089D02*
X116535891Y-98907708D01*
X116583510Y-99050565D01*
X116583510Y-99145804D01*
X116535891Y-99288661D01*
X116440653Y-99383899D01*
X116345415Y-99431518D01*
X116154939Y-99479137D01*
X116012082Y-99479137D01*
X115821606Y-99431518D01*
X115726368Y-99383899D01*
X115631130Y-99288661D01*
X115583510Y-99145804D01*
X115583510Y-99050565D01*
X115631130Y-98907708D01*
X115678749Y-98860089D01*
X116488272Y-97860089D02*
X116535891Y-97907708D01*
X116583510Y-98050565D01*
X116583510Y-98145804D01*
X116535891Y-98288661D01*
X116440653Y-98383899D01*
X116345415Y-98431518D01*
X116154939Y-98479137D01*
X116012082Y-98479137D01*
X115821606Y-98431518D01*
X115726368Y-98383899D01*
X115631130Y-98288661D01*
X115583510Y-98145804D01*
X115583510Y-98050565D01*
X115631130Y-97907708D01*
X115678749Y-97860089D01*
X115631130Y-104940089D02*
X115583510Y-105035327D01*
X115583510Y-105178185D01*
X115631130Y-105321042D01*
X115726368Y-105416280D01*
X115821606Y-105463899D01*
X116012082Y-105511518D01*
X116154939Y-105511518D01*
X116345415Y-105463899D01*
X116440653Y-105416280D01*
X116535891Y-105321042D01*
X116583510Y-105178185D01*
X116583510Y-105082946D01*
X116535891Y-104940089D01*
X116488272Y-104892470D01*
X116154939Y-104892470D01*
X116154939Y-105082946D01*
X116583510Y-104463899D02*
X115583510Y-104463899D01*
X116583510Y-103892470D01*
X115583510Y-103892470D01*
X116583510Y-103416280D02*
X115583510Y-103416280D01*
X115583510Y-103178185D01*
X115631130Y-103035327D01*
X115726368Y-102940089D01*
X115821606Y-102892470D01*
X116012082Y-102844851D01*
X116154939Y-102844851D01*
X116345415Y-102892470D01*
X116440653Y-102940089D01*
X116535891Y-103035327D01*
X116583510Y-103178185D01*
X116583510Y-103416280D01*
%TO.C,R1*%
X122907619Y-99028095D02*
X122860000Y-98980476D01*
X122812380Y-98885238D01*
X122812380Y-98647142D01*
X122860000Y-98551904D01*
X122907619Y-98504285D01*
X123002857Y-98456666D01*
X123098095Y-98456666D01*
X123240952Y-98504285D01*
X123812380Y-99075714D01*
X123812380Y-98456666D01*
X122907619Y-98075714D02*
X122860000Y-98028095D01*
X122812380Y-97932857D01*
X122812380Y-97694761D01*
X122860000Y-97599523D01*
X122907619Y-97551904D01*
X123002857Y-97504285D01*
X123098095Y-97504285D01*
X123240952Y-97551904D01*
X123812380Y-98123333D01*
X123812380Y-97504285D01*
X122812380Y-96885238D02*
X122812380Y-96790000D01*
X122860000Y-96694761D01*
X122907619Y-96647142D01*
X123002857Y-96599523D01*
X123193333Y-96551904D01*
X123431428Y-96551904D01*
X123621904Y-96599523D01*
X123717142Y-96647142D01*
X123764761Y-96694761D01*
X123812380Y-96790000D01*
X123812380Y-96885238D01*
X123764761Y-96980476D01*
X123717142Y-97028095D01*
X123621904Y-97075714D01*
X123431428Y-97123333D01*
X123193333Y-97123333D01*
X123002857Y-97075714D01*
X122907619Y-97028095D01*
X122860000Y-96980476D01*
X122812380Y-96885238D01*
%TO.C,D1*%
X131412380Y-108902380D02*
X130412380Y-108902380D01*
X131412380Y-107854761D02*
X130936190Y-108188095D01*
X131412380Y-108426190D02*
X130412380Y-108426190D01*
X130412380Y-108045238D01*
X130460000Y-107950000D01*
X130507619Y-107902380D01*
X130602857Y-107854761D01*
X130745714Y-107854761D01*
X130840952Y-107902380D01*
X130888571Y-107950000D01*
X130936190Y-108045238D01*
X130936190Y-108426190D01*
X130888571Y-107426190D02*
X130888571Y-107092857D01*
X131412380Y-106950000D02*
X131412380Y-107426190D01*
X130412380Y-107426190D01*
X130412380Y-106950000D01*
%TO.C,J1*%
X118341666Y-105907380D02*
X118341666Y-106621666D01*
X118294047Y-106764523D01*
X118198809Y-106859761D01*
X118055952Y-106907380D01*
X117960714Y-106907380D01*
X119341666Y-106907380D02*
X118770238Y-106907380D01*
X119055952Y-106907380D02*
X119055952Y-105907380D01*
X118960714Y-106050238D01*
X118865476Y-106145476D01*
X118770238Y-106193095D01*
%TO.C,R2*%
X129495714Y-98956666D02*
X130162380Y-98956666D01*
X129114761Y-99194761D02*
X129829047Y-99432857D01*
X129829047Y-98813809D01*
X129162380Y-98528095D02*
X129162380Y-97861428D01*
X130162380Y-98290000D01*
X129162380Y-97290000D02*
X129162380Y-97194761D01*
X129210000Y-97099523D01*
X129257619Y-97051904D01*
X129352857Y-97004285D01*
X129543333Y-96956666D01*
X129781428Y-96956666D01*
X129971904Y-97004285D01*
X130067142Y-97051904D01*
X130114761Y-97099523D01*
X130162380Y-97194761D01*
X130162380Y-97290000D01*
X130114761Y-97385238D01*
X130067142Y-97432857D01*
X129971904Y-97480476D01*
X129781428Y-97528095D01*
X129543333Y-97528095D01*
X129352857Y-97480476D01*
X129257619Y-97432857D01*
X129210000Y-97385238D01*
X129162380Y-97290000D01*
X130162380Y-96528095D02*
X129162380Y-96528095D01*
X129781428Y-96432857D02*
X130162380Y-96147142D01*
X129495714Y-96147142D02*
X129876666Y-96528095D01*
%TO.C,Q1*%
X148887619Y-100425238D02*
X148840000Y-100520476D01*
X148744761Y-100615714D01*
X148601904Y-100758571D01*
X148554285Y-100853809D01*
X148554285Y-100949047D01*
X148792380Y-100901428D02*
X148744761Y-100996666D01*
X148649523Y-101091904D01*
X148459047Y-101139523D01*
X148125714Y-101139523D01*
X147935238Y-101091904D01*
X147840000Y-100996666D01*
X147792380Y-100901428D01*
X147792380Y-100710952D01*
X147840000Y-100615714D01*
X147935238Y-100520476D01*
X148125714Y-100472857D01*
X148459047Y-100472857D01*
X148649523Y-100520476D01*
X148744761Y-100615714D01*
X148792380Y-100710952D01*
X148792380Y-100901428D01*
X148792380Y-99520476D02*
X148792380Y-100091904D01*
X148792380Y-99806190D02*
X147792380Y-99806190D01*
X147935238Y-99901428D01*
X148030476Y-99996666D01*
X148078095Y-100091904D01*
%TO.C,D2*%
X141572380Y-108950000D02*
X140572380Y-108950000D01*
X141572380Y-107902380D02*
X141096190Y-108235714D01*
X141572380Y-108473809D02*
X140572380Y-108473809D01*
X140572380Y-108092857D01*
X140620000Y-107997619D01*
X140667619Y-107950000D01*
X140762857Y-107902380D01*
X140905714Y-107902380D01*
X141000952Y-107950000D01*
X141048571Y-107997619D01*
X141096190Y-108092857D01*
X141096190Y-108473809D01*
X141572380Y-106902380D02*
X141096190Y-107235714D01*
X141572380Y-107473809D02*
X140572380Y-107473809D01*
X140572380Y-107092857D01*
X140620000Y-106997619D01*
X140667619Y-106950000D01*
X140762857Y-106902380D01*
X140905714Y-106902380D01*
X141000952Y-106950000D01*
X141048571Y-106997619D01*
X141096190Y-107092857D01*
X141096190Y-107473809D01*
%TO.C,D3*%
X151732380Y-108592857D02*
X151732380Y-109069047D01*
X150732380Y-109069047D01*
X151208571Y-108259523D02*
X151208571Y-107926190D01*
X151732380Y-107783333D02*
X151732380Y-108259523D01*
X150732380Y-108259523D01*
X150732380Y-107783333D01*
X151732380Y-107354761D02*
X150732380Y-107354761D01*
X150732380Y-107116666D01*
X150780000Y-106973809D01*
X150875238Y-106878571D01*
X150970476Y-106830952D01*
X151160952Y-106783333D01*
X151303809Y-106783333D01*
X151494285Y-106830952D01*
X151589523Y-106878571D01*
X151684761Y-106973809D01*
X151732380Y-107116666D01*
X151732380Y-107354761D01*
%TO.C,R3*%
X135242380Y-97980476D02*
X135242380Y-98551904D01*
X135242380Y-98266190D02*
X134242380Y-98266190D01*
X134385238Y-98361428D01*
X134480476Y-98456666D01*
X134528095Y-98551904D01*
X134242380Y-97361428D02*
X134242380Y-97266190D01*
X134290000Y-97170952D01*
X134337619Y-97123333D01*
X134432857Y-97075714D01*
X134623333Y-97028095D01*
X134861428Y-97028095D01*
X135051904Y-97075714D01*
X135147142Y-97123333D01*
X135194761Y-97170952D01*
X135242380Y-97266190D01*
X135242380Y-97361428D01*
X135194761Y-97456666D01*
X135147142Y-97504285D01*
X135051904Y-97551904D01*
X134861428Y-97599523D01*
X134623333Y-97599523D01*
X134432857Y-97551904D01*
X134337619Y-97504285D01*
X134290000Y-97456666D01*
X134242380Y-97361428D01*
D11*
%TO.C,R1*%
X127100000Y-94520000D02*
X127100000Y-101060000D01*
X126770000Y-94520000D02*
X127100000Y-94520000D01*
X124690000Y-94520000D02*
X124360000Y-94520000D01*
X124360000Y-94520000D02*
X124360000Y-101060000D01*
X127100000Y-101060000D02*
X126770000Y-101060000D01*
X124360000Y-101060000D02*
X124690000Y-101060000D01*
%TO.C,D1*%
X125455000Y-110510000D02*
X128545000Y-110510000D01*
X128544830Y-110510000D02*
G75*
G03*
X126999538Y-104960000I-1544830J2560000D01*
G01*
X127000462Y-104960000D02*
G75*
G03*
X125455170Y-110510000I-462J-2990000D01*
G01*
X129500000Y-107950000D02*
G75*
G03*
X129500000Y-107950000I-2500000J0D01*
G01*
%TO.C,J1*%
X120005000Y-104125000D02*
X120005000Y-105455000D01*
X120005000Y-97715000D02*
X117345000Y-97715000D01*
X117345000Y-102855000D02*
X117345000Y-97715000D01*
X120005000Y-102855000D02*
X120005000Y-97715000D01*
X120005000Y-102855000D02*
X117345000Y-102855000D01*
X120005000Y-105455000D02*
X118675000Y-105455000D01*
%TO.C,R2*%
X130710000Y-101060000D02*
X131040000Y-101060000D01*
X133450000Y-101060000D02*
X133120000Y-101060000D01*
X133450000Y-94520000D02*
X133450000Y-101060000D01*
X130710000Y-94520000D02*
X130710000Y-101060000D01*
X133120000Y-94520000D02*
X133450000Y-94520000D01*
X131040000Y-94520000D02*
X130710000Y-94520000D01*
%TO.C,J2*%
X143510000Y-92650000D02*
X140910000Y-92650000D01*
X144780000Y-92650000D02*
X146110000Y-92650000D01*
X143510000Y-95310000D02*
X140910000Y-95310000D01*
X146110000Y-92650000D02*
X146110000Y-93980000D01*
X140910000Y-92650000D02*
X140910000Y-95310000D01*
X143510000Y-92650000D02*
X143510000Y-95310000D01*
%TO.C,Q1*%
X142930000Y-98530000D02*
X142930000Y-102130000D01*
X142941522Y-102168478D02*
G75*
G03*
X147380000Y-100330000I1838478J1838478D01*
G01*
X147380001Y-100330000D02*
G75*
G03*
X142941522Y-98491522I-2600001J0D01*
G01*
%TO.C,D2*%
X135615000Y-110510000D02*
X138705000Y-110510000D01*
X137160462Y-104960000D02*
G75*
G03*
X135615170Y-110510000I-462J-2990000D01*
G01*
X138704830Y-110510000D02*
G75*
G03*
X137159538Y-104960000I-1544830J2560000D01*
G01*
X139660000Y-107950000D02*
G75*
G03*
X139660000Y-107950000I-2500000J0D01*
G01*
%TO.C,D3*%
X145775000Y-110510000D02*
X148865000Y-110510000D01*
X147320462Y-104960000D02*
G75*
G03*
X145775170Y-110510000I-462J-2990000D01*
G01*
X148864830Y-110510000D02*
G75*
G03*
X147319538Y-104960000I-1544830J2560000D01*
G01*
X149820000Y-107950000D02*
G75*
G03*
X149820000Y-107950000I-2500000J0D01*
G01*
%TO.C,R3*%
X135790000Y-94520000D02*
X135790000Y-101060000D01*
X138530000Y-94520000D02*
X138530000Y-101060000D01*
X138200000Y-94520000D02*
X138530000Y-94520000D01*
X138530000Y-101060000D02*
X138200000Y-101060000D01*
X135790000Y-101060000D02*
X136120000Y-101060000D01*
X136120000Y-94520000D02*
X135790000Y-94520000D01*
%TD*%
M02*
