%TF.GenerationSoftware,KiCad,Pcbnew,(6.0.4)*%
%TF.CreationDate,2022-04-19T13:15:10+02:00*%
%TF.ProjectId,light_gate,6c696768-745f-4676-9174-652e6b696361,rev?*%
%TF.SameCoordinates,Original*%
%TF.FileFunction,Copper,L2,Bot*%
%TF.FilePolarity,Positive*%
%FSLAX46Y46*%
G04 Gerber Fmt 4.6, Leading zero omitted, Abs format (unit mm)*
G04 Created by KiCad (PCBNEW (6.0.4)) date 2022-04-19 13:15:10*
%MOMM*%
%LPD*%
G01*
G04 APERTURE LIST*
%TA.AperFunction,ComponentPad*%
%ADD10C,1.600000*%
%TD*%
%TA.AperFunction,ComponentPad*%
%ADD11O,1.600000X1.600000*%
%TD*%
%TA.AperFunction,ComponentPad*%
%ADD12R,1.800000X1.800000*%
%TD*%
%TA.AperFunction,ComponentPad*%
%ADD13C,1.800000*%
%TD*%
%TA.AperFunction,ComponentPad*%
%ADD14R,1.700000X1.700000*%
%TD*%
%TA.AperFunction,ComponentPad*%
%ADD15O,1.700000X1.700000*%
%TD*%
%TA.AperFunction,ComponentPad*%
%ADD16R,1.500000X1.050000*%
%TD*%
%TA.AperFunction,ComponentPad*%
%ADD17O,1.500000X1.050000*%
%TD*%
%TA.AperFunction,Conductor*%
%ADD18C,0.250000*%
%TD*%
G04 APERTURE END LIST*
D10*
%TO.P,R1,1*%
%TO.N,Net-(J1-Pad3)*%
X125730000Y-93980000D03*
D11*
%TO.P,R1,2*%
%TO.N,Net-(D1-Pad2)*%
X125730000Y-101600000D03*
%TD*%
D12*
%TO.P,D1,1,K*%
%TO.N,Net-(D1-Pad1)*%
X127000000Y-109220000D03*
D13*
%TO.P,D1,2,A*%
%TO.N,Net-(D1-Pad2)*%
X127000000Y-106680000D03*
%TD*%
D14*
%TO.P,J1,1,Pin_1*%
%TO.N,Net-(D1-Pad1)*%
X118675000Y-104125000D03*
D15*
%TO.P,J1,2,Pin_2*%
%TO.N,Net-(D2-Pad2)*%
X118675000Y-101585000D03*
%TO.P,J1,3,Pin_3*%
%TO.N,Net-(J1-Pad3)*%
X118675000Y-99045000D03*
%TD*%
D10*
%TO.P,R2,1*%
%TO.N,Net-(J1-Pad3)*%
X132080000Y-93980000D03*
D11*
%TO.P,R2,2*%
%TO.N,Net-(D2-Pad2)*%
X132080000Y-101600000D03*
%TD*%
D14*
%TO.P,J2,1,Pin_1*%
%TO.N,Net-(D1-Pad1)*%
X144780000Y-93980000D03*
D15*
%TO.P,J2,2,Pin_2*%
%TO.N,Net-(J1-Pad3)*%
X142240000Y-93980000D03*
%TD*%
D16*
%TO.P,Q1,1,C*%
%TO.N,Net-(Q1-Pad1)*%
X144780000Y-99060000D03*
D17*
%TO.P,Q1,2,B*%
%TO.N,Net-(D2-Pad2)*%
X144780000Y-100330000D03*
%TO.P,Q1,3,E*%
%TO.N,Net-(D3-Pad2)*%
X144780000Y-101600000D03*
%TD*%
D12*
%TO.P,D2,1,K*%
%TO.N,Net-(D1-Pad1)*%
X137160000Y-109220000D03*
D13*
%TO.P,D2,2,A*%
%TO.N,Net-(D2-Pad2)*%
X137160000Y-106680000D03*
%TD*%
D12*
%TO.P,D3,1,K*%
%TO.N,Net-(D1-Pad1)*%
X147320000Y-109220000D03*
D13*
%TO.P,D3,2,A*%
%TO.N,Net-(D3-Pad2)*%
X147320000Y-106680000D03*
%TD*%
D10*
%TO.P,R3,1*%
%TO.N,Net-(J1-Pad3)*%
X137160000Y-93980000D03*
D11*
%TO.P,R3,2*%
%TO.N,Net-(Q1-Pad1)*%
X137160000Y-101600000D03*
%TD*%
D18*
%TO.N,Net-(D1-Pad1)*%
X149860000Y-109220000D02*
X147320000Y-109220000D01*
X147320000Y-109220000D02*
X137160000Y-109220000D01*
X121920000Y-109220000D02*
X127000000Y-109220000D01*
X121905000Y-104125000D02*
X121920000Y-104140000D01*
X147320000Y-96520000D02*
X149860000Y-99060000D01*
X121920000Y-104140000D02*
X121920000Y-109220000D01*
X127000000Y-109220000D02*
X137160000Y-109220000D01*
X144780000Y-96520000D02*
X147320000Y-96520000D01*
X144780000Y-93980000D02*
X144780000Y-96520000D01*
X118675000Y-104125000D02*
X121905000Y-104125000D01*
X149860000Y-101600000D02*
X149860000Y-109220000D01*
X149860000Y-99060000D02*
X149860000Y-101600000D01*
%TO.N,Net-(D1-Pad2)*%
X125730000Y-101600000D02*
X127000000Y-102870000D01*
X127000000Y-102870000D02*
X127000000Y-106680000D01*
%TO.N,Net-(D2-Pad2)*%
X134620000Y-104140000D02*
X129540000Y-104140000D01*
X132080000Y-101600000D02*
X132080000Y-106680000D01*
X140970000Y-100330000D02*
X144780000Y-100330000D01*
X121920000Y-101600000D02*
X121905000Y-101585000D01*
X139700000Y-101600000D02*
X140970000Y-100330000D01*
X139700000Y-104140000D02*
X139700000Y-101600000D01*
X121920000Y-99060000D02*
X121920000Y-101600000D01*
X129540000Y-99060000D02*
X121920000Y-99060000D01*
X129540000Y-104140000D02*
X129540000Y-99060000D01*
X132080000Y-106680000D02*
X137160000Y-106680000D01*
X134620000Y-104140000D02*
X139700000Y-104140000D01*
X121905000Y-101585000D02*
X118675000Y-101585000D01*
%TO.N,Net-(J1-Pad3)*%
X132080000Y-93980000D02*
X137160000Y-93980000D01*
X119380000Y-93980000D02*
X125730000Y-93980000D01*
X118675000Y-94685000D02*
X119380000Y-93980000D01*
X125730000Y-93980000D02*
X132080000Y-93980000D01*
X142240000Y-93980000D02*
X137160000Y-93980000D01*
X118675000Y-99045000D02*
X118675000Y-94685000D01*
%TO.N,Net-(Q1-Pad1)*%
X137160000Y-101600000D02*
X139700000Y-99060000D01*
X139700000Y-99060000D02*
X144780000Y-99060000D01*
%TO.N,Net-(D3-Pad2)*%
X144780000Y-104140000D02*
X147320000Y-106680000D01*
X144780000Y-101600000D02*
X144780000Y-104140000D01*
%TD*%
M02*
