%TF.GenerationSoftware,KiCad,Pcbnew,(6.0.8)*%
%TF.CreationDate,2022-11-29T14:53:20+01:00*%
%TF.ProjectId,l_g_d_d,6c5f675f-645f-4642-9e6b-696361645f70,rev?*%
%TF.SameCoordinates,Original*%
%TF.FileFunction,Copper,L2,Bot*%
%TF.FilePolarity,Positive*%
%FSLAX46Y46*%
G04 Gerber Fmt 4.6, Leading zero omitted, Abs format (unit mm)*
G04 Created by KiCad (PCBNEW (6.0.8)) date 2022-11-29 14:53:20*
%MOMM*%
%LPD*%
G01*
G04 APERTURE LIST*
G04 Aperture macros list*
%AMRoundRect*
0 Rectangle with rounded corners*
0 $1 Rounding radius*
0 $2 $3 $4 $5 $6 $7 $8 $9 X,Y pos of 4 corners*
0 Add a 4 corners polygon primitive as box body*
4,1,4,$2,$3,$4,$5,$6,$7,$8,$9,$2,$3,0*
0 Add four circle primitives for the rounded corners*
1,1,$1+$1,$2,$3*
1,1,$1+$1,$4,$5*
1,1,$1+$1,$6,$7*
1,1,$1+$1,$8,$9*
0 Add four rect primitives between the rounded corners*
20,1,$1+$1,$2,$3,$4,$5,0*
20,1,$1+$1,$4,$5,$6,$7,0*
20,1,$1+$1,$6,$7,$8,$9,0*
20,1,$1+$1,$8,$9,$2,$3,0*%
G04 Aperture macros list end*
%TA.AperFunction,ComponentPad*%
%ADD10C,4.000000*%
%TD*%
%TA.AperFunction,ComponentPad*%
%ADD11C,1.600000*%
%TD*%
%TA.AperFunction,ComponentPad*%
%ADD12O,1.600000X1.600000*%
%TD*%
%TA.AperFunction,ComponentPad*%
%ADD13R,1.800000X1.800000*%
%TD*%
%TA.AperFunction,ComponentPad*%
%ADD14C,1.800000*%
%TD*%
%TA.AperFunction,ComponentPad*%
%ADD15RoundRect,0.250000X0.600000X0.725000X-0.600000X0.725000X-0.600000X-0.725000X0.600000X-0.725000X0*%
%TD*%
%TA.AperFunction,ComponentPad*%
%ADD16O,1.700000X1.950000*%
%TD*%
%TA.AperFunction,ComponentPad*%
%ADD17R,1.250000X1.250000*%
%TD*%
%TA.AperFunction,ComponentPad*%
%ADD18C,1.250000*%
%TD*%
%TA.AperFunction,Conductor*%
%ADD19C,0.250000*%
%TD*%
G04 APERTURE END LIST*
D10*
%TO.P,,1*%
%TO.N,GND*%
X100000000Y-64000000D03*
%TD*%
%TO.P,,1*%
%TO.N,GND*%
X153000000Y-64000000D03*
%TD*%
%TO.P,,1*%
%TO.N,GND*%
X126000000Y-84000000D03*
%TD*%
D11*
%TO.P,10k,1*%
%TO.N,Net-(R_IRR2-Pad1)*%
X140000000Y-75810000D03*
D12*
%TO.P,10k,2*%
%TO.N,VCC*%
X140000000Y-68190000D03*
%TD*%
D13*
%TO.P,D1,1,K*%
%TO.N,Net-(D1-Pad1)*%
X107000000Y-77000000D03*
D14*
%TO.P,D1,2,A*%
%TO.N,VCC*%
X107000000Y-74460000D03*
%TD*%
D13*
%TO.P,IRLED2,1,K*%
%TO.N,GND*%
X154000000Y-82000000D03*
D14*
%TO.P,IRLED2,2,A*%
%TO.N,Net-(R_IRE2-Pad2)*%
X154000000Y-79460000D03*
%TD*%
D11*
%TO.P,1k,1*%
%TO.N,VCC*%
X147000000Y-68190000D03*
D12*
%TO.P,1k,2*%
%TO.N,Net-(IRLED1-Pad2)*%
X147000000Y-75810000D03*
%TD*%
D15*
%TO.P,J1,1,Pin_1*%
%TO.N,Signal2*%
X108750000Y-83525000D03*
D16*
%TO.P,J1,2,Pin_2*%
%TO.N,Signal1*%
X106250000Y-83525000D03*
%TO.P,J1,3,Pin_3*%
%TO.N,GND*%
X103750000Y-83525000D03*
%TO.P,J1,4,Pin_4*%
%TO.N,VCC*%
X101250000Y-83525000D03*
%TD*%
D11*
%TO.P,10k,1*%
%TO.N,VCC*%
X114000000Y-64190000D03*
D12*
%TO.P,10k,2*%
%TO.N,Net-(C1-Pad2)*%
X114000000Y-71810000D03*
%TD*%
D13*
%TO.P,Q2,1,C*%
%TO.N,Net-(R_IRR2-Pad1)*%
X140000000Y-79000000D03*
D14*
%TO.P,Q2,2,E*%
%TO.N,GND*%
X140000000Y-81540000D03*
%TD*%
D17*
%TO.P,U1,1,1OUT*%
%TO.N,Signal1*%
X119190000Y-75970000D03*
D18*
%TO.P,U1,2,1IN\u2212*%
%TO.N,Net-(C1-Pad2)*%
X121730000Y-75970000D03*
%TO.P,U1,3,1IN+*%
%TO.N,Net-(Q1-Pad1)*%
X124270000Y-75970000D03*
%TO.P,U1,4,GND*%
%TO.N,GND*%
X126810000Y-75970000D03*
%TO.P,U1,5,2IN+*%
%TO.N,Net-(R_IRR2-Pad1)*%
X126810000Y-68030000D03*
%TO.P,U1,6,2IN-*%
%TO.N,Net-(C1-Pad2)*%
X124270000Y-68030000D03*
%TO.P,U1,7,2OUT*%
%TO.N,Signal2*%
X121730000Y-68030000D03*
%TO.P,U1,8,VCC*%
%TO.N,VCC*%
X119190000Y-68030000D03*
%TD*%
D11*
%TO.P,10k,1*%
%TO.N,Net-(C1-Pad2)*%
X114000000Y-74190000D03*
D12*
%TO.P,10k,2*%
%TO.N,GND*%
X114000000Y-81810000D03*
%TD*%
D13*
%TO.P,IRLED1,1,K*%
%TO.N,GND*%
X147000000Y-82000000D03*
D14*
%TO.P,IRLED1,2,A*%
%TO.N,Net-(IRLED1-Pad2)*%
X147000000Y-79460000D03*
%TD*%
D11*
%TO.P,1k,1*%
%TO.N,Net-(D1-Pad1)*%
X109000000Y-70810000D03*
D12*
%TO.P,1k,2*%
%TO.N,Signal1*%
X109000000Y-63190000D03*
%TD*%
D11*
%TO.P,C1,1*%
%TO.N,GND*%
X126500000Y-80000000D03*
%TO.P,C1,2*%
%TO.N,Net-(C1-Pad2)*%
X121500000Y-80000000D03*
%TD*%
D13*
%TO.P,Q1,1,C*%
%TO.N,Net-(Q1-Pad1)*%
X133000000Y-79000000D03*
D14*
%TO.P,Q1,2,E*%
%TO.N,GND*%
X133000000Y-81540000D03*
%TD*%
D11*
%TO.P,10k,1*%
%TO.N,VCC*%
X104000000Y-70810000D03*
D12*
%TO.P,10k,2*%
%TO.N,Signal1*%
X104000000Y-63190000D03*
%TD*%
D11*
%TO.P,1k,1*%
%TO.N,VCC*%
X154040000Y-68190000D03*
D12*
%TO.P,1k,2*%
%TO.N,Net-(R_IRE2-Pad2)*%
X154040000Y-75810000D03*
%TD*%
D11*
%TO.P,10k,1*%
%TO.N,Net-(Q1-Pad1)*%
X133000000Y-75810000D03*
D12*
%TO.P,10k,2*%
%TO.N,VCC*%
X133000000Y-68190000D03*
%TD*%
D11*
%TO.P,10k,1*%
%TO.N,VCC*%
X119190000Y-64000000D03*
D12*
%TO.P,10k,2*%
%TO.N,Signal2*%
X126810000Y-64000000D03*
%TD*%
D19*
%TO.N,VCC*%
X120140000Y-67080000D02*
X119190000Y-68030000D01*
X131890000Y-67080000D02*
X120140000Y-67080000D01*
X133000000Y-68190000D02*
X131890000Y-67080000D01*
%TO.N,Signal1*%
X119190000Y-75970000D02*
X113805000Y-75970000D01*
X119190000Y-75970000D02*
X119190000Y-75095000D01*
X113805000Y-75970000D02*
X106250000Y-83525000D01*
X119190000Y-75095000D02*
X109000000Y-64905000D01*
X109000000Y-64905000D02*
X109000000Y-63190000D01*
%TO.N,Signal2*%
X115518503Y-83525000D02*
X123000000Y-76043503D01*
X108750000Y-83525000D02*
X115518503Y-83525000D01*
X123000000Y-76043503D02*
X123000000Y-69300000D01*
X123000000Y-69300000D02*
X121730000Y-68030000D01*
%TD*%
%TA.AperFunction,Conductor*%
%TO.N,GND*%
G36*
X157433621Y-60528502D02*
G01*
X157480114Y-60582158D01*
X157491500Y-60634500D01*
X157491500Y-86365500D01*
X157471498Y-86433621D01*
X157417842Y-86480114D01*
X157365500Y-86491500D01*
X127164697Y-86491500D01*
X127096576Y-86471498D01*
X127050083Y-86417842D01*
X127039979Y-86347568D01*
X127069473Y-86282988D01*
X127103996Y-86255085D01*
X127343039Y-86123670D01*
X127349719Y-86119430D01*
X127572823Y-85957336D01*
X127581246Y-85946413D01*
X127574342Y-85933552D01*
X126012812Y-84372022D01*
X125998868Y-84364408D01*
X125997035Y-84364539D01*
X125990420Y-84368790D01*
X124425334Y-85933876D01*
X124418721Y-85945987D01*
X124427548Y-85957605D01*
X124650281Y-86119430D01*
X124656961Y-86123670D01*
X124896004Y-86255085D01*
X124946063Y-86305431D01*
X124960956Y-86374848D01*
X124935955Y-86441297D01*
X124878998Y-86483681D01*
X124835303Y-86491500D01*
X97634500Y-86491500D01*
X97566379Y-86471498D01*
X97519886Y-86417842D01*
X97508500Y-86365500D01*
X97508500Y-83707890D01*
X99891500Y-83707890D01*
X99906080Y-83879720D01*
X99907418Y-83884875D01*
X99907419Y-83884881D01*
X99962657Y-84097703D01*
X99963999Y-84102872D01*
X99966191Y-84107738D01*
X99966192Y-84107741D01*
X99989057Y-84158500D01*
X100058688Y-84313075D01*
X100187441Y-84504319D01*
X100191120Y-84508176D01*
X100191122Y-84508178D01*
X100252710Y-84572738D01*
X100346576Y-84671135D01*
X100531542Y-84808754D01*
X100536293Y-84811170D01*
X100536297Y-84811172D01*
X100599481Y-84843296D01*
X100737051Y-84913240D01*
X100742145Y-84914822D01*
X100742148Y-84914823D01*
X100907583Y-84966192D01*
X100957227Y-84981607D01*
X100962516Y-84982308D01*
X101180489Y-85011198D01*
X101180494Y-85011198D01*
X101185774Y-85011898D01*
X101191103Y-85011698D01*
X101191105Y-85011698D01*
X101300966Y-85007574D01*
X101416158Y-85003249D01*
X101438802Y-84998498D01*
X101636572Y-84957002D01*
X101641791Y-84955907D01*
X101646750Y-84953949D01*
X101646752Y-84953948D01*
X101851256Y-84873185D01*
X101851258Y-84873184D01*
X101856221Y-84871224D01*
X101861525Y-84868006D01*
X102048757Y-84754390D01*
X102048756Y-84754390D01*
X102053317Y-84751623D01*
X102093134Y-84717072D01*
X102223412Y-84604023D01*
X102223414Y-84604021D01*
X102227445Y-84600523D01*
X102291048Y-84522954D01*
X102370240Y-84426373D01*
X102370244Y-84426367D01*
X102373624Y-84422245D01*
X102387413Y-84398022D01*
X102391829Y-84390265D01*
X102442912Y-84340959D01*
X102512542Y-84327098D01*
X102578613Y-84353082D01*
X102605851Y-84382232D01*
X102684852Y-84499578D01*
X102691519Y-84507870D01*
X102843228Y-84666900D01*
X102851186Y-84673941D01*
X103027525Y-84805141D01*
X103036562Y-84810745D01*
X103232484Y-84910357D01*
X103242335Y-84914357D01*
X103452240Y-84979534D01*
X103462624Y-84981817D01*
X103478043Y-84983861D01*
X103492207Y-84981665D01*
X103496000Y-84968478D01*
X103496000Y-84966192D01*
X104004000Y-84966192D01*
X104007973Y-84979723D01*
X104018580Y-84981248D01*
X104136421Y-84956523D01*
X104146617Y-84953463D01*
X104351029Y-84872737D01*
X104360561Y-84868006D01*
X104548462Y-84753984D01*
X104557052Y-84747720D01*
X104723052Y-84603673D01*
X104730472Y-84596042D01*
X104869826Y-84426089D01*
X104875848Y-84417326D01*
X104891238Y-84390289D01*
X104942320Y-84340982D01*
X105011951Y-84327120D01*
X105078022Y-84353103D01*
X105105261Y-84382253D01*
X105134773Y-84426089D01*
X105187441Y-84504319D01*
X105191120Y-84508176D01*
X105191122Y-84508178D01*
X105252710Y-84572738D01*
X105346576Y-84671135D01*
X105531542Y-84808754D01*
X105536293Y-84811170D01*
X105536297Y-84811172D01*
X105599481Y-84843296D01*
X105737051Y-84913240D01*
X105742145Y-84914822D01*
X105742148Y-84914823D01*
X105907583Y-84966192D01*
X105957227Y-84981607D01*
X105962516Y-84982308D01*
X106180489Y-85011198D01*
X106180494Y-85011198D01*
X106185774Y-85011898D01*
X106191103Y-85011698D01*
X106191105Y-85011698D01*
X106300966Y-85007574D01*
X106416158Y-85003249D01*
X106438802Y-84998498D01*
X106636572Y-84957002D01*
X106641791Y-84955907D01*
X106646750Y-84953949D01*
X106646752Y-84953948D01*
X106851256Y-84873185D01*
X106851258Y-84873184D01*
X106856221Y-84871224D01*
X106861525Y-84868006D01*
X107048757Y-84754390D01*
X107048756Y-84754390D01*
X107053317Y-84751623D01*
X107093134Y-84717072D01*
X107223412Y-84604023D01*
X107223414Y-84604021D01*
X107227445Y-84600523D01*
X107256670Y-84564880D01*
X107315329Y-84524886D01*
X107386299Y-84522954D01*
X107447048Y-84559698D01*
X107461248Y-84578468D01*
X107477062Y-84604023D01*
X107551522Y-84724348D01*
X107676697Y-84849305D01*
X107682927Y-84853145D01*
X107682928Y-84853146D01*
X107820090Y-84937694D01*
X107827262Y-84942115D01*
X107862938Y-84953948D01*
X107988611Y-84995632D01*
X107988613Y-84995632D01*
X107995139Y-84997797D01*
X108001975Y-84998497D01*
X108001978Y-84998498D01*
X108037663Y-85002154D01*
X108099600Y-85008500D01*
X109400400Y-85008500D01*
X109403646Y-85008163D01*
X109403650Y-85008163D01*
X109499308Y-84998238D01*
X109499312Y-84998237D01*
X109506166Y-84997526D01*
X109512702Y-84995345D01*
X109512704Y-84995345D01*
X109644806Y-84951272D01*
X109673946Y-84941550D01*
X109824348Y-84848478D01*
X109949305Y-84723303D01*
X109981462Y-84671135D01*
X110038275Y-84578968D01*
X110038276Y-84578966D01*
X110042115Y-84572738D01*
X110097797Y-84404861D01*
X110099293Y-84390265D01*
X110105762Y-84327120D01*
X110108500Y-84300400D01*
X110108500Y-84284500D01*
X110128502Y-84216379D01*
X110182158Y-84169886D01*
X110234500Y-84158500D01*
X115439736Y-84158500D01*
X115450919Y-84159027D01*
X115458412Y-84160702D01*
X115466338Y-84160453D01*
X115466339Y-84160453D01*
X115526489Y-84158562D01*
X115530448Y-84158500D01*
X115558359Y-84158500D01*
X115562294Y-84158003D01*
X115562359Y-84157995D01*
X115574196Y-84157062D01*
X115606454Y-84156048D01*
X115610473Y-84155922D01*
X115618392Y-84155673D01*
X115637846Y-84150021D01*
X115657203Y-84146013D01*
X115669433Y-84144468D01*
X115669434Y-84144468D01*
X115677300Y-84143474D01*
X115684671Y-84140555D01*
X115684673Y-84140555D01*
X115718415Y-84127196D01*
X115729645Y-84123351D01*
X115764486Y-84113229D01*
X115764487Y-84113229D01*
X115772096Y-84111018D01*
X115778915Y-84106985D01*
X115778920Y-84106983D01*
X115789531Y-84100707D01*
X115807279Y-84092012D01*
X115826120Y-84084552D01*
X115861890Y-84058564D01*
X115871810Y-84052048D01*
X115903038Y-84033580D01*
X115903041Y-84033578D01*
X115909865Y-84029542D01*
X115924186Y-84015221D01*
X115937373Y-84003958D01*
X123487290Y-84003958D01*
X123506607Y-84310994D01*
X123507600Y-84318855D01*
X123565246Y-84621046D01*
X123567217Y-84628723D01*
X123662284Y-84921309D01*
X123665199Y-84928672D01*
X123796189Y-85207041D01*
X123800001Y-85213974D01*
X123964851Y-85473736D01*
X123969495Y-85480129D01*
X124044497Y-85570790D01*
X124057014Y-85579245D01*
X124067752Y-85573038D01*
X125627978Y-84012812D01*
X125634356Y-84001132D01*
X126364408Y-84001132D01*
X126364539Y-84002965D01*
X126368790Y-84009580D01*
X127931145Y-85571935D01*
X127944407Y-85579177D01*
X127954512Y-85571988D01*
X128030505Y-85480129D01*
X128035149Y-85473736D01*
X128199999Y-85213974D01*
X128203811Y-85207041D01*
X128334801Y-84928672D01*
X128337716Y-84921309D01*
X128432783Y-84628723D01*
X128434754Y-84621046D01*
X128492400Y-84318855D01*
X128493393Y-84310994D01*
X128512710Y-84003958D01*
X128512710Y-83996042D01*
X128493393Y-83689006D01*
X128492400Y-83681145D01*
X128434754Y-83378954D01*
X128432783Y-83371277D01*
X128337716Y-83078691D01*
X128334801Y-83071328D01*
X128203811Y-82792959D01*
X128199999Y-82786026D01*
X128146298Y-82701406D01*
X132203423Y-82701406D01*
X132208704Y-82708461D01*
X132385080Y-82811527D01*
X132394363Y-82815974D01*
X132601003Y-82894883D01*
X132610901Y-82897759D01*
X132827653Y-82941857D01*
X132837883Y-82943076D01*
X133058914Y-82951182D01*
X133069223Y-82950714D01*
X133288623Y-82922608D01*
X133298688Y-82920468D01*
X133510557Y-82856905D01*
X133520152Y-82853144D01*
X133718778Y-82755838D01*
X133727636Y-82750559D01*
X133785097Y-82709572D01*
X133791509Y-82701406D01*
X139203423Y-82701406D01*
X139208704Y-82708461D01*
X139385080Y-82811527D01*
X139394363Y-82815974D01*
X139601003Y-82894883D01*
X139610901Y-82897759D01*
X139827653Y-82941857D01*
X139837883Y-82943076D01*
X140058914Y-82951182D01*
X140069223Y-82950714D01*
X140116411Y-82944669D01*
X145592001Y-82944669D01*
X145592371Y-82951490D01*
X145597895Y-83002352D01*
X145601521Y-83017604D01*
X145646676Y-83138054D01*
X145655214Y-83153649D01*
X145731715Y-83255724D01*
X145744276Y-83268285D01*
X145846351Y-83344786D01*
X145861946Y-83353324D01*
X145982394Y-83398478D01*
X145997649Y-83402105D01*
X146048514Y-83407631D01*
X146055328Y-83408000D01*
X146727885Y-83408000D01*
X146743124Y-83403525D01*
X146744329Y-83402135D01*
X146746000Y-83394452D01*
X146746000Y-83389884D01*
X147254000Y-83389884D01*
X147258475Y-83405123D01*
X147259865Y-83406328D01*
X147267548Y-83407999D01*
X147944669Y-83407999D01*
X147951490Y-83407629D01*
X148002352Y-83402105D01*
X148017604Y-83398479D01*
X148138054Y-83353324D01*
X148153649Y-83344786D01*
X148255724Y-83268285D01*
X148268285Y-83255724D01*
X148344786Y-83153649D01*
X148353324Y-83138054D01*
X148398478Y-83017606D01*
X148402105Y-83002351D01*
X148407631Y-82951486D01*
X148408000Y-82944672D01*
X148408000Y-82944669D01*
X152592001Y-82944669D01*
X152592371Y-82951490D01*
X152597895Y-83002352D01*
X152601521Y-83017604D01*
X152646676Y-83138054D01*
X152655214Y-83153649D01*
X152731715Y-83255724D01*
X152744276Y-83268285D01*
X152846351Y-83344786D01*
X152861946Y-83353324D01*
X152982394Y-83398478D01*
X152997649Y-83402105D01*
X153048514Y-83407631D01*
X153055328Y-83408000D01*
X153727885Y-83408000D01*
X153743124Y-83403525D01*
X153744329Y-83402135D01*
X153746000Y-83394452D01*
X153746000Y-83389884D01*
X154254000Y-83389884D01*
X154258475Y-83405123D01*
X154259865Y-83406328D01*
X154267548Y-83407999D01*
X154944669Y-83407999D01*
X154951490Y-83407629D01*
X155002352Y-83402105D01*
X155017604Y-83398479D01*
X155138054Y-83353324D01*
X155153649Y-83344786D01*
X155255724Y-83268285D01*
X155268285Y-83255724D01*
X155344786Y-83153649D01*
X155353324Y-83138054D01*
X155398478Y-83017606D01*
X155402105Y-83002351D01*
X155407631Y-82951486D01*
X155408000Y-82944672D01*
X155408000Y-82272115D01*
X155403525Y-82256876D01*
X155402135Y-82255671D01*
X155394452Y-82254000D01*
X154272115Y-82254000D01*
X154256876Y-82258475D01*
X154255671Y-82259865D01*
X154254000Y-82267548D01*
X154254000Y-83389884D01*
X153746000Y-83389884D01*
X153746000Y-82272115D01*
X153741525Y-82256876D01*
X153740135Y-82255671D01*
X153732452Y-82254000D01*
X152610116Y-82254000D01*
X152594877Y-82258475D01*
X152593672Y-82259865D01*
X152592001Y-82267548D01*
X152592001Y-82944669D01*
X148408000Y-82944669D01*
X148408000Y-82272115D01*
X148403525Y-82256876D01*
X148402135Y-82255671D01*
X148394452Y-82254000D01*
X147272115Y-82254000D01*
X147256876Y-82258475D01*
X147255671Y-82259865D01*
X147254000Y-82267548D01*
X147254000Y-83389884D01*
X146746000Y-83389884D01*
X146746000Y-82272115D01*
X146741525Y-82256876D01*
X146740135Y-82255671D01*
X146732452Y-82254000D01*
X145610116Y-82254000D01*
X145594877Y-82258475D01*
X145593672Y-82259865D01*
X145592001Y-82267548D01*
X145592001Y-82944669D01*
X140116411Y-82944669D01*
X140288623Y-82922608D01*
X140298688Y-82920468D01*
X140510557Y-82856905D01*
X140520152Y-82853144D01*
X140718778Y-82755838D01*
X140727636Y-82750559D01*
X140785097Y-82709572D01*
X140793497Y-82698874D01*
X140786510Y-82685721D01*
X140012811Y-81912021D01*
X139998868Y-81904408D01*
X139997034Y-81904539D01*
X139990420Y-81908790D01*
X139210180Y-82689031D01*
X139203423Y-82701406D01*
X133791509Y-82701406D01*
X133793497Y-82698874D01*
X133786510Y-82685721D01*
X133012811Y-81912021D01*
X132998868Y-81904408D01*
X132997034Y-81904539D01*
X132990420Y-81908790D01*
X132210180Y-82689031D01*
X132203423Y-82701406D01*
X128146298Y-82701406D01*
X128035149Y-82526264D01*
X128030505Y-82519871D01*
X127955503Y-82429210D01*
X127942986Y-82420755D01*
X127932248Y-82426962D01*
X126372022Y-83987188D01*
X126364408Y-84001132D01*
X125634356Y-84001132D01*
X125635592Y-83998868D01*
X125635461Y-83997035D01*
X125631210Y-83990420D01*
X124068855Y-82428065D01*
X124055593Y-82420823D01*
X124045488Y-82428012D01*
X123969495Y-82519871D01*
X123964851Y-82526264D01*
X123800001Y-82786026D01*
X123796189Y-82792959D01*
X123665199Y-83071328D01*
X123662284Y-83078691D01*
X123567217Y-83371277D01*
X123565246Y-83378954D01*
X123507600Y-83681145D01*
X123506607Y-83689006D01*
X123487290Y-83996042D01*
X123487290Y-84003958D01*
X115937373Y-84003958D01*
X115939220Y-84002380D01*
X115944054Y-83998868D01*
X115955610Y-83990472D01*
X115983801Y-83956395D01*
X115991791Y-83947616D01*
X117885820Y-82053587D01*
X124418754Y-82053587D01*
X124425658Y-82066448D01*
X125987188Y-83627978D01*
X126001132Y-83635592D01*
X126002965Y-83635461D01*
X126009580Y-83631210D01*
X127574666Y-82066124D01*
X127581279Y-82054013D01*
X127572452Y-82042395D01*
X127349719Y-81880570D01*
X127343039Y-81876330D01*
X127073428Y-81728110D01*
X127066293Y-81724753D01*
X126780230Y-81611492D01*
X126772704Y-81609047D01*
X126557369Y-81553758D01*
X126496363Y-81517444D01*
X126492968Y-81510638D01*
X131587893Y-81510638D01*
X131600627Y-81731468D01*
X131602061Y-81741670D01*
X131650685Y-81957439D01*
X131653773Y-81967292D01*
X131736986Y-82172220D01*
X131741634Y-82181421D01*
X131830097Y-82325781D01*
X131840553Y-82335242D01*
X131849331Y-82331458D01*
X132627979Y-81552811D01*
X132634356Y-81541132D01*
X133364408Y-81541132D01*
X133364539Y-81542966D01*
X133368790Y-81549580D01*
X134146307Y-82327096D01*
X134158313Y-82333652D01*
X134170052Y-82324684D01*
X134208010Y-82271859D01*
X134213321Y-82263020D01*
X134311318Y-82064737D01*
X134315117Y-82055142D01*
X134379415Y-81843517D01*
X134381594Y-81833436D01*
X134410702Y-81612338D01*
X134411221Y-81605663D01*
X134412744Y-81543364D01*
X134412550Y-81536646D01*
X134410412Y-81510638D01*
X138587893Y-81510638D01*
X138600627Y-81731468D01*
X138602061Y-81741670D01*
X138650685Y-81957439D01*
X138653773Y-81967292D01*
X138736986Y-82172220D01*
X138741634Y-82181421D01*
X138830097Y-82325781D01*
X138840553Y-82335242D01*
X138849331Y-82331458D01*
X139627979Y-81552811D01*
X139634356Y-81541132D01*
X140364408Y-81541132D01*
X140364539Y-81542966D01*
X140368790Y-81549580D01*
X141146307Y-82327096D01*
X141158313Y-82333652D01*
X141170052Y-82324684D01*
X141208010Y-82271859D01*
X141213321Y-82263020D01*
X141311318Y-82064737D01*
X141315117Y-82055142D01*
X141379415Y-81843517D01*
X141381594Y-81833436D01*
X141410702Y-81612338D01*
X141411221Y-81605663D01*
X141412744Y-81543364D01*
X141412550Y-81536646D01*
X141394279Y-81314400D01*
X141392596Y-81304238D01*
X141338710Y-81089708D01*
X141335389Y-81079953D01*
X141247193Y-80877118D01*
X141242315Y-80868020D01*
X141169224Y-80755038D01*
X141158538Y-80745835D01*
X141148973Y-80750238D01*
X140372021Y-81527189D01*
X140364408Y-81541132D01*
X139634356Y-81541132D01*
X139635592Y-81538868D01*
X139635461Y-81537034D01*
X139631210Y-81530420D01*
X138853862Y-80753073D01*
X138842330Y-80746776D01*
X138830048Y-80756399D01*
X138774467Y-80837877D01*
X138769379Y-80846833D01*
X138676252Y-81047459D01*
X138672689Y-81057146D01*
X138613581Y-81270280D01*
X138611650Y-81280400D01*
X138588145Y-81500349D01*
X138587893Y-81510638D01*
X134410412Y-81510638D01*
X134394279Y-81314400D01*
X134392596Y-81304238D01*
X134338710Y-81089708D01*
X134335389Y-81079953D01*
X134247193Y-80877118D01*
X134242315Y-80868020D01*
X134169224Y-80755038D01*
X134158538Y-80745835D01*
X134148973Y-80750238D01*
X133372021Y-81527189D01*
X133364408Y-81541132D01*
X132634356Y-81541132D01*
X132635592Y-81538868D01*
X132635461Y-81537034D01*
X132631210Y-81530420D01*
X131853862Y-80753073D01*
X131842330Y-80746776D01*
X131830048Y-80756399D01*
X131774467Y-80837877D01*
X131769379Y-80846833D01*
X131676252Y-81047459D01*
X131672689Y-81057146D01*
X131613581Y-81270280D01*
X131611650Y-81280400D01*
X131588145Y-81500349D01*
X131587893Y-81510638D01*
X126492968Y-81510638D01*
X126464674Y-81453911D01*
X126472364Y-81383332D01*
X126516992Y-81328115D01*
X126577723Y-81306196D01*
X126722520Y-81293528D01*
X126733312Y-81291625D01*
X126943761Y-81235236D01*
X126954053Y-81231490D01*
X127151511Y-81139414D01*
X127161006Y-81133931D01*
X127213048Y-81097491D01*
X127221424Y-81087012D01*
X127214356Y-81073566D01*
X126512812Y-80372022D01*
X126498868Y-80364408D01*
X126497035Y-80364539D01*
X126490420Y-80368790D01*
X125784923Y-81074287D01*
X125778493Y-81086062D01*
X125787789Y-81098077D01*
X125838994Y-81133931D01*
X125848489Y-81139414D01*
X126045947Y-81231490D01*
X126056239Y-81235236D01*
X126090041Y-81244293D01*
X126150664Y-81281245D01*
X126181685Y-81345105D01*
X126173257Y-81415600D01*
X126128054Y-81470347D01*
X126057430Y-81492000D01*
X125846169Y-81492000D01*
X125838278Y-81492497D01*
X125533050Y-81531055D01*
X125525279Y-81532538D01*
X125227296Y-81609047D01*
X125219770Y-81611492D01*
X124933707Y-81724753D01*
X124926572Y-81728110D01*
X124656961Y-81876330D01*
X124650281Y-81880570D01*
X124427177Y-82042664D01*
X124418754Y-82053587D01*
X117885820Y-82053587D01*
X119975557Y-79963850D01*
X120037869Y-79929824D01*
X120108684Y-79934889D01*
X120165520Y-79977436D01*
X120190173Y-80041963D01*
X120206457Y-80228087D01*
X120207881Y-80233400D01*
X120207881Y-80233402D01*
X120255571Y-80411380D01*
X120265716Y-80449243D01*
X120268039Y-80454224D01*
X120268039Y-80454225D01*
X120360151Y-80651762D01*
X120360154Y-80651767D01*
X120362477Y-80656749D01*
X120365634Y-80661257D01*
X120489305Y-80837877D01*
X120493802Y-80844300D01*
X120655700Y-81006198D01*
X120660208Y-81009355D01*
X120660211Y-81009357D01*
X120716133Y-81048514D01*
X120843251Y-81137523D01*
X120848233Y-81139846D01*
X120848238Y-81139849D01*
X121044765Y-81231490D01*
X121050757Y-81234284D01*
X121056065Y-81235706D01*
X121056067Y-81235707D01*
X121266598Y-81292119D01*
X121266600Y-81292119D01*
X121271913Y-81293543D01*
X121500000Y-81313498D01*
X121728087Y-81293543D01*
X121733400Y-81292119D01*
X121733402Y-81292119D01*
X121943933Y-81235707D01*
X121943935Y-81235706D01*
X121949243Y-81234284D01*
X121955235Y-81231490D01*
X122151762Y-81139849D01*
X122151767Y-81139846D01*
X122156749Y-81137523D01*
X122283867Y-81048514D01*
X122339789Y-81009357D01*
X122339792Y-81009355D01*
X122344300Y-81006198D01*
X122506198Y-80844300D01*
X122510696Y-80837877D01*
X122634366Y-80661257D01*
X122637523Y-80656749D01*
X122639846Y-80651767D01*
X122639849Y-80651762D01*
X122731961Y-80454225D01*
X122731961Y-80454224D01*
X122734284Y-80449243D01*
X122744430Y-80411380D01*
X122792119Y-80233402D01*
X122792119Y-80233400D01*
X122793543Y-80228087D01*
X122813019Y-80005475D01*
X125187483Y-80005475D01*
X125206472Y-80222519D01*
X125208375Y-80233312D01*
X125264764Y-80443761D01*
X125268510Y-80454053D01*
X125360586Y-80651511D01*
X125366069Y-80661006D01*
X125402509Y-80713048D01*
X125412988Y-80721424D01*
X125426434Y-80714356D01*
X126127978Y-80012812D01*
X126134356Y-80001132D01*
X126864408Y-80001132D01*
X126864539Y-80002965D01*
X126868790Y-80009580D01*
X127574287Y-80715077D01*
X127586062Y-80721507D01*
X127598077Y-80712211D01*
X127633931Y-80661006D01*
X127639414Y-80651511D01*
X127731490Y-80454053D01*
X127735236Y-80443761D01*
X127791625Y-80233312D01*
X127793528Y-80222519D01*
X127812517Y-80005475D01*
X127812517Y-79994525D01*
X127808458Y-79948134D01*
X131591500Y-79948134D01*
X131598255Y-80010316D01*
X131649385Y-80146705D01*
X131736739Y-80263261D01*
X131853295Y-80350615D01*
X131989684Y-80401745D01*
X132051866Y-80408500D01*
X132175520Y-80408500D01*
X132243641Y-80428502D01*
X132264616Y-80445405D01*
X132987189Y-81167979D01*
X133001132Y-81175592D01*
X133002966Y-81175461D01*
X133009580Y-81171210D01*
X133735384Y-80445405D01*
X133797697Y-80411380D01*
X133824480Y-80408500D01*
X133948134Y-80408500D01*
X134010316Y-80401745D01*
X134146705Y-80350615D01*
X134263261Y-80263261D01*
X134350615Y-80146705D01*
X134401745Y-80010316D01*
X134408500Y-79948134D01*
X138591500Y-79948134D01*
X138598255Y-80010316D01*
X138649385Y-80146705D01*
X138736739Y-80263261D01*
X138853295Y-80350615D01*
X138989684Y-80401745D01*
X139051866Y-80408500D01*
X139175520Y-80408500D01*
X139243641Y-80428502D01*
X139264616Y-80445405D01*
X139987189Y-81167979D01*
X140001132Y-81175592D01*
X140002966Y-81175461D01*
X140009580Y-81171210D01*
X140735384Y-80445405D01*
X140797697Y-80411380D01*
X140824480Y-80408500D01*
X140948134Y-80408500D01*
X141010316Y-80401745D01*
X141146705Y-80350615D01*
X141263261Y-80263261D01*
X141350615Y-80146705D01*
X141401745Y-80010316D01*
X141408500Y-79948134D01*
X141408500Y-79425469D01*
X145587095Y-79425469D01*
X145587392Y-79430622D01*
X145587392Y-79430625D01*
X145594041Y-79545947D01*
X145600427Y-79656697D01*
X145601564Y-79661743D01*
X145601565Y-79661749D01*
X145626392Y-79771913D01*
X145651346Y-79882642D01*
X145653288Y-79887424D01*
X145653289Y-79887428D01*
X145736540Y-80092450D01*
X145738484Y-80097237D01*
X145859501Y-80294719D01*
X145862882Y-80298622D01*
X145971653Y-80424191D01*
X146001135Y-80488776D01*
X145991020Y-80559049D01*
X145944519Y-80612697D01*
X145920646Y-80624670D01*
X145861944Y-80646677D01*
X145846351Y-80655214D01*
X145744276Y-80731715D01*
X145731715Y-80744276D01*
X145655214Y-80846351D01*
X145646676Y-80861946D01*
X145601522Y-80982394D01*
X145597895Y-80997649D01*
X145592369Y-81048514D01*
X145592000Y-81055328D01*
X145592000Y-81727885D01*
X145596475Y-81743124D01*
X145597865Y-81744329D01*
X145605548Y-81746000D01*
X148389884Y-81746000D01*
X148405123Y-81741525D01*
X148406328Y-81740135D01*
X148407999Y-81732452D01*
X148407999Y-81055331D01*
X148407629Y-81048510D01*
X148402105Y-80997648D01*
X148398479Y-80982396D01*
X148353324Y-80861946D01*
X148344786Y-80846351D01*
X148268285Y-80744276D01*
X148255724Y-80731715D01*
X148153649Y-80655214D01*
X148138052Y-80646675D01*
X148079415Y-80624693D01*
X148022650Y-80582052D01*
X147997950Y-80515490D01*
X148013157Y-80446141D01*
X148034703Y-80417461D01*
X148072641Y-80379654D01*
X148076303Y-80376005D01*
X148211458Y-80187917D01*
X148258641Y-80092450D01*
X148311784Y-79984922D01*
X148311785Y-79984920D01*
X148314078Y-79980280D01*
X148381408Y-79758671D01*
X148411640Y-79529041D01*
X148413327Y-79460000D01*
X148410488Y-79425469D01*
X152587095Y-79425469D01*
X152587392Y-79430622D01*
X152587392Y-79430625D01*
X152594041Y-79545947D01*
X152600427Y-79656697D01*
X152601564Y-79661743D01*
X152601565Y-79661749D01*
X152626392Y-79771913D01*
X152651346Y-79882642D01*
X152653288Y-79887424D01*
X152653289Y-79887428D01*
X152736540Y-80092450D01*
X152738484Y-80097237D01*
X152859501Y-80294719D01*
X152862882Y-80298622D01*
X152971653Y-80424191D01*
X153001135Y-80488776D01*
X152991020Y-80559049D01*
X152944519Y-80612697D01*
X152920646Y-80624670D01*
X152861944Y-80646677D01*
X152846351Y-80655214D01*
X152744276Y-80731715D01*
X152731715Y-80744276D01*
X152655214Y-80846351D01*
X152646676Y-80861946D01*
X152601522Y-80982394D01*
X152597895Y-80997649D01*
X152592369Y-81048514D01*
X152592000Y-81055328D01*
X152592000Y-81727885D01*
X152596475Y-81743124D01*
X152597865Y-81744329D01*
X152605548Y-81746000D01*
X155389884Y-81746000D01*
X155405123Y-81741525D01*
X155406328Y-81740135D01*
X155407999Y-81732452D01*
X155407999Y-81055331D01*
X155407629Y-81048510D01*
X155402105Y-80997648D01*
X155398479Y-80982396D01*
X155353324Y-80861946D01*
X155344786Y-80846351D01*
X155268285Y-80744276D01*
X155255724Y-80731715D01*
X155153649Y-80655214D01*
X155138052Y-80646675D01*
X155079415Y-80624693D01*
X155022650Y-80582052D01*
X154997950Y-80515490D01*
X155013157Y-80446141D01*
X155034703Y-80417461D01*
X155072641Y-80379654D01*
X155076303Y-80376005D01*
X155211458Y-80187917D01*
X155258641Y-80092450D01*
X155311784Y-79984922D01*
X155311785Y-79984920D01*
X155314078Y-79980280D01*
X155381408Y-79758671D01*
X155411640Y-79529041D01*
X155413327Y-79460000D01*
X155404159Y-79348489D01*
X155394773Y-79234318D01*
X155394772Y-79234312D01*
X155394349Y-79229167D01*
X155337925Y-79004533D01*
X155335866Y-78999797D01*
X155247630Y-78796868D01*
X155247628Y-78796865D01*
X155245570Y-78792131D01*
X155119764Y-78597665D01*
X154963887Y-78426358D01*
X154959836Y-78423159D01*
X154959832Y-78423155D01*
X154786177Y-78286011D01*
X154786172Y-78286008D01*
X154782123Y-78282810D01*
X154777607Y-78280317D01*
X154777604Y-78280315D01*
X154583879Y-78173373D01*
X154583875Y-78173371D01*
X154579355Y-78170876D01*
X154574486Y-78169152D01*
X154574482Y-78169150D01*
X154365903Y-78095288D01*
X154365899Y-78095287D01*
X154361028Y-78093562D01*
X154355935Y-78092655D01*
X154355932Y-78092654D01*
X154138095Y-78053851D01*
X154138089Y-78053850D01*
X154133006Y-78052945D01*
X154060096Y-78052054D01*
X153906581Y-78050179D01*
X153906579Y-78050179D01*
X153901411Y-78050116D01*
X153672464Y-78085150D01*
X153452314Y-78157106D01*
X153447726Y-78159494D01*
X153447722Y-78159496D01*
X153421065Y-78173373D01*
X153246872Y-78264052D01*
X153242739Y-78267155D01*
X153242736Y-78267157D01*
X153065790Y-78400012D01*
X153061655Y-78403117D01*
X153058083Y-78406855D01*
X152934747Y-78535919D01*
X152901639Y-78570564D01*
X152898725Y-78574836D01*
X152898724Y-78574837D01*
X152883152Y-78597665D01*
X152771119Y-78761899D01*
X152673602Y-78971981D01*
X152611707Y-79195169D01*
X152587095Y-79425469D01*
X148410488Y-79425469D01*
X148404159Y-79348489D01*
X148394773Y-79234318D01*
X148394772Y-79234312D01*
X148394349Y-79229167D01*
X148337925Y-79004533D01*
X148335866Y-78999797D01*
X148247630Y-78796868D01*
X148247628Y-78796865D01*
X148245570Y-78792131D01*
X148119764Y-78597665D01*
X147963887Y-78426358D01*
X147959836Y-78423159D01*
X147959832Y-78423155D01*
X147786177Y-78286011D01*
X147786172Y-78286008D01*
X147782123Y-78282810D01*
X147777607Y-78280317D01*
X147777604Y-78280315D01*
X147583879Y-78173373D01*
X147583875Y-78173371D01*
X147579355Y-78170876D01*
X147574486Y-78169152D01*
X147574482Y-78169150D01*
X147365903Y-78095288D01*
X147365899Y-78095287D01*
X147361028Y-78093562D01*
X147355935Y-78092655D01*
X147355932Y-78092654D01*
X147138095Y-78053851D01*
X147138089Y-78053850D01*
X147133006Y-78052945D01*
X147060096Y-78052054D01*
X146906581Y-78050179D01*
X146906579Y-78050179D01*
X146901411Y-78050116D01*
X146672464Y-78085150D01*
X146452314Y-78157106D01*
X146447726Y-78159494D01*
X146447722Y-78159496D01*
X146421065Y-78173373D01*
X146246872Y-78264052D01*
X146242739Y-78267155D01*
X146242736Y-78267157D01*
X146065790Y-78400012D01*
X146061655Y-78403117D01*
X146058083Y-78406855D01*
X145934747Y-78535919D01*
X145901639Y-78570564D01*
X145898725Y-78574836D01*
X145898724Y-78574837D01*
X145883152Y-78597665D01*
X145771119Y-78761899D01*
X145673602Y-78971981D01*
X145611707Y-79195169D01*
X145587095Y-79425469D01*
X141408500Y-79425469D01*
X141408500Y-78051866D01*
X141401745Y-77989684D01*
X141350615Y-77853295D01*
X141263261Y-77736739D01*
X141146705Y-77649385D01*
X141010316Y-77598255D01*
X140948134Y-77591500D01*
X139051866Y-77591500D01*
X138989684Y-77598255D01*
X138853295Y-77649385D01*
X138736739Y-77736739D01*
X138649385Y-77853295D01*
X138598255Y-77989684D01*
X138591500Y-78051866D01*
X138591500Y-79948134D01*
X134408500Y-79948134D01*
X134408500Y-78051866D01*
X134401745Y-77989684D01*
X134350615Y-77853295D01*
X134263261Y-77736739D01*
X134146705Y-77649385D01*
X134010316Y-77598255D01*
X133948134Y-77591500D01*
X132051866Y-77591500D01*
X131989684Y-77598255D01*
X131853295Y-77649385D01*
X131736739Y-77736739D01*
X131649385Y-77853295D01*
X131598255Y-77989684D01*
X131591500Y-78051866D01*
X131591500Y-79948134D01*
X127808458Y-79948134D01*
X127793528Y-79777481D01*
X127791625Y-79766688D01*
X127735236Y-79556239D01*
X127731490Y-79545947D01*
X127639414Y-79348489D01*
X127633931Y-79338994D01*
X127597491Y-79286952D01*
X127587012Y-79278576D01*
X127573566Y-79285644D01*
X126872022Y-79987188D01*
X126864408Y-80001132D01*
X126134356Y-80001132D01*
X126135592Y-79998868D01*
X126135461Y-79997035D01*
X126131210Y-79990420D01*
X125425713Y-79284923D01*
X125413938Y-79278493D01*
X125401923Y-79287789D01*
X125366069Y-79338994D01*
X125360586Y-79348489D01*
X125268510Y-79545947D01*
X125264764Y-79556239D01*
X125208375Y-79766688D01*
X125206472Y-79777481D01*
X125187483Y-79994525D01*
X125187483Y-80005475D01*
X122813019Y-80005475D01*
X122813498Y-80000000D01*
X122793543Y-79771913D01*
X122779281Y-79718688D01*
X122735707Y-79556067D01*
X122735706Y-79556065D01*
X122734284Y-79550757D01*
X122639966Y-79348489D01*
X122639849Y-79348238D01*
X122639846Y-79348233D01*
X122637523Y-79343251D01*
X122506198Y-79155700D01*
X122344300Y-78993802D01*
X122339792Y-78990645D01*
X122339789Y-78990643D01*
X122228886Y-78912988D01*
X125778576Y-78912988D01*
X125785644Y-78926434D01*
X126487188Y-79627978D01*
X126501132Y-79635592D01*
X126502965Y-79635461D01*
X126509580Y-79631210D01*
X127215077Y-78925713D01*
X127221507Y-78913938D01*
X127212211Y-78901923D01*
X127161006Y-78866069D01*
X127151511Y-78860586D01*
X126954053Y-78768510D01*
X126943761Y-78764764D01*
X126733312Y-78708375D01*
X126722519Y-78706472D01*
X126505475Y-78687483D01*
X126494525Y-78687483D01*
X126277481Y-78706472D01*
X126266688Y-78708375D01*
X126056239Y-78764764D01*
X126045947Y-78768510D01*
X125848489Y-78860586D01*
X125838994Y-78866069D01*
X125786952Y-78902509D01*
X125778576Y-78912988D01*
X122228886Y-78912988D01*
X122213920Y-78902509D01*
X122156749Y-78862477D01*
X122151767Y-78860154D01*
X122151762Y-78860151D01*
X121954225Y-78768039D01*
X121954224Y-78768039D01*
X121949243Y-78765716D01*
X121943935Y-78764294D01*
X121943933Y-78764293D01*
X121733402Y-78707881D01*
X121733400Y-78707881D01*
X121728087Y-78706457D01*
X121612769Y-78696368D01*
X121541963Y-78690173D01*
X121475845Y-78664309D01*
X121434206Y-78606806D01*
X121430265Y-78535919D01*
X121463850Y-78475557D01*
X123228168Y-76711239D01*
X123290480Y-76677213D01*
X123361295Y-76682278D01*
X123405184Y-76710079D01*
X123407890Y-76712715D01*
X123514118Y-76816198D01*
X123553609Y-76854669D01*
X123558405Y-76857874D01*
X123558408Y-76857876D01*
X123638243Y-76911220D01*
X123726823Y-76970407D01*
X123732131Y-76972688D01*
X123732132Y-76972688D01*
X123912926Y-77050363D01*
X123912929Y-77050364D01*
X123918229Y-77052641D01*
X123923858Y-77053915D01*
X123923859Y-77053915D01*
X124115778Y-77097342D01*
X124115783Y-77097343D01*
X124121415Y-77098617D01*
X124127186Y-77098844D01*
X124127188Y-77098844D01*
X124189508Y-77101292D01*
X124329577Y-77106796D01*
X124432661Y-77091849D01*
X124530030Y-77077732D01*
X124530035Y-77077731D01*
X124535744Y-77076903D01*
X124541208Y-77075048D01*
X124541213Y-77075047D01*
X124727543Y-77011796D01*
X124733011Y-77009940D01*
X124914772Y-76908149D01*
X124926096Y-76898731D01*
X126169262Y-76898731D01*
X126179144Y-76911220D01*
X126262259Y-76966756D01*
X126272371Y-76972247D01*
X126453081Y-77049885D01*
X126464014Y-77053437D01*
X126655844Y-77096845D01*
X126667253Y-77098347D01*
X126863783Y-77106068D01*
X126875265Y-77105466D01*
X127069905Y-77077245D01*
X127081101Y-77074557D01*
X127267343Y-77011336D01*
X127277840Y-77006662D01*
X127448652Y-76911003D01*
X127454691Y-76902011D01*
X127448516Y-76891359D01*
X126822812Y-76265655D01*
X126808868Y-76258041D01*
X126807035Y-76258172D01*
X126800420Y-76262423D01*
X126175458Y-76887385D01*
X126169262Y-76898731D01*
X124926096Y-76898731D01*
X125074939Y-76774939D01*
X125181735Y-76646531D01*
X125204458Y-76619210D01*
X125208149Y-76614772D01*
X125309940Y-76433011D01*
X125336399Y-76355066D01*
X125375047Y-76241213D01*
X125375048Y-76241208D01*
X125376903Y-76235744D01*
X125377731Y-76230035D01*
X125377732Y-76230030D01*
X125406263Y-76033251D01*
X125406796Y-76029577D01*
X125408356Y-75970000D01*
X125406149Y-75945980D01*
X125672914Y-75945980D01*
X125685777Y-76142233D01*
X125687577Y-76153601D01*
X125735991Y-76344228D01*
X125739829Y-76355066D01*
X125822172Y-76533682D01*
X125827923Y-76543643D01*
X125869472Y-76602435D01*
X125880061Y-76610823D01*
X125893363Y-76603794D01*
X126514345Y-75982812D01*
X126520723Y-75971132D01*
X127098041Y-75971132D01*
X127098172Y-75972965D01*
X127102423Y-75979580D01*
X127730199Y-76607356D01*
X127743507Y-76614623D01*
X127750327Y-76609785D01*
X127750554Y-76609454D01*
X127846662Y-76437840D01*
X127851336Y-76427343D01*
X127914557Y-76241101D01*
X127917245Y-76229905D01*
X127945762Y-76033224D01*
X127946392Y-76025843D01*
X127947757Y-75973704D01*
X127947514Y-75966305D01*
X127933153Y-75810000D01*
X131686502Y-75810000D01*
X131706457Y-76038087D01*
X131765716Y-76259243D01*
X131768039Y-76264224D01*
X131768039Y-76264225D01*
X131860151Y-76461762D01*
X131860154Y-76461767D01*
X131862477Y-76466749D01*
X131916319Y-76543643D01*
X131984073Y-76640405D01*
X131993802Y-76654300D01*
X132155700Y-76816198D01*
X132160208Y-76819355D01*
X132160211Y-76819357D01*
X132202390Y-76848891D01*
X132343251Y-76947523D01*
X132348233Y-76949846D01*
X132348238Y-76949849D01*
X132542061Y-77040229D01*
X132550757Y-77044284D01*
X132556065Y-77045706D01*
X132556067Y-77045707D01*
X132766598Y-77102119D01*
X132766600Y-77102119D01*
X132771913Y-77103543D01*
X133000000Y-77123498D01*
X133228087Y-77103543D01*
X133233400Y-77102119D01*
X133233402Y-77102119D01*
X133443933Y-77045707D01*
X133443935Y-77045706D01*
X133449243Y-77044284D01*
X133457939Y-77040229D01*
X133651762Y-76949849D01*
X133651767Y-76949846D01*
X133656749Y-76947523D01*
X133797610Y-76848891D01*
X133839789Y-76819357D01*
X133839792Y-76819355D01*
X133844300Y-76816198D01*
X134006198Y-76654300D01*
X134015928Y-76640405D01*
X134083681Y-76543643D01*
X134137523Y-76466749D01*
X134139846Y-76461767D01*
X134139849Y-76461762D01*
X134231961Y-76264225D01*
X134231961Y-76264224D01*
X134234284Y-76259243D01*
X134293543Y-76038087D01*
X134313498Y-75810000D01*
X138686502Y-75810000D01*
X138706457Y-76038087D01*
X138765716Y-76259243D01*
X138768039Y-76264224D01*
X138768039Y-76264225D01*
X138860151Y-76461762D01*
X138860154Y-76461767D01*
X138862477Y-76466749D01*
X138916319Y-76543643D01*
X138984073Y-76640405D01*
X138993802Y-76654300D01*
X139155700Y-76816198D01*
X139160208Y-76819355D01*
X139160211Y-76819357D01*
X139202390Y-76848891D01*
X139343251Y-76947523D01*
X139348233Y-76949846D01*
X139348238Y-76949849D01*
X139542061Y-77040229D01*
X139550757Y-77044284D01*
X139556065Y-77045706D01*
X139556067Y-77045707D01*
X139766598Y-77102119D01*
X139766600Y-77102119D01*
X139771913Y-77103543D01*
X140000000Y-77123498D01*
X140228087Y-77103543D01*
X140233400Y-77102119D01*
X140233402Y-77102119D01*
X140443933Y-77045707D01*
X140443935Y-77045706D01*
X140449243Y-77044284D01*
X140457939Y-77040229D01*
X140651762Y-76949849D01*
X140651767Y-76949846D01*
X140656749Y-76947523D01*
X140797610Y-76848891D01*
X140839789Y-76819357D01*
X140839792Y-76819355D01*
X140844300Y-76816198D01*
X141006198Y-76654300D01*
X141015928Y-76640405D01*
X141083681Y-76543643D01*
X141137523Y-76466749D01*
X141139846Y-76461767D01*
X141139849Y-76461762D01*
X141231961Y-76264225D01*
X141231961Y-76264224D01*
X141234284Y-76259243D01*
X141293543Y-76038087D01*
X141313498Y-75810000D01*
X145686502Y-75810000D01*
X145706457Y-76038087D01*
X145765716Y-76259243D01*
X145768039Y-76264224D01*
X145768039Y-76264225D01*
X145860151Y-76461762D01*
X145860154Y-76461767D01*
X145862477Y-76466749D01*
X145916319Y-76543643D01*
X145984073Y-76640405D01*
X145993802Y-76654300D01*
X146155700Y-76816198D01*
X146160208Y-76819355D01*
X146160211Y-76819357D01*
X146202390Y-76848891D01*
X146343251Y-76947523D01*
X146348233Y-76949846D01*
X146348238Y-76949849D01*
X146542061Y-77040229D01*
X146550757Y-77044284D01*
X146556065Y-77045706D01*
X146556067Y-77045707D01*
X146766598Y-77102119D01*
X146766600Y-77102119D01*
X146771913Y-77103543D01*
X147000000Y-77123498D01*
X147228087Y-77103543D01*
X147233400Y-77102119D01*
X147233402Y-77102119D01*
X147443933Y-77045707D01*
X147443935Y-77045706D01*
X147449243Y-77044284D01*
X147457939Y-77040229D01*
X147651762Y-76949849D01*
X147651767Y-76949846D01*
X147656749Y-76947523D01*
X147797610Y-76848891D01*
X147839789Y-76819357D01*
X147839792Y-76819355D01*
X147844300Y-76816198D01*
X148006198Y-76654300D01*
X148015928Y-76640405D01*
X148083681Y-76543643D01*
X148137523Y-76466749D01*
X148139846Y-76461767D01*
X148139849Y-76461762D01*
X148231961Y-76264225D01*
X148231961Y-76264224D01*
X148234284Y-76259243D01*
X148293543Y-76038087D01*
X148313498Y-75810000D01*
X152726502Y-75810000D01*
X152746457Y-76038087D01*
X152805716Y-76259243D01*
X152808039Y-76264224D01*
X152808039Y-76264225D01*
X152900151Y-76461762D01*
X152900154Y-76461767D01*
X152902477Y-76466749D01*
X152956319Y-76543643D01*
X153024073Y-76640405D01*
X153033802Y-76654300D01*
X153195700Y-76816198D01*
X153200208Y-76819355D01*
X153200211Y-76819357D01*
X153242390Y-76848891D01*
X153383251Y-76947523D01*
X153388233Y-76949846D01*
X153388238Y-76949849D01*
X153582061Y-77040229D01*
X153590757Y-77044284D01*
X153596065Y-77045706D01*
X153596067Y-77045707D01*
X153806598Y-77102119D01*
X153806600Y-77102119D01*
X153811913Y-77103543D01*
X154040000Y-77123498D01*
X154268087Y-77103543D01*
X154273400Y-77102119D01*
X154273402Y-77102119D01*
X154483933Y-77045707D01*
X154483935Y-77045706D01*
X154489243Y-77044284D01*
X154497939Y-77040229D01*
X154691762Y-76949849D01*
X154691767Y-76949846D01*
X154696749Y-76947523D01*
X154837610Y-76848891D01*
X154879789Y-76819357D01*
X154879792Y-76819355D01*
X154884300Y-76816198D01*
X155046198Y-76654300D01*
X155055928Y-76640405D01*
X155123681Y-76543643D01*
X155177523Y-76466749D01*
X155179846Y-76461767D01*
X155179849Y-76461762D01*
X155271961Y-76264225D01*
X155271961Y-76264224D01*
X155274284Y-76259243D01*
X155333543Y-76038087D01*
X155353498Y-75810000D01*
X155333543Y-75581913D01*
X155332119Y-75576598D01*
X155275707Y-75366067D01*
X155275706Y-75366065D01*
X155274284Y-75360757D01*
X155267155Y-75345468D01*
X155179849Y-75158238D01*
X155179846Y-75158233D01*
X155177523Y-75153251D01*
X155090233Y-75028588D01*
X155049357Y-74970211D01*
X155049355Y-74970208D01*
X155046198Y-74965700D01*
X154884300Y-74803802D01*
X154879792Y-74800645D01*
X154879789Y-74800643D01*
X154741250Y-74703637D01*
X154696749Y-74672477D01*
X154691767Y-74670154D01*
X154691762Y-74670151D01*
X154494225Y-74578039D01*
X154494224Y-74578039D01*
X154489243Y-74575716D01*
X154483935Y-74574294D01*
X154483933Y-74574293D01*
X154273402Y-74517881D01*
X154273400Y-74517881D01*
X154268087Y-74516457D01*
X154040000Y-74496502D01*
X153811913Y-74516457D01*
X153806600Y-74517881D01*
X153806598Y-74517881D01*
X153596067Y-74574293D01*
X153596065Y-74574294D01*
X153590757Y-74575716D01*
X153585776Y-74578039D01*
X153585775Y-74578039D01*
X153388238Y-74670151D01*
X153388233Y-74670154D01*
X153383251Y-74672477D01*
X153338750Y-74703637D01*
X153200211Y-74800643D01*
X153200208Y-74800645D01*
X153195700Y-74803802D01*
X153033802Y-74965700D01*
X153030645Y-74970208D01*
X153030643Y-74970211D01*
X152989767Y-75028588D01*
X152902477Y-75153251D01*
X152900154Y-75158233D01*
X152900151Y-75158238D01*
X152812845Y-75345468D01*
X152805716Y-75360757D01*
X152804294Y-75366065D01*
X152804293Y-75366067D01*
X152747881Y-75576598D01*
X152746457Y-75581913D01*
X152726502Y-75810000D01*
X148313498Y-75810000D01*
X148293543Y-75581913D01*
X148292119Y-75576598D01*
X148235707Y-75366067D01*
X148235706Y-75366065D01*
X148234284Y-75360757D01*
X148227155Y-75345468D01*
X148139849Y-75158238D01*
X148139846Y-75158233D01*
X148137523Y-75153251D01*
X148050233Y-75028588D01*
X148009357Y-74970211D01*
X148009355Y-74970208D01*
X148006198Y-74965700D01*
X147844300Y-74803802D01*
X147839792Y-74800645D01*
X147839789Y-74800643D01*
X147701250Y-74703637D01*
X147656749Y-74672477D01*
X147651767Y-74670154D01*
X147651762Y-74670151D01*
X147454225Y-74578039D01*
X147454224Y-74578039D01*
X147449243Y-74575716D01*
X147443935Y-74574294D01*
X147443933Y-74574293D01*
X147233402Y-74517881D01*
X147233400Y-74517881D01*
X147228087Y-74516457D01*
X147000000Y-74496502D01*
X146771913Y-74516457D01*
X146766600Y-74517881D01*
X146766598Y-74517881D01*
X146556067Y-74574293D01*
X146556065Y-74574294D01*
X146550757Y-74575716D01*
X146545776Y-74578039D01*
X146545775Y-74578039D01*
X146348238Y-74670151D01*
X146348233Y-74670154D01*
X146343251Y-74672477D01*
X146298750Y-74703637D01*
X146160211Y-74800643D01*
X146160208Y-74800645D01*
X146155700Y-74803802D01*
X145993802Y-74965700D01*
X145990645Y-74970208D01*
X145990643Y-74970211D01*
X145949767Y-75028588D01*
X145862477Y-75153251D01*
X145860154Y-75158233D01*
X145860151Y-75158238D01*
X145772845Y-75345468D01*
X145765716Y-75360757D01*
X145764294Y-75366065D01*
X145764293Y-75366067D01*
X145707881Y-75576598D01*
X145706457Y-75581913D01*
X145686502Y-75810000D01*
X141313498Y-75810000D01*
X141293543Y-75581913D01*
X141292119Y-75576598D01*
X141235707Y-75366067D01*
X141235706Y-75366065D01*
X141234284Y-75360757D01*
X141227155Y-75345468D01*
X141139849Y-75158238D01*
X141139846Y-75158233D01*
X141137523Y-75153251D01*
X141050233Y-75028588D01*
X141009357Y-74970211D01*
X141009355Y-74970208D01*
X141006198Y-74965700D01*
X140844300Y-74803802D01*
X140839792Y-74800645D01*
X140839789Y-74800643D01*
X140701250Y-74703637D01*
X140656749Y-74672477D01*
X140651767Y-74670154D01*
X140651762Y-74670151D01*
X140454225Y-74578039D01*
X140454224Y-74578039D01*
X140449243Y-74575716D01*
X140443935Y-74574294D01*
X140443933Y-74574293D01*
X140233402Y-74517881D01*
X140233400Y-74517881D01*
X140228087Y-74516457D01*
X140000000Y-74496502D01*
X139771913Y-74516457D01*
X139766600Y-74517881D01*
X139766598Y-74517881D01*
X139556067Y-74574293D01*
X139556065Y-74574294D01*
X139550757Y-74575716D01*
X139545776Y-74578039D01*
X139545775Y-74578039D01*
X139348238Y-74670151D01*
X139348233Y-74670154D01*
X139343251Y-74672477D01*
X139298750Y-74703637D01*
X139160211Y-74800643D01*
X139160208Y-74800645D01*
X139155700Y-74803802D01*
X138993802Y-74965700D01*
X138990645Y-74970208D01*
X138990643Y-74970211D01*
X138949767Y-75028588D01*
X138862477Y-75153251D01*
X138860154Y-75158233D01*
X138860151Y-75158238D01*
X138772845Y-75345468D01*
X138765716Y-75360757D01*
X138764294Y-75366065D01*
X138764293Y-75366067D01*
X138707881Y-75576598D01*
X138706457Y-75581913D01*
X138686502Y-75810000D01*
X134313498Y-75810000D01*
X134293543Y-75581913D01*
X134292119Y-75576598D01*
X134235707Y-75366067D01*
X134235706Y-75366065D01*
X134234284Y-75360757D01*
X134227155Y-75345468D01*
X134139849Y-75158238D01*
X134139846Y-75158233D01*
X134137523Y-75153251D01*
X134050233Y-75028588D01*
X134009357Y-74970211D01*
X134009355Y-74970208D01*
X134006198Y-74965700D01*
X133844300Y-74803802D01*
X133839792Y-74800645D01*
X133839789Y-74800643D01*
X133701250Y-74703637D01*
X133656749Y-74672477D01*
X133651767Y-74670154D01*
X133651762Y-74670151D01*
X133454225Y-74578039D01*
X133454224Y-74578039D01*
X133449243Y-74575716D01*
X133443935Y-74574294D01*
X133443933Y-74574293D01*
X133233402Y-74517881D01*
X133233400Y-74517881D01*
X133228087Y-74516457D01*
X133000000Y-74496502D01*
X132771913Y-74516457D01*
X132766600Y-74517881D01*
X132766598Y-74517881D01*
X132556067Y-74574293D01*
X132556065Y-74574294D01*
X132550757Y-74575716D01*
X132545776Y-74578039D01*
X132545775Y-74578039D01*
X132348238Y-74670151D01*
X132348233Y-74670154D01*
X132343251Y-74672477D01*
X132298750Y-74703637D01*
X132160211Y-74800643D01*
X132160208Y-74800645D01*
X132155700Y-74803802D01*
X131993802Y-74965700D01*
X131990645Y-74970208D01*
X131990643Y-74970211D01*
X131949767Y-75028588D01*
X131862477Y-75153251D01*
X131860154Y-75158233D01*
X131860151Y-75158238D01*
X131772845Y-75345468D01*
X131765716Y-75360757D01*
X131764294Y-75366065D01*
X131764293Y-75366067D01*
X131707881Y-75576598D01*
X131706457Y-75581913D01*
X131686502Y-75810000D01*
X127933153Y-75810000D01*
X127929330Y-75768397D01*
X127927233Y-75757083D01*
X127873846Y-75567789D01*
X127869724Y-75557050D01*
X127782734Y-75380651D01*
X127776725Y-75370847D01*
X127751342Y-75336855D01*
X127740084Y-75328406D01*
X127727664Y-75335179D01*
X127105655Y-75957188D01*
X127098041Y-75971132D01*
X126520723Y-75971132D01*
X126521959Y-75968868D01*
X126521828Y-75967035D01*
X126517577Y-75960420D01*
X125891327Y-75334170D01*
X125878487Y-75327159D01*
X125867795Y-75334956D01*
X125859294Y-75345740D01*
X125853025Y-75355392D01*
X125761449Y-75529452D01*
X125757048Y-75540076D01*
X125698724Y-75727910D01*
X125696332Y-75739164D01*
X125673215Y-75934479D01*
X125672914Y-75945980D01*
X125406149Y-75945980D01*
X125389294Y-75762551D01*
X125332747Y-75562050D01*
X125240608Y-75375211D01*
X125226095Y-75355775D01*
X125119416Y-75212915D01*
X125119415Y-75212914D01*
X125115963Y-75208291D01*
X124962987Y-75066881D01*
X124918673Y-75038921D01*
X126166666Y-75038921D01*
X126170152Y-75047309D01*
X126797188Y-75674345D01*
X126811132Y-75681959D01*
X126812965Y-75681828D01*
X126819580Y-75677577D01*
X127445230Y-75051927D01*
X127451990Y-75039547D01*
X127445960Y-75031492D01*
X127331455Y-74959244D01*
X127321212Y-74954025D01*
X127138531Y-74881143D01*
X127127504Y-74877876D01*
X126934605Y-74839506D01*
X126923159Y-74838303D01*
X126726507Y-74835730D01*
X126715027Y-74836633D01*
X126521199Y-74869938D01*
X126510079Y-74872918D01*
X126325557Y-74940992D01*
X126315179Y-74945942D01*
X126176264Y-75028588D01*
X126166666Y-75038921D01*
X124918673Y-75038921D01*
X124786803Y-74955717D01*
X124593311Y-74878522D01*
X124408507Y-74841762D01*
X124394657Y-74839007D01*
X124388991Y-74837880D01*
X124383216Y-74837804D01*
X124383212Y-74837804D01*
X124278901Y-74836439D01*
X124180686Y-74835153D01*
X124174989Y-74836132D01*
X124174988Y-74836132D01*
X123981069Y-74869454D01*
X123975372Y-74870433D01*
X123969946Y-74872435D01*
X123969945Y-74872435D01*
X123803110Y-74933983D01*
X123732277Y-74938795D01*
X123670087Y-74904548D01*
X123636285Y-74842114D01*
X123633500Y-74815771D01*
X123633500Y-69378767D01*
X123634027Y-69367584D01*
X123635702Y-69360091D01*
X123633562Y-69292014D01*
X123633500Y-69288055D01*
X123633500Y-69260144D01*
X123632995Y-69256144D01*
X123632062Y-69244301D01*
X123630922Y-69208035D01*
X123630673Y-69200110D01*
X123629736Y-69196883D01*
X123638574Y-69128488D01*
X123684296Y-69074173D01*
X123752124Y-69053200D01*
X123803661Y-69063419D01*
X123912926Y-69110363D01*
X123912929Y-69110364D01*
X123918229Y-69112641D01*
X123923858Y-69113915D01*
X123923859Y-69113915D01*
X124115778Y-69157342D01*
X124115783Y-69157343D01*
X124121415Y-69158617D01*
X124127186Y-69158844D01*
X124127188Y-69158844D01*
X124189508Y-69161292D01*
X124329577Y-69166796D01*
X124432661Y-69151849D01*
X124530030Y-69137732D01*
X124530035Y-69137731D01*
X124535744Y-69136903D01*
X124541208Y-69135048D01*
X124541213Y-69135047D01*
X124727543Y-69071796D01*
X124733011Y-69069940D01*
X124914772Y-68968149D01*
X125074939Y-68834939D01*
X125208149Y-68674772D01*
X125309940Y-68493011D01*
X125336341Y-68415237D01*
X125375047Y-68301213D01*
X125375048Y-68301208D01*
X125376903Y-68295744D01*
X125377731Y-68290035D01*
X125377732Y-68290030D01*
X125406263Y-68093251D01*
X125406796Y-68089577D01*
X125408356Y-68030000D01*
X125396269Y-67898459D01*
X125391911Y-67851029D01*
X125405596Y-67781364D01*
X125454772Y-67730157D01*
X125517382Y-67713500D01*
X125564175Y-67713500D01*
X125632296Y-67733502D01*
X125678789Y-67787158D01*
X125689302Y-67854308D01*
X125672034Y-68000201D01*
X125685659Y-68208078D01*
X125736938Y-68409991D01*
X125824155Y-68599178D01*
X125944387Y-68769303D01*
X126093609Y-68914669D01*
X126098405Y-68917874D01*
X126098408Y-68917876D01*
X126168123Y-68964458D01*
X126266823Y-69030407D01*
X126272131Y-69032688D01*
X126272132Y-69032688D01*
X126452926Y-69110363D01*
X126452929Y-69110364D01*
X126458229Y-69112641D01*
X126463858Y-69113915D01*
X126463859Y-69113915D01*
X126655778Y-69157342D01*
X126655783Y-69157343D01*
X126661415Y-69158617D01*
X126667186Y-69158844D01*
X126667188Y-69158844D01*
X126729508Y-69161292D01*
X126869577Y-69166796D01*
X126972661Y-69151849D01*
X127070030Y-69137732D01*
X127070035Y-69137731D01*
X127075744Y-69136903D01*
X127081208Y-69135048D01*
X127081213Y-69135047D01*
X127267543Y-69071796D01*
X127273011Y-69069940D01*
X127454772Y-68968149D01*
X127614939Y-68834939D01*
X127748149Y-68674772D01*
X127849940Y-68493011D01*
X127876341Y-68415237D01*
X127915047Y-68301213D01*
X127915048Y-68301208D01*
X127916903Y-68295744D01*
X127917731Y-68290035D01*
X127917732Y-68290030D01*
X127946263Y-68093251D01*
X127946796Y-68089577D01*
X127948356Y-68030000D01*
X127936269Y-67898459D01*
X127931911Y-67851029D01*
X127945596Y-67781364D01*
X127994772Y-67730157D01*
X128057382Y-67713500D01*
X131575406Y-67713500D01*
X131643527Y-67733502D01*
X131664501Y-67750405D01*
X131690848Y-67776752D01*
X131724874Y-67839064D01*
X131723459Y-67898459D01*
X131707882Y-67956591D01*
X131707881Y-67956598D01*
X131706457Y-67961913D01*
X131686502Y-68190000D01*
X131706457Y-68418087D01*
X131707881Y-68423400D01*
X131707881Y-68423402D01*
X131754981Y-68599178D01*
X131765716Y-68639243D01*
X131768039Y-68644224D01*
X131768039Y-68644225D01*
X131860151Y-68841762D01*
X131860154Y-68841767D01*
X131862477Y-68846749D01*
X131993802Y-69034300D01*
X132155700Y-69196198D01*
X132160208Y-69199355D01*
X132160211Y-69199357D01*
X132172605Y-69208035D01*
X132343251Y-69327523D01*
X132348233Y-69329846D01*
X132348238Y-69329849D01*
X132545775Y-69421961D01*
X132550757Y-69424284D01*
X132556065Y-69425706D01*
X132556067Y-69425707D01*
X132766598Y-69482119D01*
X132766600Y-69482119D01*
X132771913Y-69483543D01*
X133000000Y-69503498D01*
X133228087Y-69483543D01*
X133233400Y-69482119D01*
X133233402Y-69482119D01*
X133443933Y-69425707D01*
X133443935Y-69425706D01*
X133449243Y-69424284D01*
X133454225Y-69421961D01*
X133651762Y-69329849D01*
X133651767Y-69329846D01*
X133656749Y-69327523D01*
X133827395Y-69208035D01*
X133839789Y-69199357D01*
X133839792Y-69199355D01*
X133844300Y-69196198D01*
X134006198Y-69034300D01*
X134137523Y-68846749D01*
X134139846Y-68841767D01*
X134139849Y-68841762D01*
X134231961Y-68644225D01*
X134231961Y-68644224D01*
X134234284Y-68639243D01*
X134245020Y-68599178D01*
X134292119Y-68423402D01*
X134292119Y-68423400D01*
X134293543Y-68418087D01*
X134313498Y-68190000D01*
X138686502Y-68190000D01*
X138706457Y-68418087D01*
X138707881Y-68423400D01*
X138707881Y-68423402D01*
X138754981Y-68599178D01*
X138765716Y-68639243D01*
X138768039Y-68644224D01*
X138768039Y-68644225D01*
X138860151Y-68841762D01*
X138860154Y-68841767D01*
X138862477Y-68846749D01*
X138993802Y-69034300D01*
X139155700Y-69196198D01*
X139160208Y-69199355D01*
X139160211Y-69199357D01*
X139172605Y-69208035D01*
X139343251Y-69327523D01*
X139348233Y-69329846D01*
X139348238Y-69329849D01*
X139545775Y-69421961D01*
X139550757Y-69424284D01*
X139556065Y-69425706D01*
X139556067Y-69425707D01*
X139766598Y-69482119D01*
X139766600Y-69482119D01*
X139771913Y-69483543D01*
X140000000Y-69503498D01*
X140228087Y-69483543D01*
X140233400Y-69482119D01*
X140233402Y-69482119D01*
X140443933Y-69425707D01*
X140443935Y-69425706D01*
X140449243Y-69424284D01*
X140454225Y-69421961D01*
X140651762Y-69329849D01*
X140651767Y-69329846D01*
X140656749Y-69327523D01*
X140827395Y-69208035D01*
X140839789Y-69199357D01*
X140839792Y-69199355D01*
X140844300Y-69196198D01*
X141006198Y-69034300D01*
X141137523Y-68846749D01*
X141139846Y-68841767D01*
X141139849Y-68841762D01*
X141231961Y-68644225D01*
X141231961Y-68644224D01*
X141234284Y-68639243D01*
X141245020Y-68599178D01*
X141292119Y-68423402D01*
X141292119Y-68423400D01*
X141293543Y-68418087D01*
X141313498Y-68190000D01*
X145686502Y-68190000D01*
X145706457Y-68418087D01*
X145707881Y-68423400D01*
X145707881Y-68423402D01*
X145754981Y-68599178D01*
X145765716Y-68639243D01*
X145768039Y-68644224D01*
X145768039Y-68644225D01*
X145860151Y-68841762D01*
X145860154Y-68841767D01*
X145862477Y-68846749D01*
X145993802Y-69034300D01*
X146155700Y-69196198D01*
X146160208Y-69199355D01*
X146160211Y-69199357D01*
X146172605Y-69208035D01*
X146343251Y-69327523D01*
X146348233Y-69329846D01*
X146348238Y-69329849D01*
X146545775Y-69421961D01*
X146550757Y-69424284D01*
X146556065Y-69425706D01*
X146556067Y-69425707D01*
X146766598Y-69482119D01*
X146766600Y-69482119D01*
X146771913Y-69483543D01*
X147000000Y-69503498D01*
X147228087Y-69483543D01*
X147233400Y-69482119D01*
X147233402Y-69482119D01*
X147443933Y-69425707D01*
X147443935Y-69425706D01*
X147449243Y-69424284D01*
X147454225Y-69421961D01*
X147651762Y-69329849D01*
X147651767Y-69329846D01*
X147656749Y-69327523D01*
X147827395Y-69208035D01*
X147839789Y-69199357D01*
X147839792Y-69199355D01*
X147844300Y-69196198D01*
X148006198Y-69034300D01*
X148137523Y-68846749D01*
X148139846Y-68841767D01*
X148139849Y-68841762D01*
X148231961Y-68644225D01*
X148231961Y-68644224D01*
X148234284Y-68639243D01*
X148245020Y-68599178D01*
X148292119Y-68423402D01*
X148292119Y-68423400D01*
X148293543Y-68418087D01*
X148313498Y-68190000D01*
X152726502Y-68190000D01*
X152746457Y-68418087D01*
X152747881Y-68423400D01*
X152747881Y-68423402D01*
X152794981Y-68599178D01*
X152805716Y-68639243D01*
X152808039Y-68644224D01*
X152808039Y-68644225D01*
X152900151Y-68841762D01*
X152900154Y-68841767D01*
X152902477Y-68846749D01*
X153033802Y-69034300D01*
X153195700Y-69196198D01*
X153200208Y-69199355D01*
X153200211Y-69199357D01*
X153212605Y-69208035D01*
X153383251Y-69327523D01*
X153388233Y-69329846D01*
X153388238Y-69329849D01*
X153585775Y-69421961D01*
X153590757Y-69424284D01*
X153596065Y-69425706D01*
X153596067Y-69425707D01*
X153806598Y-69482119D01*
X153806600Y-69482119D01*
X153811913Y-69483543D01*
X154040000Y-69503498D01*
X154268087Y-69483543D01*
X154273400Y-69482119D01*
X154273402Y-69482119D01*
X154483933Y-69425707D01*
X154483935Y-69425706D01*
X154489243Y-69424284D01*
X154494225Y-69421961D01*
X154691762Y-69329849D01*
X154691767Y-69329846D01*
X154696749Y-69327523D01*
X154867395Y-69208035D01*
X154879789Y-69199357D01*
X154879792Y-69199355D01*
X154884300Y-69196198D01*
X155046198Y-69034300D01*
X155177523Y-68846749D01*
X155179846Y-68841767D01*
X155179849Y-68841762D01*
X155271961Y-68644225D01*
X155271961Y-68644224D01*
X155274284Y-68639243D01*
X155285020Y-68599178D01*
X155332119Y-68423402D01*
X155332119Y-68423400D01*
X155333543Y-68418087D01*
X155353498Y-68190000D01*
X155333543Y-67961913D01*
X155332117Y-67956591D01*
X155275707Y-67746067D01*
X155275706Y-67746065D01*
X155274284Y-67740757D01*
X155269341Y-67730157D01*
X155179849Y-67538238D01*
X155179846Y-67538233D01*
X155177523Y-67533251D01*
X155046198Y-67345700D01*
X154884300Y-67183802D01*
X154879792Y-67180645D01*
X154879789Y-67180643D01*
X154773326Y-67106097D01*
X154696749Y-67052477D01*
X154691767Y-67050154D01*
X154691762Y-67050151D01*
X154494225Y-66958039D01*
X154494224Y-66958039D01*
X154489243Y-66955716D01*
X154483935Y-66954294D01*
X154483933Y-66954293D01*
X154273402Y-66897881D01*
X154273400Y-66897881D01*
X154268087Y-66896457D01*
X154040000Y-66876502D01*
X153811913Y-66896457D01*
X153806600Y-66897881D01*
X153806598Y-66897881D01*
X153596067Y-66954293D01*
X153596065Y-66954294D01*
X153590757Y-66955716D01*
X153585776Y-66958039D01*
X153585775Y-66958039D01*
X153388238Y-67050151D01*
X153388233Y-67050154D01*
X153383251Y-67052477D01*
X153306674Y-67106097D01*
X153200211Y-67180643D01*
X153200208Y-67180645D01*
X153195700Y-67183802D01*
X153033802Y-67345700D01*
X152902477Y-67533251D01*
X152900154Y-67538233D01*
X152900151Y-67538238D01*
X152810659Y-67730157D01*
X152805716Y-67740757D01*
X152804294Y-67746065D01*
X152804293Y-67746067D01*
X152747883Y-67956591D01*
X152746457Y-67961913D01*
X152726502Y-68190000D01*
X148313498Y-68190000D01*
X148293543Y-67961913D01*
X148292117Y-67956591D01*
X148235707Y-67746067D01*
X148235706Y-67746065D01*
X148234284Y-67740757D01*
X148229341Y-67730157D01*
X148139849Y-67538238D01*
X148139846Y-67538233D01*
X148137523Y-67533251D01*
X148006198Y-67345700D01*
X147844300Y-67183802D01*
X147839792Y-67180645D01*
X147839789Y-67180643D01*
X147733326Y-67106097D01*
X147656749Y-67052477D01*
X147651767Y-67050154D01*
X147651762Y-67050151D01*
X147454225Y-66958039D01*
X147454224Y-66958039D01*
X147449243Y-66955716D01*
X147443935Y-66954294D01*
X147443933Y-66954293D01*
X147233402Y-66897881D01*
X147233400Y-66897881D01*
X147228087Y-66896457D01*
X147000000Y-66876502D01*
X146771913Y-66896457D01*
X146766600Y-66897881D01*
X146766598Y-66897881D01*
X146556067Y-66954293D01*
X146556065Y-66954294D01*
X146550757Y-66955716D01*
X146545776Y-66958039D01*
X146545775Y-66958039D01*
X146348238Y-67050151D01*
X146348233Y-67050154D01*
X146343251Y-67052477D01*
X146266674Y-67106097D01*
X146160211Y-67180643D01*
X146160208Y-67180645D01*
X146155700Y-67183802D01*
X145993802Y-67345700D01*
X145862477Y-67533251D01*
X145860154Y-67538233D01*
X145860151Y-67538238D01*
X145770659Y-67730157D01*
X145765716Y-67740757D01*
X145764294Y-67746065D01*
X145764293Y-67746067D01*
X145707883Y-67956591D01*
X145706457Y-67961913D01*
X145686502Y-68190000D01*
X141313498Y-68190000D01*
X141293543Y-67961913D01*
X141292117Y-67956591D01*
X141235707Y-67746067D01*
X141235706Y-67746065D01*
X141234284Y-67740757D01*
X141229341Y-67730157D01*
X141139849Y-67538238D01*
X141139846Y-67538233D01*
X141137523Y-67533251D01*
X141006198Y-67345700D01*
X140844300Y-67183802D01*
X140839792Y-67180645D01*
X140839789Y-67180643D01*
X140733326Y-67106097D01*
X140656749Y-67052477D01*
X140651767Y-67050154D01*
X140651762Y-67050151D01*
X140454225Y-66958039D01*
X140454224Y-66958039D01*
X140449243Y-66955716D01*
X140443935Y-66954294D01*
X140443933Y-66954293D01*
X140233402Y-66897881D01*
X140233400Y-66897881D01*
X140228087Y-66896457D01*
X140000000Y-66876502D01*
X139771913Y-66896457D01*
X139766600Y-66897881D01*
X139766598Y-66897881D01*
X139556067Y-66954293D01*
X139556065Y-66954294D01*
X139550757Y-66955716D01*
X139545776Y-66958039D01*
X139545775Y-66958039D01*
X139348238Y-67050151D01*
X139348233Y-67050154D01*
X139343251Y-67052477D01*
X139266674Y-67106097D01*
X139160211Y-67180643D01*
X139160208Y-67180645D01*
X139155700Y-67183802D01*
X138993802Y-67345700D01*
X138862477Y-67533251D01*
X138860154Y-67538233D01*
X138860151Y-67538238D01*
X138770659Y-67730157D01*
X138765716Y-67740757D01*
X138764294Y-67746065D01*
X138764293Y-67746067D01*
X138707883Y-67956591D01*
X138706457Y-67961913D01*
X138686502Y-68190000D01*
X134313498Y-68190000D01*
X134293543Y-67961913D01*
X134292117Y-67956591D01*
X134235707Y-67746067D01*
X134235706Y-67746065D01*
X134234284Y-67740757D01*
X134229341Y-67730157D01*
X134139849Y-67538238D01*
X134139846Y-67538233D01*
X134137523Y-67533251D01*
X134006198Y-67345700D01*
X133844300Y-67183802D01*
X133839792Y-67180645D01*
X133839789Y-67180643D01*
X133733326Y-67106097D01*
X133656749Y-67052477D01*
X133651767Y-67050154D01*
X133651762Y-67050151D01*
X133454225Y-66958039D01*
X133454224Y-66958039D01*
X133449243Y-66955716D01*
X133443935Y-66954294D01*
X133443933Y-66954293D01*
X133233402Y-66897881D01*
X133233400Y-66897881D01*
X133228087Y-66896457D01*
X133000000Y-66876502D01*
X132771913Y-66896457D01*
X132766608Y-66897879D01*
X132766594Y-66897881D01*
X132708461Y-66913459D01*
X132637484Y-66911771D01*
X132586752Y-66880848D01*
X132393647Y-66687742D01*
X132386113Y-66679463D01*
X132382000Y-66672982D01*
X132332348Y-66626356D01*
X132329507Y-66623602D01*
X132309770Y-66603865D01*
X132306573Y-66601385D01*
X132297551Y-66593680D01*
X132284122Y-66581069D01*
X132265321Y-66563414D01*
X132258375Y-66559595D01*
X132258372Y-66559593D01*
X132247566Y-66553652D01*
X132231047Y-66542801D01*
X132230583Y-66542441D01*
X132215041Y-66530386D01*
X132207772Y-66527241D01*
X132207768Y-66527238D01*
X132174463Y-66512826D01*
X132163813Y-66507609D01*
X132125060Y-66486305D01*
X132105437Y-66481267D01*
X132086734Y-66474863D01*
X132075420Y-66469967D01*
X132075419Y-66469967D01*
X132068145Y-66466819D01*
X132060322Y-66465580D01*
X132060312Y-66465577D01*
X132024476Y-66459901D01*
X132012856Y-66457495D01*
X131977711Y-66448472D01*
X131977710Y-66448472D01*
X131970030Y-66446500D01*
X131949776Y-66446500D01*
X131930065Y-66444949D01*
X131917886Y-66443020D01*
X131910057Y-66441780D01*
X131880786Y-66444547D01*
X131866039Y-66445941D01*
X131854181Y-66446500D01*
X120218767Y-66446500D01*
X120207584Y-66445973D01*
X120200091Y-66444298D01*
X120192165Y-66444547D01*
X120192164Y-66444547D01*
X120132001Y-66446438D01*
X120128043Y-66446500D01*
X120100144Y-66446500D01*
X120096154Y-66447004D01*
X120084320Y-66447936D01*
X120040111Y-66449326D01*
X120032497Y-66451538D01*
X120032492Y-66451539D01*
X120020659Y-66454977D01*
X120001296Y-66458988D01*
X119981203Y-66461526D01*
X119973836Y-66464443D01*
X119973831Y-66464444D01*
X119940092Y-66477802D01*
X119928865Y-66481646D01*
X119886407Y-66493982D01*
X119879581Y-66498019D01*
X119868972Y-66504293D01*
X119851224Y-66512988D01*
X119832383Y-66520448D01*
X119825967Y-66525110D01*
X119825966Y-66525110D01*
X119796613Y-66546436D01*
X119786693Y-66552952D01*
X119755465Y-66571420D01*
X119755462Y-66571422D01*
X119748638Y-66575458D01*
X119734317Y-66589779D01*
X119719284Y-66602619D01*
X119702893Y-66614528D01*
X119697842Y-66620633D01*
X119697837Y-66620638D01*
X119674706Y-66648598D01*
X119666719Y-66657376D01*
X119454390Y-66869706D01*
X119392078Y-66903731D01*
X119340713Y-66904190D01*
X119308991Y-66897880D01*
X119303216Y-66897804D01*
X119303212Y-66897804D01*
X119198901Y-66896439D01*
X119100686Y-66895153D01*
X119094989Y-66896132D01*
X119094988Y-66896132D01*
X118994153Y-66913459D01*
X118895372Y-66930433D01*
X118699925Y-67002537D01*
X118520891Y-67109051D01*
X118364266Y-67246407D01*
X118360699Y-67250932D01*
X118360694Y-67250937D01*
X118282433Y-67350211D01*
X118235294Y-67410007D01*
X118138296Y-67594370D01*
X118076520Y-67793322D01*
X118052034Y-68000201D01*
X118065659Y-68208078D01*
X118116938Y-68409991D01*
X118204155Y-68599178D01*
X118324387Y-68769303D01*
X118473609Y-68914669D01*
X118478405Y-68917874D01*
X118478408Y-68917876D01*
X118548123Y-68964458D01*
X118646823Y-69030407D01*
X118652131Y-69032688D01*
X118652132Y-69032688D01*
X118832926Y-69110363D01*
X118832929Y-69110364D01*
X118838229Y-69112641D01*
X118843858Y-69113915D01*
X118843859Y-69113915D01*
X119035778Y-69157342D01*
X119035783Y-69157343D01*
X119041415Y-69158617D01*
X119047186Y-69158844D01*
X119047188Y-69158844D01*
X119109508Y-69161292D01*
X119249577Y-69166796D01*
X119352661Y-69151849D01*
X119450030Y-69137732D01*
X119450035Y-69137731D01*
X119455744Y-69136903D01*
X119461208Y-69135048D01*
X119461213Y-69135047D01*
X119647543Y-69071796D01*
X119653011Y-69069940D01*
X119834772Y-68968149D01*
X119994939Y-68834939D01*
X120128149Y-68674772D01*
X120229940Y-68493011D01*
X120256341Y-68415237D01*
X120295047Y-68301213D01*
X120295048Y-68301208D01*
X120296903Y-68295744D01*
X120297731Y-68290035D01*
X120297732Y-68290030D01*
X120326263Y-68093251D01*
X120326796Y-68089577D01*
X120328356Y-68030000D01*
X120328017Y-68026305D01*
X120313359Y-67866795D01*
X120327043Y-67797129D01*
X120349737Y-67766167D01*
X120365503Y-67750402D01*
X120427817Y-67716379D01*
X120454596Y-67713500D01*
X120484175Y-67713500D01*
X120552296Y-67733502D01*
X120598789Y-67787158D01*
X120609302Y-67854308D01*
X120592034Y-68000201D01*
X120605659Y-68208078D01*
X120656938Y-68409991D01*
X120744155Y-68599178D01*
X120864387Y-68769303D01*
X121013609Y-68914669D01*
X121018405Y-68917874D01*
X121018408Y-68917876D01*
X121088123Y-68964458D01*
X121186823Y-69030407D01*
X121192131Y-69032688D01*
X121192132Y-69032688D01*
X121372926Y-69110363D01*
X121372929Y-69110364D01*
X121378229Y-69112641D01*
X121383858Y-69113915D01*
X121383859Y-69113915D01*
X121575778Y-69157342D01*
X121575783Y-69157343D01*
X121581415Y-69158617D01*
X121587186Y-69158844D01*
X121587188Y-69158844D01*
X121649508Y-69161292D01*
X121789577Y-69166796D01*
X121885423Y-69152899D01*
X121955707Y-69162919D01*
X121992596Y-69188500D01*
X122329595Y-69525499D01*
X122363621Y-69587811D01*
X122366500Y-69614594D01*
X122366500Y-74817545D01*
X122346498Y-74885666D01*
X122292842Y-74932159D01*
X122222568Y-74942263D01*
X122193810Y-74934575D01*
X122058680Y-74880664D01*
X122053311Y-74878522D01*
X121868507Y-74841762D01*
X121854657Y-74839007D01*
X121848991Y-74837880D01*
X121843216Y-74837804D01*
X121843212Y-74837804D01*
X121738901Y-74836439D01*
X121640686Y-74835153D01*
X121634989Y-74836132D01*
X121634988Y-74836132D01*
X121441069Y-74869454D01*
X121435372Y-74870433D01*
X121239925Y-74942537D01*
X121234964Y-74945489D01*
X121234963Y-74945489D01*
X121090829Y-75031240D01*
X121060891Y-75049051D01*
X120904266Y-75186407D01*
X120900699Y-75190932D01*
X120900694Y-75190937D01*
X120801710Y-75316498D01*
X120775294Y-75350007D01*
X120772603Y-75355123D01*
X120772601Y-75355125D01*
X120691864Y-75508582D01*
X120678296Y-75534370D01*
X120616520Y-75733322D01*
X120592034Y-75940201D01*
X120605659Y-76148078D01*
X120656938Y-76349991D01*
X120744155Y-76539178D01*
X120864387Y-76709303D01*
X120868521Y-76713330D01*
X120974118Y-76816198D01*
X121013609Y-76854669D01*
X121053394Y-76881253D01*
X121098921Y-76935728D01*
X121107770Y-77006171D01*
X121072487Y-77075112D01*
X118172269Y-79975329D01*
X115293003Y-82854595D01*
X115230691Y-82888621D01*
X115203908Y-82891500D01*
X115072481Y-82891500D01*
X115004360Y-82871498D01*
X114957867Y-82817842D01*
X114947763Y-82747568D01*
X114977257Y-82682988D01*
X114983386Y-82676405D01*
X115001916Y-82657875D01*
X115008972Y-82649467D01*
X115133931Y-82471007D01*
X115139414Y-82461511D01*
X115231490Y-82264053D01*
X115235236Y-82253761D01*
X115281394Y-82081497D01*
X115281058Y-82067401D01*
X115273116Y-82064000D01*
X112732033Y-82064000D01*
X112718502Y-82067973D01*
X112717273Y-82076522D01*
X112764764Y-82253761D01*
X112768510Y-82264053D01*
X112860586Y-82461511D01*
X112866069Y-82471007D01*
X112991028Y-82649467D01*
X112998084Y-82657875D01*
X113016614Y-82676405D01*
X113050640Y-82738717D01*
X113045575Y-82809532D01*
X113003028Y-82866368D01*
X112936508Y-82891179D01*
X112927519Y-82891500D01*
X110234500Y-82891500D01*
X110166379Y-82871498D01*
X110119886Y-82817842D01*
X110108500Y-82765500D01*
X110108500Y-82749600D01*
X110104292Y-82709041D01*
X110098238Y-82650692D01*
X110098237Y-82650688D01*
X110097526Y-82643834D01*
X110093710Y-82632394D01*
X110043868Y-82483002D01*
X110041550Y-82476054D01*
X109948478Y-82325652D01*
X109823303Y-82200695D01*
X109792965Y-82181994D01*
X109678968Y-82111725D01*
X109678966Y-82111724D01*
X109672738Y-82107885D01*
X109559353Y-82070277D01*
X109511389Y-82054368D01*
X109511387Y-82054368D01*
X109504861Y-82052203D01*
X109498025Y-82051503D01*
X109498022Y-82051502D01*
X109454969Y-82047091D01*
X109400400Y-82041500D01*
X108933594Y-82041500D01*
X108865473Y-82021498D01*
X108818980Y-81967842D01*
X108808876Y-81897568D01*
X108838370Y-81832988D01*
X108844499Y-81826405D01*
X109132401Y-81538503D01*
X112718606Y-81538503D01*
X112718942Y-81552599D01*
X112726884Y-81556000D01*
X113727885Y-81556000D01*
X113743124Y-81551525D01*
X113744329Y-81550135D01*
X113746000Y-81542452D01*
X113746000Y-81537885D01*
X114254000Y-81537885D01*
X114258475Y-81553124D01*
X114259865Y-81554329D01*
X114267548Y-81556000D01*
X115267967Y-81556000D01*
X115281498Y-81552027D01*
X115282727Y-81543478D01*
X115235236Y-81366239D01*
X115231490Y-81355947D01*
X115139414Y-81158489D01*
X115133931Y-81148993D01*
X115008972Y-80970533D01*
X115001916Y-80962125D01*
X114847875Y-80808084D01*
X114839467Y-80801028D01*
X114661007Y-80676069D01*
X114651511Y-80670586D01*
X114454053Y-80578510D01*
X114443761Y-80574764D01*
X114271497Y-80528606D01*
X114257401Y-80528942D01*
X114254000Y-80536884D01*
X114254000Y-81537885D01*
X113746000Y-81537885D01*
X113746000Y-80542033D01*
X113742027Y-80528502D01*
X113733478Y-80527273D01*
X113556239Y-80574764D01*
X113545947Y-80578510D01*
X113348489Y-80670586D01*
X113338993Y-80676069D01*
X113160533Y-80801028D01*
X113152125Y-80808084D01*
X112998084Y-80962125D01*
X112991028Y-80970533D01*
X112866069Y-81148993D01*
X112860586Y-81158489D01*
X112768510Y-81355947D01*
X112764764Y-81366239D01*
X112718606Y-81538503D01*
X109132401Y-81538503D01*
X114030499Y-76640405D01*
X114092811Y-76606379D01*
X114119594Y-76603500D01*
X117940507Y-76603500D01*
X118008628Y-76623502D01*
X118055121Y-76677158D01*
X118062543Y-76698763D01*
X118063255Y-76705316D01*
X118066027Y-76712711D01*
X118066028Y-76712714D01*
X118090739Y-76778630D01*
X118114385Y-76841705D01*
X118201739Y-76958261D01*
X118318295Y-77045615D01*
X118454684Y-77096745D01*
X118516866Y-77103500D01*
X119863134Y-77103500D01*
X119925316Y-77096745D01*
X120061705Y-77045615D01*
X120178261Y-76958261D01*
X120265615Y-76841705D01*
X120316745Y-76705316D01*
X120323500Y-76643134D01*
X120323500Y-75296866D01*
X120316745Y-75234684D01*
X120265615Y-75098295D01*
X120178261Y-74981739D01*
X120061705Y-74894385D01*
X119925316Y-74843255D01*
X119863134Y-74836500D01*
X119849437Y-74836500D01*
X119781316Y-74816498D01*
X119747503Y-74784563D01*
X119723567Y-74751617D01*
X119717057Y-74741707D01*
X119698575Y-74710457D01*
X119694542Y-74703637D01*
X119680218Y-74689313D01*
X119667376Y-74674278D01*
X119655472Y-74657893D01*
X119621406Y-74629711D01*
X119612627Y-74621722D01*
X110936892Y-65945987D01*
X151418721Y-65945987D01*
X151427548Y-65957605D01*
X151650281Y-66119430D01*
X151656961Y-66123670D01*
X151926572Y-66271890D01*
X151933707Y-66275247D01*
X152219770Y-66388508D01*
X152227296Y-66390953D01*
X152525279Y-66467462D01*
X152533050Y-66468945D01*
X152838278Y-66507503D01*
X152846169Y-66508000D01*
X153153831Y-66508000D01*
X153161722Y-66507503D01*
X153466950Y-66468945D01*
X153474721Y-66467462D01*
X153772704Y-66390953D01*
X153780230Y-66388508D01*
X154066293Y-66275247D01*
X154073428Y-66271890D01*
X154343039Y-66123670D01*
X154349719Y-66119430D01*
X154572823Y-65957336D01*
X154581246Y-65946413D01*
X154574342Y-65933552D01*
X153012812Y-64372022D01*
X152998868Y-64364408D01*
X152997035Y-64364539D01*
X152990420Y-64368790D01*
X151425334Y-65933876D01*
X151418721Y-65945987D01*
X110936892Y-65945987D01*
X109670405Y-64679500D01*
X109636379Y-64617188D01*
X109633500Y-64590405D01*
X109633500Y-64409394D01*
X109653502Y-64341273D01*
X109687229Y-64306181D01*
X109839789Y-64199357D01*
X109839792Y-64199355D01*
X109844300Y-64196198D01*
X109850498Y-64190000D01*
X112686502Y-64190000D01*
X112706457Y-64418087D01*
X112707881Y-64423400D01*
X112707881Y-64423402D01*
X112729215Y-64503019D01*
X112765716Y-64639243D01*
X112768039Y-64644224D01*
X112768039Y-64644225D01*
X112860151Y-64841762D01*
X112860154Y-64841767D01*
X112862477Y-64846749D01*
X112908857Y-64912986D01*
X112976337Y-65009357D01*
X112993802Y-65034300D01*
X113155700Y-65196198D01*
X113160208Y-65199355D01*
X113160211Y-65199357D01*
X113230233Y-65248387D01*
X113343251Y-65327523D01*
X113348233Y-65329846D01*
X113348238Y-65329849D01*
X113545775Y-65421961D01*
X113550757Y-65424284D01*
X113556065Y-65425706D01*
X113556067Y-65425707D01*
X113766598Y-65482119D01*
X113766600Y-65482119D01*
X113771913Y-65483543D01*
X114000000Y-65503498D01*
X114228087Y-65483543D01*
X114233400Y-65482119D01*
X114233402Y-65482119D01*
X114443933Y-65425707D01*
X114443935Y-65425706D01*
X114449243Y-65424284D01*
X114454225Y-65421961D01*
X114651762Y-65329849D01*
X114651767Y-65329846D01*
X114656749Y-65327523D01*
X114769767Y-65248387D01*
X114839789Y-65199357D01*
X114839792Y-65199355D01*
X114844300Y-65196198D01*
X115006198Y-65034300D01*
X115023664Y-65009357D01*
X115091143Y-64912986D01*
X115137523Y-64846749D01*
X115139846Y-64841767D01*
X115139849Y-64841762D01*
X115231961Y-64644225D01*
X115231961Y-64644224D01*
X115234284Y-64639243D01*
X115270786Y-64503019D01*
X115292119Y-64423402D01*
X115292119Y-64423400D01*
X115293543Y-64418087D01*
X115313498Y-64190000D01*
X115296875Y-64000000D01*
X117876502Y-64000000D01*
X117896457Y-64228087D01*
X117897881Y-64233400D01*
X117897881Y-64233402D01*
X117949410Y-64425707D01*
X117955716Y-64449243D01*
X117958039Y-64454224D01*
X117958039Y-64454225D01*
X118050151Y-64651762D01*
X118050154Y-64651767D01*
X118052477Y-64656749D01*
X118125902Y-64761611D01*
X118179456Y-64838093D01*
X118183802Y-64844300D01*
X118345700Y-65006198D01*
X118350208Y-65009355D01*
X118350211Y-65009357D01*
X118386322Y-65034642D01*
X118533251Y-65137523D01*
X118538233Y-65139846D01*
X118538238Y-65139849D01*
X118708053Y-65219034D01*
X118740757Y-65234284D01*
X118746065Y-65235706D01*
X118746067Y-65235707D01*
X118956598Y-65292119D01*
X118956600Y-65292119D01*
X118961913Y-65293543D01*
X119190000Y-65313498D01*
X119418087Y-65293543D01*
X119423400Y-65292119D01*
X119423402Y-65292119D01*
X119633933Y-65235707D01*
X119633935Y-65235706D01*
X119639243Y-65234284D01*
X119671947Y-65219034D01*
X119841762Y-65139849D01*
X119841767Y-65139846D01*
X119846749Y-65137523D01*
X119993678Y-65034642D01*
X120029789Y-65009357D01*
X120029792Y-65009355D01*
X120034300Y-65006198D01*
X120196198Y-64844300D01*
X120200545Y-64838093D01*
X120254098Y-64761611D01*
X120327523Y-64656749D01*
X120329846Y-64651767D01*
X120329849Y-64651762D01*
X120421961Y-64454225D01*
X120421961Y-64454224D01*
X120424284Y-64449243D01*
X120430591Y-64425707D01*
X120482119Y-64233402D01*
X120482119Y-64233400D01*
X120483543Y-64228087D01*
X120503498Y-64000000D01*
X125496502Y-64000000D01*
X125516457Y-64228087D01*
X125517881Y-64233400D01*
X125517881Y-64233402D01*
X125569410Y-64425707D01*
X125575716Y-64449243D01*
X125578039Y-64454224D01*
X125578039Y-64454225D01*
X125670151Y-64651762D01*
X125670154Y-64651767D01*
X125672477Y-64656749D01*
X125745902Y-64761611D01*
X125799456Y-64838093D01*
X125803802Y-64844300D01*
X125965700Y-65006198D01*
X125970208Y-65009355D01*
X125970211Y-65009357D01*
X126006322Y-65034642D01*
X126153251Y-65137523D01*
X126158233Y-65139846D01*
X126158238Y-65139849D01*
X126328053Y-65219034D01*
X126360757Y-65234284D01*
X126366065Y-65235706D01*
X126366067Y-65235707D01*
X126576598Y-65292119D01*
X126576600Y-65292119D01*
X126581913Y-65293543D01*
X126810000Y-65313498D01*
X127038087Y-65293543D01*
X127043400Y-65292119D01*
X127043402Y-65292119D01*
X127253933Y-65235707D01*
X127253935Y-65235706D01*
X127259243Y-65234284D01*
X127291947Y-65219034D01*
X127461762Y-65139849D01*
X127461767Y-65139846D01*
X127466749Y-65137523D01*
X127613678Y-65034642D01*
X127649789Y-65009357D01*
X127649792Y-65009355D01*
X127654300Y-65006198D01*
X127816198Y-64844300D01*
X127820545Y-64838093D01*
X127874098Y-64761611D01*
X127947523Y-64656749D01*
X127949846Y-64651767D01*
X127949849Y-64651762D01*
X128041961Y-64454225D01*
X128041961Y-64454224D01*
X128044284Y-64449243D01*
X128050591Y-64425707D01*
X128102119Y-64233402D01*
X128102119Y-64233400D01*
X128103543Y-64228087D01*
X128123152Y-64003958D01*
X150487290Y-64003958D01*
X150506607Y-64310994D01*
X150507600Y-64318855D01*
X150565246Y-64621046D01*
X150567217Y-64628723D01*
X150662284Y-64921309D01*
X150665199Y-64928672D01*
X150796189Y-65207041D01*
X150800001Y-65213974D01*
X150964851Y-65473736D01*
X150969495Y-65480129D01*
X151044497Y-65570790D01*
X151057014Y-65579245D01*
X151067752Y-65573038D01*
X152627978Y-64012812D01*
X152634356Y-64001132D01*
X153364408Y-64001132D01*
X153364539Y-64002965D01*
X153368790Y-64009580D01*
X154931145Y-65571935D01*
X154944407Y-65579177D01*
X154954512Y-65571988D01*
X155030505Y-65480129D01*
X155035149Y-65473736D01*
X155199999Y-65213974D01*
X155203811Y-65207041D01*
X155334801Y-64928672D01*
X155337716Y-64921309D01*
X155432783Y-64628723D01*
X155434754Y-64621046D01*
X155492400Y-64318855D01*
X155493393Y-64310994D01*
X155512710Y-64003958D01*
X155512710Y-63996042D01*
X155493393Y-63689006D01*
X155492400Y-63681145D01*
X155434754Y-63378954D01*
X155432783Y-63371277D01*
X155337716Y-63078691D01*
X155334801Y-63071328D01*
X155203811Y-62792959D01*
X155199999Y-62786026D01*
X155035149Y-62526264D01*
X155030505Y-62519871D01*
X154955503Y-62429210D01*
X154942986Y-62420755D01*
X154932248Y-62426962D01*
X153372022Y-63987188D01*
X153364408Y-64001132D01*
X152634356Y-64001132D01*
X152635592Y-63998868D01*
X152635461Y-63997035D01*
X152631210Y-63990420D01*
X151068855Y-62428065D01*
X151055593Y-62420823D01*
X151045488Y-62428012D01*
X150969495Y-62519871D01*
X150964851Y-62526264D01*
X150800001Y-62786026D01*
X150796189Y-62792959D01*
X150665199Y-63071328D01*
X150662284Y-63078691D01*
X150567217Y-63371277D01*
X150565246Y-63378954D01*
X150507600Y-63681145D01*
X150506607Y-63689006D01*
X150487290Y-63996042D01*
X150487290Y-64003958D01*
X128123152Y-64003958D01*
X128123498Y-64000000D01*
X128103543Y-63771913D01*
X128066571Y-63633933D01*
X128045707Y-63556067D01*
X128045706Y-63556065D01*
X128044284Y-63550757D01*
X127984898Y-63423402D01*
X127949849Y-63348238D01*
X127949846Y-63348233D01*
X127947523Y-63343251D01*
X127836382Y-63184525D01*
X127819357Y-63160211D01*
X127819355Y-63160208D01*
X127816198Y-63155700D01*
X127654300Y-62993802D01*
X127649792Y-62990645D01*
X127649789Y-62990643D01*
X127514593Y-62895978D01*
X127466749Y-62862477D01*
X127461767Y-62860154D01*
X127461762Y-62860151D01*
X127264225Y-62768039D01*
X127264224Y-62768039D01*
X127259243Y-62765716D01*
X127253935Y-62764294D01*
X127253933Y-62764293D01*
X127043402Y-62707881D01*
X127043400Y-62707881D01*
X127038087Y-62706457D01*
X126810000Y-62686502D01*
X126581913Y-62706457D01*
X126576600Y-62707881D01*
X126576598Y-62707881D01*
X126366067Y-62764293D01*
X126366065Y-62764294D01*
X126360757Y-62765716D01*
X126355776Y-62768039D01*
X126355775Y-62768039D01*
X126158238Y-62860151D01*
X126158233Y-62860154D01*
X126153251Y-62862477D01*
X126105407Y-62895978D01*
X125970211Y-62990643D01*
X125970208Y-62990645D01*
X125965700Y-62993802D01*
X125803802Y-63155700D01*
X125800645Y-63160208D01*
X125800643Y-63160211D01*
X125783618Y-63184525D01*
X125672477Y-63343251D01*
X125670154Y-63348233D01*
X125670151Y-63348238D01*
X125635102Y-63423402D01*
X125575716Y-63550757D01*
X125574294Y-63556065D01*
X125574293Y-63556067D01*
X125553429Y-63633933D01*
X125516457Y-63771913D01*
X125496502Y-64000000D01*
X120503498Y-64000000D01*
X120483543Y-63771913D01*
X120446571Y-63633933D01*
X120425707Y-63556067D01*
X120425706Y-63556065D01*
X120424284Y-63550757D01*
X120364898Y-63423402D01*
X120329849Y-63348238D01*
X120329846Y-63348233D01*
X120327523Y-63343251D01*
X120216382Y-63184525D01*
X120199357Y-63160211D01*
X120199355Y-63160208D01*
X120196198Y-63155700D01*
X120034300Y-62993802D01*
X120029792Y-62990645D01*
X120029789Y-62990643D01*
X119894593Y-62895978D01*
X119846749Y-62862477D01*
X119841767Y-62860154D01*
X119841762Y-62860151D01*
X119644225Y-62768039D01*
X119644224Y-62768039D01*
X119639243Y-62765716D01*
X119633935Y-62764294D01*
X119633933Y-62764293D01*
X119423402Y-62707881D01*
X119423400Y-62707881D01*
X119418087Y-62706457D01*
X119190000Y-62686502D01*
X118961913Y-62706457D01*
X118956600Y-62707881D01*
X118956598Y-62707881D01*
X118746067Y-62764293D01*
X118746065Y-62764294D01*
X118740757Y-62765716D01*
X118735776Y-62768039D01*
X118735775Y-62768039D01*
X118538238Y-62860151D01*
X118538233Y-62860154D01*
X118533251Y-62862477D01*
X118485407Y-62895978D01*
X118350211Y-62990643D01*
X118350208Y-62990645D01*
X118345700Y-62993802D01*
X118183802Y-63155700D01*
X118180645Y-63160208D01*
X118180643Y-63160211D01*
X118163618Y-63184525D01*
X118052477Y-63343251D01*
X118050154Y-63348233D01*
X118050151Y-63348238D01*
X118015102Y-63423402D01*
X117955716Y-63550757D01*
X117954294Y-63556065D01*
X117954293Y-63556067D01*
X117933429Y-63633933D01*
X117896457Y-63771913D01*
X117876502Y-64000000D01*
X115296875Y-64000000D01*
X115293543Y-63961913D01*
X115262685Y-63846749D01*
X115235707Y-63746067D01*
X115235706Y-63746065D01*
X115234284Y-63740757D01*
X115185184Y-63635461D01*
X115139849Y-63538238D01*
X115139846Y-63538233D01*
X115137523Y-63533251D01*
X115029483Y-63378954D01*
X115009357Y-63350211D01*
X115009355Y-63350208D01*
X115006198Y-63345700D01*
X114844300Y-63183802D01*
X114839792Y-63180645D01*
X114839789Y-63180643D01*
X114694186Y-63078691D01*
X114656749Y-63052477D01*
X114651767Y-63050154D01*
X114651762Y-63050151D01*
X114454225Y-62958039D01*
X114454224Y-62958039D01*
X114449243Y-62955716D01*
X114443935Y-62954294D01*
X114443933Y-62954293D01*
X114233402Y-62897881D01*
X114233400Y-62897881D01*
X114228087Y-62896457D01*
X114000000Y-62876502D01*
X113771913Y-62896457D01*
X113766600Y-62897881D01*
X113766598Y-62897881D01*
X113556067Y-62954293D01*
X113556065Y-62954294D01*
X113550757Y-62955716D01*
X113545776Y-62958039D01*
X113545775Y-62958039D01*
X113348238Y-63050151D01*
X113348233Y-63050154D01*
X113343251Y-63052477D01*
X113305814Y-63078691D01*
X113160211Y-63180643D01*
X113160208Y-63180645D01*
X113155700Y-63183802D01*
X112993802Y-63345700D01*
X112990645Y-63350208D01*
X112990643Y-63350211D01*
X112970517Y-63378954D01*
X112862477Y-63533251D01*
X112860154Y-63538233D01*
X112860151Y-63538238D01*
X112814816Y-63635461D01*
X112765716Y-63740757D01*
X112764294Y-63746065D01*
X112764293Y-63746067D01*
X112737315Y-63846749D01*
X112706457Y-63961913D01*
X112686502Y-64190000D01*
X109850498Y-64190000D01*
X110006198Y-64034300D01*
X110032292Y-63997035D01*
X110134366Y-63851257D01*
X110137523Y-63846749D01*
X110139846Y-63841767D01*
X110139849Y-63841762D01*
X110231961Y-63644225D01*
X110231961Y-63644224D01*
X110234284Y-63639243D01*
X110236437Y-63631210D01*
X110292119Y-63423402D01*
X110292119Y-63423400D01*
X110293543Y-63418087D01*
X110313498Y-63190000D01*
X110293543Y-62961913D01*
X110274721Y-62891670D01*
X110235707Y-62746067D01*
X110235706Y-62746065D01*
X110234284Y-62740757D01*
X110218290Y-62706457D01*
X110139849Y-62538238D01*
X110139846Y-62538233D01*
X110137523Y-62533251D01*
X110006198Y-62345700D01*
X109844300Y-62183802D01*
X109839792Y-62180645D01*
X109839789Y-62180643D01*
X109761611Y-62125902D01*
X109658334Y-62053587D01*
X151418754Y-62053587D01*
X151425658Y-62066448D01*
X152987188Y-63627978D01*
X153001132Y-63635592D01*
X153002965Y-63635461D01*
X153009580Y-63631210D01*
X154574666Y-62066124D01*
X154581279Y-62054013D01*
X154572452Y-62042395D01*
X154349719Y-61880570D01*
X154343039Y-61876330D01*
X154073428Y-61728110D01*
X154066293Y-61724753D01*
X153780230Y-61611492D01*
X153772704Y-61609047D01*
X153474721Y-61532538D01*
X153466950Y-61531055D01*
X153161722Y-61492497D01*
X153153831Y-61492000D01*
X152846169Y-61492000D01*
X152838278Y-61492497D01*
X152533050Y-61531055D01*
X152525279Y-61532538D01*
X152227296Y-61609047D01*
X152219770Y-61611492D01*
X151933707Y-61724753D01*
X151926572Y-61728110D01*
X151656961Y-61876330D01*
X151650281Y-61880570D01*
X151427177Y-62042664D01*
X151418754Y-62053587D01*
X109658334Y-62053587D01*
X109656749Y-62052477D01*
X109651767Y-62050154D01*
X109651762Y-62050151D01*
X109454225Y-61958039D01*
X109454224Y-61958039D01*
X109449243Y-61955716D01*
X109443935Y-61954294D01*
X109443933Y-61954293D01*
X109233402Y-61897881D01*
X109233400Y-61897881D01*
X109228087Y-61896457D01*
X109000000Y-61876502D01*
X108771913Y-61896457D01*
X108766600Y-61897881D01*
X108766598Y-61897881D01*
X108556067Y-61954293D01*
X108556065Y-61954294D01*
X108550757Y-61955716D01*
X108545776Y-61958039D01*
X108545775Y-61958039D01*
X108348238Y-62050151D01*
X108348233Y-62050154D01*
X108343251Y-62052477D01*
X108238389Y-62125902D01*
X108160211Y-62180643D01*
X108160208Y-62180645D01*
X108155700Y-62183802D01*
X107993802Y-62345700D01*
X107862477Y-62533251D01*
X107860154Y-62538233D01*
X107860151Y-62538238D01*
X107781710Y-62706457D01*
X107765716Y-62740757D01*
X107764294Y-62746065D01*
X107764293Y-62746067D01*
X107725279Y-62891670D01*
X107706457Y-62961913D01*
X107686502Y-63190000D01*
X107706457Y-63418087D01*
X107707881Y-63423400D01*
X107707881Y-63423402D01*
X107763564Y-63631210D01*
X107765716Y-63639243D01*
X107768039Y-63644224D01*
X107768039Y-63644225D01*
X107860151Y-63841762D01*
X107860154Y-63841767D01*
X107862477Y-63846749D01*
X107865634Y-63851257D01*
X107967709Y-63997035D01*
X107993802Y-64034300D01*
X108155700Y-64196198D01*
X108160208Y-64199355D01*
X108160211Y-64199357D01*
X108312771Y-64306181D01*
X108357099Y-64361638D01*
X108366500Y-64409394D01*
X108366500Y-64826233D01*
X108365973Y-64837416D01*
X108364298Y-64844909D01*
X108364547Y-64852835D01*
X108364547Y-64852836D01*
X108366438Y-64912986D01*
X108366500Y-64916945D01*
X108366500Y-64944856D01*
X108366997Y-64948790D01*
X108366997Y-64948791D01*
X108367005Y-64948856D01*
X108367938Y-64960693D01*
X108369327Y-65004889D01*
X108374978Y-65024339D01*
X108378987Y-65043700D01*
X108381526Y-65063797D01*
X108384445Y-65071168D01*
X108384445Y-65071170D01*
X108397804Y-65104912D01*
X108401649Y-65116142D01*
X108411771Y-65150983D01*
X108413982Y-65158593D01*
X108418015Y-65165412D01*
X108418017Y-65165417D01*
X108424293Y-65176028D01*
X108432988Y-65193776D01*
X108440448Y-65212617D01*
X108445110Y-65219033D01*
X108445110Y-65219034D01*
X108466436Y-65248387D01*
X108472952Y-65258307D01*
X108495458Y-65296362D01*
X108509779Y-65310683D01*
X108522619Y-65325716D01*
X108534528Y-65342107D01*
X108540634Y-65347158D01*
X108568605Y-65370298D01*
X108577384Y-65378288D01*
X113576318Y-70377222D01*
X113610344Y-70439534D01*
X113605279Y-70510349D01*
X113562732Y-70567185D01*
X113540472Y-70580512D01*
X113525715Y-70587393D01*
X113348242Y-70670149D01*
X113348236Y-70670153D01*
X113343251Y-70672477D01*
X113238389Y-70745902D01*
X113160211Y-70800643D01*
X113160208Y-70800645D01*
X113155700Y-70803802D01*
X112993802Y-70965700D01*
X112862477Y-71153251D01*
X112860154Y-71158233D01*
X112860151Y-71158238D01*
X112813052Y-71259243D01*
X112765716Y-71360757D01*
X112764294Y-71366065D01*
X112764293Y-71366067D01*
X112737315Y-71466749D01*
X112706457Y-71581913D01*
X112686502Y-71810000D01*
X112706457Y-72038087D01*
X112707881Y-72043400D01*
X112707881Y-72043402D01*
X112729215Y-72123019D01*
X112765716Y-72259243D01*
X112768039Y-72264224D01*
X112768039Y-72264225D01*
X112860151Y-72461762D01*
X112860154Y-72461767D01*
X112862477Y-72466749D01*
X112993802Y-72654300D01*
X113155700Y-72816198D01*
X113160208Y-72819355D01*
X113160211Y-72819357D01*
X113270793Y-72896787D01*
X113315121Y-72952244D01*
X113322430Y-73022863D01*
X113290399Y-73086224D01*
X113270793Y-73103213D01*
X113160211Y-73180643D01*
X113160208Y-73180645D01*
X113155700Y-73183802D01*
X112993802Y-73345700D01*
X112862477Y-73533251D01*
X112860154Y-73538233D01*
X112860151Y-73538238D01*
X112768039Y-73735775D01*
X112765716Y-73740757D01*
X112764294Y-73746065D01*
X112764293Y-73746067D01*
X112751950Y-73792131D01*
X112706457Y-73961913D01*
X112686502Y-74190000D01*
X112706457Y-74418087D01*
X112707881Y-74423400D01*
X112707881Y-74423402D01*
X112748313Y-74574293D01*
X112765716Y-74639243D01*
X112768039Y-74644224D01*
X112768039Y-74644225D01*
X112860151Y-74841762D01*
X112860154Y-74841767D01*
X112862477Y-74846749D01*
X112928150Y-74940539D01*
X112990547Y-75029651D01*
X112993802Y-75034300D01*
X113155700Y-75196198D01*
X113160208Y-75199355D01*
X113160211Y-75199357D01*
X113339725Y-75325054D01*
X113384053Y-75380511D01*
X113391362Y-75451131D01*
X113364539Y-75508582D01*
X113339712Y-75538593D01*
X113331722Y-75547373D01*
X106801018Y-82078077D01*
X106738706Y-82112103D01*
X106674558Y-82109314D01*
X106623556Y-82093477D01*
X106542773Y-82068393D01*
X106528098Y-82066448D01*
X106319511Y-82038802D01*
X106319506Y-82038802D01*
X106314226Y-82038102D01*
X106308897Y-82038302D01*
X106308895Y-82038302D01*
X106214976Y-82041828D01*
X106083842Y-82046751D01*
X106078623Y-82047846D01*
X106051261Y-82053587D01*
X105858209Y-82094093D01*
X105853250Y-82096051D01*
X105853248Y-82096052D01*
X105648744Y-82176815D01*
X105648742Y-82176816D01*
X105643779Y-82178776D01*
X105639220Y-82181543D01*
X105639217Y-82181544D01*
X105544113Y-82239255D01*
X105446683Y-82298377D01*
X105442653Y-82301874D01*
X105295911Y-82429210D01*
X105272555Y-82449477D01*
X105250763Y-82476054D01*
X105129760Y-82623627D01*
X105129756Y-82623633D01*
X105126376Y-82627755D01*
X105123733Y-82632398D01*
X105108171Y-82659735D01*
X105057088Y-82709041D01*
X104987458Y-82722902D01*
X104921387Y-82696918D01*
X104894149Y-82667768D01*
X104815148Y-82550422D01*
X104808481Y-82542130D01*
X104656772Y-82383100D01*
X104648814Y-82376059D01*
X104472475Y-82244859D01*
X104463438Y-82239255D01*
X104267516Y-82139643D01*
X104257665Y-82135643D01*
X104047760Y-82070466D01*
X104037376Y-82068183D01*
X104021957Y-82066139D01*
X104007793Y-82068335D01*
X104004000Y-82081522D01*
X104004000Y-84966192D01*
X103496000Y-84966192D01*
X103496000Y-82083808D01*
X103492027Y-82070277D01*
X103481420Y-82068752D01*
X103363579Y-82093477D01*
X103353383Y-82096537D01*
X103148971Y-82177263D01*
X103139439Y-82181994D01*
X102951538Y-82296016D01*
X102942948Y-82302280D01*
X102776948Y-82446327D01*
X102769528Y-82453958D01*
X102630174Y-82623911D01*
X102624152Y-82632674D01*
X102608762Y-82659711D01*
X102557680Y-82709018D01*
X102488049Y-82722880D01*
X102421978Y-82696897D01*
X102394739Y-82667747D01*
X102358869Y-82614468D01*
X102312559Y-82545681D01*
X102287938Y-82519871D01*
X102201451Y-82429210D01*
X102153424Y-82378865D01*
X101968458Y-82241246D01*
X101963707Y-82238830D01*
X101963703Y-82238828D01*
X101845588Y-82178776D01*
X101762949Y-82136760D01*
X101757855Y-82135178D01*
X101757852Y-82135177D01*
X101547871Y-82069976D01*
X101542773Y-82068393D01*
X101528098Y-82066448D01*
X101319511Y-82038802D01*
X101319506Y-82038802D01*
X101314226Y-82038102D01*
X101308897Y-82038302D01*
X101308895Y-82038302D01*
X101214976Y-82041828D01*
X101083842Y-82046751D01*
X101078623Y-82047846D01*
X101051261Y-82053587D01*
X100858209Y-82094093D01*
X100853250Y-82096051D01*
X100853248Y-82096052D01*
X100648744Y-82176815D01*
X100648742Y-82176816D01*
X100643779Y-82178776D01*
X100639220Y-82181543D01*
X100639217Y-82181544D01*
X100544113Y-82239255D01*
X100446683Y-82298377D01*
X100442653Y-82301874D01*
X100295911Y-82429210D01*
X100272555Y-82449477D01*
X100250763Y-82476054D01*
X100129760Y-82623627D01*
X100129756Y-82623633D01*
X100126376Y-82627755D01*
X100123737Y-82632391D01*
X100123735Y-82632394D01*
X100087018Y-82696897D01*
X100012325Y-82828114D01*
X99933663Y-83044825D01*
X99932714Y-83050074D01*
X99932713Y-83050077D01*
X99893377Y-83267608D01*
X99893376Y-83267615D01*
X99892639Y-83271692D01*
X99891500Y-83295844D01*
X99891500Y-83707890D01*
X97508500Y-83707890D01*
X97508500Y-74425469D01*
X105587095Y-74425469D01*
X105587392Y-74430622D01*
X105587392Y-74430625D01*
X105593067Y-74529041D01*
X105600427Y-74656697D01*
X105601564Y-74661743D01*
X105601565Y-74661749D01*
X105629242Y-74784559D01*
X105651346Y-74882642D01*
X105653288Y-74887424D01*
X105653289Y-74887428D01*
X105736540Y-75092450D01*
X105738484Y-75097237D01*
X105859501Y-75294719D01*
X105862882Y-75298622D01*
X105971304Y-75423788D01*
X106000786Y-75488373D01*
X105990671Y-75558646D01*
X105944170Y-75612294D01*
X105920296Y-75624267D01*
X105864515Y-75645179D01*
X105853295Y-75649385D01*
X105736739Y-75736739D01*
X105649385Y-75853295D01*
X105598255Y-75989684D01*
X105591500Y-76051866D01*
X105591500Y-77948134D01*
X105598255Y-78010316D01*
X105649385Y-78146705D01*
X105736739Y-78263261D01*
X105853295Y-78350615D01*
X105989684Y-78401745D01*
X106051866Y-78408500D01*
X107948134Y-78408500D01*
X108010316Y-78401745D01*
X108146705Y-78350615D01*
X108263261Y-78263261D01*
X108350615Y-78146705D01*
X108401745Y-78010316D01*
X108408500Y-77948134D01*
X108408500Y-76051866D01*
X108401745Y-75989684D01*
X108350615Y-75853295D01*
X108263261Y-75736739D01*
X108146705Y-75649385D01*
X108138296Y-75646233D01*
X108138295Y-75646232D01*
X108079804Y-75624305D01*
X108023039Y-75581664D01*
X107998339Y-75515103D01*
X108013546Y-75445754D01*
X108035093Y-75417073D01*
X108072636Y-75379660D01*
X108072640Y-75379655D01*
X108076303Y-75376005D01*
X108080010Y-75370847D01*
X108105800Y-75334956D01*
X108211458Y-75187917D01*
X108258641Y-75092450D01*
X108311784Y-74984922D01*
X108311785Y-74984920D01*
X108314078Y-74980280D01*
X108381408Y-74758671D01*
X108411640Y-74529041D01*
X108411913Y-74517881D01*
X108413245Y-74463365D01*
X108413245Y-74463361D01*
X108413327Y-74460000D01*
X108407032Y-74383434D01*
X108394773Y-74234318D01*
X108394772Y-74234312D01*
X108394349Y-74229167D01*
X108337925Y-74004533D01*
X108335866Y-73999797D01*
X108247630Y-73796868D01*
X108247628Y-73796865D01*
X108245570Y-73792131D01*
X108119764Y-73597665D01*
X107963887Y-73426358D01*
X107959836Y-73423159D01*
X107959832Y-73423155D01*
X107786177Y-73286011D01*
X107786172Y-73286008D01*
X107782123Y-73282810D01*
X107777607Y-73280317D01*
X107777604Y-73280315D01*
X107583879Y-73173373D01*
X107583875Y-73173371D01*
X107579355Y-73170876D01*
X107574486Y-73169152D01*
X107574482Y-73169150D01*
X107365903Y-73095288D01*
X107365899Y-73095287D01*
X107361028Y-73093562D01*
X107355935Y-73092655D01*
X107355932Y-73092654D01*
X107138095Y-73053851D01*
X107138089Y-73053850D01*
X107133006Y-73052945D01*
X107060096Y-73052054D01*
X106906581Y-73050179D01*
X106906579Y-73050179D01*
X106901411Y-73050116D01*
X106672464Y-73085150D01*
X106452314Y-73157106D01*
X106447726Y-73159494D01*
X106447722Y-73159496D01*
X106401031Y-73183802D01*
X106246872Y-73264052D01*
X106242739Y-73267155D01*
X106242736Y-73267157D01*
X106217625Y-73286011D01*
X106061655Y-73403117D01*
X105901639Y-73570564D01*
X105898725Y-73574836D01*
X105898724Y-73574837D01*
X105883152Y-73597665D01*
X105771119Y-73761899D01*
X105673602Y-73971981D01*
X105611707Y-74195169D01*
X105587095Y-74425469D01*
X97508500Y-74425469D01*
X97508500Y-70810000D01*
X102686502Y-70810000D01*
X102706457Y-71038087D01*
X102707881Y-71043400D01*
X102707881Y-71043402D01*
X102738652Y-71158238D01*
X102765716Y-71259243D01*
X102768039Y-71264224D01*
X102768039Y-71264225D01*
X102860151Y-71461762D01*
X102860154Y-71461767D01*
X102862477Y-71466749D01*
X102993802Y-71654300D01*
X103155700Y-71816198D01*
X103160208Y-71819355D01*
X103160211Y-71819357D01*
X103238389Y-71874098D01*
X103343251Y-71947523D01*
X103348233Y-71949846D01*
X103348238Y-71949849D01*
X103525715Y-72032607D01*
X103550757Y-72044284D01*
X103556065Y-72045706D01*
X103556067Y-72045707D01*
X103766598Y-72102119D01*
X103766600Y-72102119D01*
X103771913Y-72103543D01*
X104000000Y-72123498D01*
X104228087Y-72103543D01*
X104233400Y-72102119D01*
X104233402Y-72102119D01*
X104443933Y-72045707D01*
X104443935Y-72045706D01*
X104449243Y-72044284D01*
X104474285Y-72032607D01*
X104651762Y-71949849D01*
X104651767Y-71949846D01*
X104656749Y-71947523D01*
X104761611Y-71874098D01*
X104839789Y-71819357D01*
X104839792Y-71819355D01*
X104844300Y-71816198D01*
X105006198Y-71654300D01*
X105137523Y-71466749D01*
X105139846Y-71461767D01*
X105139849Y-71461762D01*
X105231961Y-71264225D01*
X105231961Y-71264224D01*
X105234284Y-71259243D01*
X105261349Y-71158238D01*
X105292119Y-71043402D01*
X105292119Y-71043400D01*
X105293543Y-71038087D01*
X105313498Y-70810000D01*
X107686502Y-70810000D01*
X107706457Y-71038087D01*
X107707881Y-71043400D01*
X107707881Y-71043402D01*
X107738652Y-71158238D01*
X107765716Y-71259243D01*
X107768039Y-71264224D01*
X107768039Y-71264225D01*
X107860151Y-71461762D01*
X107860154Y-71461767D01*
X107862477Y-71466749D01*
X107993802Y-71654300D01*
X108155700Y-71816198D01*
X108160208Y-71819355D01*
X108160211Y-71819357D01*
X108238389Y-71874098D01*
X108343251Y-71947523D01*
X108348233Y-71949846D01*
X108348238Y-71949849D01*
X108525715Y-72032607D01*
X108550757Y-72044284D01*
X108556065Y-72045706D01*
X108556067Y-72045707D01*
X108766598Y-72102119D01*
X108766600Y-72102119D01*
X108771913Y-72103543D01*
X109000000Y-72123498D01*
X109228087Y-72103543D01*
X109233400Y-72102119D01*
X109233402Y-72102119D01*
X109443933Y-72045707D01*
X109443935Y-72045706D01*
X109449243Y-72044284D01*
X109474285Y-72032607D01*
X109651762Y-71949849D01*
X109651767Y-71949846D01*
X109656749Y-71947523D01*
X109761611Y-71874098D01*
X109839789Y-71819357D01*
X109839792Y-71819355D01*
X109844300Y-71816198D01*
X110006198Y-71654300D01*
X110137523Y-71466749D01*
X110139846Y-71461767D01*
X110139849Y-71461762D01*
X110231961Y-71264225D01*
X110231961Y-71264224D01*
X110234284Y-71259243D01*
X110261349Y-71158238D01*
X110292119Y-71043402D01*
X110292119Y-71043400D01*
X110293543Y-71038087D01*
X110313498Y-70810000D01*
X110293543Y-70581913D01*
X110279195Y-70528367D01*
X110235707Y-70366067D01*
X110235706Y-70366065D01*
X110234284Y-70360757D01*
X110231961Y-70355775D01*
X110139849Y-70158238D01*
X110139846Y-70158233D01*
X110137523Y-70153251D01*
X110006198Y-69965700D01*
X109844300Y-69803802D01*
X109839792Y-69800645D01*
X109839789Y-69800643D01*
X109761611Y-69745902D01*
X109656749Y-69672477D01*
X109651767Y-69670154D01*
X109651762Y-69670151D01*
X109454225Y-69578039D01*
X109454224Y-69578039D01*
X109449243Y-69575716D01*
X109443935Y-69574294D01*
X109443933Y-69574293D01*
X109233402Y-69517881D01*
X109233400Y-69517881D01*
X109228087Y-69516457D01*
X109000000Y-69496502D01*
X108771913Y-69516457D01*
X108766600Y-69517881D01*
X108766598Y-69517881D01*
X108556067Y-69574293D01*
X108556065Y-69574294D01*
X108550757Y-69575716D01*
X108545776Y-69578039D01*
X108545775Y-69578039D01*
X108348238Y-69670151D01*
X108348233Y-69670154D01*
X108343251Y-69672477D01*
X108238389Y-69745902D01*
X108160211Y-69800643D01*
X108160208Y-69800645D01*
X108155700Y-69803802D01*
X107993802Y-69965700D01*
X107862477Y-70153251D01*
X107860154Y-70158233D01*
X107860151Y-70158238D01*
X107768039Y-70355775D01*
X107765716Y-70360757D01*
X107764294Y-70366065D01*
X107764293Y-70366067D01*
X107720805Y-70528367D01*
X107706457Y-70581913D01*
X107686502Y-70810000D01*
X105313498Y-70810000D01*
X105293543Y-70581913D01*
X105279195Y-70528367D01*
X105235707Y-70366067D01*
X105235706Y-70366065D01*
X105234284Y-70360757D01*
X105231961Y-70355775D01*
X105139849Y-70158238D01*
X105139846Y-70158233D01*
X105137523Y-70153251D01*
X105006198Y-69965700D01*
X104844300Y-69803802D01*
X104839792Y-69800645D01*
X104839789Y-69800643D01*
X104761611Y-69745902D01*
X104656749Y-69672477D01*
X104651767Y-69670154D01*
X104651762Y-69670151D01*
X104454225Y-69578039D01*
X104454224Y-69578039D01*
X104449243Y-69575716D01*
X104443935Y-69574294D01*
X104443933Y-69574293D01*
X104233402Y-69517881D01*
X104233400Y-69517881D01*
X104228087Y-69516457D01*
X104000000Y-69496502D01*
X103771913Y-69516457D01*
X103766600Y-69517881D01*
X103766598Y-69517881D01*
X103556067Y-69574293D01*
X103556065Y-69574294D01*
X103550757Y-69575716D01*
X103545776Y-69578039D01*
X103545775Y-69578039D01*
X103348238Y-69670151D01*
X103348233Y-69670154D01*
X103343251Y-69672477D01*
X103238389Y-69745902D01*
X103160211Y-69800643D01*
X103160208Y-69800645D01*
X103155700Y-69803802D01*
X102993802Y-69965700D01*
X102862477Y-70153251D01*
X102860154Y-70158233D01*
X102860151Y-70158238D01*
X102768039Y-70355775D01*
X102765716Y-70360757D01*
X102764294Y-70366065D01*
X102764293Y-70366067D01*
X102720805Y-70528367D01*
X102706457Y-70581913D01*
X102686502Y-70810000D01*
X97508500Y-70810000D01*
X97508500Y-65945987D01*
X98418721Y-65945987D01*
X98427548Y-65957605D01*
X98650281Y-66119430D01*
X98656961Y-66123670D01*
X98926572Y-66271890D01*
X98933707Y-66275247D01*
X99219770Y-66388508D01*
X99227296Y-66390953D01*
X99525279Y-66467462D01*
X99533050Y-66468945D01*
X99838278Y-66507503D01*
X99846169Y-66508000D01*
X100153831Y-66508000D01*
X100161722Y-66507503D01*
X100466950Y-66468945D01*
X100474721Y-66467462D01*
X100772704Y-66390953D01*
X100780230Y-66388508D01*
X101066293Y-66275247D01*
X101073428Y-66271890D01*
X101343039Y-66123670D01*
X101349719Y-66119430D01*
X101572823Y-65957336D01*
X101581246Y-65946413D01*
X101574342Y-65933552D01*
X100012812Y-64372022D01*
X99998868Y-64364408D01*
X99997035Y-64364539D01*
X99990420Y-64368790D01*
X98425334Y-65933876D01*
X98418721Y-65945987D01*
X97508500Y-65945987D01*
X97508500Y-65159360D01*
X97528502Y-65091239D01*
X97582158Y-65044746D01*
X97652432Y-65034642D01*
X97717012Y-65064136D01*
X97748508Y-65105712D01*
X97796190Y-65207041D01*
X97800001Y-65213974D01*
X97964851Y-65473736D01*
X97969495Y-65480129D01*
X98044497Y-65570790D01*
X98057014Y-65579245D01*
X98067752Y-65573038D01*
X99627978Y-64012812D01*
X99634356Y-64001132D01*
X100364408Y-64001132D01*
X100364539Y-64002965D01*
X100368790Y-64009580D01*
X101931145Y-65571935D01*
X101944407Y-65579177D01*
X101954512Y-65571988D01*
X102030505Y-65480129D01*
X102035149Y-65473736D01*
X102199999Y-65213974D01*
X102203811Y-65207041D01*
X102334801Y-64928672D01*
X102337716Y-64921309D01*
X102432783Y-64628723D01*
X102434754Y-64621046D01*
X102492400Y-64318855D01*
X102493393Y-64310994D01*
X102512710Y-64003958D01*
X102512710Y-63996042D01*
X102493393Y-63689006D01*
X102492400Y-63681145D01*
X102434754Y-63378954D01*
X102432783Y-63371277D01*
X102373883Y-63190000D01*
X102686502Y-63190000D01*
X102706457Y-63418087D01*
X102707881Y-63423400D01*
X102707881Y-63423402D01*
X102763564Y-63631210D01*
X102765716Y-63639243D01*
X102768039Y-63644224D01*
X102768039Y-63644225D01*
X102860151Y-63841762D01*
X102860154Y-63841767D01*
X102862477Y-63846749D01*
X102865634Y-63851257D01*
X102967709Y-63997035D01*
X102993802Y-64034300D01*
X103155700Y-64196198D01*
X103160208Y-64199355D01*
X103160211Y-64199357D01*
X103238389Y-64254098D01*
X103343251Y-64327523D01*
X103348233Y-64329846D01*
X103348238Y-64329849D01*
X103518825Y-64409394D01*
X103550757Y-64424284D01*
X103556065Y-64425706D01*
X103556067Y-64425707D01*
X103766598Y-64482119D01*
X103766600Y-64482119D01*
X103771913Y-64483543D01*
X104000000Y-64503498D01*
X104228087Y-64483543D01*
X104233400Y-64482119D01*
X104233402Y-64482119D01*
X104443933Y-64425707D01*
X104443935Y-64425706D01*
X104449243Y-64424284D01*
X104481175Y-64409394D01*
X104651762Y-64329849D01*
X104651767Y-64329846D01*
X104656749Y-64327523D01*
X104761611Y-64254098D01*
X104839789Y-64199357D01*
X104839792Y-64199355D01*
X104844300Y-64196198D01*
X105006198Y-64034300D01*
X105032292Y-63997035D01*
X105134366Y-63851257D01*
X105137523Y-63846749D01*
X105139846Y-63841767D01*
X105139849Y-63841762D01*
X105231961Y-63644225D01*
X105231961Y-63644224D01*
X105234284Y-63639243D01*
X105236437Y-63631210D01*
X105292119Y-63423402D01*
X105292119Y-63423400D01*
X105293543Y-63418087D01*
X105313498Y-63190000D01*
X105293543Y-62961913D01*
X105274721Y-62891670D01*
X105235707Y-62746067D01*
X105235706Y-62746065D01*
X105234284Y-62740757D01*
X105218290Y-62706457D01*
X105139849Y-62538238D01*
X105139846Y-62538233D01*
X105137523Y-62533251D01*
X105006198Y-62345700D01*
X104844300Y-62183802D01*
X104839792Y-62180645D01*
X104839789Y-62180643D01*
X104761611Y-62125902D01*
X104656749Y-62052477D01*
X104651767Y-62050154D01*
X104651762Y-62050151D01*
X104454225Y-61958039D01*
X104454224Y-61958039D01*
X104449243Y-61955716D01*
X104443935Y-61954294D01*
X104443933Y-61954293D01*
X104233402Y-61897881D01*
X104233400Y-61897881D01*
X104228087Y-61896457D01*
X104000000Y-61876502D01*
X103771913Y-61896457D01*
X103766600Y-61897881D01*
X103766598Y-61897881D01*
X103556067Y-61954293D01*
X103556065Y-61954294D01*
X103550757Y-61955716D01*
X103545776Y-61958039D01*
X103545775Y-61958039D01*
X103348238Y-62050151D01*
X103348233Y-62050154D01*
X103343251Y-62052477D01*
X103238389Y-62125902D01*
X103160211Y-62180643D01*
X103160208Y-62180645D01*
X103155700Y-62183802D01*
X102993802Y-62345700D01*
X102862477Y-62533251D01*
X102860154Y-62538233D01*
X102860151Y-62538238D01*
X102781710Y-62706457D01*
X102765716Y-62740757D01*
X102764294Y-62746065D01*
X102764293Y-62746067D01*
X102725279Y-62891670D01*
X102706457Y-62961913D01*
X102686502Y-63190000D01*
X102373883Y-63190000D01*
X102337716Y-63078691D01*
X102334801Y-63071328D01*
X102203811Y-62792959D01*
X102199999Y-62786026D01*
X102035149Y-62526264D01*
X102030505Y-62519871D01*
X101955503Y-62429210D01*
X101942986Y-62420755D01*
X101932248Y-62426962D01*
X100372022Y-63987188D01*
X100364408Y-64001132D01*
X99634356Y-64001132D01*
X99635592Y-63998868D01*
X99635461Y-63997035D01*
X99631210Y-63990420D01*
X98068855Y-62428065D01*
X98055593Y-62420823D01*
X98045488Y-62428012D01*
X97969495Y-62519871D01*
X97964851Y-62526264D01*
X97800001Y-62786026D01*
X97796190Y-62792959D01*
X97748508Y-62894288D01*
X97701406Y-62947409D01*
X97633061Y-62966632D01*
X97565173Y-62945853D01*
X97519296Y-62891670D01*
X97508500Y-62840640D01*
X97508500Y-62053587D01*
X98418754Y-62053587D01*
X98425658Y-62066448D01*
X99987188Y-63627978D01*
X100001132Y-63635592D01*
X100002965Y-63635461D01*
X100009580Y-63631210D01*
X101574666Y-62066124D01*
X101581279Y-62054013D01*
X101572452Y-62042395D01*
X101349719Y-61880570D01*
X101343039Y-61876330D01*
X101073428Y-61728110D01*
X101066293Y-61724753D01*
X100780230Y-61611492D01*
X100772704Y-61609047D01*
X100474721Y-61532538D01*
X100466950Y-61531055D01*
X100161722Y-61492497D01*
X100153831Y-61492000D01*
X99846169Y-61492000D01*
X99838278Y-61492497D01*
X99533050Y-61531055D01*
X99525279Y-61532538D01*
X99227296Y-61609047D01*
X99219770Y-61611492D01*
X98933707Y-61724753D01*
X98926572Y-61728110D01*
X98656961Y-61876330D01*
X98650281Y-61880570D01*
X98427177Y-62042664D01*
X98418754Y-62053587D01*
X97508500Y-62053587D01*
X97508500Y-60634500D01*
X97528502Y-60566379D01*
X97582158Y-60519886D01*
X97634500Y-60508500D01*
X157365500Y-60508500D01*
X157433621Y-60528502D01*
G37*
%TD.AperFunction*%
%TD*%
M02*
