%TF.GenerationSoftware,KiCad,Pcbnew,(6.0.4)*%
%TF.CreationDate,2022-04-19T13:08:17+02:00*%
%TF.ProjectId,Electric_holding_magnet,456c6563-7472-4696-935f-686f6c64696e,rev?*%
%TF.SameCoordinates,Original*%
%TF.FileFunction,Legend,Top*%
%TF.FilePolarity,Positive*%
%FSLAX46Y46*%
G04 Gerber Fmt 4.6, Leading zero omitted, Abs format (unit mm)*
G04 Created by KiCad (PCBNEW (6.0.4)) date 2022-04-19 13:08:17*
%MOMM*%
%LPD*%
G01*
G04 APERTURE LIST*
%ADD10C,0.150000*%
%ADD11C,0.120000*%
G04 APERTURE END LIST*
D10*
X112732719Y-102466661D02*
X113066053Y-103466661D01*
X113399386Y-102466661D01*
X114304148Y-103371423D02*
X114256529Y-103419042D01*
X114113672Y-103466661D01*
X114018433Y-103466661D01*
X113875576Y-103419042D01*
X113780338Y-103323804D01*
X113732719Y-103228566D01*
X113685100Y-103038090D01*
X113685100Y-102895233D01*
X113732719Y-102704757D01*
X113780338Y-102609519D01*
X113875576Y-102514281D01*
X114018433Y-102466661D01*
X114113672Y-102466661D01*
X114256529Y-102514281D01*
X114304148Y-102561900D01*
X115304148Y-103371423D02*
X115256529Y-103419042D01*
X115113672Y-103466661D01*
X115018433Y-103466661D01*
X114875576Y-103419042D01*
X114780338Y-103323804D01*
X114732719Y-103228566D01*
X114685100Y-103038090D01*
X114685100Y-102895233D01*
X114732719Y-102704757D01*
X114780338Y-102609519D01*
X114875576Y-102514281D01*
X115018433Y-102466661D01*
X115113672Y-102466661D01*
X115256529Y-102514281D01*
X115304148Y-102561900D01*
X118511498Y-102519485D02*
X118416260Y-102471865D01*
X118273403Y-102471865D01*
X118130545Y-102519485D01*
X118035307Y-102614723D01*
X117987688Y-102709961D01*
X117940069Y-102900437D01*
X117940069Y-103043294D01*
X117987688Y-103233770D01*
X118035307Y-103329008D01*
X118130545Y-103424246D01*
X118273403Y-103471865D01*
X118368641Y-103471865D01*
X118511498Y-103424246D01*
X118559117Y-103376627D01*
X118559117Y-103043294D01*
X118368641Y-103043294D01*
X118987688Y-103471865D02*
X118987688Y-102471865D01*
X119559117Y-103471865D01*
X119559117Y-102471865D01*
X120035307Y-103471865D02*
X120035307Y-102471865D01*
X120273403Y-102471865D01*
X120416260Y-102519485D01*
X120511498Y-102614723D01*
X120559117Y-102709961D01*
X120606736Y-102900437D01*
X120606736Y-103043294D01*
X120559117Y-103233770D01*
X120511498Y-103329008D01*
X120416260Y-103424246D01*
X120273403Y-103471865D01*
X120035307Y-103471865D01*
X116486690Y-103356651D02*
X116629547Y-103404270D01*
X116867643Y-103404270D01*
X116962881Y-103356651D01*
X117010500Y-103309032D01*
X117058119Y-103213794D01*
X117058119Y-103118556D01*
X117010500Y-103023318D01*
X116962881Y-102975699D01*
X116867643Y-102928080D01*
X116677166Y-102880461D01*
X116581928Y-102832842D01*
X116534309Y-102785223D01*
X116486690Y-102689985D01*
X116486690Y-102594747D01*
X116534309Y-102499509D01*
X116581928Y-102451890D01*
X116677166Y-102404270D01*
X116915262Y-102404270D01*
X117058119Y-102451890D01*
%TO.C,Q1*%
X138727619Y-97885238D02*
X138680000Y-97980476D01*
X138584761Y-98075714D01*
X138441904Y-98218571D01*
X138394285Y-98313809D01*
X138394285Y-98409047D01*
X138632380Y-98361428D02*
X138584761Y-98456666D01*
X138489523Y-98551904D01*
X138299047Y-98599523D01*
X137965714Y-98599523D01*
X137775238Y-98551904D01*
X137680000Y-98456666D01*
X137632380Y-98361428D01*
X137632380Y-98170952D01*
X137680000Y-98075714D01*
X137775238Y-97980476D01*
X137965714Y-97932857D01*
X138299047Y-97932857D01*
X138489523Y-97980476D01*
X138584761Y-98075714D01*
X138632380Y-98170952D01*
X138632380Y-98361428D01*
X138632380Y-96980476D02*
X138632380Y-97551904D01*
X138632380Y-97266190D02*
X137632380Y-97266190D01*
X137775238Y-97361428D01*
X137870476Y-97456666D01*
X137918095Y-97551904D01*
%TO.C,L1*%
X132742380Y-91606666D02*
X132742380Y-92082857D01*
X131742380Y-92082857D01*
X132742380Y-90749523D02*
X132742380Y-91320952D01*
X132742380Y-91035238D02*
X131742380Y-91035238D01*
X131885238Y-91130476D01*
X131980476Y-91225714D01*
X132028095Y-91320952D01*
%TO.C,SW1*%
X112966666Y-96714761D02*
X113109523Y-96762380D01*
X113347619Y-96762380D01*
X113442857Y-96714761D01*
X113490476Y-96667142D01*
X113538095Y-96571904D01*
X113538095Y-96476666D01*
X113490476Y-96381428D01*
X113442857Y-96333809D01*
X113347619Y-96286190D01*
X113157142Y-96238571D01*
X113061904Y-96190952D01*
X113014285Y-96143333D01*
X112966666Y-96048095D01*
X112966666Y-95952857D01*
X113014285Y-95857619D01*
X113061904Y-95810000D01*
X113157142Y-95762380D01*
X113395238Y-95762380D01*
X113538095Y-95810000D01*
X113871428Y-95762380D02*
X114109523Y-96762380D01*
X114300000Y-96048095D01*
X114490476Y-96762380D01*
X114728571Y-95762380D01*
X115633333Y-96762380D02*
X115061904Y-96762380D01*
X115347619Y-96762380D02*
X115347619Y-95762380D01*
X115252380Y-95905238D01*
X115157142Y-96000476D01*
X115061904Y-96048095D01*
%TO.C,R1*%
X123023333Y-94602380D02*
X122690000Y-94126190D01*
X122451904Y-94602380D02*
X122451904Y-93602380D01*
X122832857Y-93602380D01*
X122928095Y-93650000D01*
X122975714Y-93697619D01*
X123023333Y-93792857D01*
X123023333Y-93935714D01*
X122975714Y-94030952D01*
X122928095Y-94078571D01*
X122832857Y-94126190D01*
X122451904Y-94126190D01*
X123975714Y-94602380D02*
X123404285Y-94602380D01*
X123690000Y-94602380D02*
X123690000Y-93602380D01*
X123594761Y-93745238D01*
X123499523Y-93840476D01*
X123404285Y-93888095D01*
%TO.C,R2*%
X123023333Y-89522380D02*
X122690000Y-89046190D01*
X122451904Y-89522380D02*
X122451904Y-88522380D01*
X122832857Y-88522380D01*
X122928095Y-88570000D01*
X122975714Y-88617619D01*
X123023333Y-88712857D01*
X123023333Y-88855714D01*
X122975714Y-88950952D01*
X122928095Y-88998571D01*
X122832857Y-89046190D01*
X122451904Y-89046190D01*
X123404285Y-88617619D02*
X123451904Y-88570000D01*
X123547142Y-88522380D01*
X123785238Y-88522380D01*
X123880476Y-88570000D01*
X123928095Y-88617619D01*
X123975714Y-88712857D01*
X123975714Y-88808095D01*
X123928095Y-88950952D01*
X123356666Y-89522380D01*
X123975714Y-89522380D01*
%TO.C,Q2*%
X146347619Y-97885238D02*
X146300000Y-97980476D01*
X146204761Y-98075714D01*
X146061904Y-98218571D01*
X146014285Y-98313809D01*
X146014285Y-98409047D01*
X146252380Y-98361428D02*
X146204761Y-98456666D01*
X146109523Y-98551904D01*
X145919047Y-98599523D01*
X145585714Y-98599523D01*
X145395238Y-98551904D01*
X145300000Y-98456666D01*
X145252380Y-98361428D01*
X145252380Y-98170952D01*
X145300000Y-98075714D01*
X145395238Y-97980476D01*
X145585714Y-97932857D01*
X145919047Y-97932857D01*
X146109523Y-97980476D01*
X146204761Y-98075714D01*
X146252380Y-98170952D01*
X146252380Y-98361428D01*
X145347619Y-97551904D02*
X145300000Y-97504285D01*
X145252380Y-97409047D01*
X145252380Y-97170952D01*
X145300000Y-97075714D01*
X145347619Y-97028095D01*
X145442857Y-96980476D01*
X145538095Y-96980476D01*
X145680952Y-97028095D01*
X146252380Y-97599523D01*
X146252380Y-96980476D01*
D11*
%TO.C,J1*%
X120603403Y-99120892D02*
X120603403Y-100450892D01*
X118003403Y-101780892D02*
X112863403Y-101780892D01*
X118003403Y-99120892D02*
X112863403Y-99120892D01*
X119273403Y-99120892D02*
X120603403Y-99120892D01*
X112863403Y-99120892D02*
X112863403Y-101780892D01*
X118003403Y-99120892D02*
X118003403Y-101780892D01*
%TO.C,Q1*%
X132770000Y-95990000D02*
X132770000Y-99590000D01*
X132781522Y-99628478D02*
G75*
G03*
X137220000Y-97790000I1838478J1838478D01*
G01*
X137220001Y-97790000D02*
G75*
G03*
X132781522Y-95951522I-2600001J0D01*
G01*
%TO.C,L1*%
X138490000Y-92770000D02*
X138490000Y-90110000D01*
X135890000Y-92770000D02*
X138490000Y-92770000D01*
X135890000Y-90110000D02*
X138490000Y-90110000D01*
X135890000Y-92770000D02*
X135890000Y-90110000D01*
X134620000Y-92770000D02*
X133290000Y-92770000D01*
X133290000Y-92770000D02*
X133290000Y-91440000D01*
%TO.C,SW1*%
X115630000Y-93980000D02*
X115630000Y-95310000D01*
X112970000Y-92710000D02*
X112970000Y-90110000D01*
X115630000Y-92710000D02*
X112970000Y-92710000D01*
X115630000Y-95310000D02*
X114300000Y-95310000D01*
X115630000Y-90110000D02*
X112970000Y-90110000D01*
X115630000Y-92710000D02*
X115630000Y-90110000D01*
%TO.C,R1*%
X126460000Y-95150000D02*
X126460000Y-95480000D01*
X119920000Y-97890000D02*
X126460000Y-97890000D01*
X119920000Y-95480000D02*
X119920000Y-95150000D01*
X119920000Y-97560000D02*
X119920000Y-97890000D01*
X119920000Y-95150000D02*
X126460000Y-95150000D01*
X126460000Y-97890000D02*
X126460000Y-97560000D01*
%TO.C,R2*%
X119920000Y-90070000D02*
X126460000Y-90070000D01*
X119920000Y-92810000D02*
X126460000Y-92810000D01*
X119920000Y-92480000D02*
X119920000Y-92810000D01*
X126460000Y-92810000D02*
X126460000Y-92480000D01*
X119920000Y-90400000D02*
X119920000Y-90070000D01*
X126460000Y-90070000D02*
X126460000Y-90400000D01*
%TO.C,Q2*%
X140390000Y-95990000D02*
X140390000Y-99590000D01*
X144840001Y-97790000D02*
G75*
G03*
X140401522Y-95951522I-2600001J0D01*
G01*
X140401522Y-99628478D02*
G75*
G03*
X144840000Y-97790000I1838478J1838478D01*
G01*
%TD*%
M02*
