<?xml version="1.0" encoding="UTF-8" standalone="no"?>
<!-- Created with Inkscape (http://www.inkscape.org/) -->

<svg
   width="210mm"
   height="297mm"
   viewBox="0 0 210 297"
   version="1.1"
   id="svg5"
   inkscape:version="1.2.2 (732a01da63, 2022-12-09)"
   sodipodi:docname="haken.svg"
   xmlns:inkscape="http://www.inkscape.org/namespaces/inkscape"
   xmlns:sodipodi="http://sodipodi.sourceforge.net/DTD/sodipodi-0.dtd"
   xmlns="http://www.w3.org/2000/svg"
   xmlns:svg="http://www.w3.org/2000/svg">
  <sodipodi:namedview
     id="namedview7"
     pagecolor="#ffffff"
     bordercolor="#666666"
     borderopacity="1.0"
     inkscape:showpageshadow="2"
     inkscape:pageopacity="0.0"
     inkscape:pagecheckerboard="0"
     inkscape:deskcolor="#d1d1d1"
     inkscape:document-units="mm"
     showgrid="false"
     inkscape:zoom="2.9825758"
     inkscape:cx="-58.003556"
     inkscape:cy="1047.4168"
     inkscape:window-width="1920"
     inkscape:window-height="1017"
     inkscape:window-x="-8"
     inkscape:window-y="-8"
     inkscape:window-maximized="1"
     inkscape:current-layer="layer1" />
  <defs
     id="defs2" />
  <g
     inkscape:label="Ebene 1"
     inkscape:groupmode="layer"
     id="layer1">
    <path
       style="fill:none;stroke:#000000;stroke-width:0.264583px;stroke-linecap:butt;stroke-linejoin:miter;stroke-opacity:1"
       d="m 19.142046,251.45179 5.769822,4.67856 c 0,0 3.864773,4.24143 6.028118,10.21855 1.755168,4.84937 1.440263,10.4954 -1.135394,15.10649 -2.049468,3.66908 -5.400395,6.92375 -9.283628,8.5309 -3.712621,1.53655 -5.724868,1.87848 -9.559753,0.67924 -3.7038771,-1.15827 -7.2994591,-3.69028 -9.2836291,-7.02545 -1.42724798,-2.39904 -1.67386092,-8.06479 -1.26630433,-8.25255 1.53871533,-0.70887 3.22807593,2.84201 5.35879593,4.30259 1.61636,1.10799 4.2525375,4.29275 6.1212825,4.88272 2.881173,0.90959 3.360124,0.94786 5.930492,0.16851 2.401139,-0.72805 5.284949,-5.08503 6.46275,-7.3005 1.572363,-2.95765 1.041704,-6.73052 0.501817,-10.03635 -0.738472,-4.52181 -5.018178,-7.38507 -5.018178,-7.38507 l -10.3124791,-0.0735 -0.250909,-8.65636 c 5.9666001,0.0654 4.5846771,0.1622 9.9371971,0.1622 z"
       id="path348"
       sodipodi:nodetypes="ccsssssscsssscccc" />
  </g>
</svg>
