%TF.GenerationSoftware,KiCad,Pcbnew,(6.0.4)*%
%TF.CreationDate,2022-10-02T23:39:58+02:00*%
%TF.ProjectId,Magnet_v2,4d61676e-6574-45f7-9632-2e6b69636164,rev?*%
%TF.SameCoordinates,Original*%
%TF.FileFunction,Legend,Top*%
%TF.FilePolarity,Positive*%
%FSLAX46Y46*%
G04 Gerber Fmt 4.6, Leading zero omitted, Abs format (unit mm)*
G04 Created by KiCad (PCBNEW (6.0.4)) date 2022-10-02 23:39:58*
%MOMM*%
%LPD*%
G01*
G04 APERTURE LIST*
%ADD10C,0.150000*%
%ADD11C,0.120000*%
G04 APERTURE END LIST*
D10*
X140404761Y-122976190D02*
X140452380Y-122833333D01*
X140452380Y-122595238D01*
X140404761Y-122500000D01*
X140357142Y-122452380D01*
X140261904Y-122404761D01*
X140166666Y-122404761D01*
X140071428Y-122452380D01*
X140023809Y-122500000D01*
X139976190Y-122595238D01*
X139928571Y-122785714D01*
X139880952Y-122880952D01*
X139833333Y-122928571D01*
X139738095Y-122976190D01*
X139642857Y-122976190D01*
X139547619Y-122928571D01*
X139500000Y-122880952D01*
X139452380Y-122785714D01*
X139452380Y-122547619D01*
X139500000Y-122404761D01*
X140452380Y-121976190D02*
X139785714Y-121976190D01*
X139452380Y-121976190D02*
X139500000Y-122023809D01*
X139547619Y-121976190D01*
X139500000Y-121928571D01*
X139452380Y-121976190D01*
X139547619Y-121976190D01*
X139785714Y-121071428D02*
X140595238Y-121071428D01*
X140690476Y-121119047D01*
X140738095Y-121166666D01*
X140785714Y-121261904D01*
X140785714Y-121404761D01*
X140738095Y-121500000D01*
X140404761Y-121071428D02*
X140452380Y-121166666D01*
X140452380Y-121357142D01*
X140404761Y-121452380D01*
X140357142Y-121500000D01*
X140261904Y-121547619D01*
X139976190Y-121547619D01*
X139880952Y-121500000D01*
X139833333Y-121452380D01*
X139785714Y-121357142D01*
X139785714Y-121166666D01*
X139833333Y-121071428D01*
X136452380Y-123333333D02*
X137452380Y-123000000D01*
X136452380Y-122666666D01*
X137357142Y-121761904D02*
X137404761Y-121809523D01*
X137452380Y-121952380D01*
X137452380Y-122047619D01*
X137404761Y-122190476D01*
X137309523Y-122285714D01*
X137214285Y-122333333D01*
X137023809Y-122380952D01*
X136880952Y-122380952D01*
X136690476Y-122333333D01*
X136595238Y-122285714D01*
X136500000Y-122190476D01*
X136452380Y-122047619D01*
X136452380Y-121952380D01*
X136500000Y-121809523D01*
X136547619Y-121761904D01*
X137357142Y-120761904D02*
X137404761Y-120809523D01*
X137452380Y-120952380D01*
X137452380Y-121047619D01*
X137404761Y-121190476D01*
X137309523Y-121285714D01*
X137214285Y-121333333D01*
X137023809Y-121380952D01*
X136880952Y-121380952D01*
X136690476Y-121333333D01*
X136595238Y-121285714D01*
X136500000Y-121190476D01*
X136452380Y-121047619D01*
X136452380Y-120952380D01*
X136500000Y-120809523D01*
X136547619Y-120761904D01*
X142500000Y-122761904D02*
X142452380Y-122857142D01*
X142452380Y-123000000D01*
X142500000Y-123142857D01*
X142595238Y-123238095D01*
X142690476Y-123285714D01*
X142880952Y-123333333D01*
X143023809Y-123333333D01*
X143214285Y-123285714D01*
X143309523Y-123238095D01*
X143404761Y-123142857D01*
X143452380Y-123000000D01*
X143452380Y-122904761D01*
X143404761Y-122761904D01*
X143357142Y-122714285D01*
X143023809Y-122714285D01*
X143023809Y-122904761D01*
X143452380Y-122285714D02*
X142452380Y-122285714D01*
X143452380Y-121714285D01*
X142452380Y-121714285D01*
X143452380Y-121238095D02*
X142452380Y-121238095D01*
X142452380Y-121000000D01*
X142500000Y-120857142D01*
X142595238Y-120761904D01*
X142690476Y-120714285D01*
X142880952Y-120666666D01*
X143023809Y-120666666D01*
X143214285Y-120714285D01*
X143309523Y-120761904D01*
X143404761Y-120857142D01*
X143452380Y-121000000D01*
X143452380Y-121238095D01*
%TO.C,R2*%
X142143333Y-101082380D02*
X141810000Y-100606190D01*
X141571904Y-101082380D02*
X141571904Y-100082380D01*
X141952857Y-100082380D01*
X142048095Y-100130000D01*
X142095714Y-100177619D01*
X142143333Y-100272857D01*
X142143333Y-100415714D01*
X142095714Y-100510952D01*
X142048095Y-100558571D01*
X141952857Y-100606190D01*
X141571904Y-100606190D01*
X142524285Y-100177619D02*
X142571904Y-100130000D01*
X142667142Y-100082380D01*
X142905238Y-100082380D01*
X143000476Y-100130000D01*
X143048095Y-100177619D01*
X143095714Y-100272857D01*
X143095714Y-100368095D01*
X143048095Y-100510952D01*
X142476666Y-101082380D01*
X143095714Y-101082380D01*
%TO.C,R1*%
X134822380Y-106976666D02*
X134346190Y-107310000D01*
X134822380Y-107548095D02*
X133822380Y-107548095D01*
X133822380Y-107167142D01*
X133870000Y-107071904D01*
X133917619Y-107024285D01*
X134012857Y-106976666D01*
X134155714Y-106976666D01*
X134250952Y-107024285D01*
X134298571Y-107071904D01*
X134346190Y-107167142D01*
X134346190Y-107548095D01*
X134822380Y-106024285D02*
X134822380Y-106595714D01*
X134822380Y-106310000D02*
X133822380Y-106310000D01*
X133965238Y-106405238D01*
X134060476Y-106500476D01*
X134108095Y-106595714D01*
%TO.C,J1*%
X134157380Y-119308333D02*
X134871666Y-119308333D01*
X135014523Y-119355952D01*
X135109761Y-119451190D01*
X135157380Y-119594047D01*
X135157380Y-119689285D01*
X135157380Y-118308333D02*
X135157380Y-118879761D01*
X135157380Y-118594047D02*
X134157380Y-118594047D01*
X134300238Y-118689285D01*
X134395476Y-118784523D01*
X134443095Y-118879761D01*
%TO.C,10mH1*%
X145682380Y-115857142D02*
X145682380Y-116428571D01*
X145682380Y-116142857D02*
X144682380Y-116142857D01*
X144825238Y-116238095D01*
X144920476Y-116333333D01*
X144968095Y-116428571D01*
X144682380Y-115238095D02*
X144682380Y-115142857D01*
X144730000Y-115047619D01*
X144777619Y-115000000D01*
X144872857Y-114952380D01*
X145063333Y-114904761D01*
X145301428Y-114904761D01*
X145491904Y-114952380D01*
X145587142Y-115000000D01*
X145634761Y-115047619D01*
X145682380Y-115142857D01*
X145682380Y-115238095D01*
X145634761Y-115333333D01*
X145587142Y-115380952D01*
X145491904Y-115428571D01*
X145301428Y-115476190D01*
X145063333Y-115476190D01*
X144872857Y-115428571D01*
X144777619Y-115380952D01*
X144730000Y-115333333D01*
X144682380Y-115238095D01*
X145682380Y-114476190D02*
X145015714Y-114476190D01*
X145110952Y-114476190D02*
X145063333Y-114428571D01*
X145015714Y-114333333D01*
X145015714Y-114190476D01*
X145063333Y-114095238D01*
X145158571Y-114047619D01*
X145682380Y-114047619D01*
X145158571Y-114047619D02*
X145063333Y-114000000D01*
X145015714Y-113904761D01*
X145015714Y-113761904D01*
X145063333Y-113666666D01*
X145158571Y-113619047D01*
X145682380Y-113619047D01*
X145682380Y-113142857D02*
X144682380Y-113142857D01*
X145158571Y-113142857D02*
X145158571Y-112571428D01*
X145682380Y-112571428D02*
X144682380Y-112571428D01*
X145682380Y-111571428D02*
X145682380Y-112142857D01*
X145682380Y-111857142D02*
X144682380Y-111857142D01*
X144825238Y-111952380D01*
X144920476Y-112047619D01*
X144968095Y-112142857D01*
%TO.C,D1*%
X143341904Y-95032380D02*
X143341904Y-94032380D01*
X143580000Y-94032380D01*
X143722857Y-94080000D01*
X143818095Y-94175238D01*
X143865714Y-94270476D01*
X143913333Y-94460952D01*
X143913333Y-94603809D01*
X143865714Y-94794285D01*
X143818095Y-94889523D01*
X143722857Y-94984761D01*
X143580000Y-95032380D01*
X143341904Y-95032380D01*
X144865714Y-95032380D02*
X144294285Y-95032380D01*
X144580000Y-95032380D02*
X144580000Y-94032380D01*
X144484761Y-94175238D01*
X144389523Y-94270476D01*
X144294285Y-94318095D01*
X138738095Y-95452380D02*
X138738095Y-94452380D01*
X139309523Y-95452380D02*
X138880952Y-94880952D01*
X139309523Y-94452380D02*
X138738095Y-95023809D01*
%TO.C,Q1*%
X148904761Y-111547619D02*
X148809523Y-111500000D01*
X148714285Y-111404761D01*
X148571428Y-111261904D01*
X148476190Y-111214285D01*
X148380952Y-111214285D01*
X148428571Y-111452380D02*
X148333333Y-111404761D01*
X148238095Y-111309523D01*
X148190476Y-111119047D01*
X148190476Y-110785714D01*
X148238095Y-110595238D01*
X148333333Y-110500000D01*
X148428571Y-110452380D01*
X148619047Y-110452380D01*
X148714285Y-110500000D01*
X148809523Y-110595238D01*
X148857142Y-110785714D01*
X148857142Y-111119047D01*
X148809523Y-111309523D01*
X148714285Y-111404761D01*
X148619047Y-111452380D01*
X148428571Y-111452380D01*
X149809523Y-111452380D02*
X149238095Y-111452380D01*
X149523809Y-111452380D02*
X149523809Y-110452380D01*
X149428571Y-110595238D01*
X149333333Y-110690476D01*
X149238095Y-110738095D01*
%TO.C,H2*%
X148238095Y-116952380D02*
X148238095Y-115952380D01*
X148238095Y-116428571D02*
X148809523Y-116428571D01*
X148809523Y-116952380D02*
X148809523Y-115952380D01*
X149238095Y-116047619D02*
X149285714Y-116000000D01*
X149380952Y-115952380D01*
X149619047Y-115952380D01*
X149714285Y-116000000D01*
X149761904Y-116047619D01*
X149809523Y-116142857D01*
X149809523Y-116238095D01*
X149761904Y-116380952D01*
X149190476Y-116952380D01*
X149809523Y-116952380D01*
%TO.C,SW1*%
X135174761Y-98333333D02*
X135222380Y-98190476D01*
X135222380Y-97952380D01*
X135174761Y-97857142D01*
X135127142Y-97809523D01*
X135031904Y-97761904D01*
X134936666Y-97761904D01*
X134841428Y-97809523D01*
X134793809Y-97857142D01*
X134746190Y-97952380D01*
X134698571Y-98142857D01*
X134650952Y-98238095D01*
X134603333Y-98285714D01*
X134508095Y-98333333D01*
X134412857Y-98333333D01*
X134317619Y-98285714D01*
X134270000Y-98238095D01*
X134222380Y-98142857D01*
X134222380Y-97904761D01*
X134270000Y-97761904D01*
X134222380Y-97428571D02*
X135222380Y-97190476D01*
X134508095Y-97000000D01*
X135222380Y-96809523D01*
X134222380Y-96571428D01*
X135222380Y-95666666D02*
X135222380Y-96238095D01*
X135222380Y-95952380D02*
X134222380Y-95952380D01*
X134365238Y-96047619D01*
X134460476Y-96142857D01*
X134508095Y-96238095D01*
%TO.C,H1*%
X130238095Y-116952380D02*
X130238095Y-115952380D01*
X130238095Y-116428571D02*
X130809523Y-116428571D01*
X130809523Y-116952380D02*
X130809523Y-115952380D01*
X131809523Y-116952380D02*
X131238095Y-116952380D01*
X131523809Y-116952380D02*
X131523809Y-115952380D01*
X131428571Y-116095238D01*
X131333333Y-116190476D01*
X131238095Y-116238095D01*
%TO.C,D2*%
X138991904Y-116412380D02*
X138991904Y-115412380D01*
X139230000Y-115412380D01*
X139372857Y-115460000D01*
X139468095Y-115555238D01*
X139515714Y-115650476D01*
X139563333Y-115840952D01*
X139563333Y-115983809D01*
X139515714Y-116174285D01*
X139468095Y-116269523D01*
X139372857Y-116364761D01*
X139230000Y-116412380D01*
X138991904Y-116412380D01*
X139944285Y-115507619D02*
X139991904Y-115460000D01*
X140087142Y-115412380D01*
X140325238Y-115412380D01*
X140420476Y-115460000D01*
X140468095Y-115507619D01*
X140515714Y-115602857D01*
X140515714Y-115698095D01*
X140468095Y-115840952D01*
X139896666Y-116412380D01*
X140515714Y-116412380D01*
D11*
%TO.C,R2*%
X145580000Y-104370000D02*
X145580000Y-104040000D01*
X139040000Y-101630000D02*
X145580000Y-101630000D01*
X139040000Y-104370000D02*
X145580000Y-104370000D01*
X139040000Y-104040000D02*
X139040000Y-104370000D01*
X139040000Y-101960000D02*
X139040000Y-101630000D01*
X145580000Y-101630000D02*
X145580000Y-101960000D01*
%TO.C,R1*%
X130630000Y-110080000D02*
X130960000Y-110080000D01*
X133370000Y-103540000D02*
X133370000Y-110080000D01*
X130630000Y-103540000D02*
X130630000Y-110080000D01*
X130960000Y-103540000D02*
X130630000Y-103540000D01*
X133040000Y-103540000D02*
X133370000Y-103540000D01*
X133370000Y-110080000D02*
X133040000Y-110080000D01*
%TO.C,J1*%
X138745000Y-120305000D02*
X143885000Y-120305000D01*
X138745000Y-120305000D02*
X138745000Y-117645000D01*
X136145000Y-118975000D02*
X136145000Y-117645000D01*
X136145000Y-117645000D02*
X137475000Y-117645000D01*
X143885000Y-120305000D02*
X143885000Y-117645000D01*
X138745000Y-117645000D02*
X143885000Y-117645000D01*
%TO.C,10mH1*%
X146670000Y-114000000D02*
X146670000Y-112670000D01*
X149270000Y-115330000D02*
X149270000Y-112670000D01*
X149270000Y-115330000D02*
X151870000Y-115330000D01*
X151870000Y-115330000D02*
X151870000Y-112670000D01*
X146670000Y-112670000D02*
X148000000Y-112670000D01*
X149270000Y-112670000D02*
X151870000Y-112670000D01*
%TO.C,D1*%
X147920000Y-97000000D02*
X145800000Y-97000000D01*
X142360000Y-95580000D02*
X142360000Y-98420000D01*
X143080000Y-95580000D02*
X143080000Y-98420000D01*
X140240000Y-97000000D02*
X142360000Y-97000000D01*
X145800000Y-95580000D02*
X142360000Y-95580000D01*
X142360000Y-98420000D02*
X145800000Y-98420000D01*
X142840000Y-95580000D02*
X142840000Y-98420000D01*
X142960000Y-95580000D02*
X142960000Y-98420000D01*
X145800000Y-98420000D02*
X145800000Y-95580000D01*
%TO.C,Q1*%
X148530000Y-106150000D02*
X144930000Y-106150000D01*
X144921555Y-106172316D02*
G75*
G03*
X145950000Y-110450000I1808445J-1827684D01*
G01*
X147550000Y-110450000D02*
G75*
G03*
X148541875Y-106158259I-820000J2450000D01*
G01*
%TO.C,SW1*%
X133330000Y-98330000D02*
X132000000Y-98330000D01*
X130730000Y-95670000D02*
X128130000Y-95670000D01*
X128130000Y-95670000D02*
X128130000Y-98330000D01*
X130730000Y-98330000D02*
X128130000Y-98330000D01*
X133330000Y-97000000D02*
X133330000Y-98330000D01*
X130730000Y-95670000D02*
X130730000Y-98330000D01*
%TO.C,D2*%
X142290000Y-113545000D02*
X142290000Y-110455000D01*
X136740000Y-111999538D02*
G75*
G03*
X142290000Y-113544830I2990000J-462D01*
G01*
X142290000Y-110455170D02*
G75*
G03*
X136740000Y-112000462I-2560000J-1544830D01*
G01*
X142230000Y-112000000D02*
G75*
G03*
X142230000Y-112000000I-2500000J0D01*
G01*
%TD*%
M02*
