%TF.GenerationSoftware,KiCad,Pcbnew,(6.0.4)*%
%TF.CreationDate,2022-10-02T23:39:58+02:00*%
%TF.ProjectId,Magnet_v2,4d61676e-6574-45f7-9632-2e6b69636164,rev?*%
%TF.SameCoordinates,Original*%
%TF.FileFunction,Copper,L1,Top*%
%TF.FilePolarity,Positive*%
%FSLAX46Y46*%
G04 Gerber Fmt 4.6, Leading zero omitted, Abs format (unit mm)*
G04 Created by KiCad (PCBNEW (6.0.4)) date 2022-10-02 23:39:58*
%MOMM*%
%LPD*%
G01*
G04 APERTURE LIST*
G04 Aperture macros list*
%AMRoundRect*
0 Rectangle with rounded corners*
0 $1 Rounding radius*
0 $2 $3 $4 $5 $6 $7 $8 $9 X,Y pos of 4 corners*
0 Add a 4 corners polygon primitive as box body*
4,1,4,$2,$3,$4,$5,$6,$7,$8,$9,$2,$3,0*
0 Add four circle primitives for the rounded corners*
1,1,$1+$1,$2,$3*
1,1,$1+$1,$4,$5*
1,1,$1+$1,$6,$7*
1,1,$1+$1,$8,$9*
0 Add four rect primitives between the rounded corners*
20,1,$1+$1,$2,$3,$4,$5,0*
20,1,$1+$1,$4,$5,$6,$7,0*
20,1,$1+$1,$6,$7,$8,$9,0*
20,1,$1+$1,$8,$9,$2,$3,0*%
G04 Aperture macros list end*
%TA.AperFunction,ComponentPad*%
%ADD10C,1.600000*%
%TD*%
%TA.AperFunction,ComponentPad*%
%ADD11O,1.600000X1.600000*%
%TD*%
%TA.AperFunction,ComponentPad*%
%ADD12R,1.700000X1.700000*%
%TD*%
%TA.AperFunction,ComponentPad*%
%ADD13O,1.700000X1.700000*%
%TD*%
%TA.AperFunction,ComponentPad*%
%ADD14R,2.000000X2.000000*%
%TD*%
%TA.AperFunction,ComponentPad*%
%ADD15O,2.000000X2.000000*%
%TD*%
%TA.AperFunction,ComponentPad*%
%ADD16R,1.100000X1.800000*%
%TD*%
%TA.AperFunction,ComponentPad*%
%ADD17RoundRect,0.275000X0.275000X0.625000X-0.275000X0.625000X-0.275000X-0.625000X0.275000X-0.625000X0*%
%TD*%
%TA.AperFunction,ComponentPad*%
%ADD18R,1.800000X1.800000*%
%TD*%
%TA.AperFunction,ComponentPad*%
%ADD19C,1.800000*%
%TD*%
%TA.AperFunction,Conductor*%
%ADD20C,0.250000*%
%TD*%
G04 APERTURE END LIST*
D10*
%TO.P,R2,1*%
%TO.N,Net-(J1-Pad2)*%
X138500000Y-103000000D03*
D11*
%TO.P,R2,2*%
%TO.N,Net-(Q1-Pad2)*%
X146120000Y-103000000D03*
%TD*%
D10*
%TO.P,R1,1*%
%TO.N,Net-(J1-Pad2)*%
X132000000Y-103000000D03*
D11*
%TO.P,R1,2*%
%TO.N,Net-(D2-Pad2)*%
X132000000Y-110620000D03*
%TD*%
D12*
%TO.P,J1,1,Pin_1*%
%TO.N,VCC*%
X137475000Y-118975000D03*
D13*
%TO.P,J1,2,Pin_2*%
%TO.N,Net-(J1-Pad2)*%
X140015000Y-118975000D03*
%TO.P,J1,3,Pin_3*%
%TO.N,GNDREF*%
X142555000Y-118975000D03*
%TD*%
D12*
%TO.P,10mH1,1,1*%
%TO.N,VCC*%
X148000000Y-114000000D03*
D13*
%TO.P,10mH1,2,2*%
%TO.N,Net-(10mH1-Pad2)*%
X150540000Y-114000000D03*
%TD*%
D14*
%TO.P,D1,1,A*%
%TO.N,Net-(10mH1-Pad2)*%
X139000000Y-97000000D03*
D15*
%TO.P,D1,2,K*%
%TO.N,VCC*%
X149160000Y-97000000D03*
%TD*%
D16*
%TO.P,Q1,1,C*%
%TO.N,Net-(10mH1-Pad2)*%
X148000000Y-107600000D03*
D17*
%TO.P,Q1,2,B*%
%TO.N,Net-(Q1-Pad2)*%
X146730000Y-109670000D03*
%TO.P,Q1,3,E*%
%TO.N,GNDREF*%
X145460000Y-107600000D03*
%TD*%
D12*
%TO.P,SW1,1*%
%TO.N,Net-(J1-Pad2)*%
X132000000Y-97000000D03*
D13*
%TO.P,SW1,2*%
%TO.N,VCC*%
X129460000Y-97000000D03*
%TD*%
D18*
%TO.P,D2,1,K*%
%TO.N,GNDREF*%
X141000000Y-112000000D03*
D19*
%TO.P,D2,2,A*%
%TO.N,Net-(D2-Pad2)*%
X138460000Y-112000000D03*
%TD*%
D20*
%TO.N,Net-(Q1-Pad2)*%
X148874511Y-104374511D02*
X147500000Y-103000000D01*
X147500000Y-103000000D02*
X146120000Y-103000000D01*
%TO.N,Net-(D2-Pad2)*%
X132000000Y-112000000D02*
X132000000Y-110620000D01*
%TO.N,VCC*%
X148000000Y-115191010D02*
X143041499Y-120149511D01*
X149160000Y-93160000D02*
X149160000Y-97000000D01*
X129460000Y-112060000D02*
X136375000Y-118975000D01*
X129460000Y-97000000D02*
X129460000Y-112060000D01*
X129460000Y-97000000D02*
X133460000Y-93000000D01*
X133460000Y-93000000D02*
X149000000Y-93000000D01*
X138649511Y-120149511D02*
X137475000Y-118975000D01*
X149000000Y-93000000D02*
X149160000Y-93160000D01*
X143041499Y-120149511D02*
X138649511Y-120149511D01*
X148000000Y-114000000D02*
X148000000Y-115191010D01*
X136375000Y-118975000D02*
X137475000Y-118975000D01*
%TO.N,Net-(10mH1-Pad2)*%
X139000000Y-99000000D02*
X139000000Y-97000000D01*
X148000000Y-108000000D02*
X139000000Y-99000000D01*
X150540000Y-114000000D02*
X150540000Y-104166857D01*
X150540000Y-104166857D02*
X143373143Y-97000000D01*
X143373143Y-97000000D02*
X139000000Y-97000000D01*
%TO.N,GNDREF*%
X145000000Y-108000000D02*
X141000000Y-112000000D01*
X145460000Y-108000000D02*
X145000000Y-108000000D01*
X141000000Y-117420000D02*
X142555000Y-118975000D01*
X141000000Y-112000000D02*
X141000000Y-117420000D01*
%TO.N,Net-(Q1-Pad2)*%
X146730000Y-109270000D02*
X148429022Y-109270000D01*
X148874511Y-108824511D02*
X148874511Y-104374511D01*
X148429022Y-109270000D02*
X148874511Y-108824511D01*
%TO.N,Net-(D2-Pad2)*%
X138460000Y-112000000D02*
X132000000Y-112000000D01*
%TO.N,Net-(J1-Pad2)*%
X138500000Y-103000000D02*
X132000000Y-103000000D01*
X132000000Y-97000000D02*
X132000000Y-103000000D01*
X139684511Y-118644511D02*
X140015000Y-118975000D01*
X139684511Y-104184511D02*
X139684511Y-118644511D01*
X138500000Y-103000000D02*
X139684511Y-104184511D01*
%TD*%
M02*
